<mxfile host="app.diagrams.net" agent="Mozilla/5.0 (Windows NT 10.0; Win64; x64) AppleWebKit/537.36 (KHTML, like Gecko) Chrome/128.0.0.0 Safari/537.36 Edg/128.0.0.0" version="24.7.7">
  <diagram name="第 1 页" id="ZGZHejiINZJIl5W8aI7W">
    <mxGraphModel dx="1516" dy="963" grid="1" gridSize="10" guides="1" tooltips="1" connect="1" arrows="1" fold="1" page="1" pageScale="1" pageWidth="827" pageHeight="1169" math="0" shadow="0">
      <root>
        <mxCell id="0" />
        <mxCell id="1" parent="0" />
        <mxCell id="SBKEEydfGjW7RkQ3htFJ-2" value="" style="shape=image;verticalLabelPosition=bottom;labelBackgroundColor=default;verticalAlign=top;aspect=fixed;imageAspect=0;image=data:image/png,iVBORw0KGgoAAAANSUhEUgAABWEAAADwCAYAAABha6YHAAAAAXNSR0IArs4c6QAAAARnQU1BAACxjwv8YQUAAIvpSURBVHhe7d0J3FzT/cfxa9/3RKl9J0q1tVURqiFi3/dILaXWWooqfxQVEbUrGsROLEESsURqKYJYk9DSxNoIQew7838+57nnec6cOffOnZk788zzPN/363Vfz9x5Zu7c5Zxz7/ndc8+ZqdAiEhEREREREREREZG6mDn+KyIiIiIiIiIiIiJ1oCCsiIiIiIiIiIiISB0pCCsiIiIiIiIiIiJSRwrCioiIiIiIiIiIiNSRgrAiIiIiIiIiIiIidaQgrIiIiIiIiIiIiEgdKQgrIiIiIiIiIiIiUkczFVrEryNeTpo0Kfrwww/NaxERERERERERERFpjZ3ONNNM8VwUrbLKKtFiiy0Wz6UrCsJi2223jUaMGBHPiYiIiIiIiIiIiIiLYOyQIUOi/fbbL34nXVt3BGr5KiIiIiIiIiIiIpK/tiCs25RWRERERERERERERMIqbdCaOjCXArMiIiIiIiIiIiIitUkNwqqLAhEREREREREREZHaJAZh1QpWREREREREREREpHaJQVi1ghURERERERERERGpXWp3BCIiIiIiIiIiIiLSqtreAxSEFREREREREREREcmg2t4DZmr5YtE3L7zwwuiFF16I50RERERERERERETEN2DAgGijjTaK59KVBGFFREREREREREREJD/qjkBERERERERERESkjhSEFREREREREREREakjBWFFRERERERERERE6qgtCKuuYUVERERERERERETy1xaEnWmmmeJXIiIiIiIiIiIiIpIXdUcgIiIiIiIiIiIiUkcKwoqIiIiIiIiIiIjUkYKwIiIiIiIiIiIiInWkIKyIiIiIiIiIiIhIHSkIKyIiIiIiIiIiIlJHCsKKiIiIiIiIiIiI1JGCsCIiIiIiIiIiIiJ1pCCsiIiIiIiIiIiISB0pCCsiIiIiIiIiIiJSRwrCioiIiIiIiIiIiNSRgrAiIiIiIiIiIiIidaQgrIiIiIiIiIiIiEgdKQgrIiIiIiIiIiIiUkcKwoqIiIiIiIiIiIjUkYKwIiIiIiIiIiIiInWkIKyIiIiIiIiIiIhIHSkIKyIiIiIiIiIiIlJHCsKKiIiIiIiIiIiI1JGCsCIiIiIiIiIiIiJ1pCCsiIiIiIiIiIiISB0pCCsiIiIiIiIiIiJSRwrCioiIiIiIiIiIiNSRgrAiIiIiIiIiIiIidaQgrIiIdBrPPPNMNM8880QzzTRT0bTMMstE77zzTvypYknf6ehp4MCB8Rq2KhQK8SuR+vvss8+iTTbZpCRdMo0YMSL+lIjkJcu5aNCgQfGni9Xj/MAyf/vb37b99swzz1y0Lkxp59buat999y3ZT5SllKnSOGeffXbJcVB6FZHOQEFYERHpdrhY72j+OjTDOomISOPZ8v+ee+4JBvPqcX6YOnVq9M9//jOeaw3K6jwkIiJSXwrCiohIl+e3IsqrVVGowqpKrIiIVMKek5544olowoQJ5nW90TL3jTfeiOda5XVulGLPPvtsYitoWtaKiEj3oSCsiIhIlUIV1qyVWFV2RUTE9c0330T33XdfPFe/8wTLHT58eDwn9abzvYiIWArCiohIl2ZbmzSbZlwnERHpWPfee2/0ySefmNf1Ok+4XRHoXNQ42tciIjJTQbfmRESkk+DxyY033jj64osv4ndaLb300tG4ceOixRdfPH6n3Ycffhg9+uij0bfffhu/U5mnn346OFjKKqusEp100knRnHPOGb9TmdVXXz1abbXV4jmRxqLfya233jp6+OGH43fa3X333dE222wTz4lIHpLOXyA4Z6tks88+e/TQQw9F66+/ftVBO5aV9l3y+HbbbRfPJUs7t3ZXdB9w7bXXxnOtevfuHY0cOTKad95543eKpR37/v37R9dcc008J1kxMNcJJ5wQz7VSehWRzkBBWBER6TQqCcImVULLVU59jBS/7bbbxnPtLVlYj7RKVzUqXTeRaikIK9JYofMX5X2oKnbKKadEp556qnmd93mB5e23337R0KFD43eSKahVSkHY5qAgrIh0VuqOQEREuqSkSmutlVkqsKFKcx4UgBUR6T6SziWjR4+OPv7449wCsO7v/O9//2vrisCl84+IiEj9KQgrIiIiIk2nXjc7RJoJ3dIsvPDC8VwrRtOfOHFiboFRdzks+4033ojnWtFycIUVVojnmlMe5UE1y8jjd+ligv1LS82lllqqaFpkkUXiT1Wu2cpIldnSEeqV7joiPbu/qfzUdSkIKyIiIiJNp9oAVDNUXOq9DqqcdR30D+73//rdd99F99xzTzyXH9LN8OHD47n2PLb55ptHSyyxhHndkdLSdR7lQTXLqPZ3XWussUb04osvmuD3m2++WTT97W9/iz9VuUrWrRFlRtb1UfklVi1pwX43jzwaElpuNeub9J3Q++5vJm1X6HvVrJd0HAVhRURERKTToLJRa4WjM1ZY3HWuV6VTGm/uuec2/Y77afL++++PZsyYEc/lY+rUqUVdEfCbpKUsg3Q1i0rzrp9Xsn7ffq7S33PV8t285Vlm1LpdKr/EqiUt2O9WmqerxferWd+k71S77aHvVbss6RgKwoqIiIhIp0FlI63CkaUyUu8Ki7v8vAIx9V5naSz3eDJok98lwfPPPx9NmjQpnqtcKN0xQJTfFQHdIay11lrxXMdqRN6t9Pu1/F4l382rnGiELNuVZXv4TGfabslPHsfdLiNrPsv6uaR1q6UsKKfR+SD0e41eh+5MQVgRERER6RYqqWTw2TwqJXlU3FQ56nrcY7rccsuZLglcdEkwbNiweK5yfrrj9+688854rt1mm20W9ezZU2kso3oFYuoZ4GkUNw2lbY/9HJ/pCtstlcvjuCcto9ayrCPSZNbfzLpt5T4X+r2O2O7uSkFYEREREWk6thLBX1rvXX755dFuu+1mBrhZdNFFTYXBTrQiZNCb7bffPho0aFD08ssvR99//735vovPZq3E2GU3g2ZZD6mPOeec03RJ4HvwwQej999/P56rDV0RjB07Np5rRbqyv1vPNEZAedy4cdFRRx1lWt3++Mc/bstf8847b7T88stHe+21V3TddddFH374YfytsKz5N8nnn38ejRw5MjrooIOiVVdd1ZQdM888czTLLLNESy65ZPSb3/wmOvfcc02ZE/qtWn8/TTXL/uijj6IRI0ZEAwYMMGUj22P3LcH1n/70p9HRRx8djRkzJvrqq6/ib7WrdXsoZylvKXd32GEHUw6768BEec26UX5fccUViftWxPfxxx+b9H3ooYeatMxgduRVm7Zmm202k+a4iXXccceZdP7111/H384mLS02Ip2GfiP0Hvn3vvvuM2UXTzBQdrIP7MB/lAH8n8/xvjSxlgMsIiLSKYwfP74w99xzc2VSNLVcgBVaKpjxp/J19913l/weU+/evQuffvpp/CmRzoW0SxoOpW3SfDP4/PPPCxdeeGGhZ8+ewfUsN80111yFlkpZoaUSFy8x2cSJEwsLLrhgyTLWXnvtwocffhh/Kptvv/22sOOOO5Ysi2nWWWctPProo/Ens7vsssuCy9tpp53M70nzSzp/7bPPPub/kydPLiy22GJF/2upSBfGjBlj/l8rey5jmXb5vXr1KkyfPj2xPKj13Mp3Dz30UJPu/WWnTeuvv35h3LhxhR9++CFeUu3eeuutwn777VeYeeaZg78ZmlZdddXCgw8+WLQe/fv3L/lcluuBar+X5N///ndhhx12KFlm2sS2H3LIISXHtJr9TLlK+Uo5G/qttIk02KNHD1O+f/HFF/ESKzNw4MCS5dbzWlAah/T48MMPF9ZZZ52SY5x16tu3b2HSpEnxEpMllcvLLLNM4X//+1/8qdrccMMNJctn2mKLLTKl/0rz2pxzzlkYNGhQ0bJDZTzb/cwzz8SfkEZSS1gRERERaSpPP/10tOaaa0ZHHHFENH369Pjd8mzrD/5++eWXpnUWLWdo+dZy3Wv+F9JS4TKtbHz0yTllypR4LpsPPvjA9OcZQovAp556Kp4rz64zrQhD+vTpE80666zxnHRGNs3SmutXv/qVeW1x/O+66654rnos54477mh7bdEVQY8ePeK5/Hz77bfROeecY7bpkksuMem+EqR3WrbttNNO0VtvvRW/Wx27LrS2veqqq6Iffvgh/k95//73v80+2nfffaNPP/00fjc/aWVSElryHnnkkaYV7/Dhw+N329n0FMK2X3rppaa8Y1/QipV14DuVrMuoUaNMuUr5SjlbKX6LFt6U72ussUY0fvz4+D/S3XH+pMV07969zXWALy19u+69995o9dVXj/74xz+mplE+s9FGG8Vz7WitnUe6pFXuDTfcEM8Vo+XqXHPNFc+1Im/YvMhfrl0qzWu0hKVV8DrrrBP997//jd9t5e+/SvK95EdBWBERERFpGgSLCEZNnjw5fic7t/JiffLJJ2b09+uvvz5+p5X7GR7r8wNgoDLjV8RClRb3vVdffbVk8CPXE088YYJS7ndCywQVJoIVocAto+r/4he/SPyudC4E03mc28Xxp0sCAhOVctPF1KlTo3/+85/xXCuWHeoCoVZ0J7D77rubIEClwVfLBgrow/bnP/95STcKIaF8QMByv/32M+tCMLZadJOw1VZbRdOmTYvfyYcfECmH399yyy2jCy+8MH6nlbucLOUBx2X//fePjj/++LZjlGVdWDZdNWy99damXM0D5Tw3kx5++OH4HemuOG8SfL311lvjd0pVer4bPHhwdPDBBycGMOeYYw6TnkMofyr9PR83cUM3UVdZZZVo0003jefakQ+ZuEHCzaNtttmm6rzGTeRf/vKXRdcwtW6P5ENBWBERERFpCk8++aQJmtQSMAmhBdjhhx8ePffcc/E7pUEHght+q1IqLA888EBRMCkUrOA9W7khYBrqj9aidc+7775btJzQMq3XXnstev311+O5drRyoTVc2nelc6HCvNhii8VzrenvpZdeCrYIK8dNF88880zJjQH6FKR/1jwRgKX1qm11Wy5tJv3f5iX+chOCQAStL9P4y6IMoQ9a/+ZLtR599NFo7733riognoe3337b7AfWo1Z2/xJQPe+889rmy+G4EtDOG/3aEihjG6X7cNPdxx9/bG4MEDisFmVAqEy59tprTQtw+Gmdz9PanX6Mfdz84QZWLbiJFurnmr6n6Ss5hHUkb3KTpFaUn3vuuWfwGkI6joKwIiIiItLhaKlyxhlnmMpYCIPMEACYMGFCNGPGDFNRYSJASlCTYOmBBx5oBuoIYbk80pfUOo+A5sorrxzPtSNwmyXwQmWOZT/++OPxO2H/+9//TGA1q2effTb64osv4rl2tNylBa90HbZLAj+QUK47jTR8L/TYut8VQSh4UQmCnsccc0z00EMPxe+UBjz69u0b3X333Sa/8j9ujpCXH3vssah///5mgKwQygYCoFm78mDZBBf/8Y9/xO+U4jFgHuufOHGi6WqA73zzzTcmWH3ZZZeZY+EjoFIuGFwPbP/vf//7xMejGdiNbaFstNtCWUQA6aabbjJlWwjH/OSTT47+9a9/xe8ko1uYU045JbE7BwYGOvvss6NXXnmlbR3sPiW4ynHfeeed40+XouuHIUOGxHPSHbhlDunUbfHu/o9yYZdddolGjx5tyg7Stk1flB+k+zPPPNM8ts97PpZFecB5112u/exKK60UbJVKWcANrGqRbym7fQykxUCEdl38deZmx5/+9Kd4rhQ3YGmdT76y+4I8l1SO8nQOXR/kNcij5KDloImIiHQKLRUQDcwlkgPSrj9Ig506amAuBqyaZZZZitalpZJi/v7f//2fGajL90NgQBkGsdhzzz2LlmOnhRdeuPDyyy/HnyzGsloqKiXfqWQwrWnTphWWX375kmX4E4PK+ELb8m3CIF+VrJM0h6TzFwM2ua6//vqSzzBAFGmrGi0VdTPIDMux+Ym/DzzwQPyJ5PKgknPr4MGDS75vp80226wwZcqUsgNAffDBB8EBrOy00UYbFT766KP402H8xpNPPlmyr+22Mx122GFlB+z77rvvChdccEFhttlmK1pOaMpyPVDLwFxp+5blltsW9sk111yTuC1ZBggKpUsmBvsaMmSI2V9ZMEAaxzG0LDtQXBYamKvrYPBLBsH0jycTaYU0k8QtU0iDpEXSpL8c8j8DXCa56aabSr7DxDVBuXIrSVKZT37jeia0XLZ1lVVWKfkOE4PZ3X///W3fc7/vvmYZlLmhZbgT68Y6SuOpJayIiIiIdLhhw4aVPMbfcq0anXTSSdGpp55q+kD1tVSszF8+Z80///zR0KFDTcsZ+3+LxwKTWqHy2ZbKUTzXjpYmtDCB+zshtDh5880347l2/nrwSDH9zbrcz9jfoQVuaJAvWuwmtW6T5uenB9cGG2wQLbHEEvFcq//85z9FXWlUwu2KwKYrvyuCtPXJgkeIBw4cGM8Vo3UsLdiWW265sr/DI8Hk3YsuuqikNRffJd/QYg5JeZF8dfrpp5e0HufzLPPmm282fapSTqSZZZZZzMBR99xzT7TgggvG7zYeA+vwaLLL7se//vWvZoCtctvC52khR4voUDlKC9+0Fn/s0xtvvDGeK8aj3jxGzv7KYskllzTrQWs+Pz0wCBtPCkj3QgvvUPojjZBWSDNJ3DREGiQtXnPNNfE77cj/ad26rLfeeiXlLuhLu9ouCUaMGBHsi5Y+aMmHfvrH5Zdfbsp7H+XnI488YvpPtt9zv+++Zn/x2+wLaU4KwoqIiIhIh/r000+D/bUSaKQv11BlxeX/ny4JCKCEAgMvv/xy/KrUuuuuW9Qnp0Xlh0BEufXgcWmCtrCfZVR2P2DE45NpXRzY7yYFdVnPRRZZJDEQJc0t7bjxSK0/Wjefr6ZLAj5frisCPlPpcl18l8f+Q4+60j3IWWedldhFSAhp/9BDDy0J6tp1vPjii6P33nsvMS/yaD2B0xDWZddddy2bj1303chj8n5QuN7s9tKn7TvvvGNeW/yPfXvssceWlHFpx7Jfv37mppaPMoubYEk4ti+88EI8146bVjvuuGM8VyppXSi76D7BsseD80C1AS/pvAiO+mmFNMHNFNJKpRhEb+21147n2tEvKoP1hSy77LImwOmrtksCuj+69957S7aLQC/rF8IN4quvvjqea0fAlptP3DzLiu5WuHnjn0ukOSgIKyIiIiIdioqRG2y0FRcqRUmDV5RDH4U//vGP47l2aYN+UUFiNHYf/bKWCw4QyHD7g2UbqEjSGsW2PrPBBlp8pQWDLVrg2qCui1H0WZZdnnQuSceNNMPgcNttt52Zdz9HELbSABWfd/tZBMvcdttt47nkdcmC9SWwcdttt8XvtOPmw4knnlgSgPWDEiGs02GHHRYctZyBysiPISybEc1/CPRbSst4BurKur0sy64r+4uWpLXsq0rxW/R/ecstt8TvtFt88cVN/9ih4HbaOvI/Bj4MtaKn7KJ/zRDWI/Q/yiGCPUn4Pfd4u69ZB/td9/20QQ2l63CPuW356aZdAo6/+MUv4rkwdxmw8wsttFDUq1cv89rFudT/jsVvJ92g4UZW0veScH4PPb1A2U7AN4T+pmkJzjq463H00UebG6+VYH0XWGAB01cufdAitG3SMRSEFREREZEORcUj1JKumopHOWkVkTnmmCPaeOON47l2BCGmTJkSz7Vzf4/19ytdDO5DAMevEPI9O8iQXYa/7lQYQ49P0lL3Jz/5STwnnZE91n5atPP20Vg3TVTTIovP+y2p/a4I/HRXCdaX4F3oEXICnqFgQyj/hdaBAB2BRhtAsPhsUktXgs6hgXAIVrI+lbbItevK9wgKpwUc6+HJJ580A1b5fve735mbTNX40Y9+FGzxRyu8adOmBY8FLXH97h24WbD66qvHc8nc4x069r5a0qN0HjYtfPbZZyXdpYByqtJuQLKkr7TPcAN2lVVWKflMNV0S0B0Ag9L5ttlmm6Ll221mP9ibWbxn3+c8wI2TLNsWsv7667fd1FPeah4KwoqIiIhIh6LFC61hbeXDToyIXoksFZVyFREeP/b7TeQ7VMR87u/Rd6Mf8CJIseKKK0a//OUvzbz727Rydbs44K/7fwK/9JXno6IYauFbbruk+SQds1CXBEhrkeW/z3yoK4Ltt9++rSsCVFu5BzcKaHnqS3vkNiRpHUjrNu+4n+FmB4+u+2h9RitzHyOfu4Hnavz0pz+Nttxyy5r2V6XGjBkTv2rffsomWgjXsh6UcT76y7at8Hz8HunJnXiiYMMNN4w/URm+72vkfpXmMe+880YPPfRQSfoiIEmgP01eacb+Jk/d0FWLr9IbYNyQDZWL3FS25Zllt+Htt9+OJk6caF67uGFCf7CVssvlBlJalyHSMRSEFREREZGmRMWoWh999JFpXVIpHqMOPcpI0DRteW5/sBatauecc07TGsVnuzhwt9GtVBJQCvUHS8talulTEKPrcLskcHEjwO8f1PKPP2nLv3HAcgkk5oV+jUnH/m+T3gkk12qeeeZpC/S5+YRWm/S56HvxxReDZQZdCdTaipV9x+P3tZRJleDx/yeeeCKea99+AtO1Dsr3q1/9ygSJbr311raJoFclfU7WgvTC9rmDFtnta9T+la6Lm5uhJ2sQSl+kRztxk8pyy7VyXRK4/+PmqdvdkF3OPvvsY7oICCHIG+onnjKnGu76JPV1Lx1HQVgRERERaUpuJagSBEPPO+8807qrUvQn57dWAYNphVrZgd9z+4O1bJ92P/vZz8zI7y7bxUHSNhLU9St9tIILDTiSVjmUzik0WjctskKto0Oo1NvHfC1ag2Z5hDwr0vD06dNL0h+jmpdrxZaV7aPZzScE8PhtX2jwKPIMjxjngW5AaLnXCGwjreN8HMNa14HBjgjy77zzzm3TTjvtVJLe8hAqmwigM0ha6H/VlvnSedRyvsryXborYVCsanDOtudt97eSuiSwn7Hplnl/EEVe07XCJptsEr9Tir6ufVwzrLTSSua1u7ws3HxEADbPcl9qpyCsiIiIiDSNSisbLlqq3nXXXSYIxIjt1Qo9dkxAN2lAIFrd+gNtLbPMMm0ty2gVuMYaa5jXFtsZ6uIAtOSh5a2PZdC9gYvlKHDR9SSN1s0o2X6Lax9pItQVweabb25uMuSFIG+oW4BQS/Jq2X5c3XKB/knfe++9eK71f3Rn4gedwSBWebTKBcGMagcKrBQBn1Brvs7WH7RbNtHSb+jQodGaa65ZMmCcdB+1nK/sd93yAHSPwU2Yfffd19xQCA3OlwXlY6grlaQuCfxtoUuPUL/Uffv2TWzBTnluBydzUd707NnTvK5ln3EjiusRaR4KwoqIiIhI0yhX2bADeVDRGTRokHnUmMoNrcPmm28+8zjh888/H3+6OgQJGFTLx0A5IQye41eiaHlCizOwbizTx/IIHsGtVBKACQV86a/OfZyR79RSOZPmxXENPYr66KOPJrbItpK6IujXr188l49QyzDQZQbrn8fEsny87waimWcQHJuXXEsuuaTp1iAPLCevgG45tIQNBdv9/qD9YFRW1X6vHG5Ivfrqq6a7g1NOOSXabbfdzCBiDLBGX8S//e1vg92siJRDoJUW8PQhe9VVV0WHHHKI6fqEGyOkL1qJX3vttfGnq7fFFluUDAiIcl0SgP6q/ZtBlE8Eh5OeDkjqPoEAbKjroWqsvPLK8StpBgrCioiIiEhT4rFVRhk+6KCDzGN5M888swm00kqQUYaPP/746LrrrjMB0FAAxkVFKAsqWVTqQo/900cjwREXn580aVL0/fffx++0sv3B2kpbaDAcvmcfq3bXj24KeN9fZwYYYnl2mVm3STonHou1LZjssaalVdLNACupK4I8W6iCgFtHIP1/8skn8VwrAhlu61iL/ZdXFwIsp1Etyghk+ujX1u/bsdoyII+ygzLq+uuvj/baay+zX1gmLQkJ+HAD4S9/+Us0bNgwU54RQBPJivRC1ysE8gm0kvcIjJL+OQ8ecMAB0d///ndTFtIlSp544mSDDTaI59qFuiSw52Jw0+TGG2+M59rRHQpdEiXh2iV0Yy3PsoubUdI8FIQVERERkaZBpYaKFV0C0I8aLeGuuOKK6L///W9RhadSfDdL4IHP8Ah06FFw+m0joOAi+PrAAw/Ec61Yhu1Xzv4mjxH/6Ec/Mq+tadOmBUdEprLH+rrbS2tfWtOyvCzbIZ0ffXQScICbFuhyI6lLAj7XiK4IXB2RHkP9pXYloePLfuZGVBo3nVQqy3cp70aNGmW6fCEgxmBDBJ7UulUqkZTWCHIec8wx0fzzz2/SGIF894kRV57ljrs+BD7p0sAX6pLAXQcCqY888kg8147W4P6530XXCUnleV7Yn7puaB4KwoqIiIhIUyAoSeWHli/lBtZIq1BQebvsssuCj+5mDVLQktUfTIu+KP2BkUL9wdKVgd/qkHWxgVnXuHHj4let6G4h1B8s+8T2Dyfdx4477hi/akeXBElBL4IYPK7r4jFYbmrUS9Y8lUcQoLsEErLuU18t+6fcd2mdy6CFW2+9ddkB4lhW0vLoH/PCCy80LXule/LTBi1fzznnHNP6k0E1adleLj3aPOJ+jnPk2WefbdJoJfzfYhCt0E2rtC4JGJzTbynLjeRddtklnkvO19Xm90o04jckGwVhRURERKTD0a/qhhtuGGzFF0KFgj4af/rTn0a/+93voiFDhkQTJkyIvvzyy+ipp54yLWhDfbCVq9hZocG0QEsXtzLDer/yyivxXCv6g/UDuHRNwCPhPipubisfHqkODdJBdwZZ1126jp///Oclj8DTJQFpPISWWq+//no814p0V4/RsUmPfpokzw0cODC67bbboltvvdVMPJLu/s0yJX3Wvu/2FUt+pIVoUp+LXV0jgitjxoyJ1l133ejpp5+O30nHOhGAWm+99aLDDz/cDChHOUnfvaNHjzbBXJVnAs5/++23X3TccceZFqE2Paela/I73RLtuuuuprzh6RG6CuL8yXL882+lGACTNGrZtBrqkgAEjW+44YZ4rv3zpP/ll1/evEZSmq93XlBeay4KwoqIiIhIh2LUbAbYmjx5cvxOKVqSHnHEEdE999xjKkFU1mg1yiBcl19+ebT//vubR/7tQBZupaOaCgiPJP7qV7+K59qXwe+xvhb9uvqPEtr+YOFWJH/961+XrAsBV9svLOiegBbBLh77dSuE0n2Q7kOtughy+umOtNbIrggIevqBEvpt5IYBLXh33nlnM9ESzL7OOpX7zmqrrRb/YmveTBo0i0eIKSfyQLCIAHgj+NvCNnKDKdQndTXlG9xj5x9HF+Uy3Q6k9QFMv5cnnniiCVIxyBDL+/DDD01Lf1q97r777qZfb7p6QbXrLF0L6YQgKn0LJ6FM4QmZoUOHmkA++YBuMV577bXo5ptvNkFXWq4S9M8L52/6OrZs/gh1SQDWxX2qxX5+wIABwRbfbn7jt+iH3mfLLvez1eI6RZqHgrAiIiIi0mGoYJx//vmJLaxo8UZrU4IfF1xwgXmsevHFF49mmWWW+BNhbsWl2koMv2Vb19llUAm0LVUJgqX1Bws32EC/rnRV4CLg6laQaHHmozWk37WCdA+kH4KwftCKLiv8Lgm4OUEQzEX6rVdXBATVfHTZwXo0OsjGdhKI9dFPY6g/yWrQipPBAhuBAQhdlD9M/oBktexn97tJy+Ex8RNOOKHkxpB18MEHm+NNGX3mmWeaYNgiiywS/1ckGen5X//6VzRo0KD4nWIrrLBCdOedd5qgKzed9t13X1Pm2BucqFc5w7px45N+uX2hLgkefPDBkhsk3JiwfXr73PUmyEyfrT7KLfJfHtvolxvSsRSEFREREZEOQwX+uuuui+faUfGglQuVMCoz8Cs+IXwmy+fKYRkETRnp260EEXil4oik/mDdVnoughOhEeptIJdWLy+++KJ57XJb1kr3w8jaNg9YBMXoysJFCy1aT7nq1RUBaKEdauXlj+xfS37M+l3yB0EbH/spr0G8WFZaa/08cdNl7rnnjudaUQ4R7GwkyiOePvAtsMAC5kYAI9RzU6xSeQSWpPO76qqrzM0NH0+28FTIdtttV3YwOiuP875F+qQ1+kYbbRS/087vkoCuCEaOHBnPteOJgFALVx83j5Zbbrl4rh2DgCbd/KgE1yyhLo6k4ygIKyIiIiIdhkq+HzjCn//8Z9Pfm62sU8EKVdz9ihefyaOCzzIImtIPov8b9AtLxSvUHyxB1qSWYASKevfuHc+1Yx8QgKXVHv3auutPIIbKnHRfVOQ322yzeK4dNyhoKQXSaCO7IgDBt1Dfi2kjiFeqku+Ggs12MD32j5+PK0Vw2W/tVi9LLrmkCXK7WH8Cn7QMrAVl1+DBg01f2u506aWXmse8XQ8//LDZh76LL7442mCDDeK5ytV6LKTzmz59uklfPgbWZHCtSm88ZikrKilPaF2/xx57xHPtuF5hcESQjnmSxc5btG6lO4Osvxe6OUt3Hv4NrWrQ3VG5gfSksRSEFREREZEOE2r5Ses6uiFwKzBJlZmk92mlWutjyCx7iy22iOda8d4LL7xg+j2kpY7fLydB1rTKI/3M2i4OLAKvBGAJXlHxcgMUVM7swB68r+BF90Oao0sCv0UYLbL++9//mtdJXRH069cvnstfjx49zMB4PgKFefWdSmtfHkV2JwIefrAQtBgOtcwlOJ1ltPU05DuC3o1CS1Na4vueffbZ6J133onnqkPZRRcw//jHP4omlu1380JZ5+MRbbodqJRbdhHMJphcyzGRzo1zHgNp+bbffvuaurQgrxPghZ++Kj1/MrBWKB/edddd5tzP8keMGFFyo4JuCEIDcSbhZq9/XYD777+/5nM+T+v4XddIx1IQVkREREQ6zEsvvWT+upWlnj17mpZgtSB44A6gVS0qR26LNCpEtg9EWsS62Aa3P9gQuiqgiwMXgVcqSqER7+mXzg44wvL9SqV0bbYCToAxlG5sGiQwGeqKwG1hVWtl3sWyuNlAVxk+t6WYVc1vM9gNreEZpMud7r333mCf0NysCD3WO3bsWDOgXi1o7RZqaVwv7NvQo9A8nhzqHqAS3DwKBclpgeiidX7oKQW6fahmECS37KJLF9JEnmlSOhfOo6EbpWussUb8qpRNL2nphpsU3NwlvdWavngKgQE14aZfyjeCyPQRTXnk46ZZ6IZQEtv1kY8bP6+//no8Vx2WoXzWXBSEFREREZEOl6WSkLUiQfCAvgprYX+LvhkZGMvF/2666aaSVmJ8NtRqxkULt9Cjh7feemv0xBNPxHOtqPT5LYKl63PTuT32SV0S3H333Sa90zLLxff8rgh4L2seKseu11ZbbRUMyP3tb38ruglSTRoeNmxYSbCQ5SQNdkPLXFrR+eiy4bzzzmvruqEcfx8xP2TIENO6vpEI5IT2LWVbqAVhFuyDa665Jp5rR7cna6+9djxXzD921RxLd58SvLrhhhviOZFkfl60aS8tDd5yyy2m3KilrLPf5Xd22GEH89ddHst/8sknTbDXfdSfz9FSnHKxEpRdofKd37nyyiur3haerrn66qvjOWkWCsKKiIiISIcJtXjlcdnQI7dpFS+Lygp9G/ot8Splf8tvkWbfp2JjW/FaPJpNZSoNjxyG+nil4uj325Y2yJd0XaF0znsEGP3/jRs3zvSr6LfKnm222YKBgNCya8FNh759+8Zz7Z5++mnT7+gPP/wQv1MqLbBAq/CBAwfGc+1ome632HSxzXPMMUc8146bHARi7W+m/ba7j/jcHXfcEV100UXm/dD+y3ufWkn7lnLn9NNPD3bJUA5dDhC499H6cMUVV4znWlH2UZ75+4qWebQArITdRwSBzzjjjLZuNKx67UNpXtwgCrVod8+rfrpIy7eg3KA/2STlvm+5v8vTLaEnXMhHTG4+ZPmU08suu2z8TvbfpP9Z+pL1XXLJJaY8rRTdfZx66qnBPp2Rdb0kfwrCioiIiEiHoBJAoNFHpeGBBx4wr5MqCqH3qQxdcMEF0Z/+9KeyFYxKKiB9+vRpG6ncfi/0ffp7TesP1qLFmV2ereyFlkdXBP7gPNJ90b2AH5SnS4JTTjmlaLRu0H2BHaiqkrReKW4qHHLIIcHgAUFUAiJJwcJQ4I115RH4vffeO9jydMCAAaY1eRKCtLRcCznxxBNN61p+Iy3fuQh+HHDAASaYzGdDn3eXlyf27X777RccHZ6Bsc4999yy6+8irVA22qCMu87sb3+/8vu07vfRvyStAJG0P0L43eOPPz664oor4nfaVbId0jXQ72soL48ePdq07g/x862bbsirO++8c2qL9WryKcHi0A0tbuxwc8bF8mnB7v5O2m+660/ZteOOO8Zz7dge8ufkyZPjd8qjv9qTTz45GjlyZPxOqaz7gi4jdt99d3Ot5k/coHZb5SsfZ6MgrIiIiIi0oa8+fyCcvCYqV+7I3lQCaNVmA5IW7xPAYVAeXocu7P0KxNtvv236izzqqKNSW9/RcpDWWFkrIKCvyVAXAi6WRyUqi2WWWaaopUwSKnOhlkLSPSU9ssojpz5aUNoARyVpvRrcLCBYGPLnP//Z5EvyZxb030rFPjQqOO+HRit3ETg89thjS8oUEAwmmHDEEUdEn3zyiXkvad/w2RtvvNF0fZClG4J6BR8YAKt///7xXDECmgTA7bakIbBN9xQM3ma32a4zwXr63g0JtdrneyeccIJpzcqy/G0P7VNaN7IttEZOw6Bu9dqX0lyWWmqp6Cc/+Uk8145W/QQ3k27ewKYx/nJNMWjQIHMTlK4ukpAGqx3UjgE6ebrA4ncJdH799ddF6Z2BvDbYYIN4rjz3u5zrTzrppOCgZJSH66+/vrk5XS5/cLNlzz33NF3C5IHfoy9q9i3lOH/txA0Z9zi52yMpWnaqiIhIpzB+/PhCS8WKq4+iaemlly5MnTo1/lS+7r777pLfY+rdu3fh008/jT8l0rmQdknDobRdzymUV7/44otCSwUn+PmWSk/hqKOOKrz++uuFH374If5Gu5bKV2H06NGFvn37Br+fNB144IGFV155xazLjBkz4qWlO/zww0uW01LhaPu7xBJLFFoqJfGn07EtAwYMKFmeOy288MKFl19+Of6GdHZJ56/+/fvHn8impRLelu6Sptlnn73w+OOPx98oL6k8qOTc+tprrxVWWmmlkmXYaeaZZy7suuuuJr++++67he+++85875tvvim88cYbhSFDhhTWWmutku/ZbV1wwQULTz75pPlOOeSvs88+u2RZ7jTXXHMVjjzyyMKECRPazuWs09tvv1247LLLCiussELwe5RVPXv2LHovy/UAx9n9TrnvueUd5V/avg1tC99///33TXrZe++9g99j4rjcdttt5jsh06ZNK6y66qrB784333xmP/OZkI8//rgwbNiwwjrrrBP8fmhifU499VSzzaS9pP0zcODAku/W81pQ6uOiiy4qOY526tOnT+Ff//qXKSN85NWXXnrJpHvSv//dpDKSMuaRRx4x6eS9995rK4fKIR36ZWToN9ieWg0ePLhkue5EfrruuuvM9YZdf9aP/M91CtdN/ncoe9dbb72i9zgfcV4qh2VvvPHGRd+1k/JcdRSEFRGRTkNBWJF8hCoUjZjIq++88068Fu2oFIUqDv60+OKLF5ZaaimznHnmmSf4GTsdfPDBhYMOOqht3q0wua/TgmBuIITgkf1OaOrXr58JCmd1/fXXB5djJ4I9BKila8grCDt9+vRCr169SpbjTlS2P/roo/gb7dz07EoqDyo9tz7//PMmf/rLqXUiv6YFCkMI3HCzJbS8aqfNNtvM3Bhhv7jvZ7keqDQI6yMATSDaX4adkoJO5SaCqEnpwiLgE/quOxE85UYUx5+pXHl+xhlnFLbccsvg/9zprLPOiteimIKwXQM3CrIE6RdaaKG2tNWjR4/gZ+y0+uqrF6644oqyeaLS9JIWMGYif06cODH+dPXyLrtYFvvZL+OzBmE/++yzxOtF5bnqqDsCEREREWmYlgp//KrdhhtuaAZrKYdHCe0jcPRTFkL/ifRDeeGFF0YtlY+Svlzhvk7TUomLX7UOXEM3Arznvm9l7Q/W4hHg+eabL54rxWPQc801Vzwn0iqpSwKX2xWBK5Ru88TAdPfdd58ZUMpX7W/zCDCD1vl9JZbLw3yPR9/pQ7Ya/vqSH+lPdv7554/faeyjt3R1wqPISy21VPxOsXL7w11X+/qYY44x3beU247ddtvNlKVpKNenTp3a9pgyXb6EUB7fdNNNpn9e+tot99uN3MfSeAsvvLDp33jBBReM3wmbMWNGW9pi4M4k2267bTRmzBjTbcnGG28cv5sPutNIW0/K3VVWWSWeqx5lF33bH3TQQfE71WMZLCs0WCHXK/PMM088J42kIKyIiIhIN9fIim7ot3iPgMD5559f07qssMIKps/X4447zlRkGJzoL3/5S/zfYpX+zo9+9CMzoBbBDj/gwbKy9gdrEdB1K2zu+rDueVcgpeug/86kvoIZIIv+CzsKA4cxaFN/rx/TrDc+XPQXPXHiRNOnrJ9fs+RfAgxDhgwxQQjyVCXc9SWQywA3BIzc361mm2pB+UM/2UkDj1mhfeOuKzd3CISec845mfaLDQoRsHX5v1Nuf9B38KRJk0y/vHyXgFlaoCnLMZbOjWPMufP+++9vu8FQzXG3afSOO+4wg1nOO++80eDBg81Nq1q4aXrFFVdM7O+Vdd53331Nn9R5IEB6ySWXVFV2we4PlpF0M5d9lDbIoRXK1+4xanQ52BUoCCsiIiLSzfgXzfW8iM5aoSKodOSRR5qgCwNQVILKEa3l/vOf/5jAjUWr2KOPPjoaMWJE1LNnz/jdVnabs1ZwWL8+ffrEc8UYQTzU+i8NIy4TlLDcY8Ao+JUuT7oH0gmtqLnBAD9/8X65QeTyFCo7aC06dOjQ6IUXXoi23HLL+N3s2L4777zT3FBZeeWV43erQxnAQFwMTMUgVsxb5com8uCDDz4YXXXVVcGBvqysZVylQvt2ySWXNKOys15uWecKfQ9sAzeoeKLABkKzIpBz7rnnmoHTbNnk/k7aslhPBlti0C13QEICVrSCZBAmGyhyl8Py3fI5abuk8yONEKA//PDDi9JAuTRKuiFN0zqWfO7enOKmxdNPP20G9Ash/bnlgY/05v4+gdFtttkmnivGDVVbJlcqlK75XbaFbZoyZYq5EVWOXVeuU55//vmi/fHVV19F06dPN6+tctvvSst75Y6RlJqpZYeqNBMRERGRpsIovARWR48eHb344otFFQgCqmuuuaapmNDqj1aloDLgV5zAe4zg++9//9tMoIUMwc5yj0GKSG0Yvf/hhx82rUn5y+jdNj8TCFh66aVNwIS8vNVWW5lW53kIlQUEI1gHWsw99NBDZj141BmUK0sssUTUr1+/aO+99zYBYBvECC2rGbz33numC4i77roreuqpp8y+tV21sD3cIPr1r39tuhT4+c9/XlWrOh9dD0yePDm6/vrrzW+/8sorbfsQiy++uGkxuP3225uA0KKLLlp23zHKPEF7upphX5MmCMbTWk+6ly+++CIaNWpUNHz48OiJJ54wN1BAuqB1O0+8bL311qZFOF2gpKVpvgNuPIwfP96kMx7NJy+QTt2gbbP74IMPzM0pbiqzLdOmTTPXNeSv5ZZbzlwPkc+5UeNj+7m5Tf6yevfubcpk5bHGUxBWREREREREckdVsxmDlyGdaV1Fuirlw/w988wzposjAtzWnnvuaW6kaF83nrojEBEREZFORW0IRDqHjq7gV1JWKBiRD5XPUovumg9D+SavvMQTQG4AFnagUWk8BWFFREREpFNJqzjUsyIjIpXryPxHWdEd8n8zbaNfPlezbiqzpauzadz+DV3X5BEkZfljxoyJ59rR3YdLea5xFIQVERERkS6jXhUZEckuVKHvqEo++T/Lb3fmIEQzl3GhdSu3r7MeMxF0xrRi8wV/P/vss2iTTTYxr91p5513jr777jvzuWq9/vrrJUFYBulbbbXV4rlW/J40hoKwIiIiIiIikhu3Qm9fhyr5jQqe2N9O+z0FIfJV677W8ZA0bvrq7GmFwbFWXHHFeK4dA5O99dZb8VwrP1+VK0OHDRtmBjp19erVywzmJR1DQVgRERERERFpuEYHT7prYK9coKYe0vZ1tevTEdshzamr5eV11lknftVu6tSp0ahRo+K5Vv52p+2HSZMmRYMHD47n2m211VbRQgstFM+1U/5qDAVhRURERKRLS6tYqNIhIp1JNWVWIwJWlaxXtevT1QJvUrmucs72t2OLLbaIllhiiXiu3cknnxw99dRT8VxYaJ/Q+nXAgAHR+++/H7/TasEFFzTdHIQofzWGgrAiIiIi0qWlVSxU6RCRzqRZyyyVpdIIXSWd+dux7LLLRjvttFM81+7jjz+ONt1002j48OHR999/H79bzF0WAdmxY8dGG2ywQTR+/Pj43XZ77bVXyaBc0lgztRykrnErQUREREREREREpJN54403oj59+kSvvvpq/E4xgqdHHXVUtPnmm0eLLbZYNNtss5n3v/322+idd96JHnjggeiiiy6KXnjhBfO+RZCWsN9KK61kPrPMMsvE/5GOoCCsiIiIiIiIiIhIByE09/TTT5sgKy1g80Q3BLfddlu02Wabxe9IR1F3BCIiIiIiIiIiIh2EFqvrrrtuNGbMmGiFFVaI3y1WTXcMPXr0iG6//XYFYJuEgrAiIiIiIiIiIiIdbO21146effbZ6Nhjj23rcsCq9EH2XXbZJXruueeiX//61/E7yfSQfGOoOwIREREREREREZEm8vnnn5tBuejrlYG2fvjhh/g/yeg7tn///tE+++wTLb744vG70iwUhBUREREREREREWlShO4+/PDDaMaMGdHEiROj7777zrw/66yzRr169TL9vi6yyCLRLLPMYt6X5qQgrIiIiIiIiIiISAchNFdNn6+uPJYh9aUgrIiIiIiIiIiIiEgdaWAuERERERERERERkTpSEFZERERERERERESkjhSEFREREREREREREakjBWFFRERERERERERE6khBWBEREREREREREZE6UhBWREREREREREREpI4UhBURERERERERERGpIwVhRUREREREREREROpIQVgRERERERERERGROlIQVkRERERERERERKSOFIQVERERERERERERqSMFYUVERERERERERETqSEFYERERERERERERkTpSEFZERERERERERESkjhSEFREREREREREREakjBWFFRERERERERERE6khBWBEREREREREREZE6UhBWREREREREREREpI4UhBURERERERERERGpIwVhRUREREREREREROpopkKL+HXEy/Hjx0fTpk2L3xERERERERERERER31prrRUttdRS8Vy6oiAstt1222jEiBHxnIiIiIiIiIiIiIhgpplmMg1ZceWVV0b77befeV2OuiMQERERERERERERycBrz5pZSUvY7bbbLho1alQ8JyIiIiIiIiIiIiIglGpbw9ISdsCAAfF/0pUEYUVEREREREREREQkP+qOQERERERERERERKSOgkFYNY4VERERERERERERyUcwCEu/BiIiIiIiIiIiIiLdXR4NVtUdgYiIiIiIiIiIiEiCPBqsJgZh1SWBiIiIiIiIiIiISO1KgrA2+KouCURERERERERERETaVdtwdaaWL6rJq4iIiIiIiIiIiEidqE9YERERERERERERkTpSEFZERERERERERESkjhSEFREREREREREREakjBWFFRERERERERERE6khBWBEREREREREREZE6UhBWREREREREREREpI4UhBURERERERERERGpIwVhRUREREREREREROpIQVgRERERERERERGROlIQVkRERERERERERKSOFIQVERERERERERERqSMFYUVERERERERERETqSEFYERERERERERERkTpSEFZERERERERERESkjhSEFREREREREREREakjBWGlWygUCvGr4tfdSXfdbhERERERERGRjqYgrHQ5oWDjTDPNFL8qfl0vzRjwbMR2i4iIiIiIiIhIKQVhpctphmBj0jqoNaqIiIiIiIiISPejIKxIAzUyOOsvUwFgEREREREREZGOoSBsF9Ydg27NuM1Z1imv1rvub/nLbIYWwiIiIiIiIiIi3ZGCsF1Yd3wkvqMDjaF928h1sr/VlY+xiIiIiIiIiEhnM1NB0ZpOjcOnFo7N5YMPPogef/zx6N57740ee+yxaOrUqdH06dPj/7b68Y9/HC266KLRpptuGvXp0yfaYIMNogUWWCD+b22UJkREREREREREmotawnZyfrDNxtSPOOII8z+mZZdd1gQC0dVj7nb73nnnnWiZZZaJZp555rb9wDT33HNHzz77rPlMnr744oto6NCh0QorrBD16NEj2nbbbaNLL700euGFF0oCsOB4PP/889F5550X9evXL1pwwQWjddddNxo1alT0/fffx5+qjN12thNnn3120bbbad999zX/FxERERERERGRxlAQtoshyDZjxoxo3Lhx8TtR9Mtf/tK0ugT/78r87fODzvw/z0D0l19+GZ1zzjkm8Prb3/42mjJlSvyfsLT9//TTT0dbb711tPLKK0djx46teD27+rGV5pZnvuqK6rF/si5Tx6ZrSjuuOuYi0plUWmbx+e5ezjXL9ut8I3lKS0/NkNaU3rNjXzX78ewoCsJ2QZMmTYqee+65eC4ygb1ZZ501npNauIXF+PHjozXWWCM67rjjTDA2C7+wCQVOCeRuttlm0WGHHRZ9/vnn8bsiYZWe3L799luTdk855ZRo/fXXj5ZccslolllmMWmRluMLL7ywadG91157Rddff3307rvvxt9MV6+bAHfffbdZtp06W0tuewz8/cP73Lhxt23EiBHxf7Pxl5nE/9zHH39sfuuggw6KVl11VXPM7TrMO++8VR1/aby04x865r/5zW/ajjPTJpts0naOSStHamWX7f/G7bff3lb22KnSPNBI33zzTfTMM88Ey04mW3buueeeJu+899578TfrhydnXn75ZXMzmOPLOrlPANH1EevKOlPuU/6L1IJ86z9llke+ZTkuzj3kI85F5Cv3PMXvL7XUUqaRCWmbRgydKW2zrtTVWHeu95deeulo9tlnb9s+/zqMbs7gl6H+PktTroz39zfXAnZ9KEfWWmut6NBDDzVdrX311Vfxt1pVsh7SdZHGXn/99ejyyy+Ptt9+e5Ou55tvvrZ0RBrnKVXOVYMGDTLnLs5hlaTratJaLWk7pJp1qCd7HUB5wr51yxP+2rLktttuq3tcwS3bWBeO9xxzzNG2vxdZZBGzPnvvvbc5Jh9++GH8zW6oJeFLF3PiiSdSmplpscUWK0yePDn+T/cxderUQksh1LYf7DT33HMXWioi8aeq88MPPxQuuuiiQstFYMny855aLs4KLZXn+JcrM3DgwOAy+/fvH39CuirSqO+tt94q7L///lWl2169ehXuvPPOwnfffRcvrTHYjpYLo6J16Srpd9q0aYVVV121aNvuvvvu+L+VCx1zF/9/4YUXCn379i36zSzTOuusUxg5cmTDj7/UxqYJ/v71r38tOa69e/cufPbZZ22faaTXXnutsPzyy7etS8vFuflbSx6oF8rO/fbbr6qyc/XVV69L2clxO//88ws9e/YM/m7SNOeccxaOPvrowjvvvBMvSSQ7P9/aqdp865c75JNbbrml0FJJL/mNctNss81mrhe4/m9WrBv5b6655gpuQ9rEefjBBx9MLEuqKcNZ1tixY82yQ7+ZNFEWUiZOmTIlXpJ0Z1988UXhwgsvrPh8xLTAAgsUTj/99KrruklI2+SXWtJ2o6+LKvX555+X3e/22spOdvvefvvteCn5aLayrTNQELaL+eijjwrrrrtuW8LecccdC99++2383+6jXkHYb775pnDKKae0Lc8v3Nxp0UUXLey6666FSy65pHDrrbe2TSeffLJ5n/+HvudPBGJnzJgRr0F2CsJ2fVlOTKTZQYMGmQpKKD1UMnGinDRpUrzk+gsFKrtK+r3nnnvayo9QACrPiw4ubtlv7n6sZuL4/+c//4mXKs0mKc3cddddwQAiQdhPP/00/lTj8Jt9+vQpWR+mRgZhy+UxW3bOOuuswXWtZMqr7GSd77vvvkKPHj2Cv5N1YpvOOeecbnl9KNUh8F/PfMu5Ze211w4uv5KJa52zzz678OWXX8ZL7nh5liXU8cqVJWllG/9jYn9nCVCl1XOYTjvtNBOEK1eeStf00EMPVXXTxJ/mn3/+wk033ZQYiKtEXmWJTdvNhrxG0LKW/U45ecEFF9S8v906ZlJZUa4MsVOj65gdTUHYLubxxx8vzD777G0J+rLLLov/073kFYR1Lyp4zYWdv0x3ohA66qijTMuZLAgysUxOPqHl2enII480v1/JRY6CsN1DWprgLunee+8dTAfVTJxISeO33357/Av1xQWZ//tdIf0S+Nh9992Lto2JimwleTyLl156qSSQXc1kL6KyHP+8t0HSpe3v119/vbDSSiuVHE+mTTbZpOFBWNY16TxKGmtkEDYNAac8y06mWstOKju0GAotu9qJlvHcvBdJQp5Ny7dMtebbBx54wLSICy272qkZ0jb7jXXYeeedg+tY7URZcu211wbL/tB7Lv4/bNgws4zQsquZVI50P6Sjq6++uqonRNKmgw8+2JzryqVjl/0sf2nslJS2swYD3anZ0jb75owzzqhqW0LTMcccY5aZJulY5FW2udvCsbvmmmtKfrOS9NBZKAjbxbiBt0UWWcRUwLujerSEve2224pONn4BuMcee5jf9WUpOMq1VON3ac1UCQVhuw/SmJ/OOKkeeOCBwTRgp9BJPMt7zJMf6ongEC313N9l6grp95lnnjFlkb9teQagSA9vvPFGYgCulonyqN7HX2pHGbDLLrsEjyFTR7SEfeSRR4puFPtTMwRhv/7667JlZ5bJlptu+Vlt3iE/l7sJXO3E0zZ+JTPLdYt0D6SFeubbJ598srDggguafOJfa9gp6f1yUyhtN1KW67ByU9K2U5bQNVpaXvX/x7wbOKtmvyZ9p6P3tTSWXyfOczrggAPKBgZ9ftrOc2qWtM025nkdYPMyy0wrR3x8No+yLWmyZVtXpyBsF+IHLbbYYoumbEbfCHkHYZ999tnEu/QUFkOGDGlr0l9JQebi+6F+++xEM/33338//nR5CsJ2X6TBv//978HjbyfS03XXXWdayrmP7X3wwQemVQrpJO1iZvHFFy+8+uqr8bdKVZsPwHfdCw33or+zp18u5Ligs9vjTnkGoNJ+h4ljy77kWFOu2OPFeWTChAmm9X1a3048Dj1x4kTzHWlOgwcPLjpmfuW50UFYnhDxW2X769QMQdhKys6vvvrKfIf8Qz7yy85QwIKy87///a/5XlZJFV67fB5LvPTSSwuvvPJKW3nONQXXQrR6K/fY8RFHHFFTmS1dVyjf+lO1+fa9994z/SaHlsnEOegPf/iDCdS617+kcdI63X2VeyT3pJNOir/VWP51TGiinsJn2BZbFtt8S8OLcn24UyYk3dQJ5Wc+GyqT7MRTeccdd5y5BrD9hbM+pAHKvHLliH1qT7o2rv3SusShj1Ke2iAdud3p2etL/leuH1PSWyUqSdtuXqskbXe0coFvWqWOHj26bZ+71wBrrbVW2+f8/cQyK2noFSrbWKa73LSyjfOFW7aFjlta2dZVKAjbhVCwcDfZJuDucBchSZ5BWAqPpH6wKCRuvvnmii460j7LY8ppd5Z4PDsrBWG7rzfffDOxYrLUUkuZvoTcdJiUJrk42XbbbYPLYWIQjErSflZDhw5NvNDYZ5994k91PmmPOHMRUksAyj8OZ511VvB3mDimHNtyuIlHR/vud92LJS74uBtejzQg5aXtd9u6zD12/tTIIKzbaiJ0wW2njgjCuvuRfLHiiisG13HJJZcsKTuTlCs7DzvssPiT5dl1Ci2Ha5obbrjBVG7Kefrpp035H1oOrRxp7Sjiytraqdp8m3SdyvT73/8+02A9pH3ygH26xM+7lIPUjxotLVDFI7dXXnllpnxL/k+7ocrTLtwQSmLLKz4TGlSNiestjkW5hjssK60vSpZz//33x5+WzizpPEeaZZDfpOPPtWeWBmB8hs8mXetz44cu+9LYdUwaMJDJXyd3u3jtzqelbcqVjkzb9JXKE86hdSPA6vel6h8/5okhhBpXsG30NZ21oVfWss1fB1+5so3rnrSyrbNTELYG5RJXo1188cVtCbfaFp9dRTVB2KTjyR0yfzl24qIl73RAIZh0R66S1s0KwnZf3IAJHftyF+sh9CsbuuDipL3wwgvn1uUJ+YhlpQUumDpj+qUiO3z48LItdvIKQIUGNLMVU45l1jIEHJeksoTAzRNPPBF/UjqaPRelnUPcqZFB2LTzqDt1RBDWlWfZST5LqqxSdr788svxJ9uFrieS1omncx577LH4U9mwDUldlNBPtQbqElde+TaUrkPnKSbOVbSgysoum7yQdOPJv+kRWp88sXxuUofWhXWkxXwluIZwBwX2J1r7pm0T/6MlX+i71ItGjhwZfzIbzjFJjVM233xzc90onVtSevIbfNmJYGelLRf5DRoyJQViL7/88viTrULrxHu0lg99n4BjpWmbpwFJw6HlddQTxuT/pL5XadhhW61nQdljj5+tF9gpS+tj9nda2TZmzJj4k9nUWrZ1ZgrC1lEjEw2P5vTr168t0XZEX2/NJK+WsO+++27io1Jbb7113QpjBu/wC0cmgh4MvpaFgrDdE4+hr7feeiXHnYucageFSWtZW+3gf5RPdGdAq9c999wzsfLkT82efin3qaDQEpGK5Kabbpp4gelPtQSg3PMNjxWFls9dZY5lpSjnttpqq+AyK2nRJ/WXteUaU6OuE7K0yrVTRwZh/bLTPQfXUnb6rVjtcrOUnRwfjpP7fTtxji8ndB1Ka55QmbTQQgsFA8PSPfn5NnRNaqdq8q0/8KadaimX7COy/rr26tWrMH369PhT+QrlMVrmLbHEEkXrYCfWsZr6YVrZzm9NmTIl/mSppMAZ+4kgWDWSbvaxTB6Jlq4pKWDGDccsLbt93PhLullJXMPtLi2EVpmcu/zvkg5vueWW+FOl0vJgs6Vtztl+mca00UYbZeqr1t1WXtty0p/cIHPS/qGcSSrbqm2YVkvZ1pnN3LKBkoOWfRm/ateSYeJX9ddywo/GjRsXz0XRlltuGc0777zxnFRr7Nix0aRJk+K5di0XM1FLYRPNOeec8Tv52myzzaJ11103nmvXUlBFI0eOjOdESrVUoqPnnnsunmvXp08fUy5UY6mllor23nvveK7YI488Eiz/fPYzl1xyiSkb55tvvmillVaKBgwYEN14441Ry4WE+T/csrOR5WgtPv/882i77baLZp555qhHjx7ReuutFx1//PHRP//5z6jloiT+VP24+2nMmDHxq2JHHnmkOZaVmmuuuaLDDz88eCyef/75qKXCHM9JR7v77rujK6+8Mp6rryz5/uOPP45OPPHEovyNZszXL730UlHZabevpWJSU9m51157xXOt7HKzlJ1vv/12NGHChHiu3aqrrmrKznJC+3nDDTc05wMXn5sxY4bZByI23/LXypLfk/jf/e6776K77rornmtHOjzhhBOieeaZJ36nMrvsskvUUmkv+T3qSEz14Ocxfvuxxx6L/ve//8XvtFt77bWjAw44oKryb7bZZouOO+64aPHFF4/facdvPfnkk/FcK3cf3HbbbSVlMHbeeedohx12iOdaZT3OiyyySHTuuedGs88+e/xOK75/zTXXmGMsXQfHlfLg3nvvjd9pR534D3/4QzTLLLPE72Q366yzRvvvv39JOsILL7wQvf/++/Fc2K233mrOXb5Q2naF8qBN+82Utvmtq666qiRfsm5nnnlmtMACC8TvJHO3ldf77ruvuYbw98Hjjz8evfLKK+Z1UhnFZ0Jl2zrrrFNT2UZ9abHFFovfaRcq27oKBWFzUk2iy9Ozzz4bffjhh+Y1GXPjjTcuybB5qMcym9VXX30VDR06NJ4rRgHWq1evxONe636iUE06eXBx99lnn8VzIsXpjYsWgvW+TTfd1ATTqvWb3/zGXCz5OEESgCzH5pUsadfdns5S5rCeboW1I7AOHItQIIVjT2AY1ezTn/zkJ9HSSy8dz7WjYtvR2y2tuGF48MEHlwT9DzvsMBOYyPs6pdzySGennHJK9OCDD8bvtOLmCxfrzcDNCy+++GLTlZ3kL3tt5/r5z38eLbroovFcOj+/sy1sk8t+5t///rf5K92Xm2/dtEO+PfDAA+O57FgGZYW7LAKC5De45QjnmDXWWKPqsoqbHr/85S/juXZffvllNG3atHiufuw2Jt0I7d+/f7TwwgvHc5VbccUVE4+B/5t2H3LN9dBDD5nXsO9TJv3+978vCTRVsu/Z1zvuuGM81+7RRx+N3nrrrXhOugLSxdSpU6NXX301fqfdT3/602jZZZeN5ypHQHDNNdeM59oRXE3Lt5w/H3744ZI0a9M2wb1KuMupNG275VueOCeHAt/77LNPsKzLgmsHts1fZxpUTJw4MZ4rxecfeOCBeK54f1G2Ebyu1gorrBAddNBB8VyxpPK0s+tWQdh6ZZCO9v3330fDhw+P5yJTkFGgVYv9xJ2QQYMGmcoDF0WcpMlstPKiMrfWWmtFxx57bDR69OhMAZjOiBYxtGLzccev3N2etP/5ktLlr371q2DFjQJSFzfictNbqOU26Yj0VAsusH70ox/Fc+1oqaWbAh3HLT9IB8yH7tJT8bMtaKopn7gxFLrI5iL53XffjeekoxDUoKWz32qEczitmGmhknSuqZc77rgjuuiii+K5VlxDDB482FxwNxvKTj9vuGVntfsvqezkPF7u+impxU3aTWBf6HN8P+Q///lP/Eq6q7zzrU1/bjqcPn16W3DFzVe0FA3llazIrz/72c/iuWKh4FHe2EbKYr/1Ou9zDqY8rhWt2N26gd2vbF/oWoxyxl0fu7+pxzGlKVfmsR577LFHPNeOG0yhFvyNPgdJvjiubqtTm/Y4R1b79C1pYqGFFopWXnnl+J12X3zxhSkrkrz55pum4YmfrkjXBIZrUUna5vfd8i1Po0aNamvFbn+DmAyth91yoBIshyf32OfcuHKnKVOmxJ8qxXq4dUy73ynbeIK3Vkk3rP/73/8WlW1dpRzp8kHYiy++2CQ2Ji4imHj95z//Of5EdiRMKrF2ee5EM+xQc/i0hEJLy6222iq4vBtuuCH+VHlvvPGGaR1pbb755qZAYzmV4E4xTd65AFpllVVM03DuhHMC//bbb+NPReZOGIUeTfX79etnCl7uqNiL966SOe67775gqxgKmlqC3L6k48RvhE5KH3zwQfT666/HcyLtqLCTP308Hv/jH/84nqsOQZzQo0aUDeT5rPm+0nJJ0mXZn3wm6fiVo+PVOfz9738vaXHKo128T9cfjcY56o9//GNJq1wecd5mm23iuY5n07ctO/1yzC07q80LSXmP36y2q5JqK18iaci3PPKed7718xU3iz755JN4rh11j1rTdtJ5zq3H1BN1QW5Ou9j+5Zdf3pTJWa+VklAeUS5ZdnnsU+qVPhs488svbsRQV0yTpczjKRn3MWL7Hdt6jfWz61htGSrNgRvubvq1r5Nu6mVh00Q1+Za0bQOULtanlhbnlp+2Lbc1KOqVrsnPdFtk2f3NjaZa9jno8pC4DYFsdzr55JPN/93jbIXKNiy33HLB/ZQmtHy/bLMIxBOjsrpKOdLlg7A01Z577rnjufaDXs0j3STWpGbxNiH70hIKwTS/1Rqfp+DgUbOsnnrqqbb14uKlmr7LyOQ8AsSdlbS7Ti5322iJS9CQFjddoX9AWqf861//Mq/ZTndb6SagERUgCiLSB2nWn6rtn066tq+//jrYfxJ3TUPlYB54rKWSvpEPOeQQE+zwJy6m3Hkev3HXuRm5+5E+7G6//faibfCnd955x/w96aST4m81BuvJI83vvfde/E7luBgMnRvmn3/+shU5qR+OLf3A+mmKG870v8zjq43G+fN3v/tdSR+M3MDkCZpmRPpOKjtr6YogTaVlp6vWVn2URSFLLrlk/Eq6G+pE5Fu/JZTNt2n1mXL87xI4CbXy5nxSL41K22xbqB5EowqepKtlP4LyyO9CABy/UMCKYDfnCf+6LymI438OoffA+5z/3X1rPzt58mRTrvp1KOm8QgE45JFvQ2mEunZaMNWmbZ+btpPSbhZ+2rYoI0M3PPJGfYHuJn2UybYv2Fq2L41/PPgdgrBJN88qrQeEjnda2Zb0VFBn1uWDsNx5XG211cxr94DTlLzSR7ptUC6EEy7LrCQz0G+fH7jl+wRDaRKeBYnyzjvvjOdaT/KVtNLk92gtTP9gnDArEdpWlkXh0NlbanK3L6nJfSUBcpFGmmOOOaJTTz3VdFRvJwZkuOyyy4o6b6/mgpgAXqi1f8+ePc2JM+syaTnPEwX+xB1Qdz50N7TZuNvMa/pDcrfBn7hTzN96DprIskOBNy5i0vp6KocnLkIDm3CBqiBsx+C8xDUEARK/5RrBlG233TaeaxzWieCv31KE4MM555xjyqFqyp96Ixjql51MlJ2se+h6JyuuJ2zZ6W47QdhyAV66gwq1ZOZpJL88zrqOfM4dyNVVa+sa6ZxIE5deeqnJt24adfNtnn7xi1+U5DWmPMqspBsUtXRzUAluKPMYtW/11Veva9nHuT/UQKTSGzahdUxab96n383QQGr0Zan+4rsGe24hf4byba31Ym7ckm98BHfT+hnNkrZryXNu2naX06i0HWr8x3rYPt05LrVsXyX4HYLCtmxzf5cWw/VE2eb275v1WqfZdfkgLJVDRraFe9BoFRQaQTwJBQSjs6Uldv9RwHKefvrpYELq27dv5ko6F/fuxTQB0KzBC36biytar1b7SBz8fTJ+/HjTJQKV9s6KYIPt59A9RvZxIpFmxAX4JptsYkYFtdNOO+1kWk7X2pqLzuhDrTt4pKXa1lxSH0n9zv3jH/+o+AkQ67rrrit6HMiiYklF3ddVLpKaGTdheeTfrYhwPqZ7pDPOOKMhT2z4uFltH2dz0cdkUl+NzSBUdjLZsjPt2q8c9oktO918wXEqV3bSn2woMPrMM89EY8eOjedaZV1HGgCMGDEinmv/Hk8e5NnVkjQvv3zm6cDQY6j1yrfcdPXzGpNtNFNO0vmF63a3ezaLsSzq1Q+1uy5J64VqugMKoTVi6KkUbvA209NDBKlCgwoibT9J87HnCPJnKN+Sv3yVHGPq3JzTfAwGSFmRV3qpZjn2O+53ae2elLbz5MepOA7cTCIWYecrEdoWX9Z95H6OJ698WZfjomwLPbFH2cZ1GMtkqnS7m1WXD8KCOwahA5Y1aMoBty0jQ4nKLptWRqG+SUJoxh66UKAisNFGG8Vz7ZISM4WWDXayHvTRmhWd7//pT3+K50qR4Bnogxa+VCBYByp9PMbG448EixFaNyqFdG3QWe+CPv/888Ht4gQUCjiIdEZJ5YqPMsYfqAPkBS7ApLn8+te/NsFRH6PI0top63G3QgO1wA4OEDq/dpWLpGbFjdPzzjvPtEKx2Oe0WOOJlFpGqa0W5QTpwe9LndG8d9ttt3iu+yCfsU8uuOCC+J12WctOjueAAQPiuXYsm+u3Sm528x2uyfwB3Gx5wBgFoRGqpetxy2fS0H777dep8m3o/EI6vuaaa0wrNRef3X777WsavT2Nuy68pu9c1sWfGGcjDzQI4oYov+X+NjdrQi1SCWRZ7ucrbSGbhEZKoSdLKWvodi/EXQ/pmtKOMfnBoguNCy+8MBg/2XvvvVOfnnHTtispbVea7kjboS4YeCSftO1uR95Ytt9lJe9V+/QZ37Xbn7Yf0v5XSdmWdV/zfYuyzXbz4K6rLdt4nXW5nUG3CMISOOORLt+LL74YfLwWbqLggKf1B2vRuiBtVDlXUj8fjOYXavUQSnSs4/333x/PtfbJYe9Yu+sfQqFCH3JJLWBPO+00U8Ccf/75ppm5bZnLnVxagpIRR48ebQqIpNE1CXLzKF9n9PLLL8evitX7cSKRRkpKy275QblGBeaVV16J32nFd/fdd99gsE86Fo85U4aH7k6fcMIJ0emnnx5s1eojHXDDbZ999ik5V3D8f/vb35p+161y5x3JD0+cnHXWWfFcK/Y/53VapzcaFakzzzyzpPJDy8r/+7//65KPkrnYJn+7uI6g7GRkX1+5stNd1p577mmecvKxr7kZHhqFPITrXYJtoQYIBIUJ6rrHSbqOpDxHw4q//vWvmfJtM/HzG+ezs88+O9iwhBtS9EXfUdfuSfu+GtTLrr32WvPa3wd9+vSJXxWjOxO77XzevqbbOIJMteIx8lD9mLTViNaC0rm4aZBgJjcFeUrLx/lx1113jefCkvqizSttEytJStucT9mOPPO3i/UPddFAUNrvN/X777831xsMOk9MhpgN62YnWhNTPlx55ZVtT/k2C7sPKdu4iWbZ/crfpKf7OrtuEYSl6bZbUbRIsElBUxKFK60/WJtQ6CeDipHlZ0x3Pimou8EGG6Te4XCXQZNt92J6/fXXN5VvPuOvv4v/X3755eZusf85Ku0333yzeSwpy+PLBIwfeuihYAUBgwcPNkGcZsc+sfuWwjWpRXMoQC7SlRBMoVXD9ddfb8pNLoRoGe6jtSWBvrSyRjoGZdmOO+5YEqQD/zvllFNMH16U9aGnFUgDPKnB+Wi77bYL9m9HNxdUet1H3pUWGoNzP8E0/zy1yy67REcccUQ811hc3NuKlE0HVBSuuOKKkoEtumI6YZu4dqCP3nJlJxWKcmWn+z8qmuzfUF/PXMdR6aIPYK5pqYz5qHTRPQXHgVbtPh5hvuGGG5q6uwipTVJaGzJkiMmjrqR820zYHs5dDEz8hz/8wQQZCMD6Nwup09AYpCOv3dPyeSU4d3Nc6MrOR9A86eYb3TC4/eHaug6POocGlE5jv+uiH+FQP5GgTPSFliHdA8eewPyYMWPMTXy6T/z73/8e/7cdgcarrrrKxDTSJHUR6KbttPRWLi2ynklp2w6Cl1f+9vEEcmgcBso62+Kd8/1NN91kHtenjOOan/7i/QA0TzATLzrggAPM/qKsYED2euTFapbJPqRsc2NoFmXbeuutF891Ld0iCEslceutt47n2pFIQwfcx+f8/mC5SGFAGh/9syYlQPf7oa4IUC7a7y6D1g8Ecy0q3fzf/Qz89eEO0dVXX21e+/8jA3PnyV9GGgrLW265xfRv5uORt2HDhsVzxeqR+avl7rekUZLREX3sidQLJ2WeEmDixE4eoGxbZpllTOtHyrNQWcAjirfffrvJ+9J8bHlGf6HcWQ61ZiJ4s8cee5gWcNw1t+mAwQdJAxtuuGHi4D1HHXWUaY2j498Y7rmSSi2tXf3H1Hgsjz7eOdaNPrcSCHFboNnfp8U16agrylJ2hlB2MlhipXmH5dIvd+iGN4EnAuBUwrhGYX1YL/rps08vcWPdtn53y3QCbdxIr6QrK+ka/HxrNVu+pQ62++67t+U328qLBitUzunuI9RwgpsXI0eONDcM66kR5S2/wQ0Uyv4QypWkgccIZPGkpI9gGE+6hCRtk1t2gBv2BPIt/3uhx8L9ZUjXRL/FdK9o8y3nR26KEHilVebQoUPbApkubhpwTsryRE+WtJ2W3tL+V03azhNlWmgMB9tQj1a6jHnEkzK2j+isZRE3cnr37m3KxnJPeVeqmvxNfZJWvCFpZVtn1y2CsKDVD5VLH3fw3Dt1oQQc6g+WFgn0VeLjosb2gZOUEMlUoZa1XGSvvfba8Vyx0HpRwNj3+W7S6IT+eowaNco0cfffJ1DNIF3VZCD2LY8ihh5/JQgbav5eze80Avs01JqE1iLl7sqJdCbc4eVCg4k7paE86Zd7d955p2k1pQBccwmdIzie/fv3Nzf90gYloZJr00FSFz3gmDOgz7nnnlvzQG+SnZsvuVh1KwbgvDtw4EBzHYBGnltpjUaw3w+CECw86KCDmvY8Xyu/7CynXNkZyr8+gqnkv2OPPTZ+p5W/j1kf1otur0JdTtnfouU0rWZCN9ClayPfko46S74lUGDzm9vKK2k9Dz74YHOjkYH16i3rvsqSx332O/fcc485l4fyMy3FaOGWhKB1Uv/TPK1ob+i565dlmwig0cI+1N2KiH0yxObbUMDVxQ3kv/zlL6arxqRuDl2k13JpO+uTuDbt27+sK+tSSdp2808euMaw/aO6uMnKEzY8qRbqWigkKT8PHz7cBLtDT+z48t4+i5gUZVto+eXKts6u2wRhl1pqqWiNNdaI59qRQd2LkFBCDXUdQKLdYYcdSlpG0nQ81HwcNoHxKKHbgtUiAJsU5PPXi4ryE088Ec+1dkWQ5U4BGZq+XFmem+CZP/TQQ0sq1mmZzv8+IwuH7jhzIcSgZZ0FQfJKH9ER6azcsiUtv1PGEEDYdttt2262pH1eGivtOBJkoWVB0k2+LGhVx+NL3Kxzf0sah8ryYYcdVnJ8TzzxRHM90misx6mnnmrShYtH43gEWDdqWlF20kUBZWfSCOlZ8xTXaATceYTTfsemh3LLcP9P4Py6664LNk6Qro30Qpc0tKx2hfKtX9Z0hLR18P/HtQl93NJVDtvTTKo5bxJ0paUvZYd9LNrF9rKt5bqOYNC90Aj2PPX3+9//3jSUqWT9CFLR8MbvykLEqiQ90bqTtMSNoaR+Xn12+W7adn+TtM3NmCwtPe33+GvTtn+zu5xKtjcL8rs/WCImT55sbqAS2E7ir0taGcpyKF/KBWLz3j4au4XKNvs7Wcu2zqzbBGG5WxK6I0pzcoKEaUKtVrmo5tGvlVdeOX6nFY97cRcnlOBtwiIgGSoU6Iog6+PuVMbcDMNAWWnftetjBwTz12/jjTeOfvWrX8Vz7dxM53/Hz5DcxQq1DuZ7Y8eOjeeaU+h4+fIugESaQZa0Dx6v5dE/yr1//vOf5ns2T2RdhtSXPQ5uWcU5adCgQabvrCzd7yTh3MHAkTwtwWAKPqWB+qLlGv29+l3l0HKNiktHnJ94PJZRjS3WgQvniy66KNh/aWdOI/66V7ItlJ32mpFroVr2Aw0H6G+WwEml6+T+n64r6LO21vWRzod8Sx51JeXbZr3uTVovgpbclCKoQ3np9nneLOk863rYvE6ft6EWsKALOep/5Sy33HLm3B1CMJ5Hkxms2kpbR56kpMFNqF/rZk0v0nhpachPJzQso49YBtHj3JRl4FjLpm2W6f8maZvxK9y0nYaAJC1rSdtJGpXGaSAY6lOZrodCLXRpCMeTx1yrE0hmX1BucIOF9/m/z24L202/8vZJ7npLK9vsMaRsI0Abkpa2OpNuE4QFQUY/UEkCT+qfFbY/WBePpdOiiLvFq622WvxuO7o4CD3ObtHRs4/WCJwEs6I1q82cPKJGYkZSwrQZLWlAsM0339yMoJkmS8Hzk5/8JNhJNgHjULP6ZpG0be77zZbpu0ohJM0pKU9w04rAz/7779/2WCCfVXrsGO5+948Z/X/TJ9fxxx8ffBQs6RiH2N+5+OKLTTn/8MMPm3mrkmVJZdj3l156acnNTK5BaPXVES1OSVvHHXdc0QU060m5ELpw5n9Z0kjaZ9y03ij2N/31qia9c/1F2cmgau4j1VnYViM80RUamKcatKhhfWhdXen6SOcUyrdIyre1SsqzleRl8pr7eX8+hO2zQWVbblaTZ+uh3HrQ1yMBKW6S+Hnd/S7BKo5l1u2iVSABqRDKJm6y8pTnrbfeauqJlDnsZyae4KQrFBoz0TKN1/CPQ7njIgLSSSjdEnwlTdO9IgNNZsGy0tI2yyFt80QYaZvuemyMxk/b9F2b1E+y1ag0nvV32C6CmpRztJDlCQD7xA37mCeseZ//0/0Qj/hb7m9Q1px//vlVbV/W74TKtlA6oCsJ0kGSrGVe02vZcd3G9OnTC7169SKlFE39+vUrtGT8+FPFWi5SC4sttljR51dbbbXC+++/b/7/97//veh/LQnD/Ib9v++TTz4pbLjhhkXfYerdu3fh008/jT+V7qOPPiqst956bd/daaedCi0V7Pi/6c4999yi32VinR944IH4E7VhP7I//d9YfvnlCy0n9fhThULLBVL8qj6mTp1aaClMS9Zj7rnnLowfPz7+VFjSMcry3WYycODAkm1g6t+/f/wJkWLffPNNoeUkWWi5CCnsuuuuhZlnnjmYhuzUt2/fwowZM+Jv54u8Rp7zf7MrpN+kvMl+z0vLBU6hR48ewd9h6tmzZ+H0008vTJgwoe3cQ7lMGnjzzTcLQ4YMKay11lrB7zLNNttshWHDhtW9LO/Ksu470kUoL1533XXxJ8Ls8pPOh1mvO9z15DXf6dOnT8nyWioDidc+vrPOOqvte1yD2Nd55oFG4hrMLTvdbQpNlJ1cy7mS0gN5sqWSmbpMlsdvc6y/++67+JsFUz4/9thjhYMOOqgw11xzBb/LtPnmmxc++OCD+FvSFeWRbxtx7sqCdM2568wzzyyssMIKwXWyE+eq22+/Pf5mcyLvf/zxx4XTTjvNrG9oO+zE/6+55pr4m5V5/fXXCyuttFJwudVOLO/AAw8M/u/666+Pf1m6O9I45cyTTz5ZOO6448w1aCjN2GmRRRYx17Hl2PNmI9K2ew6ud9qmTLW/lTTtv//+hS+++CL+Rjq7n955553CRhttFFwex4RyNW9Zy7ZZZ53VlG1J10JdTbcKwnJQDz300KIDToYiyEqwNYTgpH/hO2DAgLYEEgoUzDLLLIVHH33U/N/30ksvFRZeeOGiz7P8U045Jf5EeY8//nhh9tlnb/v+ZZddFv+nlJ+QybD+b7M+rFdeDj/88KLfYMr7N8qpJQjLhSqVU/+7THfddVf8qeanIKzUyj1x+uWgnY488si6nDAVhC0vab+nXYzOP//8hZtuuqkoUGP5y2P+ueeeK6y66qrmu34aIDB42223xZ+WeuBYrrjiikX7nYmKAcG5EP84uudD9xhWcvPXYtlnn3122zLsMhdccMHCuHHj4k+V1yzBnHohwErZSaXC30Z7DLKUnaH97U477LCDCf5m8dlnnxVOPfXU4HKYNttss5LAsHQNSemIfEtQxJeULpsx37KulD0Ek+36kMfcso4bkhMnToy/0fHc/cu5+MYbbzTnZru+oW1g4lz8wgsvxN+szquvvlrSIMn/nazT6quvbpYXSlsss6uU55K/77//vnDnnXeaRlp+2rET6evdd9+Nv1EeaZHvhJZV6WTTdkeVeSw/9Lt2osFbpddvFtu1+OKLB5dbSTwqiS3fKNtuuOGGwnzzzRf8LXfKo2zrbLpNdwQt22r+8ti9i/fpL2PKlCnxO8Vs34cu+vZqObmY14xGvOyyy5rXFs3cn3rqqXiuGP2xfvjhh+a1XQbNxvv06WNeZ8EgGLazZroxoD/XENbb/gaY9/tZ4T36y225EIvfqV2o83e6Igh1Kt8M/OM755xzRi0XbPFcMdsFREfw11Ok3ugg///+7/9Mly1JnaMzQAx9Hip9Np4t3919z8CCBx54oOnv3McjQM8880y0++67BwcIcs8XYJ5Rajm+9AHnH+OWCy3zyBCPuEr+6EKCAZT8/r9WWmml6M9//nOwH/hQPvSvA2pBWXDyySfHc61Y5p/+9CfzKGtWflpLU+s6N5JdV7qIoOx8/PHHzcCwLvsZW3am4TFJ9m0Ig1bweCWjJWcxzzzzmAGZRo4cWTIIK8eDkZbp9qIz7W/JhrEt/HwL0haPs/oqyZ9Z1DNNsa70V08XOUcddZR5j99zf/P99983I/k3+hreXw+LdeZ9HhFeZZVVoj333LOkr3X3u7PNNpvJ79Qh11xzzeAys6KLBgZ2ZkRyK2l5aemAvjOpj7I8t+9di2UmDUQoQj/U2223nXksfccdd4zfLcb4N5yTsiItcs5103Y1eHzfpu3QGAhIG4en3ohRUB4Qv0mTlK/ZLvrOhp/HR40aZfrorRXxM8q2vfbaK/r000/jd0vNPvvsRWVbd9JtgrAkMqakPktJLJZNtAQO6T/DNXfcH6xFJ9KhCxgKgdDJ3u1f1v4Og3uRULOggk1/sBa/7QeBLT9j0ecX/XH46NS6XH+wlWDwCR8B2KlTp8ZzzcXfTxSsSUFpAhgdxV9PkUahnLnttttM+Qc3LXJD6IYbbojnpCO4x4MAC/2S++gn6s477zQXX5UioHTllVea/iNd/C43MKvtR0qSsT/PO+88E2RjP9tjzAXrVVddZW4Au8fdcj9rhY5N6LvlvPHGG6Y/U3sT2KLCQvAjaZmh368kvVSzrnnII01TdnIM/aAn2I/XX3994u8Q2KDPX252+E466SQToCfIkbZ/QstmNOnrrrvOVIIt+7m//e1vpn856TrIt/T5Gsq3Rx99dC75q1xeaUQeJo9RmR8wYED8TrF777237EDMeWO7Q9tOXYwbm5xT6Zs5DdvDeZYbnrYcCS2zkvKKG+zXXHONCXL17ds3frdUaJkrrLCCuZa4+eabTUMghOqWXC/SH6VIGtIQ1zSMXxByyy23mMZyWdm0zXlsiy22iN8tllQeVZK2f/SjH8Vz9RG6ZrB2220306iilnKX6wAazfnLYL8lNUzMwpZt9NGbpWzjM27Z1p10u5awtBigw2cX/6N1BwFO2ERL0NAPuhHwpPJj8dlQK9bx48eXFBrcWeDuo2V/Z9NNNzXB3DR2/Wlx5AaGt95669wSbrnM3J2EAsmg83rboXcjMDoiLRUYtdCfGOxMpFEIJlBhg19WcBOrUaNqSjKedBg6dGjwwotWedUEYC0CsbSiIwho2XRAgJ6KvuSH1iGMDgv2s93Xp59+uhlkNKuk83rS+y73M7TKPfPMM0taWNMqlwFiaKmVtMy0ikA1sqx7HqpZ79B3aCF8zDHHxHPFHnroocSyk+tFnqryl0nly44GXU7SZxiEiYqSjxaDBI2la/DzrU0PNt+Wa6lIXrNTmixpsV7cdaMc4ikBbjr6uJ5OG4i5Eag/3HjjjabhzfDhw8177r5zX5NHCRpfffXViU8iuao5BtR1aNjDvmEEdcoEAjPuDRpa0LO+BEqo21IPogWjTTs0OAoN7LfQQgsFGz2J+Li+pJxyry8t0tuECRPiuewYOJ0bL6G0bcuMpLRt039a2u7Zs2c8Vx/8hm344iKfb7/99uZvNXne4gkdnuz20Wiumuv5UNmWpNKyravqVi1hwaPmoRFAyeBvvfVW0cmcOwF+IJWLaT9g+rOf/aztjon1v//9L3rttdfiuVYsz21hYH+LLhL8jORf8Nj/87gNBQrInL/85S/N66xCGdb+Vi2ZuauhSby7P+zr5557zlRS/ONTLxSEl1xySfSPf/yjaKLgSmveL5I38gB3X20rcTd/UHY2a0v37sCWR9ykI3jnl0+MhrrDDjvEc5Vxl8VTINw09HG+6+jKbVdDuW/P9Ratpg466KCKztWVfNbnfvfFF18safFORYVAMSMKo9rfqvR7tWxTJdLO85VcA7C+btnpouwk/4QQHOF3mNxtZiTorC3MktaTYBWtmkP7Mq/HEaVjcez9fMt7Nt8mtaZ38X87NSt33dg+WrMlPd7M+bGj8FgzLZJ5PNftns3No7zmhjeNbWiRR0DD/t/9XN4IgtEymhuqtGQjoMLvMdFAiYAJrYx/8YtflATueWqUepGPZVLnFsmCdB+6viQNUo5Vq15pu6NabtKYkGv6WvHUr98o0Qp1Z5aGso3rCb9s8/llW3fXbYKwFpmOiqR/d4F+WgmQuifzcv3BWtxxXX755c1r+z/unviVUjK6nzi5S0gXCT7/N1gPCoN77rknfqc1Mbsn6Gr5vyWROZ7uowZ2H7/55pumcGrUPiMIGwq20h9Md757JB2DSpstr8gTNh+QRpMCCdI49B1q+xx3cd4iaFPNucIt67joTArmul3tSH3QZyeBPI5JJRMX7Zy7fNzUpSui0Hf23Xff+FPJeEyefgEJ6oSWkTadcMIJ8VLaz6/gJrn9jLtcWqy4TybVet1TK9apEm7Z6aLsDN3AonLoPvVkt9fefM+6/WnrybUwrYV8NCCYNm1aPCednZ9WbL61eauSiXzLX5+bb93Jz7dWvfKv/V0ehQ3hRmWoZVu9cS3PTTQek05C/+uUyZxL3YYg/t8s0vZv3vuem4V+v+XgydFyfVaKWATsk8a4IT5TrzIjTaVpO8915LotND4NXUgSBM5DUjC3kiAsZSplG10cJUkq27q7bheE5cCTgEMXniQQi4AnrR5dXPy6/cFaNBm3LVLdDMgdV9svLO+PGTPGvHbxWKFtRZKG9ebC2O3OYMsttzSFQNbEzGdDg2ax3DxbVYaClNxdYj91FqFuK8Dx5LGGRkkKbBCAzXMwNZEsKEPc8sot72xZJ41ny1v3SQsXF1p8Juu5Ig2tjNzl2NcEkpQGJE9pFZo80nI5ef6GX3a6QvmGazL/aSpQKeP6JI91Y51CYwrQF22o9Y90LjaN5J1X/HxZzfLzXicfj9qGWqqR19LKlXp4+eWXTVCYx51D6MOSx3j5P0GoPPZNvfevixs2oZu/P/3pT9USViqSFBSkWxXSdN55t9zy3nnnnWDaJqgYStt55jvOz/6gniCektfv8ERMCPs7C8o2ArCUXaF9SdnGkxh5lm1dSbcLwoKuA0KdNRPgtI9gUaG0QVibaPz+YEGiY/rNb34Tv9OORGe7M6DPL/r2suwy6U826wh7rI9dP/pNSbpjlCZ0UUKLC/+xx0q5mS/Uv9kcc8zRYU33q0HhSpA7hEFvKukkvFpUhGj5FMLFTWcKakv9kY832WQTU7a4E0GzvNIry+vIEUGlOqE+rstdfFr+5yh33LLc/p+gDTcvRTobyk4eg/TLTp6IqaXstHmDv2llJ//Lmh9pREDFJiTrMiyuc0LjEfC4Zq3XhNJ9VJruRowYUZTP7MSgcFaly/TZVvQdjRaw9DFJd3Sh9eHJEgbH2mOPPUoehc6Lvy/L7ZdK9z0tnemP3hfqb1I6Lx7Zt3nVndzBwqvhprekoKDF74VUW14kLc9KStvrrbde/Kp+uM7Oq09l9k8l+6jccQBPV9myLcSWbXvuuWfdyrbOrtsEYf3EZy+4XXZEOD7r9gdrvxvqD9YWQiuvvHJJv7AkUO4SgBMxTbYtlknLWvogsezv+OsK7t7ecccd8Vxrn6XV9AkSqowT2K31UWK7L6mEM2CUvw229UYzCu1vENAKtTalW4m8B65gHfz1ID36rbGtUL850r1xoyP06MrXX3+d+a5mOUl5BQrOdrykC8rQ+0mfdXG8s3xOpDNLCkYymnwtrbvJO1nyUKUtW5LK4Wryaug7aeW8SK24kRe6XnBv4mVNy6G0GnrPLo/frSafVML+Pg0p6CfRPtrrrhdB4vPOO8/0U2lHKA+tdx7c7c3yG5XsH5Y3bty4eK5dUld70jlxnJO6wAsFKSuRJb1lDc6mpe9q8lcobdNVIYNj1htlVajfVPqRr7RLFfZPaD/Tl2sIAzciaZ9Rtv32t78NdltA2Xb++eebOImbZqrZ/11dtxuYy6I7Av/RMPprpfUqn03qDzYJCW2NNdaI51rxfdtEm79uf7D8Bn26hgKp/M//bQK6bh+zDOZVaUtIlhnqhoH3Q302VYNWsNz58JGhk1pvdLRQwQSOTd++feO5YhdccIEpCPPCOrjrwTGhCT+VQB/B/qTOtKX74iIldKODR2l4pCYPlGGhGzb0+5Z1oBipn6RAeKhMziJUNnLTLnTRzVMiPD4lXZd/XdJI9fxt8o1bdtp0T9lZ64CDdllUmkJlJzfjQ2UnFZlQfs7SfVTavrL/4y9Br1C3A6xTs940l87HP49wwyNUH+A8VWk+D52jeO+9994rqnPZ5VJX43qlnuw6DRkyJBo7dqx57aJxx3333Rf94Q9/KOr3up5oEETA9/bbbzd/7VRNAxz2pd2flI9so7/+NEzSNWHXwfF1x0lx0TApL0l9kdqgYAhpm4Cfn779tF1pHuP7Dz30UDzXjthA0r7IWyjuRPcfDDCWh6QuzGzwNGmflSvbjjzyyJLWr/Uu4zqjbtkdAbhLZ/txdT3yyCOmgklrTpftDzYpEVH5pH9X36OPPmouvnmE3cUJbMMNNyyqtLrL9n+HrgzsQAlcmCc9Kp+GZVJ4hJq38zgBj+TVimAurX59BH/rfeGTN/Yzd7G5SPJNnjw5+utf/5pLH4ihi06W77Z8dtEKNu2EJN1XqOUB5dkrr7wSz1XOTZ88okra9HHibdRFiSQL3WQDI8va4xgqbyrhLsuV1EpCqsMALuznPCYqyqH+SOnSiIBe6Dv+ADI8tUNQI/TZaiZGZw+5++67g5/nt90nh/Lmtmzh91Br2emi7AxVMLmZHio7uTak6wHf9OnT2ypgdj19aZUd+z/+0polVIEmQKbujroG8gx1EDcv1TINHDgwXnKxpHzLb/uNBnr27Bmsh5DX8uoGI2k09UZdOzOYz+DBg+O5dtQnCGCEurBLy7e1Yn0YId6fLrnkkvgT6TiWFutp15U6Lo2E3P+DZeumbNdCi233iV+bBp599tnc6sITJkyI59rxOyuuuGI8V4q0veuuu5ak7UsvvTT+RHVI26F4BoMaNipts93+U9ZcC+XRcI6Yjz+APPuabhC4iZKE/X3uuefGc+34blLZJmHdMghLRidCv/XWW8fvtCIBEXzlrgqj0toCBqH+YC178gl1ccBySLC2WwKLz/G4exYUbnfddVc813qHsZquCLD44ou3XRC560qT+6RH37Pikefrr78+nitG37edhXsxQaC8X79+8Vw7PnPFFVdEd955Z/xO9fw0w/Gmb6yk1oucAJJavEn34qZV0N1IKG0MHz686oskN31ygRS6KOFCIa/ROqV6nKf8CzYw6KTtDscvbypBUOr++++P54qFurqR5lZLWqhVR/52CEHYvMtOF2Vn6OkZys5Qt0fctA7lKfLgyJEjzeta9yHXfKHBv7ihoiCshPjXHOWEPk96D90wpP5V7VMb7u+QR3iaMcR/YrFeqAvZhjOuM844I9pxxx3jucaxwRy/zKA1GzdjfP5xC5U1BHEuu+yyeK4dx7d3797xnHQV3DhhjAnLphECeQTiXZWWE6D1ujv4uEUjuNAAklYoUAnGVEl63L6ctLSdNXaTB7Y7NCD8VVddVfW2WVyT+Pub48bNX/8GsHs8KduIT/hlwplnntkhZVtn1i2DsDbhEIx0My6JjDuxXHTTcsRNdIyEF+ozDHZ5DOLgP37BcmgW77em4AKEZZbDOtA3rZtRGIku1PdjFu6AU+720W/koEGDzMUL3P9lRUWfRwF8BIwb0Yl1PXBH6KSTTjInAd8PP/wQ7bvvvtGoUaPid/JBwP3yyy+P54qxH6tpBS1dk38SJK+F7mDS0p0bQrXgJgsnfsoG/3e5KJlvvvniOekojKQaqmTyWNWwYcOqKtdddKsTqtxyHlUXKZIHv2ypN5snGlV2+ig7k1rVJLUoYST1WrtDSlsnnhJTEFZC8sif3OwINczgZsfQoUOruunhrlfoPMX/acnH+bHW82A51NluvvnmeK4dZQxP1zW6jAPbTitgf9tpUUdLRp+/jqF9ds8995inR30MfE0dl+/Ue19L/fjHjnNC0uPx/jgp1aRxnhj+z3/+E8+14wk/Aq1J6Don1MKdtF2uxajdRn9bk9I2XRRW2wiuGsQgttlmm3iuHU9H1zIgGud/+qQOdXkYijHZ40nZdsstt5jX7j4rV7apHAjrdkFYNyGEKqyc/LlT6ScYHtsrV6hQEPiPy7Ec7g74FxWhQb7g/y6/6T7iz3yoZWYlttpqK3NC9tG64sorrzTrUG5bfazfIYccYgKTvt12261TParsbzvHikBsCI8FMALgtddeW3LsKmG/O2bMmOiAAw4I7kfW66ijjlKLQynipjtOnJxAfaRTRjblxFstHje0N1nc32RAMC66XbXkBakewRxayofwGOnTTz8dz1WO/r6POeaY4EUbx19dpOSrq+ehpO1r9Hbb832jyk7X7LPPXlJ2urjpGqrw8XTV6aefXpQXK91vVKRCA4zStzgjtYvkIakuQUvJUOu16667LtgaLgvyAK06TzvttOB5aqONNjL1vkrrN5WihVmoG5OOrAvRxYgd48LdfuqmdA1Trjs6f5/Rgv5Pf/pTSblDmUZ/kATa+U6997XUT+jYbbvttsH3GScl1FVZVsQQ/vKXv8RzxUi3SfVe0h//C43fkiVt221xt4mnxpLS9hFHHNHwJ1FDMRvW7cQTTywa8L0Stu9cy24/25h2/qdsCwXKy5VtoTQj3TAI6yYEKqxZWhVyJyJLKx9amRKsdSUlPC68Q//z3yOjuY9/0lLjZz/7WTxXOZZH8/akijonT/oi9QufNAxekTRKHoFm+mbpaO5+TTomSfg8AeZQBQ1UzmgRSzP8cp1lJ+1Xgq6cxEiPSX1icczSmvpXcsyk6/DTMydQTqQ+Ktz0Ufb999/H72SXdnOAizL/cZmseayj0yyPP9HlCF3N0GemO+2+++4Vj0DaDChv/cANx4NyhbThdo1j93+540AZz3LdIK49xgRtfv/73zf8wrSry5qHOgs/jSVtXy3bzeODNv8SbHHzM2VYOfUqO/fff//UsjMp/1GpOeyww+K5Yv/4xz9Mv/Q2OJx1v/FbBGC5ZnHZ72+//fbBxx9F8sRjzQww7CN4Sn7hRkOluGFCfuExZB/nqUMPPbToPJWU78izlBmh64LQI8r+ckIDO5O/uNboSNQheJzaXzdaINJ/ZtL+8NHykfJjypQp8Tvt9tlnHzPotHRNHFsaJvl4PP3AAw8014ohaWmL9ES6sTEE91xGF4p77713PFfKfpa0HQrUlkvb/vusS//+/YNpm/crSdvUH6hH+GUIEzeEqH9kkRSzYR3pVrPSspKnd2m16m67fb3ddtsVnf/9/dOsZVun1bIzu7VHH3200HJSJkUlTr169SpMnz49/ka6lgwfXIY7LbbYYoXJkyfH30jXUrAVWirUbd8dMGBAoeViPv5v9V577bXC8ssvX7Re7nTaaacVWi5o4k+XYh2YnnvuuaL186eWSkLbZxtp6tSphZaCrmR95pprrsL48ePjT1Xm9ddfL6y00koly3SnmWeeudBSUBcmTZqUabtbLjgLw4cPL9qHLQVa0TKZ+F1+H1n351lnnVWyHKaWwr9w2223FVoqlnWZ3n777XgNpCOQpignQseeifT5/vvvx59ORxkwaNCgQksFpu37bvpsuaAvPPvss/Gn80U+nXvuuUt+k/VHHmVKUjnB1Lt378Knn34af7I6Ses4cODA4G/efffd5v+1btu1114bXD7T/PPPX7jxxhsL3333Xdnf4f8tFdpCS4U5WC4xtVx4mzQnzcce36R0nkcar5Z7fnLTls0D1UjKV0xZlvvtt99WXXa6eYnXLRWwwtlnn11UdrpT1rKT32up+AWXwbTDDjsU3nrrrfjT6T7++OPCYYcdVvR9vzx/8skn40+LlCp37qrEuHHj2s7x/tSjR4/C6NGjzXkqC6650/LJwQcfbPJ3FmxLaBlMbH+aL7/8stCvX7/gd3v27FlYaqml6jYdddRR8VokO/LII4PrxsT3Wf80L7zwQmGVVVYJfp865ZQpU+JPSld18803J14PUpclLlDu2hLu9WVoWUyDBw+OP936ebtcf/nMl0vbaTENkLaT4hmkbeImleDaimus0PK4HuO6LCs3ZuPv+0UWWaSorAztG5C3ickQp3C/byfK3IkTJ5rPhiSVbayPX7YtueSSRfO1TOyrLGVbZ9Ttg7AEVwmy+onKnfbYY4+SRJ2EANQyyywTXI6dSMTlTnQWQd1QBSXr+vjc7xGIS8qMTGSq008/vTBhwoS2ihqZnIJj2LBhqRc8TJtttlnho48+Mt9rtKRKJxd8lQRh/f1MIHT11VcvWmbSyYjKF/vgj3/8Y+Gmm25qC1IOGTKk8Lvf/a5kOUmTrRhVeszTKqRMSetd61RLJVrywYmUE2ro+DBx7HfddVdzrCiz3CAalf7HHnuscNBBB5mbFqHv24kgQ7VlUTnlgrB5sOWEXb77O/UMUOVZkbXc48DxJDjqLtvP74suumjhuOOOM+X7jBkz4m+2Xjjy3plnnpl6ccy04oortt0ckublng8blcbLySsPuOneX6a7rVmXSzAnrezkmilUdrIe9So7Of8vsMACweXY6Te/+Y25LnPXyV6vsa6ss18G+FM9y3PpGvI8d5HW0gInTJyDOBf55ynqUJx7uJ5ea621gt+1k9uIIQu2JbQcJrY/Cdszbdq01AYueU5+fs5ybVSuAQ71vosvvtjc2LFBHfY7QZ6+ffsGv8NEuUidUroe/5xAMHPrrbcOpgM7kScvu+yywiuvvFJ0jcFr3uNcU+76MmsMwa5fubTNeb2RaZttrTYIGzoPpwW/mdif7PM33nij7RqAcpKyk2t9GmCEvsfEct1tDP3+u+++27Cyjcnd1jzrfc2k2wdhSWiHHnpo0YH3JxJ1Vtxp3WmnnUziScosF110Ufzp8g4//PC27xHczbOVIdtOQciy0zJ2NVOlFz15KxeEDRUwWdE6mZODv+xyUzX7mJPG2LFj41+ujD22jZrs9lVzMS75K3eTpdrJHudTTjmlKHibNxuE9fPNPvvsE3+idknlBFNnC8L6uHhNu7CsdeJi7KWXXop/TZoZ56xQOt9kk006LAibdH6qJQ/YfBU616Yt178eoOys5nyddaLsDLXKS7suueOOO8yN3XqtV73Lc+ka8j53cZ6q5no6y0ReITBRyXmKPMi2hJbHlBaEBb+18MILB79bzzKFyQ1UpJUl9bg2pMViLfUq6VwI9HETPpQW3KmaNM93eGKT65Y0pDc3zfHapu0sv5t13apN27UEYUM4P9OiP7S8clO5bc1yAzatbGOq5lhnnbpqELbb9Qnra0k0wX6JeB9Z+oNt2Y/xq9ZRPzfYYAPznvu+Nffcc5v/ZzFjxoyiDuoZsTbPTt3ZRgZaOf/889u21/6tBf2JjB071vSn1Eih/Z2klu1cbLHFohEjRpj+2FoK+/jd8ipZP9D3zGOPPRZtuumm8TuVqfT3quHux0b8nmRH/8FXX3216QstSdZ84H6O15QZJ598cuqy8+Knq1ryblaN+I00eeQl+sei8/0BAwbE75RuV7XbyQCU9LvHCMjS/JLSU0eW2fX87bRl2/+5n/HzAWUno7TnXb5xvWDLzllmmSV+t11afmQA0HvvvTc4oGst7Dox+GgjynPpnOqVXxkw6oYbbigac8Hmg2rPTxbnKfp3reQ8Ve43Q+WHi0GAvvzyy3iuWL32YUjaduy0007RjTfeWFH9JQnLuOiii0xdstbjJc3NTb9LL720GXBy1cDAka4sad5PN5zr7rzzTlPXTsP33O/ymnM3aTtLWnTXLfR5m7aPPvroTMtLU+77WfYT5+cLL7wwOvjgg+N3sktavt3GP/7xj2XXkT5u6Xc7SZZtkGLdPgiLn/zkJyWZ3Sam5ZZbzkxp/IRLp9VJg5SsscYapkP6LCZNmhQ9//zz8VxkOmDOe/ATKgIMxkXQlPWqNRMdfvjh0cMPPxwtueSS8TuNwXpXWkjWsq0E5xk98aWXXjKDa+SJi1IKWvYjA7E1MxW6zYv80L9/fxPId8scN59kPX72c5Rfzz33nCkzQkGEajVbOkpan0atZ6VlmctdR276DRkyxFRyKVf89a90e7gIPPvss6NHH33UDBYgnZ9Na41K240Uykf2vbQ8xv8oO//1r39Fyy+/fPxuq7TvpfHLzmqW8+tf/9osg0pqHrjRO2HChLbRzF1dMT1I8yEf0LiEhg3HHnusec+mvWrTIIGF008/PXrkkUdyP0/ZfMvf0PoxsE9SELaZMJo5AepqburYfcB1JXXHpMEDpesi7XNzg/pFrYNv23zE4OY0HLn11lujhRdeuKr8T9okbTMgV48ePeJ3y+O3bLqGm7bd96tVblvK/Yb9Ptfgl1xySXTllVeWvWlabpkE0MeNG9e2jeXWkcHXvvrqq3iu41STLppVtw/CcjB//OMfmzumIWuttVbiSSopIZCwk4Jn3O0NjeAXMnr06Oi7774zrwkS0xK2Xnr37m0uxsnYPXv2jN/NhgseKiz//ve/TfCQij8amVFChQ2/n1YIlSugslhllVWiu+66K3rzzTfN3TKCs9ViWZyApk6daoLZtSwrJI/tzaorFZKdSWi/U9FmRPybbrop9UZLWvpgGSNHjjQBgDXXXDN+Nz9J+TekI9NWI/NQpex+8deRgM+ee+5pKofXXHNNUUA+K8qi448/3lyEHXfccbmXTSL1UGsZwg11rmts2YlKy5+8y05ucN9xxx1mvbju4vqrUqwTLdl50qpXr17xu8WauayTxqt3euCccs4555gRvxm520/XWX6fZXAd/vbbb5uW3fU+T4XW6dtvv41fNb9NNtnE7O9Kz+kEt6grUmek7ujryGs0qR83vdvXBEtvueWW6IUXXoj69u1r3ksTyjPEHLi5/+6775ont2zez5Lnk3DDcvLkyRWlbdIt60LDhaS0beWRxitZhrsv2D+UkW+88UZ0yCGHJF4DJC2fGBUtjSdOnGiuBaxy+7tZyrZa0kWzmanlIKm0zIDd1MgD//HHH0dbbLFF9OSTT5p5Hh+5+eabc28JG8K2vvrqq+Yu6f333x89++yzpgJvM+Diiy8eLbrooqaQ69evX7ThhhuaO1idRT2OpV0mfykY77vvvujxxx83d5m4IPSb8Lv7sE+fPqaLiqzBeZFqkT4JpHGH95577jHlC92eMFmkTVpNbrzxxtE222xj/jYibVaSL/PKw3ktJ2/1XC83DXCjjzLKTQPcXeemHzcS6aqHNMDrUMvnZt1/UqwzHadq17XWbSz3ff7v5hvKzg8//DCx7OQJmY022qik7Mz7WNAy5cUXX4xGjRplrju43mA9f/jhB/N/KpVUlKlQ8jRVufI87/UTycpNe+XS9TzzzGMayKy00kqmrkTaTjpPpVF6b8X+fuihh6Lhw4ebp/AIzlLnI8BDubbEEkuYINvuu+/etp+178T36aefmnMj9QvOle+9957Jt9ZCCy0UzTvvvKabxy233NLkXbourGc6+vrrr6N//vOfiWmbG5usB2mbxlBJQc1m4peVPLUT2uf2et7ub2I2Sy21lPlfpZTf86cgrIiIiIiIiIiIiEgdNX+4X0RERERERERERKQTUxBWREREREREREREpI4UhBURERERERERERGpIwVhRUREREREREREROpIQVgRERERERERERGROlIQVkRERERERERERKSOFIQVERERERERERERqSMFYUVERERERERERETqSEFYERERERERERERkTpSEFZERERERERERESkjhSEFREREREREREREakjBWFFRERERERERERE6khBWBEREREREREREZE6UhBWREREREREREREpI4UhBURERERERERERGpIwVhRUREREREREREROpIQVgRERERERERERGROlIQVkRERERERERERKSOFIQVERERERERERERqSMFYUVERERERERERETqSEFYERERERERERERkTpSEFZERERERERERESkjhSEFREREREREREREambKPp/Xc/1xU4GMx4AAAAASUVORK5CYII=;" vertex="1" parent="1">
          <mxGeometry x="250" y="170" width="1377" height="240" as="geometry" />
        </mxCell>
        <mxCell id="SBKEEydfGjW7RkQ3htFJ-1" value="" style="shape=image;verticalLabelPosition=bottom;labelBackgroundColor=default;verticalAlign=top;aspect=fixed;imageAspect=0;image=data:image/png,iVBORw0KGgoAAAANSUhEUgAABWEAAAILCAYAAACJoV70AAAAAXNSR0IArs4c6QAAAARnQU1BAACxjwv8YQUAAP+6SURBVHhe7J0HuNzE1YYV2k/vJvRiOoRA6N10TO8QiDE9hNACCRBK6M0EQi8JHdNLAFNsIDTTDJgWGwi9BjCm14SS/feVNffOzo60klbau3fv9z7P2FdaaTQazZyZOXPmzE8qVQIhhBBCCCGEEEIIIYQQpTBR9L8QQgghhBBCCCGEEEKIEpASVgghhBBCCCGEEEIIIUpESlghhBBCCCGEEEIIIYQoESlhhRBCCCGEEEIIIYQQokSkhBVCCCGEEEIIIYQQQogSkRJWCCGEEEIIIYQQQgghSkRKWCGEEEIIIYQQQgghhCgRKWGFEEIIIYQQQgghhBCiRKSEFUIIIYQQQgghhBBCiBKRElYIIYQQQgghhBBCCCFKREpYIYQQQgghhBBCCCGEKBEpYYUQQgghhBBCCCGEEKJEpIQVQgghhBBCCCGEEEKIEpESVgghhBBCCCGEEEIIIUpESlghhBBCCCGEEEIIIYQoESlhhRBCCCGEEEIIIYQQokSkhBVCCCGEEEIIIYQQQogSkRJWCCGEEEIIIYQQQgghSkRKWCGEEEIIIYQQQgghhCgRKWGFEKJDqVQq0V/xJF1j/5YmLpGNnshTfce+Tdz3V7loLcpv0RtRue29lPntVC5EEagcNU9vysO+/r1/Us2AjsoBXucnP/lJdCREPCorQoieQLJHCFEUkidCtDeqo0IIIWw6zhK26EaOhtNH1vOivVCHSIh8SMY1T0/KHvf76Xv2PfTNy6Gn8jWrPNH3F72BvG1VO5bvTh9vSKYI0b60U/2UrOhG7ggaENdwZj0v2gv7O0kgiE6ljLItGZeedpQt7vfT9+x7mG/eyvKZ9Kze0gY3Smc71KU0eak6L3oDndBW9RbZlgf73SRTRB46uX60AyZ/26l+2mnp69+/Y9wR8BpqBIQQolwka4ul1fmp79d30LcuFzd/eyq/k56rMiBE+9GKeqm6L0TfQHW9d9IRlrDvv/9+MO+884YFsKzQr1+/YKmllgr23nvv4Lbbbgs+//zz6OmiN7LTTjvVfeM11lgj+Oqrr6IrhOgcaKDjSPrNB3VF5MOX163IT/u59vOyfnvRu1BdLQ/qjpu/PZXfSc9VGRBloLajOVpRL5Oeoe8nROegdr53IncEKfnoo4+C5557LjjvvPOCTTfdNJh++umDAQMGBKNGjVJjJoRoa4oapBtZJ5mXDjefeqqjFPdcddyEyIfqjujL+Mp/Wf0C9TeKp2z5pW8mhBDJSAnbBCNHjgxWWmmlYMsttww++OCD6KzoDaiDIPoyWHyPGDEi2GeffUIL/9lnnz3slJvAMecPOOCA4L777gu+//778D7TcS+7A2+gng4bNqwmbVix9xbsfPrvf/8b5jmrKdw8n2mmmcJzBx54YPD4448HP/74Y3RX8fAtR48eHRx11FHBiiuuGMw555zBxBNP3JWWGWecMZh//vmDX/3qV8HQoUODcePGRXeK3swXX3wRrLPOOl3fmVD26o+33norOO2004LNN988mHvuuYOpp546fC7ljXLH+Ysvvjj4+OOPozvaD9NXMP+zCorVUHvuuWewyCKLhPXF5Oc000wT9O/fP6w7V155ZUvqjl2fV1hhhWC22WbrSg/5Pddcc4X5zHd488031fcRTfP3v/+9ps0gUCf4v2iobzfeeGNYp2iXjAyZbLLJQpmy9tprh2UbWdPuZdtO33fffRc8//zzYb1FLvMuk046aVd+2u3wVVddFXzyySfRnfnHL+a+r7/+Osw386wywu233x4+S4g4qLMLLrhgTbkZPHhw9GtreOqpp4Kpppqq6/n0iagfvYkffvghNAhk/MA4YpZZZul6HzOW4zeu4dqegr4mxosmbeQ7+d+nqQrlXs97771XqTZgtC49FqqD6MqTTz4ZpUi0O1VBX/cNq8Kh8uWXX0ZXCNG7+d///hf9NQGOq41wZeDAgWF5rzaCdXUgLkw00USVXXfdtfL6669HsbUG0rz33nvXpIW625t45513wrwjD+33iAt8l379+lXOOuusyjfffBPF0jzvvvtuZbfddkudDjssvvjilVtuuaVS7cBFsYl2xlf3TzzxxLrvWkabRxm57rrrKvPPP3/d85ICcun555+PYqnFfZ+iSBsv1z333HNdstMX4uTpcsstV7n99ttz1524NH700UeVgw8+uDLFFFN4nxsX+C7XXHNN5fvvv49iqqWsvBadwRtvvFHp379/XbkaNmxYdEUxIAuS6psvUNcefPDBhmW47DKeFP/7779fOfDAAzPXWwLvd++99zbdDo8fP76y2GKLeZ9RVCi6PIjOwNSN7777rrLLLrvUlZtW9+/POeecmuf3Jj3A559/XjnooINSyRLTP4kbW5jvUqZsHDNmTGX66afvStOUU05ZGT16dPRr36TjlbBZFA15gh3/ggsuWHnzzTejVIl2RkpY0Zeg47/FFlvUlfk8YZ999gkb/yJo1OB/8MEHlUUWWaRGzvYWJSydnCFDhlQmnXTSmvzLElCYPPHEE1GM+aCze8oppzSVDhMYBMYpykT7cuutt3bVIbsuFd3mUTaWXXbZrviTQlzf7Pe//32hkw9p8ckiziHrfP2FtMG8J3XnpZdeimLOTzP12c7zRRddNFQsC5EWZMW6665bU6ZMKErpRvk+7rjjvM9IG7bddtvKxx9/HMVYPmkUF0x6FNUOI2PHjh0bxZyd1157rTLrrLN64y4qSAkrkjj11FO95aaV/Xv6Geuvv37N83uLHoDJmJlnnrkm7Sb4+lbuOcYWrTYcPPvss2vSICVshythJ5lkksrJJ59cueGGG7rC9ddfHwb7XFK48sorK/vuu29l+eWXjx002IEOihR57Y+UsKKv8Mwzz1TmmmuuuvLeTEAx+sILL0RPKA8sttxn9wYlLErvtddeuy7tWYJpb5jlxpIuD1999VVl0KBBdXE3ExhE3nTTTdETRDtiKwWYGGaC2O2/cFxUm8fzLr/88hoFQ1J/qVFfauutt6589tlnqZQbRRD3HGQcss6Xxkbv4At56o6dNhRL6623njfuPIE+suqySAPlkElFXzkiFKF0K6q9om6iqGT1RzuALEOm+dJKyCtLkLl5ZCQTu3kscdME8y5Swoo4KH+2RaRddorq36epF48++mhlsskmq0lDb9ADXHrppZlW1sWdRwmad2zhIynPkYHo0cyz+V9K2A5Xwhb9gZmhRSk73XTT1T3LDigORHsjJazoCxgFjFvW4xrmLAHFLgretMQ10HHnqYvUSfe57aSE9aWdzkazClg78K3osOJKAtLmI+3VHnvs4Y2z2UAH8MYbb4ye5CcunaI1kP+UgW222Sa2vhfV5lEW8ri5iAukl7JL+nsKn+wsQm66dSdtPWFiZ7XVVvPG2UyIq8uqv8Jm5MiRdQoLOzSjdDOyym2v0ta3uOtoh2mPe5Jm3qtRoO5iXZa1rjLx4ouvyCAlrPCBGx1WhfjKDKHZ/n3auoBlOu653Oe3ux6g6L4WY4vHH388ir08kDnIPVv2SQlbqXT0xlzVjx39VQyTTjpp6CT9jTfeCNZcc83obD2XXXZZ8O2330ZHQgjRetjQotrJCF555ZXoTDdV2R/+jxP666+/Pnj33XfDjSI4j+x6+eWXg3PPPTfcZCaOd955J9h2223DzV7SECePfedJx3nnnRc8+OCD0ZkJFC3Tm8VND5vkHHTQQcG9994bnall2mmnDQ4++OBgzJgxYT6b/OYbnXDCCeHvLlxTHUgGO++8c/idzDPNNzS4aWHDowsvvDD825dv1Y5wuPEW38+khQ3Bqp3k4O677w43SKh29qKra6l2dIN99903ePXVV6Mz9bTbt+prkP9nnXVWcMMNN9SVlTzExfHEE08Eu+++e1gmfBgZwyZVXEOgjA0fPjxYd911o6tq4VmUXdLfE8TJTpMH1Avqxz333BO+C+/Eb9XBW1i3999//2DyyScPr3Xh2t/85jfhpjzcE1dP7PwmPYMGDQoeeuih6Ew9Jp/fe++9cPMNkx42+iM9U0wxRXRlLXZ6bFR/heHf//538Otf/zrsI5SBkVVue2XXgR133DF49tlnu9oq0kI/hc1DJ5lkkuiq2nJLO0x7TLvcE5DO008/veu9DPZ7sSHXkCFDwnehvvIb9Zd6PGzYsGDgwIHRlfVQd6nbbJSWBVuu2fnFpn5s5FdEiJM3ou9gl3Ogf3nEEUcETz75ZHQmHvfeNHBP2nbr1ltvDS655JLoaAJp7+0pnnnmmcS+Fhtw3XLLLcGnn34a5gXXffjhh8Gll14ayhlw39H0LdgkrQh83+3tt98O/vjHP4a/5fmuHU01Q3o9rbKEtYmzMCPMOOOMLVmqK/IjS1jR6Zx//vl1ZdyEhRdeOJU/wGojXrn77rtDZ+6+eAhFW6zxTN9ym2rnIfy/nSxhXZLyfK+99qrxpct7urAc87e//a33fkK1Axs702+fr3Z6KgsssIA3juoAKfQnFRePDZuKbbrppt54CGyaRjxp4hKtBeuGRqt2mmnz+Objxo0LN23zxW2XM1/5MOceeOCBWHcps802W+WVV14Jr4NWlTPcWPnSQ6A+UC8agb85NuDxxUHAQjlucywb3tm3qZoJ1YFXKj/NyB78efviIGy88cY94otXtDc+S05faMbyEf+mcf4N0/RVqI9xq0/oR9CHKYskmRT3XvRlcAVy8cUX12yyFReX7/2Iw/SJaOsZk6YlzfinVbJW9B3SWHEW3b/3leN77rnH6w6BsPrqq7elHoC2mTbal2Zck7iyxIX7jznmGO/9hP3337+UOp+0gkeWsBO00r2eViph7ULqOhm2A24LRPsiJazoZNjQisGLW8YJNIg0jFlIakjpALBUsVmQrSgTkpR+hHZVwqIsQmnkppdOJ0rltB0cBr1HHXVUXTyEtEqpuLYpz+aRdN58y7YImnBsTxot+TOhWSXs4Ycf7o3XljFpyj1lyLfjOoGJh7Lwpc23GaAJu+++eyZFJfHH+dFkaTc+6RqRpKAyvnPTQnrYEwGZ7cbF+w4fPjy6UogJDB06tK6s+EJeJWzcsmCC3V41kiNJboB6om9Pepmk9KUHBRCKIB9x70k+xfULCEkTtDZM9Nr5ZORcO09ui96LKZOmf+xrV+1gymGaspwVjBP23HNP73NNaFc9gFnO76aXcyi30+QX18T1R4rWlyFnLrroosq0007rfR5BSlgpYZsiaYfJE044IbpKtCNSwopOxt7Qym64Z5hhhtz+f956661Y6/9f/vKXqay6bL744ovKyy+/XLnssssqO+ywQzgwadRBI7TjYIHODTPJvvRixZa1Q5k0oETBmgT3rrDCCt57824KROeV3VR9cWL9K9qHtJZrhGbavDjlIMrUN954I7qqnri6QNn0WcmgEEUx2ipuvfXWujQQsDajHmSty0kWLGz6mgTPMoocVzZiseMqYNOmLU6xxk7RWZTMorPBD3mcxZhbHvMqYceMGeN9BpMUWSd34xQ9HLd6guH111+vzDHHHDXpMAFFiFtX09TdJNnOs3hmHCb+8ePHVxZbbLG6+82YNa0MESItSf1ZN+Tp3/vK7LfffhtO4DDp+Otf/7oy++yze5/nhjXWWKPt9AC0ybTNvvS6ky+N6i8yhFU4vrjMyrasYIHLqqj777+/cuSRR4abItrxxo3rpITtcJ+wZdOvX7+g2jGPjmp56aWXwv+reRz+XxbNxO+7t8j4io6/U+npPGnFd9J3bx34Xbrxxhujo+68rzaEQbWRDZZffvnwOOs3wadQtYGNjmrBVyE+YuOwn4WvV9KC/9OFFloo9HV69dVXh35Pe2s5wU+4necG/K7iSy8r0003XfCHP/zB66MKn09ff/11dFTPiy++GPqOcql24oINNtggOkqHeT4+3vAb5YNv73633vodOwH8COIPOAm+q69spcF8W3zN4g/VjeeYY44J5p133uionrjnUjZ9PmL/9a9/BU8//XR0VD7/+Mc/or9qwfci9SBrvuEbEbnru496Wh3wRUf1VAeRYX0Hu05NNtlkwfHHHx/KCRvfM3x1cbvttgu23nrr6Kib6iAqeO6556Ij0ZfBV+Dhhx8etss+ipLxtJu+Z+ADdsUVV4yO0sF4jHrqpo3jyy+/PPS12ioeffTR0JeuC30C/E27dTWNXGFfkkMOOST03erCs/D/HIeJ/4svvgg++eST8G+bRRZZJPw/TTp8FFUeRGdBubjgggvq9kmIK2d5ypEdF/sZTDzxxGG7Sz+EfSv+9re/hT6W09CO5Zg2+b777ouOukHeMb6w379R/TUyZMopp4zOdENfgz5HWvA3+7Of/Sz0yf3Tn/403Cvp2GOPDUaPHh1dMQHJhnikhG2CqaeeOlRMJBX6RhXCplFB9f2eJf40NBOfe68vrqLTm5eihULa+FrxDbO+W5bvlBR30m/t8t37Ah988EFdIwgM2H/5y19GR/m+ySabbBKssMIK0dEEiIcBAMqSOOxnJSkdDL2tvNx55511Ay7eAWf0M800U673IZ+XXnrp6KibsWPHhp2fOOiwfefZQIUOUjObZayzzjo1G6AYeG9XKdzbvl+nwOZKbLL0P2fjhn322SeYY445oqMJsjprO2Hg27LJ1nXXXRce2/EMGDAg2HzzzaOjbFA2Ubz4eOSRR6K/yoVy/MILL9SVX9Lmyr0sLLHEEqEC14XJG5Rd4PsebPLlU+RsuOGGqRVUvrrIQOzAAw8Mlbk2yI0RI0ZER6KvQlk8+uij6xQnCy64YLDHHntER82DMvCOO+6IjrqhXKKopJxmBaWLLesMjSaKi4T8i5vMGTx4cNgnyMv8888fO7Eb90ybjz/+OFTE2iDf5pxzzugoPbbMUpsvfFAmDzvssOhoAhNNNFHw+9//3qsIbLYc0Ya5/Z/ezm233RZOILl5w0bxvn5FI5Zccslg0003jY66aTSR44LBjzuekxzIhpSwTUBhY8bF13lOi68Ro2BjzXTKKaeEAxoUvTPOOGMouLiGMMsss4SNMRYNzPIwe5E1Hc1UFnYbZcZpzz33DDtm5APxkUaU01RyOvlUaN6naL766qtQMPF8ZnCNooN00JlAYXDaaafF5kvWd4/LW3PexEcn769//WvXdyMv+I3ATNGiiy4aphkrIjpDZRD3bnyzu+66K7Q8NJMHJlC+GNRhQZWULjturmN3SQanlEe3fPINGsUnioeBvW/gvvLKK4cyoxlQ5K699trR0QRMHfjnP/8Z/g92fYmrO0nkuaenQBb5rGCxOHbzykfcu84wwwzhgJJOlh2mmWaaUNEeB0paF5Snq6yySnSUD6wKkGEuyLwky1zRGlDm/e53vwutU22wLt1vv/3CtrEoaNd9ky4ogGnz8rLqqquG9YZyThtlyvz7779f2s7sNtRFBjtunaR99FmfpQW5Od9884V/220ouxij0OZ59nlDnFIFK9Y8CiobFMMrrbRSdNQN1rDINNF3Ybf9s846KzqaAP27U089tek+hA0THs8++2x01A3lkvKZB9opn0U9fSLfCpEywLLX1w4jR+gXN0vchOirr77asO7SXn/zzTfR0QSQTzPPPHN0FI8rF43MiuvDiL4NO+6zCsRVijKJsNVWW0VHxdJpZZE+AroW3st+NxTYPkVqGpAd22+/fXRUC3qVLHno9lsa3evr5/RlpIRtkmYLlH0/s5OYibNMd7HFFgv/vvXWW8NGk4poM378+OD1118Prr/++lCpRwefATIdp2+//TZVJXKv2WmnncL02GHIkCHRrxNAkXfOOeeEDTbLW1EA0/AbIUucDMhRyJx++umhYo9OG+nMq4y10/nuu++GM+R0GhBAPB/XD2Z5Demgs8UMPst5yRfyElP+NHkSh/lOxGHHw3kGbXwnFKwMHBmImu9mKyewXiOtpBnlCnlIZ5MBbd600eFaY401ur4XYaqppgqeeuqp6IoJSv1rrrkmtA4YOHBguCyLfLShfJGO3XffPVSgUvYoRz6416Sfb/HEE0+E5dGGY/Kc+Lhu3333rZt9F+VAx8c3a7rUUksFk08+eXSUDbt8Lr744tFftfLLVvza5910JJV199rewNtvvx1arLlQ15BTjUh654MPPjiM3w6vvPJKjfLEzk/qOgorsOOlDs4+++zRUT5Q4vkUeZQ1t5OdV56J7JDXBNx8uEo7FIecN5OBReFTDtK+2NaiecrAPPPME7ZDlHPkmCnzTOa5VputhEFLUUpsX774vs1//vOf4LXXXouOumHwxcRzs3WMMuGbmEF5RN9F9C1MecJwgXbHlelYs7ESptlyZ4PlPu2HC65J6Mfmgbq0xRZbREe1PPDAA9Ff5WDyhv60byK8f//+3onMrNCW06a70O9GbiRB/8EFwxUmfRsR14YU2baIzgBdAdb0bnnDHQeudMwkolt2ipQvNr21jGJwga7HhXzEnZsha74ts8wyYX/LYPKHlXRZDKeyPres79tbkRK2CVCwxfkZQfGXFgrl7bffHlp8YP3qzlKmhQYYf0jMIPuWI7tkFUoIAzpHPoVaUlwMprDYxXTeLL3LAnEj0P/85z+HnRisL90OYhJY7GCRhgUoz29GCJAW+11ffvnl0MIQy9ek5dhxjBo1KlRUMyvoKkaLgO/EEvQddtihRlFq8sB9HyBvKYcbbbRRl3Kb6005RQmHJS+499rY+XzuueeG38B+x2a+g4jH5DH5a38fGt282PFgiWmwv2Haus3SaOSmLzBwMX+zLNa3XKndwF+l62MNpU0RFi8GO5/demN/GyZOjCWkfR0d3mZcEbjPtGHSxlXuJ8kFUSzkNdYLRxxxRHRmAliunX322V1+65O+YRZQMDz22GPRUTe0Y/RhDJ1UBqjfSS5AGoFihPbXzRNkaZzygz6Pb+LSTKgUkb9MHLvEKZBEZ0N5YlIfow5W09jQd8OoAYqq18ijkSNHRkfdMNnB5EAzz8FP4ayzzhodddPIB3MefHKVOmT3h8y7oDSZfvrpw7+bgbbcNynFuyE3ksD62Ia00YY30z8QfRtfHcAg7LLLLouOJkBbhxGX7Y7Dvpey2Kx8wQreHlOYYMYW/I+hAhb4xjDBfmZR/aSiYFW0O74AZKS96ihrvjEZtOyyy0ZH3e+NwteV/3EgN5588sm6vDaBfDZ/u5bPzX7nTkFK2CZgwEvh8vHzn/88+isZCv5f/vKXcIa5KEtBrCfWW2+94MEHH4zONA+K1NVXX73OR5QhjeDChxwKwayKWJTdu+yySzg736iD4cNU9iuuuCLM52YGUzb4ssJnI0IoD7YQuvnmm0Nlbp644vKefN5yyy29S6UN3OveT7oILEvE4tV8LyxoUTbb5TTNdweuY2LAKMJBQrgc7E62+T50sG0FSRG4389YfTYqE3QcsNBLCgygmvGb1kp81jUMtsxGF0Vg57Wb73Z+853ZGIlJEjvgIqWZwR/PRG4yuHRxB3BpZYIoBtpmFCTuxCRL/jbbbLPoqDiwTDUbj9ow+DFLZHtrGUA2obR26xjKDaz28kKe+VwjIZPjlLAoxLjPJWveJl3vs9Tnetu1jOgb8N2xmjdLXw20GxhAUFbcetEIOx63HLJkHyMGF9r/pI390hC3abLtg7koyBPzbiZ/GBfaxjTmdwwYsuZhFpjUSVoxwFjKnWAhbaxWTFol5X47IWxMmTblhNWRWLsazO9s9Ie7objyVEQ5oxy74wk7oHhlfEG/1ddfKbN+5sFe1WrTjFEN8O6+PSfQa6VdCcOEGfnoy2cC+Wz+dlc2SKZMQErYHJjCg+WjbzDCsjyfhYEPfC+hXHRJEgRphAQdHJbFF2FdidKNZee+ZSxY2/C+SYMJG6zbLrroouioMShdDzjggOCqq66KzmTHruw458ciN6ufUldg3HTTTaFC13Y3kBU3TgQfynMasCz4ygPfn5knn9IcYcj3ilueTLpM2rif70U5pQz4LJBNfAjaRhAfVluitVBGqKtFYJbeu+XXDJx85dG+1r3PB3GkkXM9DcoZXxuA/C/C4iUNdj7RKWJzJHxG2oEVDChK0+R9HMhOnxN+lkXZA7je8N06BdrHgw46KHbJnxlkNItdbpjkdcsBz8H6zNCbywAW7Lyv+w64EbL9LWapS0wA+1Y4kWdp5ARpsUMWkq6P+y3LDsmiM3j44YeDP/3pT9FRN1iu/eIXv4iOsmGXL7esYSXlW2ZLPyKNG58kmEzBNZgLq/nKKNtp62RRLk0Y19kr2wz0wWmL42QTChbjrsjGVnoz3mPidptttumyuDf7PZCvTC6z4hKXNI1cH4jOxy5rlBHG1qx2Ywxq4BrKE77pIW19aUSWNthHUekoC+qXz2d2UUY1cYYicYpfUTxSwuaAisvg58wzz/T6OcVa0Pa1EQcbMhx11FFexRbChdlJfLIyW0znn3OE//73v2EjPGzYsHCAHQdKYlvh6RNYSULMvCdWNrYyj6WtKEaZVcafE2nBYgOTeQZnV199tbcDZMDyN625+xlnnBFceOGF0VE9dDjoEODHjGfzPmzggXUQ1l++dPAuvh1Zk7CFNUpSfJ3G5R0dFnZAZUdnLMe4jm9M43TPPfeEv5lOjQsN16BBg8L0NwPLUN1vhoUcnVBjYcOMOHlFZ8r28+nCIJ8GlHcw70wjcNxxx4VLn018zP6b3ZWTNm+gTNqDWVEsWCzznezAZEGzM6dAJ963hJCynGT9b5d1X7nvrWBV45NlCy+8cFtaBebNe+SRvVEL8RAYLCe1QaJc8LvOgNkGpZ675M+Q9/vb97E8zoVnpZmEa1fsOrrWWmuF7aFbb1lZhKWgOZ82L5mwpT12MTvAx8XD5Kbpv/BME+hTFLWax2eJCLTlPl+dojNBvu+66651m9/tscce4WqoMqBPQn8C7DpAmbddHiVh6oQL8fn6tIzXbOVQWRjfuW5grwXg72bAb7bJOxvc4CE3eH/fM1Cw+pY2M2nMOG6XXXYJ23S+OSvoXIUt34xJZ+QZKx94FjJM7kv6LnbdRV9w6KGH1q3oZPNurOmb3UzSJa7tTEuz9bBsaIN9K6SzbBSa9I4ocu1VbIYijPdESqofqNdT7TBWqg13pVohKW1dYcopp6yMHj06uqo4/ve//1WGDBlS8ywTqhWj8sorr0RX1sO9hiuvvDK8h3TbaZ9oookqF110UaVaAaMrk3nnnXcqq622Wtf9dlzVRrkyfvz46MpkBg8e3HWfCYssskhNfMsuu2zljTfeiO6I56uvvqoMGjSoJi47XHXVVdGV8VQ7GuE39N1P2GeffSqff/55dLUf8vDMM8+sVIW/Nw47DBgwoPLll19Gd/rh92rno66smUAeNkoTVIVcpdpR88ZB2H333SvVBi26uh5TjkgP6fbFYUKab9boe9lh7bXXDsucwS7TBtIVF1+1g1159tlnoytFu+H7noaRI0dWJptssrpvOs8884RlukiQ3b76Tx1rF0hjdSBSJw9OO+206IpuqoOmyvDhw8P0zzvvvKGcN9cjn/r371/Zaaedwmu4FpK+RRn4nvf8889XllxyyZr3M++7//77tzyNYgKjRo2qTD/99HXf5dRTT42u6Mb0kexrCWnaPBdfP4Gy+8EHH0RXTIBy8eabb4bpWWGFFSozzDBDzT39+vULz/M77VM7laMbb7yxpn7a4Zhjjql888030ZW12O/A37feemtsH+Y3v/lNYhvPMzbaaCPvvXfeeWd0VX5I38477+yNP0+5EL2T7777rrLHHnuE391ux+j72/08w8knn9x1jR2GDRsWXZEOrvfFs++++4a/NysPzj//fG/8jN3anaR3/+ijj8I+ve/dkDdJPPHEE5Upppii5p5JJpmksvXWW6caIyWFJLko+ga+dpNjX7ns6f59kX2isohLYxa9ThIvvPBCZcYZZ6yJmzagjDzw9RvL0tH1JjpKCZv2AzfTuDM4prFxn0VA2CCE0kA8G264oTeeoUOHRlelh4Z5ueWWq4sri8LLV0nsgPLts88+i65uDNdyjy+u3XbbLbrKD435xhtv7L2XfL722mszfcd77rmnbsDqhjSCh2/ju5dw4oknplacg935dQPvePfdd0dXxkN6SbcvDgLK+ffffz+6Ohk63HS8ffGYwPdMo2QGBtYMzn3xZO2wi57n008/rZnsscPee+/d9KDJpTcoYeMGknb5pr4wsKRzYw9ykwL1f9ddd/UOgssGufTWW29VrrjiisqKK67oTR8ha3sgimPcuHGVxRdfvO6bbLPNNuH3cylqwMG1a6yxRmI8yIH77ruvbgK3Udmff/75K9ddd12mNrQseIe4iXYC73bNNdd4yz/5//DDD9fUHffdt9pqq1CeNuKwww6ruc8E5EmcvE2Sw/ZvTJoxeeaLf9VVV6188cUX0ZWik3GVlZRVJlqZcPVx0kkndV1n35e1T8dEpX2/CSh58+CW+7i2mTrVrph34H9fPeYc4wzfey266KJ1E2EucXmSNcTJcvoEaccborMYO3ZsZeaZZ64rE0cccYS3LD/55JNSwjYA3Q06nLLSaOeBXaeZ5Pnkk0+iq4pBSlg/HeeOoFqQor/iTdXjzvuo5lG4jJwl2/hYxQz86KOPjn7tpjpoDt0TsBFSEsRHYBn3c889F53tZv3116/bRa4RxMdyQJblu1QrauzmYVlgOcHFF1+cyVfTtNNOG7pb8C1BwC9Tkj9V/FPdeeed0VEt1U5guFwm7juSHy74eSP9fKe8sPSYZZ4+WLbFsv0sPp/Il3PPPTdc6u9SbbSCSy65pG5JoPtuvnc18K1OPfVU7y6xNiaOOeecM9h7773Dv330798/dCXAd00DfqZwW+HD519YtC8sM8J3NX5BXVhWi5/lLHK1U/DJVvLBLPHB/QiuOVi+Rz1Lqq8G7jf1nzrHMi7yvwxo16qdsNB9jvH/xvfkuNppCkaNGhVe535bNlhkmXWzvvtEY9wyQ1moDmzqNooqa8mfDa6QfEvh8RWI+w2WzrH5Ikv6cYdkp93+2y1PHONrdrvttgtWWmml2GXyrYL00J7j2sWXn7zb9ttvH7p+MP4nCfQPqT+rrrpqV90B+91pE4cOHZrKF+wKK6wQ/VXL8OHDY5cAu3lrY/925ZVXxro9wr1QM/7uRe8A11osH7ahrOJqijLsw5QhVy5lJa5Nyyu/3HJPG+yrC+281Nakl/99aWdvBmS/D8ZE7HiehL1pazO4396kFxdouGLw5XGz5UW0L4yN0T+g1zBQHtZee+3QnaGvLPvOiVoY//tcXtLXKiL/kLX0X4jLrp+4ypS/59bQcUpYuyDRiVx22WXDApY3oLSbeeaZQ/83+BjFD4/bmKCUuvXWW0MFFvckYeKlkPt2mt5iiy0Sd6n0YZ65yCKLBFNOOWX4t42ryMvDkUcemcrPrYE8Il1sPLHkkktGZ7shTXGNMufJTxQRLigsGcQk5bP7m3nOpptuGioW8vLYY495N83C91TeTVAQgiiqKWMu+FZlsGfjvltSPjAYZoOWRthxMOjz+YgB8t124J8GNz7zrLKUSqJ4qKsM1OJ8M+NLLk0560R8/uUo78Yv58CBA2s6po2gfthykbxH+b3DDjsUvqsz0J698847odLFt2GHwaQJhfItt9wSKnCkgG0NtnzmOzAQt329A/0UJieztNF5+O6777z+vJkEppwz6Lriiiuis37cMg7mmN9Gjx4dbgSU1W97Xty0GEgL/QV8uyf5OKefSR0i+Pp0BvxcsiklPvGREXF5YEP7Sb/O5dVXXw0nWOPSHoe5nn7MySefHP7tg+uyxi16F7QnKEjcNow6vOeee9bInaKwy5RPuQBMJhUBGwXHKWJ7IxilII/MuMh+L2QE+1Q0Io0Slr7c9ddf3+UX2sgCZBvGMRicuIpyc42R33vttVedz1r3O9hlQbQn5rsmwe/4Srf3IAH6h/RJ1E/MD3Xdl/8YTOGPuVnQNc0yyyx1z+gUmdkb6DMbc5VVqFAK4qh84403zvQMGjh3t1yUeCj02q0CMBBgdjMOn5Aw74AyYqGFFgr/Tgt5c/vtt0dH3WBhcuCBBybOlNtpMX+btJC/++67r1dRnQY6Qb53xUIaQZYWNw6c4hOHC51jBoB5oPO54447Zi5LOOru169fdNTNHHPMEWy00UbRUXpwHo51kMH9JqI98JVrYBMHrNNOO+206Ew3fEM6/4cffniuCYhOwOc0HxjEYBngm0iyy75bD9zvYI7ZJINBVhmK2LSsuOKKwVVXXRVOZhW1y7PIBoNodh52y8lhhx0WTuCWDQNrFLEurBZi0o8BeCPiZA3wG4G+EZZdcathiqRRW4RS4oEHHggn9LNg4uV/2k9WEdBPNLjP9aUDyzbkrw+s680mjD5853kGE7tYsvsmkAy+tIjOgbLB5L+7soX+2gUXXJBKcZKnjNj3MG5qBW49wIK8Xa28fXUWZTWrLBmD2WNGcy0TcGzgjGImCd45aQMt7keRxgQN41rKgmnneRZjuVVWWSX429/+Fsp72iEXkybGb8imJCRj2h++UaPvxGoqn3U27RNtp69Mi3RgGOFOZkCReeqLiwmXojb/FMn0GSVsGYKAQfall17acLm3D9/umVgHxi0BagYjRE0emP/TgjVXUqcsSUjzW1YFDbsvY5nlssYaa3itasG8k50W972BHdw32GCD6Cg9CCUsYV2wPPINfpPy2M0vOlGbb765VznMcuY8lswo81nK7CPr9wcUMChos8Bz6MT5FDZ50iDKwy2TdPyvueaaYL755gst73ywAoCOdlznvy98Y9+yOwZKLAt3FbBMHqFIxZoEeUL+cA1KLZZfM5BiSXMcKGKxfuspWF6NHGAH5vvuuy/x+6p+F4+95M+ur2bJXzOudtJCufVNPKAsdS1hgHYIq12WvdO/oVwQiIcl9VtvvXV0ZT3UI+oLbgrKIq6cmvMMgE455ZRQDqZRMNuYOPgf5cdSSy0VTgLHTdyALz3sPr7AAgtER90gO9jNnKXjvoGaT6ZfffXVwTLLLBO88cYb0dl43PtF53DzzTeHShIb5Afn3LIWV0d6K0mr8Hoat84x6Uab+7vf/c47oQtYGyYZyRiQESh1eIb7HGQC4xvcyPjyxr0eq/6zzjoruPbaa2PbHVYHppEzovdCu84KYLdsYi1tJg/VjuTHzrtW5iN9hTx6B5GdPqOELQNmJ/Gjh7IibmlNK2FgkzRrQiXm7yyVGQUq/lQbkaZTk/a5Y8aM8ca300471Sxtt0mK2/6N98ljMYRSmJl79znMDFMGXLLkMaAwRbnhgkI6yWLF4D4P62NmrtN0qGzivuPCCy+cSZlul7OseSF6Dr7byJEjQ6sv/LwahYH7DXGfwQz48ssvHx5nLWd9DaxGUJ7h0mHllVeu8QeJcpYlmLgdeP3110Pf1XHW/iiEfH55WwXfFEs6FH+4oYizKNK3Lxbql73kz9Q3JkdPPPHEHl/y59Z/lu+TVtpylIhMLtjtB+Wfyd0bbrghXMZPeTLYZQelAa5QynJfE1dOOY/f+tVXXz045JBDwgFJEWUaFyW4aHrwwQejM7X4nsHkJ64D4p6PRSPuIFDUjB07tsZdBH7dOIdCBMs2ZLq7AisOn0wXvR/KNf6OXcUJ9ZRVDi5x5U7lozyY3GWChUmspMkfJmX5lmlkE305Vjbx3exvR98D/+5mMj2tnOM6ViugBPbBxFOrXMqI1kObfMwxx9Tt70F5YnVc0opVkR3J286ko5SwaRuPIqFhw18fS/EYkPZURcFKho56o+dnzSOWw6XxA5om3kZpM78/++yz4f82WImiCGxEmvxnEMRMbhZwkcAmZ278DNKKKHf4r2JDEhcGqElLiAxuuhjwki5CmjxpRNrNuAwmT4p6vigfJhmwyB4wYEBYB+3vZv9NPTSKWkMRdaATIV+wFsFqJE0dwmoc5SaDF1tRa8BqFkWsb7ItD+6KDOJnADhs2LBwgOVasdvl4LLLLgs3kexJFwl9BXyJ/ulPfwr/tusaSj0zEVIG9vdOy5prrhk8+eSToVVVI7lA/Az+8QE/aNCgrnM2KAhwB9BKUHywlNJWgNjpwmXPscceGyqZTb+AQP3BOgjrXyxfwc0D2nT2GEAB7b5rHGz4muTDFXmAUcASSywR9m14JoF+E+coO+PHj4+u7obJIVwluOBe6f/+7/+iI9EpoKDHSo3JPhvKOso0KU56FmQJcgWjDNrXOPhOrELCPZsrX4xMcWUL/QlcTSB3CKyswSKaCaG8vsR5NmnwbS4M+I5PsvwXvRfaG1YC2+AyECOCRuUpbbsnykffomfpKCWsW5hQRNFxNY1O3sAO9gxIfYNiA40NGxe12oQb3zw01iyz9y0HbBasJ4pwAJ0GGnQ6ifaOvaaDgcuHRj6PwO2Q+ECx7PN7mgQWqS48K2nDjjTYZZZZbxfyI8vGPj7S5ElZSMC3P3SSWSaLf1eUb0ngZxifYfgxFo1B+UrbkbUOoqRxl4sa7r77bu9EVdq6lnQdgzuUMihnr7vuutByBmuHuMH5XXfdFVriqZ6XB+0h7gbMahuT1yhTKFuGpG+Q97es5Ra5wJJ3JhXTYOKnj3HGGWeEyiAXLPYuueSSlvWtsBRkYt3X7jKRwvthoYtikwlddhc2UE+w+sWq8JlnngmDb/IYKyL8srquXuxvYf9NPv3+978PXZZkIenbEhdWvj53QXwPBtSic6AsYE3PChYbxjVM5mBNnQXKZFb5kESeuJLKd28CGceKSsY4tKdJlv/005gcYpMuX56Zc+5v7M2w2WabhS5gCEygMunOGK8ZGGfTf/TJC6zwjaVkp3wrMWFjxxNOOCE66oYVF6wObYRbNvPU/b5OUfXJznt9h9bTEUrYuIJDo8BSetPo5A2//e1vwwEpnXI64HEWTcwAlWGxwXJ0GjJ2pT7yyCNDXyso/3g/lgWzbMXnQ7UI6Iy3cnaczoe9xNUIGpbkFaUMZtCU1b8py/pccI2QdrAZh112fW4NeP+0yweFSAvlCusprCqRIQzCksBPHJM8WF9ktYruq7AJD8qYvB0bBknrr79+dNQN1na+jQvTPidLevjWtDlsEBg3CXb++eeH/mJF8dAestw0bsmfPfA139XXOU/65mnKQ5oOP74BsY7J4yMfUAJhBebj/vvvL62PY8Ok569//eu6/AYmSZ966qlg++239youfWANS92gH+mC4gUXJCh903wznklZYBIGmZ0X6jSW1cSFLCG4mJU0onPAF7mxprfB3Ucea3rKbBq5EIfrfitPXHnKKJOMrTIsafRO/I5/ddyHMfGTZDXKOIyJk6effjo0umkXeIell1469F0L9jdhLIf7IpA86QzMpmyumzxcCtF2pvVNb9cN/vaVj0b1p9NBJxC3kXgZ9cnkN3oNjNVE+XSEEjZPRc1zD51gOuB0xBkEubgWG3meMW7cuNCqFt9dmPRT0agQNNL4MmUTBnbeZjlR0mwp9MZGD2Wnb1c+8sK2OGkG4sm6/Ma3kysDIZ/iNC90Dn0CF+f8QhQFcgmlBstUsYRKkiMM2LHm/Oc//5lqeXFfI84XJ/nEhgVxPqyhUfsw+eSTh25ufKAUtX0/lg0Wiixf9MknlDhXXXVVdCSK5PTTTw9X49igeE1a8penjjYqiyZOlBeUSx9Ybze7sSguecxg3sCz6RdhVVU2TG6wGaYL1mJMgvs2yGoEMgL3BAxS3W9DPw4LYEOjb8fv5DMKaSzls67o+c1vfhMqRZggIq64jdZaqagS5YM1PROCrsKdyQFW8LUTvgmQPDCO8BkwtHKCIek5uBljohW50GjzQfoByAombZL6FD0B74isMLLfbUsef/zx6C/R22GswKQN7oZsaB9xdZHFN71bN3x9kFbV094GsiNuP4YsEAfukVzQdaWdaBbN0VHuCFx8ldqca6Zy0xG3N0qw48IS1lhspH0GywzxAchsNFYkLDPB4jbJ8iNN3I0GVlkpOr6egvco8l2KisvdKEGIomHAjXKwUccfqwuWodNAs9Ss3Tr+7UKcdSjLsm2fuTZGXiDDk2QHv5s2weXVV19NtWFfkZAW/L/5QKnfrNsUUQuDV9+mJ0zExg1442jUX0jbV2GQ5fOnzv1MEjcjJ3gX4meyx2DXkbKVsKwMwMedLy+wBs+jgDXwXsSBXHXjR8mONWwWyGeskXCLwCTtYYcdFiy55JJ1K3MYHGNNP3To0LB+YrVuLz/mnX2WsGn874veAYoTlg77rOnZ2CntSre0siYttns36oSpF6S3iGfFbZbcypV9PjDSYXyHYQ0+WZNgozQmTZBLadyx9STLLLNM9FctPp/xRZcl0RpwV8YEsA2Wr0wINtM+ZsGUnb5QhjB68E16I0OKeH90Dj43T0xUpbVoFs3R0bns60z7zuUBJYZZwmNXBjq6bOKUlpdffjm0/sAywcwupalc7jXsNIzFWpnKkqLyrqexO3ztRNo09YXGRxQPm8issMIK4UA8qawxuP/ggw9CpYFcDyQTVxdZhhznY8/kPfc2qvNY2/s6t1iwYR3YSkhrnG/0tBsIivTgv9G35A9rRlNu4sqPWy7jymmatiRNXAwUWJLaDOZd7MG8/SzfapQiQRGKr0X3/fDBiIIZ0uRXHFiTs2mZGwf9xcceeyw6ygbWKkz4oGTDT7S9+zmBuEeMGBFueuaTR5Qv3yAsq39Q0b6wioXVdTYMsJngybIirFFblRV3FZmpF7QjeZ9l16249si3irFVMAmORTIrHZPcjCErnnvuudD63p0Qsd+xnWAzP5Q3Llhhu6t2ii5LonywmkTZ6pY/yjOTBa3ClJ2+UIboa/tWALPJps9FYlZo/9kM0AW/9loJ0xqk6s6ALXywbGBA5EKH1t5YKgkc5KMUMcrXNEIFSwfuwTqNXbdR4mLJMHz48GDllVcuRTC1UtgxqPA15O1MUfmTNp5Wfg/R+0FuMYPNMl/jn8vXkWfJG8o0Olps4hBHuw4CegLXr50B/5GN6qn7u5uvHGN1SIfIhQGcz21L2cw777zhZkRgp5+OXJbJR5EP/DLT9yDvkwJKFvuY5eW+lTUjR46s2U3fDjvttFN4DX8buHa++eaLjrpBXjS7wYsBf+2+yeSiluDFgXU5SkwX5Kbxj2bnRVY5yDsZZa5LXp/KeWWxuQ9Fjwvv2OyGo6J9MPXZBgsoXBGY37KEP/7xj1EstaCI8V2PNRcu3Fxsf4d2OcbnZN5yzfMMxGPSYIMFak/AJA9jxiuuuKIuTQYmbx988MFwFQR+X93ryBdzLm8elQXyzbc5l027pVk0xnwz93/DhRdeGH53U9fSBlaK+SYiTP0wfRi7L5N1Y8reTlx/C+vyIpSwTI744kE2SwnbGvqMErYI4Y8QsHF9lxnefffd6C8/pIUOP24HbEsXN43MgLLMDBcHWNjScWKQQIcdq1c26GJW111e46azWYrIu7TQKfNtmuWbTc0LA7msVlu+5XlZrZ4bgWWbr1FiAN3KbyA6B8oNm2kx+I+zvMDq4vnnn+8VS97aDVwF+BRGRUwkmY5nXFw+C7a05JUnzMobpbAbh5seyaz2oahvQcec9shg+hpF+hAz5d6F8lVmmTK+191nYwnrw5fGRqDc9N1HP8KuP2nfM08agPt4hs/fPArn/v37R0eit1NEnXHLWZZyF3ctVl6+lTZ5J1vc98RynnP2edLic6dSNi+++GKogMXSHkyaTN6QD7go4PfVV189Ns84797b7tB/MWntLWkW3ZT9zeLiN+Xcrr99DVYY+TbhLGolHCsecUnkwkoY1dXW0GeUsGUUKKxSzQDZjj9ph0ugs83Oxvjz8sFyQzrlWK2xzGzAgAGZKkVvFlrkp28GBgu9oqxgsBz2+SlKwueXBeGFMCwKnxUOGMsnIbLy97//PVwu5PM3zOTNKaecElpexFl0+lBZ7Aa5TP10ySOD0+SrfY2r9GKSao011givsQMKFbfDZseTBe5L61Mv7zNEY3oqb3ku1tCGMvoavnfjnBnMl92/cePPIhsbQZ/RN2nDhK5tkZL1++bJEywFcWHgwoQzS4uFMFC+7DKZVN7Sll2s532Tvnn9ndvPZWUGG1mBfb4nJhhYgbDZZpt1pceGfGSCnMkQNn1OM5GVVTaUTSPZwzeWVV3nUVQ5zNN2Qd77ehP0eXwGYBjUpF1xnQQu6nyw2lq0BrkjaAJ7+YUtEBpZwuKjiV14XZgZfvjhh7s2TyDOrIKmtwsmlJ2+pXDM2DTKV0jz/sTl6xAlgd81F57VaFfTLPh2EaWMub6zhEjDE088Eey+++5eBSzW5uywf9BBB3mVAn2ZLDIUpYpvIFnUDs9M2DH5ZDq8Jm2sGDBLpA1xs+ZMOrlWqs0Qlz90GLPknUgmKS97Mp99SkkmI/FTVgS+zaJ4X7Njf08rIdqxjOfJEwZx9oZgJo5VVlnF64dO9G3Slvu01zHewTWAW3aZMMy6UZ0LsghlLtjpwb96v379oqNi8b03xh677rqrtz/Ae59++unhxnxmdUG7yZa49PjOY1SEcsj9nvbKCdE59HRZzdPm9UbiNrzzuXjJAmOCp59+OjrqhvFgT7ls6YtICVsAWYUBlme+pcH4YqQDbCDerHF3gmDCn6LBvA/5ZZbyJJHm/ekQxVmdxoEi1CxjMs/gf1xDFNEYMXOPct4FZbyWiIusYBV5xBFHeC1KVltttVBBixsCUU8WGcpAEh+p7j3ImLTuU5LkB3IBZYl7DbLI9duLEtQ3YYOsM25TmpVVca5cUApjPZcl70Qy7ZqXLM83vhyBdFJO0yhO0pQ/4vFNGpTRDtrpibPwZimxTTPfBWW1b/kfGyT5FJ/0e/D3f+ONN9YEXFQ1O7HCngR2P9TkhaxgRCOKkk0svXdlAuWa/kkeTFwYWfiW6/7iF78ozR2BL08uuuii0I+3C/2Gu+++O/jd735XY/1aVL66eXriiSeGcdsBX5vIgCTi0uM7j0srcJ9d5EoCIfoCdh3CAMy3RwdGW2lWB7v10cDY0O3bAD5ofX5oRTlICVsAcYU8DnsJmGnMmC1kKWkzxHXwexvssmyW/9t5e/PNN8e+X9pvwHUs0c4KfhDNsgDzLP6/7777CvELywZrZoM2Gwa8vuXOQiTBrrr33HNPdNQNPqSHDh0a+jIVzYP8xje4K3/Gjh0bulCBRrIpbqADDCZZquhew3f0Wb3aE1gGZCbyBZKelQbaGGNhZINFsGuZK5rjsssuC8tOEQErJd8Gb7g6QoHquwdf0j5QGLouCShX9oCecz7iyp+5nv99SgugXwBxcbukuc5Oj2+1C7B5VdpnNoLlf7644hTMrGJgM5JtttmmJrB02bfRWlqw0KM/5UJ/Q0rYzgJLKgbrlLsiwsknnxz+73LrrbfWXUvg2XHWXGzO41uJgwzIs/GMqc9sRMqzXZodY2WBdvLUU0+NjrpB+Ylydp111onOFI8rZ5dffvm6c+QP/URfPmWBePlWGBe58G3jfGqL3gWThEz+mXrdbMCoyp7MNbBXju96wiGHHBJd1bnwnnZdZdXiEkssER1188wzz8T2AYjD4NZ7A3oonxKWzQFxsyZag5SwJRBX6AHrKCqOucZUFpbJMDvaDLgysCtfb4VZGJ/fpvvvv9/rwwzc/ARfXjBbS8cjC8SDkmGllVaKznTDtyRdzUD8dGBd62jeCatFnz/aTvjOohwYYJ9zzjnRUTd0eFDAokQRxcHqBVd2Y3163XXXhfU0qT1oxG233RbKBbe+2xY99m8oYbGIdUHhUoRLApTLPl9URbRfopZmyo1Lke0FHfQ111wzOpoA8TO56fPD6MNNj7keK1gsxFywBDEWVXFxx8UJad4fxbLP4gTlgs/KN2ueMhly1113RUe1xFmLMfBll3QXXCoZa8GkdMT9hpLLZ2241lpryR+syEVaeWXKJNfTbvjK96OPPuqd7EsDFrC+CWgMXWg3W8WVV14Z1lOX4447Lthyyy2jo9bABJNvEo6xULOuH4Bv9dhjj0VH3fBt+cZCpCVru9ppuHKUPoBv8ogxRtyEtU8W2/nK33ETMBtvvHFqWS6aR0rYBiQJBJ+vRfj+++8bCpJGv2cFq6urrroqOmpM0c8vCtKFhdfmm28enekGP3H4UCJ/47CFhytIiJsZ6Kybcpl4NtxwQ69wwjLgww8/jI6yg6UbfoDBjh8LWASiD186hAA6w74B9i677BJaRIhiYcLItR6jfqLwTus83yePGdj87W9/C/+26zt/s9GHwfxGHFid+Pw5saQZi75mQO5ecskl0VEtdBLlR7K9KarNp7z5Ouq4qTATD4a4Z7r3ch2B8uVbWYK1uVkilzZOm6TfDMbixPde119/fXTUTZo4bbD88U3Yovg1Vr7gvt/KK68c/VULeU2dzJoO+j/0o9znsL/BoEGDMscnRBbs8kUfd+DAgdFRNyyVdWVJGrieOsamxgbzPAwaqOM+sj6nESiCSb8L7TMbpba6jrFKxWdEEifbssDk7hlnnOF1fcW3NSv5is5j0VmYOtHp7U+eerD++ut37T9kc8UVV4QbbKbBzlcmXnzGaKzIoa8lWoeUsA1IEgjGEbkLDVucrw538xQTP4P1rMpBAx1xZlezzBy3q6Az6WKQ5xM6OLH3DSBs4n7DGgy/u5Dn/enE+JRYWNeS/z/++GNmAcs333///cPdkcG+nw6MlvKIrNx555115ZC69Ktf/apt631PkbW++sDCeOedd46OJkC8WAUeffTRiZNGBve7cM8JJ5wQtjFgpxOFL8s4XYiDtmXttdeOznRDO8Wy5jRpiYMlnvijdKFs0UkU7YkpO0XWfTrqvrbw+OOPr5kASvtMruO+v/zlL9GZCZj7d9xxx64VIUlxNlOfmUTYeuutvXGcdNJJ3omttDBQ+v3vfx9OJLvpX3fddUP3Igb3d+q72dzG/o36yORKEm5cvNt5550XrpoymGuwzpOfcJEFt3zlAfca9vJXE+cFF1wQGihkgQ25kEE2lHniZIMs3yoRyPoejeQMK0Zeeuml6Kib7bbbrkfc9vDeO+20k/c9MSKJk21p5Cmr+C699NLoqBv2s2BSx1BEWRGdS5qy1gnE1YOk98dFwHrrrRcddYMLQ3QiWeA5Z555pndvh6222qrG1ZQoHylhm4BGxufPCAvZuArlbp5irkMJ69sdvxEscfvjH/8YXHjhhdGZzoDBQNySnUMPPTQUPHF57BNyCCt7p/gkgRcHM7qussXA8u/TTjstOkoH346BmW9JAX6jkjqNQvjAZ6dvWdj8889fM9AXE2DyY9VVVw2X6rnhl7/8Zc1kmisz7GOW8fr8seJXc9999431Ze0DRSkyDp+gPvbee+9EP9E77LBD7AQWPuqYLMoK/j6Rnz65uemmm3qVwqI9yDv4Nd/a981xPeFrC1H2M4Hqk0FJ4GYIZYw7qc2zKVsoKm18aYK//vWv3rpMaLQJDZAG38Qnk6X4YbUt7NLCskHipQ/Ct7DTTj3dZ599Ett5BkXG8t2+l77MH/7wh9S+YbkXefSnP/0pOjMBzjORRFzqbwiXuLoGeX+zwRWHrawz99E2Y6CQ1jiFdpPNSDGKcGXeRhttFLbzaUFWYDWL3MB9ky1HUA43kqn06d33555GaUibZ3nAEpiN0FywYCX/fUY8jd7T9At8q0Kx+KXfKUQcvvJeZh1oNYwfGEfY8sME6qO9eWBSXUPPtN9++4V6ARfGClkmiHEbZYzRbDDg2GOPPRrWeVEsUsI2IEkgUCF8BZZNUJiRBe5347Adspv7uQZlahZrVmaJ2VjDWI/EVZ6HHnqo1wk2BgMMCnyOu2nwmVFGufHFF19EZ/2gcLj66qvD5bIoqJqFgRjCk7y285u/cRrOwDQpTeY7vPHGG+Fg9eKLLw6PXXBOzrdNord9U1E++CAzfhltsMpgNtXXGSgiMGBJo+RoN1hKhysXXyAv7ToWJ18BP4pHHnlkdFQLiqFNNtkkrPONePfdd0NrvLgJHWQGs9VJsAkKilgfhx12WDi5k3YJE8rjU045JXTF4ltuiDKOON2d5SWbeg9x5dqcj/vdtIUuKE9ou2jbsPw0+MqEaZ/xq0ydc59FHwsrVHejCK7zxYfCxq3HJjSaCCE+rNQOP/zw6EwtyFWsUq+55prUExls3InFsHFD4KYZ67RGy/9419/+9rfejfheeeWVULHj29TTfhbvfuyxx4YuaXxpRzHrbp7ky1/R9zB1Mm15MNfFyQ0XrmMiAqMWF5SZlP24PrV5FuUbC1hjjGKnlYmOgw8+2Gsw42LHR1uM3GCSw5YjjZTCbFIV5/qHdjmu/8T/KHxdpW+WcOCBB0ZPqmeqqaYKZdvEE08cnen+Row7kUP40k3znVEunXjiieEKGF+/ACOa3/3ud9GREN3Y5csnI9LKjd4A78o4wpYfJiBX3LY4qe6hw/D1/al/KHr/+c9/Rmf8EDc+6eMmTX7zm9/E+qYXJVL9ML2aamGqvPfee5VqA0TprQlTTjllZfTo0dGVxVOtRJU55pij5plVARKG4cOHR1fVU62UlUUWWaTmPhOmnXbaypAhQ8JreDeXaoWrXH/99ZVqI+e9n8Dz7ePqQKZy9NFHV958880wr7766qsotgn5Zxg8eHDNfcRTHUxVvvzyy+iKfOy444418RLSxkte2Pe571btWFX233//ypgxY7ri++GHHypVIVe54IILKgsssEDN9SZUOw+Vfv361ZxLm6bHH3+8Mv3009elxQSTJq779NNPw3vI5+rgtDJixIjKwIEDvfeZQJr5Vr7v70J6SbcbB98yD25dMu948sknR1dkI65u5o1PJHPnnXfW5XWZwa4Dw4YNi1JRDMhuZLj7nLxl20dc+SRklX3ff/99Zeedd/bGZQJ1n7YBWWDqNzKCc1tvvbX3HhMWXHDBUC7YxMmIsWPHVmaeeWZvPATahG233Tb8ZtXBZuW7774L7zNy6pFHHqnsueeeoSwz97jyjmPkcxo5JXqWf//7395y3mz7PmrUqK466gu0sdXBeuXll1+ufPvtt+E9lDWOKTtxdc+ErOWLdsW+P498In177LFHTTxu4L0OPvjgsJ6ZNh7IS/oiJ5xwQqV///5d17t1h+Crz3GQByeddFJdHHbYYostwnprvqfJZ/Lf7evYYe211w77lUKkwdQxynSe+hXH+eef3xWXG+aff/7KzTffHJZpWx5wzPm48RSB8p+1jeJdfHERGvVdGbvZdb/M4MoVu29kv7P5O41sW3zxxSsXXXRRKJuMzOZ++gX33HNPXb/ADYyNGPsIkUQr+vdJlNUnsiEe3/icwLNJQxaS+vWTTjpp5ZhjjgnrqQ119/nnnw/7B777CKuttlopfQBbBvn0S3z/J598Mrqib9LrlbCQpIQt4gObgsT/dqH65JNPKssuu2zdcwnbbLNN2ODFMXToUO99dmCgjJJ3rrnmCgOVzL3GFl7HH398ZYMNNqg774a4ToRbSQhFCCRfvKuvvnqqeP/73/827DQQkt7XDQw6Xnzxxboyk+Zdzfe/8cYbMz0zbcjagYkT8nkbsqKVplLCthYmHty8blUoWgmL7LYVPKa+MalTFI2UsF988UV0ZToYuDCIKUo2mHiyyAVbRtGGuHHmCb73Oeqoo+oGxaI9iSvnzbbvfPtTTz21Lt4iAu1+1vJlFES+kEU+MSBpNFmaJbj1ByXNCy+8ED0tHaSJvosdj4k3r7xBVqVVBAsBcXWs2fY/jYKQMMsss4TjoaSJBRN8Ewxp5EkeJayJl3o944wzeu8tO6Tp9/vkiBvyyhP6a7fffnv0JCHiaUX/Pqmux/WJ0uom0uCOz+16xbNJQxxxaXd1D766OtVUU4UyEv2Rbwxg39OqSROfHojvX6ahZG+gI90RVAtY9Ffzpu3VPOqKg//t+KqFN/jZz34WHU3A/M4GJixDrVak8Nhl2223Df1vJMG9OE/GdJ2lMb5NVUhftSCHS+RYFmp23uR8O2PnYxIsJWIjLpbtJZH2fddcc81wN1C+XR5MulkWwO6C5H1RsCSJZYtmw5N2/4ai/Ui7zLw34MoIUx/Syo6s+J6X9VksJbzjjjsKW9ZDGly5kISdZnxqs2GG6yoA4t4r7rwti6qdunA3ZJYwE7e5x75G9A349iyBxdewOc5C3PX4Sj/33HNzl6+s6XDB5zJ9uDgf8Fmx046PW5ZZL7rootGZdJAm+i70YQwm3jx1j3SMGDEilFlC9DTUdTaMYQyTxIcffhiOh4zLtzjY2Pamm26q85/erGwAu76Zv028X331VUPXJ0Viv0+adyM/rrzyyi5XMr578sgT3KXgkgr/u0I0wi13bj0qgri4eFZcGS/6+fZz3GfmSQe6B/Q99MPBdz/uQtAboT9ydVB2mnDzhAuSNGOLVhCXF51MRylhTaEt8kM2qpDGv6v7bP7HkTIbIfhAuUiH44ADDgiP7ef4nhn3TuzYjyN6fIJwH5uk7LnnntGvtbhp7C3gywj/cuSXT6Fg8OWbDQOq2267LZhxxhkLyQPy+plnnondUbhRemy22GKLcGM2/HaatGW5v1X0trLT1/DtyCvS4ZZt6l+e8o5S49FHHw39Ojdbh5Hr+JdDLqTBfh5/k4ZHHnkk6N+/f3R2AvZ72fc0et8lllgi3ESJDVNMJ9DQ7LuK8ijr21BeiBtF7N13313nu7URbnnr169f2Eb/+c9/rmvrs7xDnnoL9n30Oy666KLQZ+20004bnU0mKY28z5AhQ4KRI0fG7kDcKN30XcgfVzlsnps2j/Cn/8ADDwRzzjlndEaIZPLWqTSYuPHbev755wfHHXdceBxHXFpM+Wc/CTagSdrAshnseubWOXxAtlIJa+dF2m8066yzhv4hDzrooEK+K+OXMWPGhONRIdod6mzatrIZqFu+55hzedPBnjgoT31+4hth6js+oEePHt1Wm+q24pu0Gx2lhPU1JkU0MHFQYGh05phjjthnM2vrg9/ocLABC1YRCy+8cKYCiOLvwQcfDAfYdoeejj479bP7HfHbmDT6ds5uNVm/CwN+lNpvvfVW6KjfVgCYfIuLk92OyeNLLrkkHFgVyUILLRTuBI1VrL2rMmlK847M1o8aNSqcsTcbE/S0IEpKd9609fQ79QX4bj5r+d5KVhmRh7T1NCsobS677LJQNjTaeMeG9BAY1LATOzPeM8wwQ/RrPmgrTFxmt2JTH933N+ddiOP2228PJ51QxELctaL9KKsu2eVo3XXXDV577bVQgeL2PXzY5QflKxOttO9sPtdTZct9LpvYsAEZihUm1H27fdv3+PKZvGBjoPfffz9xgyDuTfPe9GHoy9D/MxPAab8v1vHIgrPOOqvwvpDobMqsk3bcjGGOOOKI0LiE/rGPuLSgUHj44YfDSRxTz7LKvmZlZW/pg5E/bLqJPGCy1p1UTQP9FL4TqwZQ7AqRlmbrWW+miHdfa621wv5W2k0HDfS10A8lTQaL1vGTamHouzWhTTCfgJ1ur7rqqnCG8uWXX67ZzR8F3corrxxsvvnm4WCHXXwbwS6d7JjHLnww99xzh8tkp5566vC4ldAx+eSTT8LdyGm0UQSzq+8kk0wSXZEMeWR3vHg3LDluvvnmcDCCstvkF0Jm9tlnD5fFDBo0KFSU2juClglLANgRGasglKvjxo0LlwYA6cKSZcCAAeFAc/XVVy9tpj4tbr6WBUu0vvzyy/D/sWPHhgrrrMsxRXvSqjLUm0EOMHPN8l8Us5999lkoDwEl6yyzzNIlF+hclaUg4VuhDEJGDR8+PJRRyE23rUGJ3E5ySuTHVz+LrrNufLT3WHBjtUl/huXDlDuWxnEd7TNtwHrrrRf2aRZccMHSZEiR79qo/qBAQhlBn4N322STTXL1P9KmmetQXDOJS3ro75ll2sgV3C5hKEAekx7VY1E0RdYvH7SdTAAiS1hhYrshoIwvvfTSwQYbbBC6eMN1T1npKfs9y4A0Q5p0M6ZCgc3YBQWNLbPBjKvon2y44Ybh+G3yyScPfxOiN9GoLreyrjeTFvObrQ+hb/L666931Vv6JOh9qLdY0DJRRX+knfIAWv28dqHXK2F9Hy7tx+yrH70ZOiXPGr2HykYtyg/RiDxlpJlypTKZn7i8U572bYr+/u1UntKmJem6VrxPM89oNn2teD/Ru4krI3nKThnlTWU4GTt/4v4uAn0H0UwZUPnJBvkFyrPeRZ+zhC26YneaoHDfp7e/X6d9nzJRXomepDeUvyLT6MZV1vvb8faGPBbFkvTN2608qHw2h/JPCFEUkieiKHqyLPXFctyO7+xLkznXF78RyB2BEEIIIYQQQgghhBBClEhHbcwlhBBCCCGEEEIIIYQQ7YaUsEIIIYQQQgghhBBCCFEiUsIKIYQQQgghhBBCCCFEiUgJK4QQQgghhBBCCCGEECUiJawQQgghhBBCCCGEEEKUiJSwQgghhBBCCCGEEEIIUSJSwgohhBBCCCGEEEIIIUSJSAkrhBBCCCGEEEIIIYQQJSIlrBBCCCGEEEIIIYQQQpSIlLBCCCGEEEIIIYQQQghRIlLCCiGEEEIIIYQQQgghRIlICSuEEEIIIYQQQgghhBAlIiWsEEIIIYQQQgghhBBClIiUsEIIIYQQQgghhBBCCFEiUsIKIYQQQgghhBBCCCFEiUgJK4QQQgghhBBCCCGEECUiJawQQgghhBBCCCGEEEKUiJSwQgghhBBCCCGEEEIIUSJSwgohhBBCCCGEEEIIIUSJSAkrhBBCCCGEEEIIIYQQJSIlrBBCCCGEEEIIIYQQQpSIlLBCCCGEEEIIIYQQQghRIlLCCiGEEEIIIYQQQgghRIlICSuEEEIIIYQQQgghhBAlIiWsEEIIIYQQQgghhBBClIiUsEIIIYQQQgghhBBCCFEiUsIKIYQQQgghhBBCCCFEiUgJK4QQQgghhBBCCCGEECUiJawQQgghhBBCCCGEEEKUiJSwQgghhBBCCCGEEEIIUSJSwgohhBBCCCGEEEIIIUSJSAkrhBBCCCGEEEIIIYQQJSIlrBBCCCGEEEIIIYQQQqSkUqlEf6XnJ9Wbau666KKLgrFjx0ZHQgghhBBCCCGEEEIIIVy23377YIUVVoiOkqlTwm666abBbbfdFh0JIYQQQgghhBBCCCGEcLn44ouDXXfdNTpKRu4IhBBCCCGEEEIIIYQQIgU/+clPwpCVOkvYo446Knj88cdD3wZ5IhRCCCGEEEIIIYQQQohO54ADDgjWX3/96CiZGiWsFK9CCCGEEEIIIYQQQghRLDXuCKSAFUIIIYQQQgghhBBCiHQ4TgZikU9YIYQQQgghhBBCCCGEyEFao1YpYYUQQgghhBBCCCGEEKJEpIQVQgghhBBCCCGEEEKIEpESVgghhBBCCCGEEEIIIUpESlghhBBCCCGEEEIIIYQoESlhhRBCCCGEEEIIIYQQokSkhBVCCCGEEEIIIYQQQogSkRJWCCGEEEIIIYQQQgghSkRKWCGEEEIIIYQQQgghhCgRKWGFEEIIIYQQQgghhBCiRKSEFUIIIYQQQgghhBBCiBKRElYIIYQQQgghhBBCCCFKREpYIYQQQgghhBBCCCGEKBEpYYUQQgghhBBCCCGEEKJEpIQVQgghhBBCCCGEEEKIEpESVgghhBBCCCGEEEIIIUpESlghhBBCCCGEEEIIIYQoESlhhRBCCCGEEEIIIYQQokSkhBVCCCGEEEIIIYQQQogSkRJWCCGEEEIIIYQQQgghSkRKWCGEEEIIIYQQQgghhCgRKWGFEEIIIYQQQgghhBCiRKSEFUIIIYQQQgghhBBCiBKRElYIIYQQQgghhBBCCCFKREpY0dFUKpXor9bTk88WQvQeypQVkkOi1fT1Mqc6J0Q3qg/lovwVnUAz5biIOqB6JFqNlLCi15BHQP7kJz+J/vKTV+imua/Rs33Y8TbTIDRzrxA2piz1VJkqqk60M2llRZ73zyOHhMiDKZ92mevUOptEmjqXJ1/6Yl6K9iNrOezLbVAr6qzJ36KelSYeySKRhTTlpRk5UYSM6a1yqpn6WlY9TorX91tZ6Wh3flJ98b755gVDNtoNYW+tzJ1G3m/Rim/YKc8QohX09bKsuizKpqwyprJbj/JEdDIq30IISJIFRcuJviZ30ryvZHH7IkvYgrALOH+///77wTzzzBP+XWSYccYZg0UWWSTYc889gxEjRgT/+c9/oqdOgMqWh5122sn7PBPmnXfe4N///nd0df7n+DBx2XE+9dRTwZRTTulNC2GiiSYKhgwZEl0dD9emxX5+lvvy0ugZReQxzyjyW4nOgrLRTuUjLi2cj6svfaV8t0ImCVEGKrv1KE9EJ+OW757sa/SVPkIeivwuymfhI6mtK6odNGWP+EyZNqETsd/XEPeuWfK46Pzq1PwvCilhC4YCV2ah+/TTT4OXXnop+Nvf/hZssMEGwRRTTBFsueWW4TkoSqC5vPXWW6Fi1FDkc0xcdpz/+Mc/gm+//TY6qqeMPC4r7wxZy0ZR6Sn7vUTvhbLRTuUjLi1JaeyE8l1mmyFEWlpVl3pree/pdEtOiN4KsqWn2upO6COURZHfRfksegq77JkybQLEtZ1p29R2a3vt9zX4zrk0eo80caTBPCdrfO2Wz2UjJWzBUOBMoWtVYbr55ptD69j99tsv+Prrr6OzxXP11VcHP/zwQ3RUDL48+uqrr4Lhw4dHR+Xy/fffB88//3xw5JFHBuuss04w99xzB5NNNlnXd8TyeP755w9+9atfBVdeeWXw8ccfR3dmxy4bMG7cuDBuc77oMPXUU9cozoXICpMvCy20UE25wmq+KOz6T10cNWpUcOCBBwZLLbVUMMsss3Q9c/bZZw/P8RvXGDnUKQ027/j555+HMsi8M2GNNdYI5aEh7/v67uPcm2++GZx22mnB5ptvHso+ZAbPnXjiiYM555wzPH/xxRc3JfdEcdAu2uWj6OCWt2b54osvghtuuCHYbbfdwj7KT3/60/A5rGShfq+44orBUUcdFbz88su9oi6Tdtpt+gL0CWi/TZ0hzDHHHKGc+u1vfxvcdddddSuVssJqHxM3gXyzj8sMRcp50VncdNNNYRtBOTFl8rbbbot+TddOnXzyyTXlrazgqzOtLtu0sW4aigxFvI/5Zm6/gBWd6heIMkjT501DGnlDXwQZxSpi+iKM7U2ZnmqqqWrG+bTxLlzbU/jez5yjj4HRmhk3MVay85N+llk9zfuTD2Vi5AeGgltssUXNuIKAfoVzfPdTTjklePHFF4Mff/wxurtn87lHqGaYKIH33nuvMtdcc1FLWhqWXXbZyjvvvBOlIj2DBw8O769WgDC48RKqjW/l9ddfj+6oVP73v/9FfzWHG8/o0aMrU0wxhTcNdqh24qI7ssP3qQqtxOfE5cNyyy1Xuffeeys//PBDFFs63Pd84YUXKtWGwPuMIsKUU04Z5qUQefjuu+8qO++8c125QlYUSbUjVjn44INT1XkT+vXrVznrrLMq33zzTU29KkomtRLSTDjxxBNr3hH5M2DAgMqXX34ZXVkMyK3rrruuUu10xso4Xxg4cGDl+eefj2IRPcEFF1zg/TZFhdVXX72Q8kY5obz4yldcmaM8Ui6ztqutgDTR5tP2+9JuB/v9Jppoosquu+5a02/KAn2cuLjLDkXLedEZvPHGG5X+/fvXlZdhw4bFtr++827ZbmVoddned999vekoKhTxPna/wPeMuKB+gciDr89LKKoPAjzjueeeC8uo+5y4YNpY2vrbb7+9LfojPvlp+lhu+pOCebfVVlut8vjjj4fx+uLOA2OxM888Mxyb+Z6ZFKabbrrKcccdF44F+xqyhC2RauGL/mqetHGNHj06WH/99UMLtjxUy4R31gXefffdoFpxo6Pi3s+Np5ErgjyYd6oK1HD2hZmYv/zlL5ldHpDWJ598Mlh77bWDlVZaKXjhhReiXxrDvXaczCI3OytV1DcQwqXaoAaXXXZZdFQO9913X1Ad0IV1MkudHz9+fGj5/7Of/SyUeYbeWB9IMzPURxxxRHRmAsiKot8HeYXc2m677YLXXnstVtb7wAf54osvHhx00EHht8pyryiGvO16Wpotb7Rn++67b1hOKC++MhJXbiiPlMvqACG0pGgXsNLFYpc2n7a/Efb7VQc4wSWXXBLKuGOPPbZGxuWpP62sc618lugdYKH261//Onj99dejM7UgP3zlJu58q3DlWtHtahKMOd57773oqL0w38TtF2TB7hc0a/kvOo+4ej9s2LC6Pi8UVTfpi+y8887BkksuGZZRm6RnmPTS1m+88cZh208foCex08tqZ8Y+po+VBfNuDz30ULDCCisEW221Vc1eP3l58MEHgyWWWCLYf//9w7GZTRq5j0X0n/70p9DK/pprrqmxjO10pIRtMZNMMklw0kknhUv0soTrr78+XDLPQIA4fJiKSoN64oknhst7i+bWW28ttYIkuSJoRjhzLxV9hx12CA455JDcbhVsgYKQxvz/iiuuSCVowH6HDz/8sGn3Dua5vrxpJr9E3+aJJ54ITjjhhOioGOw6wt8oeFmS0sySNgaDAwYMCO64447oTO8Dxdof/vCHUGHjklauGNw8NvA3cgp5lUaRlMSpp54aDB48uPRlTaIWvmEaJWzRcj9tGWRZGR37c845JzqTj8ceeyxYffXVg2effTY60zPw3vS93ImevOB2Af/99EOg3dtn9R+Ey3nnnRfcc8890ZGfuHLTk+XJlWFpZVoRMPHiW95cJG7eZnm/IvsFO+64Y5d8g1bms2hPfPWefgxK+2b7vHH1mr4IylPKto8sz6Dtpw/w97//PTrTc3zwwQfhXkBnn312dKY5cGX5i1/8IrXbQl9+M45ba621Uk/eJLUDX375Zaij2WeffUrRX7Ul1UwUJcBy97nnnpsSWxOKWCKOefzDDz8cuh5w4zdh4oknrtx9993RHd3EmZ6znIX7qhWkJh73eI455giX1hVlwu5SFQZhHtnPjAtZ3BGwtHqPPfbwxtNsII+qQjGzaf8JJ5zgja+ZYH8vuSMQefjoo48SZUsRS99uvPHGcKmuG7crb9KG6aefPlxe0240kgfIpW222cb7ToSi3BHcdNNN3vxuJiBPSb9oDV988UVllVVW8X6LokKj8hZXnt98883KggsuWBNX3rpsAvERbxxl9UEM1cFF6nfI8q5rr7125bPPPouekkzcku1m8zZNaPWSbdGzNOq/jhw5sjLZZJN5ywoBdwRZ6CvuCHAPx7jJl46iQt73ieuHNRPULxBJlN3n9fVFmgmmraWeUF96CvoM66yzTl36igh5x0/Nyo+kfkxfkSOyhO2FVAt9UB2MBY8++mhoXeEDa9UzzjijbnlItdBHf/mplonorwm4x5iu45KgUTx5YZb9m2++iY6SSZsG3uH0008PLrzwwuhMPbgnYBMMlh0wG8M9ZhkRS4UHDhwYXVkP12KG786UuXnn8tJLL0V/dcO3ZXOPueaaKzTN5/+kQLrtv809/I+jcZxg2zRKk+jbIDdYIuSz/Cqqzj/zzDPB7rvvXjcLTvyUT6wybrnlluDTTz8Nj7kOS5JLL700LOM+qh2UYNCgQaUv185Kozw766yzQmu7MsGqmY2R7Py208VGCKSBPOYawkcffRSuSFhvvfWiq+pBnhY1Iy8awyoRXAK5sKmEaQOM7LePs4RZZ501bIPi8JVnLJ8oX6+88kp0ZgKmrbHb1mqnOjxPGztmzJjQdcGkk04aXudCfNWOeOwmHUXJIx9sPLTLLrvEtpfTTjttcPDBB4fvwLtQZ+gv8H2GDh0aLLfcctGV9dx7771hvy0ubpvpppvO+52a+cZuoPy4VAdlwd577x0dib4A9SmuTlGucUNA/S0K6pCvPBYVkDvtULZpV+nLuMwwwwzedOcJM800UxTrBLmbRrbQL0C+2v0CMGWAfgErMH39gnXXXTe8xgf9Avo1QoBbFpP6vJS9NGU3jri+iIG+zeDBg0M9A2WZMs3zWNVFW844fooppoiunoBJD9f+5je/CTfybjWkgT4DrhrjQEeBiwd0NKafRZ/k/fffr9Fh+GQ84yesT7OsSiQfyA9Xfhj69esXHHfccWG+mrEcgf7c2LFjw99mnnnm6Op6kCPXXXdddNTBVDNFlICxhK0WeGpwVyjaOpGZAt/mOQQ2fXrxxRejK5NhJtW9n7QutdRSdee32mqryvfffx/dWQzVihzOfjEL5j6v2hmoO0dIawlbrfCVamUP7+F7mG/C/9UBYOXiiy9O5XybGW2sWOw02KGR5Y4NVk2+d5X1iehJfDObrgxrpozivH3jjTeuic+ENHWR+48++mjv/YRqJ6p0C7miYOaZGWjfe5iQxiog6X2rA6jK4osv7o17zjnnDDcbapRfDzzwQHitL47ZZputUu3wRleKMqHf4FslktUCrUgoO9Q5kxa7bUWOnHTSSWGdTaI6SKhsuummXXG4YejQodGVrSFu4yGCeaevv/46utoP+ULditvkhnjuuuuu6OqeA+sat0/Dt6sOkqMrRF/C1xYwxsAqyS4jvtCTcsiHz3KMetdqazbyxU4D9auMVWqN2nEbX7/AyO655pordb+Aa+04TFC/QPgoqs8bR5J1PX2MuE3L7bJOf+WAAw7wxkHYeuutW26hGdf3Iyy55JLhJt9pYDMvn07HBFb0pgH9z2677VZzr5Efaft9wDVcyz12XCYsvPDClQ8++CC6ujORErYkynRH4DJmzJhYwcYy1DTEKWFZMm8qlwmzzjpr5bXXXovuLA6foEGRHLdsP40SFuG69957e+8nz+65557oynQgfI866ihvfIQjjjgiVWeITpBvoJdWsZyGLJ0yIeg003l2y6QbmlHCIo+IA5liyxXf4Ciu/HJ+yJAhXffaoQz5WgYff/xxqp3Wm+mQkk/II1+87I6K8istdPLiFFM8AyRvyuXOO++sy/ueLu++JcrU66xt61dffVUZNGhQTTwmUE9wkQKtKGO2UtkO5DW7JfuISxf1fP311/fGx/m4gUor3jNOudabJrJE+TAJ4pYRX2gnJWw7le3TTjutLh2MDRkj9gS8/+GHH16XJkLR/QJfXku29E1ow+P6vPZYIG+fF2XdIossUhOvCSgM0ygFDZTRuDEG/Z1HH300urJ8SEucDiOLayPDJ598UllzzTW98S266KKV8ePHR1fGE6dz4jtmneTi/a699tpYRewFF1wQXdmZSAlbEo2UsEU2RN9++21lww03rHsWIa1SL04JO2LEiMpiiy1W99uVV14Z3VkcvlmsDTbYoHLdddfVnSekeTf81xp/TLagJ5xyyim5vgOzQHGWAcZnbiPovMwwwww195K+tErzvBRZ7kTn4LOIigs77rhjdFc26ATFKSTSTl4YGGTF+ZWiw/Ljjz9GV7YfcQNEX2hGCWuvACAY+cegCWu/OOK+Q5z/Jzq+TCqJcqEz6uY97U2cdUfZUJ832mijujRRzuhU26Sp23G+3Ihv+PDh0VXFY6ctaXDhvlNa4gaf5r3KbpPj4ud9jEwwgTbg888/j64QfR3Xcs0tL3ZoJyVsXNnOqrAogn333bcmHYRVV101XA3XE7j9AhPmm2++xH5BHHGrp+gXdLoVm0hHoz6vXVfz9nlvvfXWmjhNWGCBBSpvv/12dFV60KvErdqjTrcKW4dhB/QzTz75ZHRVLW6b7x77DN4IfIc0k+euIZr5fii7066SttPks6w1Ad0W36JTkU/YHqJaaKO/8lH9dtFfQTD55JOHfhR95PVfYtKHz45q5yX824Zd9fA3UhT4CcHXkMtmm21W56MlC/jNxUcK2HmGz7Zdd9019jvY17pMMskkwSGHHBLMNtts0ZlueBa+luIw8eJ7pdrQhH8b/u///i/071QmzZY70XlQJv/617+GvgohqYzwW94yxG7n999/f3TUDb6L8TeXJV78SFIHqx2J6Ew3+JNtN9+wNtXBanDxxRdHR+WB3y38XhmM7DnmmGOCeeedN/zbR9x3qHaGunzB2df861//Cp5++unoSJRFdSAR/dVNdeAc+g3tCajP+FZz2XrrrYMtt9wyOppQ7hrVba6ZZ555gv322y860w2/VQf60VHx2GnjOZ999ll01I39TqYepQV/jX/5y1+6/LOb5xHP5ZdfHvrhzhpnFnx5T78QH3D2c+nrnXnmmaGvTiHwr3jYYYfV1Icyy2lRJJVtZGUr34ExEvtKGExdxF/tNNNME/7dKsx7u/0Cw7HHHpvYL4iD3dpd3/E8y+4X9IZyI8qjUZ+3iPIR5y91//33rxtXp3keehV8R/vaT/a1wI9sK2APHqPDsMFn/TLLLBMd1WKnmXd132HJJZcMNt100+hoAlzDtUn6C+C9R4wYER1NgPumn3764He/+12oH0mDnaaJJ5449OXr7mEDzz33XCiviigj7YiUsC3GV6EbQeFzC6CpMIa4jnOe54H9TCqrGw/KlDjn13lgk6onn3yy5jkzzjhjsPrqq0dH+YgTzIMHD65xZu/SKN+M4sjG3JPkPNtc8+GHH9YpsUmPT7ErRJmgSDn00EOjowl1f6KJJgr+8Ic/eJWcebn99tu9G3uwoVaeyQdfRwLosNBxaUfinNkzaGRDvjy4bQOMGzfO69R+wIABweabbx4dZYPJsB133DH8233mQw89FP0lyoD8fvPNN6OjbhjMTz311NFR6yA9V111VfD9999HZybARjhMjtibbTVqS21Q9LM5GNj30RH3bW5TJF9//XXwwAMPREfdMKjYa6+9ut4py/sYVlxxRa8Sl3rzzjvv5IozLyjXGJjaihief8455wSLL754dEb0ZSijRx55ZNfErGHBBRcMN3MqArcNKYI0ZbuVde3bb78N22KDeedW1DM3f3nvuH4B46w8/QKeQR+RPpwP0y9oZZ6L9iJvnzeLfKDtfuGFF6KjbuizrrDCCtFRN2nL4xJLLOHdDPiNN95omRIWQzIfTHykeQ/fNfRpNt544+hoAia/fRuGg/md8ZXR/dhxMx7LM4kDxLPIIouEcbjQ70Nupf1mvQ0pYXsBFD5TAG3BZBfKuEEPu+jmxcSDle2iiy4a/m345JNPgpEjR0ZHzYPi8ptvvql5P4Qnlj429rs1ghl8duFzQbnrs+7NyjrrrFMz62PSjoCyd3TmvP1ewCyxCwpY326uPtz4DHHnRd8mrlxgMUpnyO0gMcGw1VZbRUfd5C1fNKR33313dNQNHfhNNtkkOppA2mdQ97bffvvoqBZ2A3XfyaXVdcU3QATkCBaAzAbnwScTUUL7ZAyd4WaUdquuumqw/PLLd+3KbMIHH3xQp5ATxUF74rOEpdObpU0sCnbcZVLFrUPUZbcjnaae8Q5cx4CH1S/0WwiULf7nN3fn3qLrL/nLTr4u9H/iVhqlxZVV5psxoPE9syzIM3vVg2H33XfPbekrOo+///3voeLShonZU089NTRAKIKi5Vaasm1oVRmnzUdhY8N7+xQ7aWmUdvO7L3+xcnP7BVzHJFOefoF5ht0vMHKbgPLEN/Eu+gZxfV5WVHE+qc+bRT7Q1/etzGWsn9Wwya5fWM77FItGMVg2//nPf4LXXnstOuqGieqf/exn0VE+FlpooVBJ7eYzfRKU2i7mOn43E+J2Xq2yyipNjS2wpGWSzwW9EEZrnYqUsC2m2cY/TjBRWQ32M9zGPs/zWcrjmyVliYH93LwwwLzzzjvDv+33YzDGkgADv5n0+/LBfTcUxe+++2501E3//v27rG2aYfbZZw/zxgWBYecLaXXTa882md9Yjpl2iZLv/SHuvOjb+MoFSrOjjz66zqIdVx3HH398zcROs9Bh8XUmeNbCCy8cHWWH5TjUGxeWC5VtOeeSJFv57bzzzqsbINJBPP/882s6L0XUYSa13HiwOvBZBdjEvYM5T16j4EVhZQeWmhVZXkQtdIrJZxd3crRM7LKB1YlJj13OaLPtiUlIW565jkHZBRdcEFqHmrLF36NHjw4WWGCB6MoJFFFPbOzBhc1iiy0WzDDDDNFRfhg0mX6HnZdJK2eKwH4Wq41OOumk6GgC9IdYdt6Mpa/ovbgyH4v7gw8+uG4SkzLiW3nSLvjKNkYcdtk2tKqMMxZwZQrK7CSLMfd7uDRKe9Lvxn2MfQ3jGCz1s2Kn0+4X2LKbfoFvibHofCgfbp+Xckefl/NpDY7SEFfm6U9kNW4wcZH+pLrUCrCk9ykgmehotk+CHOL9XHmDMjtJBjGW8/1OP6kZSIvbdzQU6fqy3ZAStodIKuRJ+O6jgPp88lGg3WUveYUKfn9cYfbYY495l0hmBYUkgyww7+dzRWC/uy8f3Hej8+NbMsAMELMuzcIskq+DwYA5afYXpbPts9K8C52hOCEkRNGcddZZwWWXXRYdTYB6gQVMkquOPKC0oT66ddQ3e5pFRqHUWHbZZaOjbpBLr7/+enTkJ68sjCMpPixzjzjiiOhoAlxPXrvKJZ9sywL5PGrUqLp4GGhhnZJE3DsUnVciGygIXWsSaDSZ2GxZsrHLAO6ITNzmf9KSV8lvMM8oMt1poa/ge26zgwsDgyYGTy7IqSIms+MweUq/Axlk+/jktxNPPDH3MkLR+7HrNWWEVTB228nvrBzDPVG7Ele2Tz755B4t28htLLlssK7L4gqtKFlIv4AxG9hx0i/wySVIerabTpeekOGifYjr85599tlhn7dR+SkCynxeK0rShxJ0/Pjx0ZlucP9YxMRsI+gX+NKPArusyQ0My2zjN6Aum/rsM2yDsnzJoxNhXNqp8kRK2B4irwDy3YfCwec3hGWBRfkeIp5f/OIXNc9HwD344IPRUWPiKpFxRWBDx8B1RZAVHOK78QLv0kwD0EgYoFRKEpAoaZktdinaT1SnCi3RPCxLw9rV5U9/+lO4rKxonnrqqfB/t0zGOZZPCxNDSy+9dHTUDZ0nXx1rNbwvEy4MYF3Loj333NPrHL9ZsEDx+XViCZgmeXondMTdtoyJykZ+hIsoTy60Xz6fy9RDrFzsOu7W97Tpsa9rVTsW5+O+qOdT93w+tl988cVw2WbZsFTbtoQjNLPhmOgs+P5YqLmb7aE0/POf/9zjG7YllU+s5910x5XtVpZzn0xhsqpfv37RUWOKkuFJ/YI4a8Fmnl1UukXvI67PywQPq2qpg0XWQ8bcrjEDsPm1zyVhWqgzPkOzIixR04DykXabzfTswArGNErYpDz29SnBZwxm+gvAmMVND8E3DjMkpcP8Rr+SSSsX2h0Uw50qT6SELZmyCw5Lik855ZTQR5vLzjvvXJigIB4cQbuV6eabb05txeHLC2awhw8fHh11Q0V3Z2OyYtLqPjfr8gQXEx8zQr5ZMjpZWMnGgZsE3w7MtusITP5ZyoO/yFlmmSV8pgkMvvFRd/jhh4cWxMYXo/tt3PcWAvCtiB9Ytwxus802wb777hsdFQfygZ3UXagjzfhGM8S5MzCKX0NSR6AsWKVw0EEHxbp8cDs7RaQRtw/uCgCeU/Qkj2gdDAZcUI7QFgA77KPMo02gbWBQYrcZdKwZbNOhZ1DRTDlDbvj8DfNc2my73SmiDSKOVtTduGewbK8IzLdwIT/pE5TJq6++Gpx22mnR0YR3xRrvqKOOinVD0Io8F+0DmygxCevCihnXAKMniHs+Zfsvf/lLdDQBBu2UbdO+2ve28j18Chwmqsz4gP4Bq1bwCc/GNChWSB+BcQrKHnzzDx06NLUPSl+95RzWzSilbEy/oJV5IjoHX1ljPJrU56Vcl1HeGCv7uPDCC0M9Qxrs9+HvK664wquoxLVQEatpG4GcGDhwYDihZIc11lgjlfuvuHzm3e64447oqBZWJyaBCyw3PYQkgwA7HTzbzmfzG76z3TEbv6Fcp/9qsO/tBKSELZkyCwzC7oQTTgiFjAsN67bbbhsdFQMuCVylAR0IOkF5YWYWX042DCzZxRuayT8UudzPbBz/m8DuzUWANRAWdy7kfZK/GwZcrpIEX7AIGpZtM1hGkcsutPjTcRW9WCCzWzTLCLFaZKaId3I7WEKAXYeQGYceemhdncMhOtYudsNeVEeJZ/rcgjCx02g5dRpQ5PomPexlM+RBUe+TBiNrTj/99HCW2KYslw8Gn4KMZ9kdmTjssiLaB58Slg1ysKy8/vrrQ7+eLJunTaBtwKoATJlnkpYVJ2zMxgoT6jv3obzNCitM3E2yoKhl+z5aUXdxU+Tj5Zdfjv5qjrgVMMhGX34WheknsnmeDZZK9sSMW/dbKS9Fz4LlGhtYuW606IP+8pe/jI7aD1O2XSMUynaSPGpFO4ds9RnH4B6BiR2WZdMur7TSSuHfjIV4HwPjFizD2CRt8ODBYV+J/j4bIiel31dvOcckncFck7ZfkESevFQ/ozPhu5o+r10Oy+7zwpprrumdUGC1Lhb+acoc95rrqHfUSxcmSnbddde657SCvPXGvY/x31VXXRUdTYD3YSIIBW+Z8Bw375B7TPa5hkGke8cddwwNDgw9ke9lIiVsL4TGHfcDK6+8cnDMMcdEZ7tB4F1yySWhBWWRIODcXYJZRvfAAw9ER9lhCZHPFYHx45S2wuUVTlmwn8GgiVkyH3EzcgZmtF1H08wO8i3JY7NRB89r9P5cg6Uh1tDM/vPd8wysRedilyE208PC2sbseuxucFVUnWIW2qdEQk41a+0OWP35lLAMLM3ERKsbbp6Hywd3oxDAT1YZLh/M9zJLDu13ZlLInRjieix1+PbIXCa/jLN+Au0H57Gga9Z6UuTHfCcXOqz4atxuu+289QvMN3PLP9bS3IdFxz//+c/obG2dj/veKPN8q1+MVa4N/QMGZFhKMNg3ZYtAvaXTzy7JTObaCoiegMlMN58AOUIfpdnyjwLWVYQCfQEmVqHZZ/igf0ZfxY6bfsYuu+wSHU3A9+6i80HxiiLTtVyjbh555JGpLK56Csr25ZdfHh1NwJTtpPLcirLOpIuvviMHllhiidD61Tc5nQTKE5QkGGrE+WaMw3ZFYGSB2y/gPIH2hnbf9AvILxPoF+D7G+tjrovLyyRZ1or8F62HlZlMBIP9/cvq89r89Kc/DcfQvrKFkdJxxx2XetUu4yQmPlx3CoAClomTniBvvTH38U3uu+++0Lqe/qMdH7/97ne/C/OxlSAD6QMaY0I7Tcjyoo0J245qxosSeO+99ypzzz03UqgmTDLJJJXqwLxSHZhkCtdcc03l4IMPrlQHXZVqp6guXhOmn376yj333BOlIj1VgVMX15RTTlmpCtXw96owCv8/6qij6q5bf/31K9VBSvh7FqqVrzJgwIC6+C644ILoiglUBWLdNYSTTz45uiI95j2agTiqDY03TdWOa6Xa8Yqu9EO6ffcWFXbeeefKV199FT1NiAmMHTu2MvPMM3eVk2pjF/5f7SBFV9RC3UcGmOtNQFZk4dlnn61MM800dfFUBxOVL7/8MroqP3Gydtlll618/PHH0VWtZdy4cZVqB6IuTdtss02lOuiNruom7h2Qj1nyiGt9MtWN5957760svPDCddclhfnnn79y3XXXVX744YcoFj9FyFjRTdw3bRRM/W50nv7E5ZdfHn43+9vFfUdf+2X3FeCdd94Jy7p7XVKYYoopwj7O559/HsXSWl577bXKrLPOWpeuGWecsfLCCy9EV+WHfHPz3hzfdNNN0VXFQtlBztrPJAwdOjS6QvR1zj///JqyQZmcbLLJKiNHjoyuqCWu/0o/vZXEjR/apWzHtem+ECerkwJ9uX/84x/R05IxbYj7HLtfgLynX8AYxr6mUaBfcO211zbsF4jOhj7vYostVlc+yu7z2lCGhwwZUhenCZRtdCmfffZZdEc3pPHhhx+urLjiit57CVtvvXWP9U9s4vpmPr799tvKyy+/XDnnnHMS+/x77LGH9zsZsjwzCeL56KOPQj0Vuoo4fRa6rCeeeKLrnk5FStiSyNIAFxWWW265yksvvRSloJZGhThOCfvkk09GV0zg0UcfDTto9nVUFhQ8WfEpeWaYYYa6AU+RStgiuPHGGysTTTSRN00oqRvhy+uiAw2fr6Gx6WTBJmqhLDCB45YTzsWVk6KUsE899ZQ3Hp5dxGTB+PHjazp/ZqCB/EUOtxo6MnRoTHpMWHDBBStvvPFGdFVt/cvbIXXrsJsXJmy44YZhZ4wOZLPyh3aGTl0ckivFUlZfwh6Q056dffbZqb7dvvvuW3e/UVQyEL/44osTJ4obhWmnnTYc1Le6HBlFhZ0W847N9jXefvvtygILLFATtx3K6sugkHKf1cwgV3QWjz/+eNh/d8sIioy4+tcuSth2L9uMnUy/x1V+ZgnuvfYx8d9+++3RE+sx3zBPvyBrmpPGnzbqH3QecX1e2rw333wzumoC5vsXpYR1yxPHTCon9UEo21NNNVVlrrnmCgN6B991djjggANyGZu1EibUzDv169cvTHeaenzIIYckKmDzgmJ+1VVX7UpT2n4hEzvPPPNMFEtnI3cEvZhq5er6nyWljz32WKxfs7yYZ0C1vIR+lnDSb4NZe7UjEB2lx+eKADN/fNa1KzizrnZWvMsUWL6FD60kWJrN8kY7X33gjJsNyz766KPwWeQ9/3PMeTZR8mHiveGGG8KNCXzpNDRKg+jdUGbM//hEwr+wDe4AWC5v+9uxKap84B7DpAVMvDhyd5fI5wGXBvZuwzyrJ8s2vqQuuuii6GjC+7LMn7w2blagiDS6cbC0GRnjnsdVCbKD5evGjUre57MkErc0cY79RbFUByvht0sCdxws6RozZkzogoM6QKh2rMP2hvLI0i4bu07STnC/cYWTBC4GwL4f1wJTTjlluOxvt912i3UtkKbMkX78ULK5B+lvFbwDbhNszDvSv3r++efDv7NCXrAUEt/5RdT5tLD7sesOhef/8Y9/DN9V9G2ox/hOpf9uQxux5557trSsZqU3lG38wZrxjS0rbei34AoCv9PsL8F1BP7m3JAhQ8LNuWzsuIifDZjjZJP5hsgg+gUuvn5BXugXMDZs1C9o53Il8mH6vPa3pc978sknd7k5M+W26O/vxscxY/RHHnkk9Jvvwu+kxfhoJxh3QD5wU4R+A/ccPrdn7QQy3byT2UvGlhcubJaGKyhk6aQluJ1h7IerLJOmRi6nSAMuJZ5++uk615eGpPfplVRfSJRAUdYrVYHhPe8L6667buplc9VBV/TXBHzWUcyy2ksMDT6XBFlnr7jWWJ3Y7+i6IoB2sITFwueMM86ItYDl/K233hpdHQ+uCvr37++Ng1AVPJVqhyq6OpmqUKtsscUW3ngIpOnuu+8Or3W/t+hc3G/Nsg+fHGm0bK8oS9i4+ps1njhsWWIHXCA899xz0VWtwXX5YAIuH5LqYFFWAa+//rp3SfVGG23ktYRuJrB8PMkKRxTDnXfe6c1/E/baa69US+Qofyw3xcrAvt+WDbjQ+PDDD6M76ql2oitbbbVVzf2EOeaYo7LPPvvUnMvSd4kLv//970ux0IiD+sO72Gkw77HaaqtV3n///ejKdJB2X3/JDWX0ZbBsdp+T13WU6CyQBfvvv39d+Zhtttkqr7zySnSVn3awhO0NZfu0006rS6MJyJSTTjopMb2mv8DY4+qrr/a6dDJh4403DuOK62PgaoVv695n+gVZZLV9re++Rta5orPo6T5vEoyRcUvWqHzH/U5fAHdqvYU42ewL6A6SVrQVQRY9GNbIl112WZ/rn0gJWxJFKWFNyNJIMhhyB2VJwhCyKGGNSwI7TXHXxuFT8KA8oLPg0molrJtXKEVZauNLgwlJy7dsUJKzdNO9n7zE30wjFwIudNDi/NMSVlhhhcxxis6BpUAsg3fLRSP/P9AblLDUuTglbFaZ1CzUM5+ik3ONlGRFdUjtb5amzUDpdtFFF1XeeuutmvLAuwwfPjyUSb77CMSfZtAumoOJSV/+M8mW1oWADX6S11xzza543HKS5FInrq7FBVwL4Od1zJgxNeWYJbD//Oc/w9+4xnevCUwWZX3HZkA54ksHAZ9yDMqS0mN+YwC46aabeuNxQ9F9GZ/7A74zdVr0LXxl1edSi2PON6KnlbBxrj3arWwbty1uoH3Oo6SknfX15UzA12UccX25uD5CXL/g008/bdgvILj9ArcMcpwkQ0XvoB36vD5Q5DEmb8Ytkh18OpV2JK7vkjQWwAduWsOvrOTRg2Hcccopp/QZZayUsCURV/iSKkORgcFCls0ksihhEbwo97jGfp+4gYSvsfV15LCwwdLGpdVKWAODKBxH+55th1NPPdX7jr5zDz30UGXiiSeui4NGK62y1I2XTpLPH48JGnj1TSgXvvK70EIL1flp8tEJSljXp7WNr37mhbh8kyH428PvXiPKUMImBawhsYpMkwfIQV9H24S4jRdEMRx22GHefE878ecjbnKGQN8hbnNJyuLqq6/uvc8ODH5IX5qONNccc8wxXfe6faRWK/rjBpZ2YFL2+uuvD+vtjz/+GN7Ht8AHGvJu4MCB3vviAoMnm6zf1Vxv/vdZCpKmvmZlIurBL7lvNVaaiVnoaSVsGivYvHKxKOJWDKRVdMcR58OXsN5668XW7zz9gkZ5qH5B38WUj7g+r9lQycYtT2UpYZFvWL+68TYb8Gn6wAMPRE9pT+Jkc5pw3HHHFV5f8yhhTfDpsBrJpN6IlLAlEVf44hSbWUBA0RiznIhZA/cZJiA00prSZ1HCQjMuCbjGVZow8LrqqquiK2pptRKWGS8GhfYsmk95zu9mV+m0vPvuu5UbbrihK9Ah4/18s2xZ4v3oo49irXW32247r3JbdDZMDrhlIWnXY5cilLCUYVN/3TpUhBIWfPKEUISsTQPviCsS17KIkHan5lYqYbGCxBoyC2ygNmjQIG98vLdxeyKKZ9SoUTXtBYHJPFZBNNMpRQ64m2yaEGdVRTnw1TU7TDfddJVHHnkkuqMeX5o5d+mll3bVIVdW0NdpJbaS2tf25wnEt/vuu3t/u/LKK6MnNw8KdAYw7jOSLOVE34C2BLdlbtmg70gfMg09qYRtt7IdJ3/pb99///01fX1CIyt6A9e415lj34ZkBGQ5qxR9pO0XfPLJJ9Ed6YjrFyAzCeoXdCaUxax9Xrc8l6GExejCdY1gt99sVnXsscfWrcxB+YjVN9bfuAS077cDY34mX913aVf+85//hH0Zvsk666zjfSc7/OY3vylVV0C+0c6gv2IVlNk8LC7wLZMMaToBKWFLIo0StoiKjPIOn3Duc0zAj1kaC8usSlhfo57UCbDx3YsrgldffTW6opZWKWGN76VGyyMJCy+8cCH+JosU5nGds3nmmSdU/kJvaTxEOuK+Z55dj13iOu5Zladx9bcVSthWNODNuHwwtEoJyw7JWf1aGpImen75y19qoqeNMXXervuUTayV+H6uohELep+cMHUtTjHJoGzEiBHR1dngefiR88WLbzb8tbYSrG9ZlutLT9ZAvSM+o8By8y+vAsv3jXyWgnJLJID23y0baVdrGHpSCWuXbVOH3LLtqxNl0urnJbXDcWMi9QtEM7hlPK7P++tf/7rlfV5D0uoexvSM7RnjN4J3ZWd+32QPgT5OM9bsRZJV9pDnKFp5j7g+3Pnnnx9dXQxJaeR73HLLLYn7FCCbWGHUqUxUfUnRQqp5Hv2VfZdA+14DO/ede+654S6aPh566KHgggsuiI6KY6GFFgp31rOpCt/grrvuio786QV2YGb3T5tVVlmlaxfFVkM677vvvvCddthhh+CLL76IfunGfKtJJ500zOuqkA5+/vOfh+eaIWsZsHHzd8011/Tm4b///e/gjTfeCP9u5nmi/eB72uWAvz/++ONgn332aWrXY+IpqqzMPvvs4c7pYMdZdlmcYYYZgllnnTU6KofqACPcxf2VV16JzkxggQUWCA4//HDvjqNuvW0V1c5jcMYZZ+TOk5lmmik49thjvd/wgQceCHdBFeWTp/yY78T/5n7K5qBBg8K/XcaOHVsnP2zi0rDvvvsG6667bnRUj32fGwdp4/7q4KcmvUAb9uijj4Z/twrqMM8cPHhwdCYf22yzTdgPIz7Tt3Df3Scn0mDyx4Ds9+1yzneebrrpoiPRF6EMHnHEEdFRN4ceemhdX74dccs2dYjy75Ztt06UTaPnxcnKJJLuoR3eaqutoqNannzyyeCHH36IjtJRZL/AzQv1C3o/pp4Z4vq8Cy64YHDYYYeFbVmeMp8XnvX1118Hv/71r+vSBIsvvnjw1FNPBdtvv30w8cQTR2fj4V3ZmX/UqFHB1ltvHZ3t5n//+19w8MEHB2+++WZ0pudoJHtcZptttuC8884Lbr311mCKKaaIztZy/PHHh/qCor5hUhr5HptttlnwxBNPBFtuuWV0tlb+vfDCC2GaOxUpYVtM1kpjE3cv5w844IBgjz32iM7UMnTo0OCjjz6KjrIR98xpppkm2GCDDaKjbkaMGBF8/vnn4d++e7/66qtg+PDhdRV8iy22CCaZZJLoqHW8++67YYcGBdXrr78enZ2AnX7Su/POO4fXIIDjBFgWmhVybv7+9Kc/DZZZZpnoqBs6Zc8//3x0JDoNuxzwrRlU0Rm3ofFlMibtQJw4i2qEbew4qXt0npqFON55553oqBsaeAYYNkW+E3GdfvrpwQ033BCdmQCd0EsuuSR2UsknF9PiS799DmX35JNPHh3VPgvl2KqrrhodpceOf6WVVqoZsJvfPvjgg1BxZ/ClU9STJ5+aKT9g3/+zn/0sHHyTDvv8a6+9Fn5TF9roqaaaKjqqZfrppw923333ujpnYz/D9x6zzDJLsN1223Xli50/TN62ulwxyX355ZeH7efAgQOjs+mYf/75g1tuuSW45pprwgkh8Mkp6my/fv2io2y4+XHPPffUyf455pgj2GijjaIj0Rd56623gt122y1UoNgwQcDYoVmZ0gp8ZZsJ3p4s22nkUZ68te/xPQOjFd946cUXX/ROnrn9Apu8/QID6aNfsPzyy3el1aTf7ReI3odbFlHYu33eySabLLj44ou7+rx55UneunL77bcHd999d3RmApxn3EMbzARoVhgrXXTRRaFuwAU9APlg103zN//b57Pguy9vXHGQL5tuumn4vXz5zYT3HXfcketb5GXGGWcMx0yrrbZadKaW6667Lhg3blx01FlICdshMPDfb7/9woGQCzMJWG7mIUkArLPOOl0Wbgaew/PieOmll4LRo0dHRxNgEEgjXjb2u/z444/B1VdfHSy88MLBzTffHJ2txVyPwPrXv/4VXHrppcGcc84ZniuCooUcnTKfEhaSrJpE5zBs2LCwcbVBKXL22WcndkSKbOjduOIGACiMm30u9zMz7bP+oD64M99F1jkGhCeddFJ01B03M8nNDGqS8KXfPof8n3rqqaOj2m+x+eabZ548cr8PHVPkvg8GW+b6omVbp9LT+YTyz8gF+1v/97//Db755pvoqBvq8cwzzxwd1bLyyivnGuy4UL58CoZXX301nMTtCRZbbLFw8ph2lAEoE7coN5Gt5huinKY/wSQtfRz6Olh5IIO4Bhnly1MUtEyg2rj1Lg67/LC66LLLLouOuqHezzvvvNGR6GugeD3xxBO9lmt//vOfU1lhpymPZcqyNGU7bZ0pkrTv3EzafM/gnV2ZAchHV9EObr/ABgOYvEYlvBfpo19gK6vs95UStnOgz4sscTnuuOO6FGjNlPU89yIbUOC5ENeRRx7p7ZOkfQ7l+qijjgqVzC433nhjOLllMPWU/9PKBRfffb5zzeSxgT6Mz9IX6Ov85z//iY5aA3l9wgknePOavtSYMWOio85CStgOwFRIlvH5Zm34nQLcTMX13cuAw1hFGUHhuiRwYTbbWL+Ze5jVnXvuucO/y8Q8D0tdrAJ+9atfeQdFBt7tueeeC2fSeNfegG19ZwtvWzFehAAX7QcdcJStKCVtKOubbLJJ+N3jvr2voW+Eic+N040rbgAwfvz4robejiMujT54FoqRL7/8MjrTDTIlzmovLUlpOeecc2omN7g2i8sHm7g8zJIXSTDIipugSYJ0uO8SFw8dJdG7oFz4BvO0i1hEZIF2PM7aKgtxCgaWtfaUEtbAQIGBCwMwLPmZzEXeUk9JG5O1uCuijrgTQCi2fSuSiPP//u//oqMJZJUfwAT4/fffHx1NgHhQVOWJT3QG//znP4Mrr7wyOpoAkwdMIKZ1AZZUfsxvdltVVLtlePbZZ0OXYTZu2W7HMm7yoei00a/Bys8F+fLee+9FR41B/i+99NLRUXbs94rrFyATbYouG6J14PrQNegxfV5Ds2Wd8pElDtwCuIZdgD6ECQYfWeJfdtllQ1d/LvSPHnnkkeiotRQhT5h823XXXb1x0Zc3K5pbCXm9xhprREfdUCZoxzoRKWE7AFOJsB6J8+1EJyZPxTX3+O5FsWJcEtgNq+2SwIZBCr8ZzD3GFUErGmcENpY2LDF0Me+IP5gHH3wwePzxx0O/r3nyrQiy5gfXs3zS4Lu/FXks2osLL7wwHOQz8DKWW2kCDaJvkgK/bPxu4rPj9PmmxnXJfPPNFx11g4wwSljuNdh/pwG54pu1Zalis0rYpLT4frv33ntDpTO/ZQlY1dm+00w9HTlyZJh/vnt22mmn8BoD98TlNct9fIO2PMw111xeyxk6pUmTWqI5XNldhCyn3Y2rI5QxH1iF+mDQkxf7XVBK+srwp59+Gnz44YfRUXuQ5RuQfqx5XVA6x1mppYV0sLKHSXAblgj3Bn+fojWYOs3EAZMJdntih6R+wh//+McwDoOpA6wYM9fY9yNfnn766fCaPBD/VVddVWfhaZftLPWwlfD+ZYACJa3cJm/sfoH9eyv6BSiFbbdTZeWJaA3u98vb56V/7vMXTJ+X9tB3j9vnBdrUTz75JPzbXAcrrrhi6N6oWSjTccpcdAS9GdxR8R1syD/6WT53VGloRhaT1wMGDIiOasGQzMTdrvI+D1LCdhAUzLgBkhFMWXELu3uMPyYEsA1OsH2m48yuuD6dsHgxrgjypjEt+Eti1s7Mmpnnmf/pqDCQIf2rr7566elpJEiyPt93vTlnlpxxXPZ7id5N0eUjbgkzSom8Db0Ncbgb/QEbRvRkWS/62Y3i43cGZih0bTiPVZ5rmZcXM8B2wSqwkzpH7Yab543KQ1bc+OLKC8uYfbguBLKUBfvZ/O17NuXL53akLNKkP8s3eP/997sGizZM+vqUF1lgcpkVOwaTLvzYotQG1U2Rtgz4rstS1g3mHl98adPilm2DXbbzpK1VFFHv0sYR187b/QI7rrjr8xDXLyjC7ZRoH9rtW7qrPE367A0+mwX/7m5cHDPB0Io+SVl57pvw5lnN9LWy5rn7bosuumj0Vy1MMJu4i/qu7YCUsB2Er2Cac1gpNbsJDpXFfQbCaYUVVoiOJkDltS1eDWys4VpK4TvRuCIoS9AAvluYqbc33zLP439muth8gx0U6Uy0glYIEvOOcQNnIVx89dAtq1nKLsoZnzsPZEERO+fG+QpCLjUrU5q5v9ln25DfaeLjOtf/I/cVmZY4GMy1QqaJcrDLCH6cfS4BgPOuwhXcdrPoskD58j23LIpOP+4CfJNFbv8pD1jk2O4j+JYoXnBDY7BlSCvkgegs8pSZpHvS1i92znZdoyCf7LLdzuW5CDmSNg78S7vWf9xLcPsFBjvvyshHZHYReSD6JnbZyVKO4gzSsmDqA/XKdbXEb7j/KMt3KpO2uIvhne2VBazkLWJDYyC+LJMwrHQ06bADPmTzwv02cX08rmtnOZ8XKWE7DNf5vim0WKu6fsey4lYWwIJj4403jo66wS8slm4GlgybimrHs+WWW3YJAV/8RWB8wPqWAiLczG6PWTfdKkMgNBtn3KZoRW4oJvoebrnMWk6NvzDquF3PsTpvBiZ8fEsdkUsLLbRQaTKl1aTNb64znU/73fHjVdRSbhRJ7rJnwNImbomkaE9ol+3NJYByg1sbs6O/C8tXfZbtL7/8cvRXc1CnfYMMn4Kht0C9HDVqVHTUDZuSLrHEEtFRPhgEDh06NDrqBncy7uSXkQmdIhdFMm67kfb7t0v5oGzj/sgFNwR22bbTm7Vv0hvBB/4bb7wRHXXDRotxfrl9SinGaPjmNzTz3dUv6BvYZaQMOeLeY9fnVtftRu9aZnqox77+Dr7l8zy30T32+8VNeMfpEdzJ5WbyJa7MsJo37rfejJSwHQZLd3yghC3LigRHyq5LAnzQYllqsF0RmArKAAS/LWVXrIsuuij0W+NCmlEW77///plmgwxZ0s07sxEY99iBJdO4STDYceYRZK4TfOC7p92AQYgyYIkJ/sco03a5xoKrGT+iKBepP3a9AZbY+JbZZMWN14e5Js21cSTdmyVermUZFkpo+30ZtLnKtrwQj2+pkiZ6msf+Zu+8806Yp3xTO+ACqCjrCyYo3T4DaeC5Rgnr1hsGBj7/r81u/mlgyT6bXrnw3CI2/koCWcKELBtvmf8JWTa78cH97sZCgCIJxUkzMLns2yAEf/3N+poVvRvkhV0nzd9F1NO0kIa8ULYfffTRujjcsm2/j7m2le9owziH9pd02GG//faLrmge5Im7yR/PwNoVt2o+kNlYENv4JuHyon5B38AnTyh7PrLUQROHry774DqCcbXnEmeQlAcmK3yrWIrw5x4HMsSnhGXyxd0cLQ2+vGSym34m2PkeN+GNzsYXj6t3SPpujYibzO/U1bxSwnYQCIrHHnssOqrF3Zwhi3BshOuSgApIY3z99ddHZ/yuCNhNGWfuZUIn7rTTTouOusECFuUspv2tgDzBz6wLA06fghjSCjLzLemUsXTLhZlo30YnorOgM/DAAw90dU6aDfhOdjvtMHjwYO/1hEMOOSS6qhbquc/iiyW6aQcBxO/CZA+KE/c3/CwywWHTTMfAB5v78VyzO7r5P09guaVxy2KDk/ovvvjCe49vc0FgwsVX35HBzcJzffGQt1g787vIjsk3u4yinFtyySWjo25QSvhWdeSBuuNzCcKGDWZi1a03yBl+d6Ht8fk8zcrYsWO9vqKxbHcne7PSqHySr9tuu22wzTbbdP1PYFfotPie8dBDD3nl3FZbbdX0IA6Z726EyqQy/SshsIhmsE25TBuS2rKTTz45irmWYcOGea9H0Re3c34jKNsoHIgHkEUYFeDGzMbXtvvO+TBxFwVtb//+/aOjbu65556u1Sj2M/M8n76ZO54iHsZ5ccY29At8roqK6BdAXDx5v71oP0yf1w15+r5MJNh9Xs4BfV6MBjh247X7vNRvQpwPUXbTN3FmwXdPXFzu/gt5nmdw72XlMroVl3HjxsUa22WFyW5fX4vv4uuXsArK1wdjNSI6n2beH7g/zr2clLCirfAVdqzKfMt7J5tssnCX/7JwXRKYtKFcRDHIAOHvf/97eM4GP6xxs1hFceWVV4a+VVyOO+640BVCK6Ez7FNqkUYziMojxExnk46Zz6qWjc/i/PsJ0Qpo0LGYd2HiKG4SwsUdVFFX2LDDV2fwF+de34n43h3l85prrhkddXPzzTd7lzBmgc4fg0kXZs7pDPeFPC8DX75h9embuEMpgXVms8TVH9Ky/vrrJ35LrHHd37E88ZUNXxl1MdfQkb/mmmvCvw3mOc1slmnib3T/AgssEFrsuyCjmAxpBM9xn4ES6oILLoiOumEwQz1Nkz9xYJ1z++23R0fdYGHr88MtRG/BV7apK0zGFFm288qUOGh/l19++eioG6zFsIa3ZYRPXjSCVRC05S6M89z2wpYtcf0CxmZx/YK0son7fbIfWRqnJBOiCJhYcA0u4MEHH0ylrHTLuFsfkUN33313dFTL4osvHv01gax12X62ey/HPn/x9JFsH6xp66gPjPZ8KxHpB8UpYX2KYVbiMJmf9f3BTj+TVOixXNCbdOpqXilheyluYf/444+DI4880lshf/GLXxTipDoJGnd7hoT0oRDEUo3BGf/boBREOVgmzBhdd9110VE3LMvBR2wegZFEI2GIYPNZA2JBZBRRedPEQA8LBTsN5u/NNtssnB1vlD4hyoKyh2KHgYIN5/H5hvzKCh0s367JzE7j5iQrvbF++OQF55gUc39j1hsFV9735L5LLrmkbpMUIL9lbd8cvu/CoNqtM3DVVVd1LdnP+z2xXrj00kujo25mn332hptF0afwKULOP//8OqvMNG2auYZBgTthy/sxmPcppH3Y+ZE1bxhk+CwumNxO47/a96533HFHMHLkyOioG+QhfZE0+RMHlru+Qcvaa6/dtJsDIXqS1157ra5sU1co2z6f1GWQR7aSRuq2D+Sj7e86T92/8847vUoh3zjPjp+/ff0C2vNrr702dzvCfVn7BXmfJYQLq+x8K3Moj/Zq3Dga1UHa/fvvvz866oY+ydJLLx0dpSvT7jWNnk38vklh3su4EWgURxyMuXz+tmG99dbzxouxhU9vgzUt7pvyYD+HiRzbkMyA3gT9SSciJWwvIamCswRwhx126PK56rLzzjsH0003XXQ0gbwVNw5mR1ZeeeXoaEJ6CSxRwu+q67AdpW3ZMxuYteOL1mW77bYr1DLUfJtGeco3GDRoUPi3fS33//GPf8ztm4n7zzvvvHDmz4XlSeuuu274d9HfXIgs4CKAxt0FC+6sDThl/swzz/R2/LfeeutcsiVL/TB1vl2ho+SzxjnhhBO8LkvSwH1/+ctfoqNadtxxx9L9dXY6lD+3XDGw9lkvoXw79thjg++//95bbhuVTxSluA6xrSBMPLvsskvD+kP7STvqgrKRtsg8P0s9IU2HH364d3MX5Eba5Wh2fpi/fXlksNPIRPLAgQPDv+17sD456aSTwsnOLDBRdNhhh9XlA4p1fNE38tNv3+fLS1xT+PzDNVKiC9EuxMkIrKvcss21rSzbSXIjCWQ2EywurnzMCmMExgq++/fZZ5+6cZ5L2n6BiT/N+3Ofz+UbxPUL8uarEC5YbNLn94FhEuWT8mzXmbT1D0XlgQcemKpPkqZMZy33uDXxGZTQ//vb3/6W6j1813Du4osv9uqMGhmxbLrppt73YDzWjJssZBt9Wh9MajWSbb2W6scQJfDee+9V5p57bkp/TZhyyikro0ePjq7Kzv/+97/or0qlOjCo3H333ZX555+/7jkmLLvsspWPPvoouiOewYMH192bNa3nn39+XRwzzzxzpVqp685fc8010V2NGTZsWN39hKqAja7wUx38eO+75557oitaz9tvv11ZYIEFvOlaa621KlWhH12ZnksvvbQy0UQTeeMcOnRodJUQ2aDuIwPcMoWsyAvyyldWp59++kq1sxRd1Zgbb7yxUu0I1MWDvBk7dmx0VWPGjRtXWWWVVSpzzTVXXdhuu+0qX375ZXRlucS1FwMGDMidhupgLzaPHn300eiqdDzzzDPe9BH/csstl6qNEemw23i46aabar6j/feJJ54Y9gMaYcf51VdfVQYNGtQVhx1mm222yiuvvBJdmQz1jLLki2fIkCGp0mX47LPPKtWBlDeuySabrDJy5MjoymTog1B3KaumHpu/07b7Y8aMCeWRLy28l/t94nj//fcrq622mjee3XbbrfL9999HV+aD+7faaqu6uGecccbKCy+8EF0lRLHQ73bLHIF+elEkle0XX3wxuqo8kBVGfrgBGZNGBsTlE/2fa6+9NrUcMSTJkyxtsG+cRsjbLyBPfPGpXyCSKLLP+8EHH1QWWWSRurgI/fv3T2wPqYcm2DAWX2ONNbxxpu2T0NdiHGFkx5xzztnVH1l11VXD8Ucj0JX40pBXjnB9ks7giCOO8OaHOaavtvzyy3vvXXPNNXPpMJJkm69PmvWd2xkpYUsiTsBMMskkYeN8ww03pA7XX399zfG5555b2WyzzSpTTTVVXfx2sAVFo0JbhBIWQUcnyY3HDShlX3/99eiuxmRVwvKu3377bWXDDTf03kdnA2FoBGMzwRfPAQccEKXET1wniEBD8txzz0VXJjN+/PjKXnvt5Y2HsM0221S+++676GohslGUEtaWPZRHyqWJy1Yo0VlKU/ZHjBgRqyQxHYi00Pj75DShGQVoVspQwtJZ8nVsyPNJJ520ctFFFzWUDyjSrrrqqsoUU0zRda8dFx05FOuieEw5/uabbyobb7xxTb7bgfr4+eefh9dCXPnnPPVrqaWW8sZDyDJpR3wogX3xEEhX3CDcTuPzzz8fmybK2/777x9dOYG494M4xQchrZKI+HmmLw4C7TvfxOBLD/mcNCh84403oivz89prr1VmnXXWuvgZ3H3xxRfRVUIUSyuUsD1ZtqnPcWMOQty4A2xZgIJl8cUX98ZBOOaYY2rkSBzG2IaxhS8e2vK0k1QQ1y8wcaXpF/z444+VK6+80ts/JEw88cR1/YIkuS36HkX3eem7uHGZMO2001auvvrq1BPW9957b6Jx2x577JFqbM178D6+OHh38qARn376aWx9JRx99NGVr7/+Orraj6l79BP32WcfbzwE+izvvvtueG0SKH/dsYAdB5MzcZi08L8vr914Tz311PD6TkVK2JKIEzCtChTkLIU3rxLWVChIUnza4Ze//GUmK5CsSlhgZozBju++skMjJRWdIKxeffeawAwcyncEohH2NCCUK/Jj2223jZ3JImBt++abb9Z8HyGyUIYlLGBBN9NMM9XFS2AQwODEVd5QjlHWbLHFFt77CHRUqFtZSJLTvV0JC6NGjYodKBGYkDrhhBMqL7/8cii/4b///W94jNWfL012J4lrRPk8/vjjNRMPbkeVesPAAEsm6o6R+3xTvuUFF1yQqHwl2AMLc3+j9iNpQE+gjUJePPLII+FgAogTBQXtW5yliQlrr712pjpdhBIWUJIm9R/69etXOeeccyrvvPNO18CO9xs+fHhl/fXX995DID+w4i+CO++80/uMXXfdNbpCiOJphRLWV7aReViQt4Lbbrut7vkmJI07XKjrSf10lEMHH3xwaH1vy0fafM7RNicpgwhZrPOBaxv1C5Bvxx9/fE2/gLYhqV9gBztNWdIm+g5F93kpn/Rh3PjsQLl26xtkqW8LLrhgOLZOA/H6lLDIMt793//+d3RlMnErCE3ASGLPPfcMLfjpW5k+Cf9zTL+kkc6ANGHklwYmjzbaaKOae+24CPQ36Xe+9NJLNd+TSTQjRxrlNXqSrGO63oaUsCXRk0pYKtrZZ59d1/glHedVwrpQ6dx43JDFFQHkUcJilRun6Ck7pFFSIcQR5r77mw3MmCfNRAmRhrKUsMASa7dD4DbkWPpTlrGcT+o8EGaYYYZQUWVI2/HvBCVs0rvyG5NxbrxFhLTWAKIYGNBjYeT7FlmDW9ewTs/b2UVOxLklaCZkGewYsihhG8mIRgqUPIG6mFY2NeLQQw/1PoM+mBBlUbQS1lcffK7EkFmtKttxYw5CFiUs74aywdzrU1b4Qtx17vk//OEPYRucVaZw/WmnnVYTV1FB/QKRhqKVsJRp+jADBw6si9MEt/6krY8mzDfffDWuDXimqXu+OhinhCXw7uRBGojbliNFB/o5uCiw36cRReowfN9h9dVXD1cqQpZ09Ta0MVeBVPMzDD1J//79g/vuuy900l4t2NHZCTQ6dsnzLuxg7NvNz4DT51Y41mcDDXsX0naDjU9uvfXW8HsVCbujspMjmyAJ0SxlybMtt9wy3OG92vhHZ2pBNlF/2QGUzbeqDXD0Sz0zzzxzuFuwveFEI9lmMNelvb7VpElX0jX8xsYCp556anQm37u69/z+978Pzj333GDSSSeNzoiyoc5cdNFFsXUmC3a93nPPPYPLL78898YHyyyzTDB8+PBgpplmis40z7LLLhu2Y2Vs3mnevVE92GqrrYKrr766kPwmjrPPPjusi3nqnwv9GzblcmGjr8UXXzw6EqI40vYFmu0zULbZlMtl4oknLrVsl9HXoa4fcMABwVFHHRUeN3qGkQ1x19nnhwwZEm48RJ3PKlO43u0XFIH6BSINZdU1+jA33nhjuBm5D/e5WdJBnwTdyqKLLhqdmfBMU/ey1kFD2jQgR+I2rrLJmo4pp5wyuPnmm4Oddtqp5n0aYXQYi3g2IHTxxWmfc/OAvu7f//73YNZZZw2Ps6SrtyElbIH0ZEHp169fuNvd2LFjgwEDBkRnmyPPu7BboG83Z8Nqq60WzDXXXNFReXzwwQfBf/7zn+ioPUGYszvhNttsE51pjn333TeMb/7554/OCNEcZcqzX/7yl8E999wTKlHBbojN342ez26/lHk6SHkwz4nrCMWdbxVFPZ8BF4pqFGV54jT38K1uu+224M9//rMGWi2GusDgYtSoUV4Zn7aumuumnXba4Nprrw0uuOCCYIoppgjP5YX69+yzzwZrrbVWdCY9drpRtBx88MHhLuJM2BYN5ThtPsF2221XI6OA+7PEkTQxnpcPP/wweOmll6Kjbn76058G8847b3QkRHGYsptUhrPWL3CvT1O2i2oXbbKmO20aaCdRwtJuInOTSBMnsv+BBx4I5SSTO1nTbWP6BbZ8y4P6BSILzZTZRkw11VThZDUTqI3qWxooz0x40CfJ2ramec+015COI444Iqxn00wzTfRLPVlk43rrrRfK2k033TTXN0GHwYRZIx2GL02+c/RDL7300uD6668vdFK/nZEStgDiCn2WypAWU1FmmGGG0KIU4UAlGjduXLDrrrtmHkwVnUZmZbfYYovoqJ7NNtssvKZsfvjhh+iv9gar4euuuy54/PHHg4EDB0Zn00Mn7Le//W3w9ttvB2eddVY4qyVEKyhCdqC0ee2118IBhU92xT2DSScsy+I6RlnSlnSt3TEpWlbauHHHdYjypIG4COuuu27w+uuvB8cdd1zmdsJM8iFnNt5449j0ifJZbrnlgjFjxoTWq0YZy/dIUza4jgEzg5T33nsvVDJCEWV7zjnnDAf0t9xySyrrCAPPNu0Ylu/0aZpVCtvYZdX8neV9XRnFvWnudyfGm8lj917iZKLZZb755gumn3766EiI4nHLYrP1y2DuSSrbxlrffmarcJ+ZJQ1cS7tp5BuyISvIVCzWXnzxxS5Dm2bzgfvpFyDfGvULfM9Sv0CkJYtMyFqO7Lj5m8nc7bffPpQj9JPyrDilLtDmv//++7Hjk0ZklYONridfqGek6YwzzsglRwBdA5P5I0aMCPttzWB0GM8991ysDiPue5rzvAdyke+FoQHfr6/wk+pHz1ZKhBCl8fnnn4eKJYTjww8/HIwfPz4UuIbZZpsttCRG2DF79fOf/1wzz6LXQHMT1yBjuY6FBwMNLMdQGBo3BJRxXG2svfbawbbbbhta3vWlhrpovv/++7DTxKz6XXfdFbz77ruhnCG/UYghZxj0MUBjadACCyzQ9d2SvqFoLXyLt956K1R+3nvvvcHo0aODTz/9NAxAvWFJ19JLLx1ssMEGwfrrrx8uIyvy+/nKg0kXZQtXBU8//XTwySefdLkIotM9++yzhwpOBhWskCGt7V62kFG4SUDR/OCDD4Yyirpk6gwDGvKYASCrgiSjhBAuP/74Y/Dyyy+H7S9uRVz5iDUflr8rrrhiKLdphzkuCyN37X4BYxBcQfn6BVjQbb755qGMU19AtDuUb8oxfSTKNQpIXz9poYUWCsv2JptsEiy88MJhmW9nkCNvvvlm8I9//MPbzzJ1lol3+lobbrhhsOqqqwaTTz55+HsZ4E6G/L3zzjvDcRwrG2wdBgaEU089dU2ftC+v3pESVjSkHQZGppiqwReifMqo8+0gR9qVds4bfTfRDHb5iStLvaGMqR4IIQytlAdlP6uZ+CUXRRl0crlq9bt1+vN6M3JH0EFQ8IumiMpURLpIg0lHGe8phOiGulZ0PSuzUS4irT0pV9LkTU+9Y5nfTbQXZdQBu/zElaWeKGNZ37Vd6kFPyinR98hb3npTOU2TVvearPKgmfwoW/a48WdJazP3ChFHK9rbsstqXPxp362o9LUiL21a/bzejCxheyl8Ngq6+b8omomv6LT0Jkw1kvARnUo71+++Inv6sowV2Wi2TVJZE0KI9qPdZLPaCtEutHNZVD3x05fzRZawvRRTYIsuuM3EZ99LpepL8O6+vGs2H5Lut3/ra/ktWk/RsiYvvrLeLmkrm77yniKeLLK+mfKistZ+qJ0X7UJfLYvt8N6SzUL4KapulFHPVW/99OV8kSWsEEIIIYQQQgghhBBClIgsYYUQQgghhBBCCCGEEKJEpIQVQgghhBBCCCGEEEKIEpESVgghhBBCCCGEEEIIIUpESlghhBBCCCGEEEIIIYQoESlhhRBCCCGEEEIIIYQQokSkhBVCCCGEEEIIIYQQQogSkRJWCCGEEEIIIYQQQgghSkRKWCGEEEIIIYQQQgghhCgRKWGFEEIIIYQQQgghhBCiRKSEFUIIIYQQQgghhBBCiBKRElYIIYQQQgghhBBCCCFKREpYIYQQQgghhBBCCCGEKBEpYYUQQgghhBBCCCGEEKJEpIQVQgghhBBCCCGEEEKIEpESVgghhBBCCCGEEEIIIUpESlghhBBCCCGEEEIIIYQoESlhhRBCCCGEEEIIIYQQokSkhBVCCCGEEEIIIYQQQogSkRJWCCGEEEIIIYQQQgghSkRKWCGEEEIIIYQQQgghhCgRKWGFEEIIIYQQQgghhBCiRKSEFUIIIYQQQgghhBBCiBKRElYIIYQQQgghhBBCCCFKREpYIYQQokQqlUr0l59GvwshOgfVd9FTqOxNoKfyQfkvRHmofk0gbz4o/1qLlLC9DFWQ1tMoz/VNRLuSpmyq/BZDUj7+5Cc/if7yk/S7vo/oS/SF8t5IHghRFip7E2hFPvhkmXluXjmn/oDoFMooy5JvE8ibD8q/1iIlbIuwhc1OO+0UFvQ8YaKJJvKebzbMM888wfvvvx+lUNiQP4YhQ4bU5R3fhG9aFm+99Vbws5/9rO65Jqy22mrBBx98EF0tRDeUDx+2PIq7pifozQOMZvLR997mXDt9HyEa0WwdbrfyXpRM6s2yTYiyMPWiE+tHkizLK+fUHxC9iaR63VvKstpuURZSwraIshpcNcitoycEMQrYjTbaKHj++eejM7XfHAXsDTfcEMw666xqKEQidvkoQm6ovBWH73tItoveSCeVW2Rc3vdx5aMdD79JfgoxoV40U886FckH0dvplHot2ZRMkqySHEtGStg2p1EBdn+XsCiPVuftu+++G2y99dY1Clgw3xwF7PXXXx8qYEHfXiRhygfl58033wz++te/BltssUUw99xzB1NPPXX4O2GyySYLz62zzjrBKaecErz44ovBjz/+GN5rU3R5GzduXHDVVVcFv/rVr4L555+/Jk0zzjhjsMgiiwS/+c1vgttuuy344osvort6D//5z3+CESNGBHvvvXew1FJLBbPPPnv4bljS836cO/DAA4PHH3/cm99pYDUDqxpMvrUyTDnllMFTTz0VpUQUgdu+Dx8+3Jv3RYU11lgj+Oqrr6Kn5ef7778Py8JRRx0VrLjiil1lnUB5n2OOOUL5wsqSOPnSDpBeA9+C9xo9enTXe80555zBxBNP3PVuM800Uyi7kGHIMmSaD3N9K/n888+Dddddt+vZhKK+t+hdfP3112H9s8tC0YF2Oi1cHwflFkMD6lT//v27+gV2P+W0004L+zS2vHRlZzuCfLj44ouDzTffPHwX3ol34x1pxznP73FypKe46aabauQeIcv3Fn0DykUS1G1XDhXdJhk5QB268soru8YXU001Vdcz6Z/Q/6ZvTh+dvrpLO8sT+iWjRo0Kxw+8xyyzzFL3bvzGNVxbNDzHhme88MILYT+J72vLNgLjHdNP4pt8/PHH0Z19kGrBEi1m8ODBlWpBpEZnDnnvaxSqlaTy3nvvRSkUcZx88sne/OObFsm7775bWXbZZWueYX/71VZbrfLBBx9EVwvRmG+++aZy1llnVfr161dTrtKE6aefvnL88cdXqp2mKLZi+OGHHyr33ntvZbnllvM+NykMHDiwUu1URDG1L++8805l1113rUw00UTe9/AFvhHf6ttvv41iSQcyHFnui7PsMOWUU1ZGjx4dpUSUwfnnn+/N+6LCgAEDKl9++WX0tOx89NFHlYMPPrgyxRRTeOOPC5T3IUOGhPLlf//7XxRb+5CnDpuw+OKLV2655ZZQ1vUU5OmJJ55Yl7Zmv7fonYwfP76y2GKL1ZWHIsOwYcOip+Xj+eefD9t4X9xxgX7Egw8+2JYyxEDaSGPWPg95QZ70NG+++WZlvvnmq0tfs99bdC6++tiKNsmML9yxdKNAO097//rrr0cxtR/kH/0l+luTTz55at3QzDPPXDn77LPD8WDRMP448MADM/f/CMhDvtX3338fxdY3kBK2B0Bh5yuEPRmkhE1HK5Sw77//fqhk9T2HsOqqq4bXCJGWBx54oNK/f39vecoSpp122srVV19diEIBxcbaa6/tfY4vxHUytthii7asD3RyUCxNOumk3nSnCfPPP3/liSeeiGJsjJSwnQud7sMOO8yb90WF1VdfPdcACHlw8cUX5yrrdr1Gvlx77bXeQVtP8N1331VOOeWU1O+VNBBikNFTShQUJD4FspSwfZPXXnutMuuss9aVhyJDXqUcde64447zxpk2bLPNNpWPP/44irF9+Oqrryo777yzN81xwZUpf/jDH0pRoKQBWbHuuuvWpMcEKWFFHL72/NZbby2lTTLPeumll3IZd7jhmGOO6bH6lgQKSxSqvjSnCWZsQX41299CcUo/aZJJJvE+K0voyX5ST/AT/qm+uGghLDd95513oqN08JmqjXFoJn/88ccHL7/8cp15/MEHHxxUC3D4t7k+DVzL8heWAUwxxRSZ7u0L2PnB8sk//vGP4d82gwcPDi6//PLoKD+ffPJJ6ILg/vvvj85MMPU339p1QSBEEpQbyuVuu+0WVBva6Gzz4Bbg7LPPDqqNbnQmG/fdd1+w3XbbBR999FF0pjmqnZFwqfayyy4bnelZ2CiPpTa8Z7OwzJ86v+GGGzaUy7gjYJn022+/HZ1pHaRz5MiRwTLLLBOdEUVCXR40aFBw9dVXR2eKpzoACm6//fawP5AWljbvs88+wWWXXRYe2+2V/XcWkC9nnXVWMOmkk0ZnWg/vRTpYLueS9x15n2uvvTbYcsstozPlg1953BC88sor0Zlu8nxv0buhrOJSg2//7bffRmeLZ9iwYcEmm2wSHaUjrs5llSNcTzv097//PZhrrrnCc9zP+Z6C5dDbbLNN8NBDD0VnsmPSv9VWWwUXXXRRMN1004XHrYD8+/Of/xwccsgh0Zla8nxv0TehTWKZ+quvvhqd6aaZNsnIiBtvvDHsfxe19H7gwIHBddddF0w77bTRmZ6DcdwVV1wR7Lrrrplkog8ztmDfmbzgUmL33XcP87wRPjnuO0c/CfmGXqXjqb686EUwQ8RMEZ/ODWXNROadJWl2dqUdKdMSlpn7NdZYwxs/AetY2+KvE/NXNIdbJqoNY64ltGnCHnvsEVqtZIXZV9wbEEe1Aa6LN08gHuLMYjVaFG6ef/bZZ5ksfNME3u3xxx+PnhBPKyxh474ZlrBPPvlklBJRNF988UXiCokiAn2LOCsUX3tD/UcO2HEUVafzypciwLLDfS87NPOOyGPkctHEfR+sAn3pICR9b9G53HTTTd7yUGTIOh7xyZJmA+0w7XFP95XL6BPY8rGM93PjHDlyZGWyySbzpoUgS1iRhjLbJMrspZdeGraxpo0uqj9iZElPU+SYjrxJO7bwUYbMNoF3xG1CT8vustHGXKIh1Yoa/ZWNvPcVTbWcR39NwD1uB5hN2nbbbYMHHnggOlMLFn5YQNkWsO2Sv6J9sMsEjtGxKqk2YtGZWrAePe6444IxY8YEn376aVgvCDjFHzt2bPhbv379oqu7Mc+48MILw9nhLDADzgx1tTMTHvM8O81Y4u+///7hagE7Tfz9yCOPBDvttFO4sY8L1xDnLrvsEowfPz462xrs9DPzftBBBwX33ntvdKYWZtJZsUCeY4VEuvkfK7UTTjghdqadd+Pd2awvCTbLwPKnjMAmRPz/05/+1Ct7+K5LLrlkdCSKgPJhoF5Sf1zYYML9VlnD3HPPHf5P++KrX+B+c9J2+umnh3LAxk4z7dbQoUNDy+xqhz38jf95jwsuuCDcaAd85Yl42ZSmJ8AKw30vG/NebAb0zTffhO+FnMWy/x//+EdoweHLR96T6/bdd1+vFVAz+PLwzDPPDDc1EsLGZxUNs802W51syBtoy7OA5XtSndtxxx2DZ599tqvdRI6wIvCAAw6ItZinHaY9/uGHH8JjWza1Cp7N6rm4PgFp5x14FyMjeUfelXc2uPWbvEL+cr2v7jeLHSf9jl//+tdh+gxlPFN0PtRz2qQyyg+W72bVn6nrdv2gf408oP/95Zdfhr9RP1mZTHtuVhL70kb9ZaMpE29P8Mwzz4RWp2ZMRzrttLIB1y233FIzdvrwww+DSy65JOzjufA7Ywv67vRlssC9vv6fDc9k9TCyjc2UuYf8fu+990LLeSyM4+AdGQvyTTuaaqaIXkRPWMK2M9WKGv01Afe4aMqwhGV2LWmWHKfi+M8UIi34aKx2RrzliRnGk046KdWmT/hC4lru8cW1yCKLpN4gDuuyuDQR9tprr1Qbf7H5z5ZbbumNg3DEEUf02Oyp2Tip2jGqS1ea98Nn3G9/+9u6e01o9bv5nuWbiW8XK4FOhe+Av12sje18J/RUu++mxy7zc801V+W+++6LroyH98I3nPteJi78Vr7yyivR1eW37/D2229XFlhggZr0mMB74YstTTposzfddFNvPIS99947urIcsG4xKw7igixh+yb0V9upLIwdO7Yy00wzdaXFliX0MZ577rnoSj9J/uVpq+6+++7oytbDs+P6T6S5Ud+edycPfPfjE5K8K4I4mfZdSms3WcKKRpTVJlF233jjjdh9L8yYp5FvV+Khfcdfalw8rZYlpl6S9o033tibrkknnTT0yc+4Lw7ux7+t737Cfvvtl6pfY0DuxPmkJT2XXHJJqk22kmQ3gb4YmwF2KlLC9jKkhM2OK1iyCBqXZpWw7rMbKWCXWWYZKWBFZsaMGVPX2WFgQyciy1JYyiuBzXLiBhIXXHBBdHUypGm66abzxsEuqUkdCJekgcEcc8zRI7uaoizybXZCvrNEKq3c4d2OOuqoungIs802W41SCpqRZ1nxdaKLHAiKeO68884a5QQB5aVvM7Qiy4QbF8cElIh2WkxYcMEFK6+++mp0dTooV3GygbrQSlgC50sH75V1MMBEV9zE04wzzlh54YUXoiuLwXwrJqrSbEoiJWzn49ZfJvrWWmuturJQhEutPCRNzjIAf+utt6Irk0nqS1POeW8bN1/KIGm8Rlrticuk9CB3kD++eMg7+gxlMXToUO9z3aDxp0iizDaJurP//vt746OPdPvtt0dXdpNU33ANuN5663njW3/99Xtkoy5cyLj9P0LaMR3vS2CzYDcOgq8vGZdHnI/r/zE+uOeee6Ir00EbEDfmIbjGJ3Hp6o1ICdvL6A1K2E6qIC5FWsJiFTdw4EBvfAhbWcCKvMQ1aHTY08xOusQNlCinG264YSqr2ri64xsgpWHcuHGVxRdf3BtnWsVwUSDz4jqBKJizykQGZ76BMgElUU9AmlyfpFmV+iI/lGk77wlMOBTZRqTp6HL+3Xffrcwzzzx16UEeMFjIg7Eid8Niiy1WGT9+fHRVuVDGV1hhhbo0NPNeSZa1ZciptJZrhDwDXtG7oS5Rp9yycMIJJ0RXZCdr+2bjmzAm4H8UP6RpMM9ngpKJSjcu6u/w4cPDa1oJz3TTQvBNpjYizicreUce2jTzPWzSWC6aICWsiCNPm5SlDMfJEOo9BiRpsZ8ZpzTuCVmC0hflr5sWAgrKLPAt4nzyolhNk+8YudD39MWBkjeP/EkqIz1lWNMK5BNWFE5VSEV/iTjwAcvu8CNGjIjO1MLOrvh2wQ+jj2rdjf4SorY8ULZ85araSQl+97vfBZNMMkl0Jhk7Tu7ZbbfdguogIDozAa557rnnQl+ISfznP/8Jd853QVbgLw2/lo1wy/wss8wS+rz1wbNaWUfwp3SjZ3dQfEzhSy2rTGTX4z/84Q/e+5AL7CLdSshL/GG5Ozvj27KVO733NewyjF9VsMvEfPPNV+gO2cRtnmk/x04H51988cWu9IC5dr311gs22GCD8O+sbLHFFsEiiywSHU2AeN94440wQNl1Gj/aTz/9dHRU+14+/2Vp0oN/THyu+XjwwQfDOIp8r2HDhsX60rW/qeibfPnll8Enn3wSHXWz6KKLRn9lp5lyRbv5WeQj3mbQoEHBSiutFB0lY56/wAILhH4EXahfl19+eZdv2FbAs3imD9JIWrNAXtg+Yg3kndv3KKKe04887LDDvN9GiCwktUlxZCnDcTJk6623ztQ/tZ8500wzBX/5y19qxjz83hOyBP/Q999/f3TUDTKE8UUW8EF9yCGHeMdcjC3S+IZ99NFHg3//+9/RUTeMdxgnZoU8JV3sl4FfchvynGc9/vjj0Zny+4GtREpY0RH0pkqJg2qca8cpYNn04+abbw7mmGOO6Ew3vCehiE6W6Bzs8oDT81c8G2+wadK8884bHTXGLWMoSH7+859HR93gBH7cuHHh33H1kA49ihsb4p999tmDn/3sZ9GZZHxlnoHJlFNOGR11g4KIjYxaxR133BF2FOw08jcKZjpzbr6kkVcrrrhisPTSS0dHEyDO559/viu/DWniawac47Ohgs1qq60WHHPMMd7vIorB5C3f13SO7W/NxgdTTz11dFQMvu9pn+P5//znP6OjCZg0rb766pk35DEwqUKZtyFeNql55513wuOyyxrv9f3330dH3e+15ppreuVM2vSsvfbaXZNf9j3IaiZUOGd/17wgG3ybMe6zzz7hhG4RzxC9GyZMaY9tqLNxE/6N8JWptOWMvgNtpwuKD/rIaSeMbdjg1td3ZgKx0caWRUIfxLfRLmkjjVmJmwgHxhLuN20Gvh+Tru5mYgsuuGCwxx57REdCNCapTXLraZ72nX6+r56xSe1ee+0Vu2lfGuiP2EpcI9eQJaZP0gpuv/32mk3xDEzuMsmbFcaCm2yySXTUDWOYUaNGRUd+yAM2H/UxePDgcLyT9Tua631KZZPn9jPzlJN2RUpYkQoGCrfddluw5557BgsvvHDXDtmEaaaZJhwMbrbZZsF5550X7oSXthNWBHQ+mAlDIM0///zhoJR00VkhXcyGXXnllcHHH3/c0nT5IB/33ntvr9UcGAVsXIfY5LkQcdCQMrhxWWWVVXJZnBqwpF1ooYWio26++eabcAfOJOiA/fjjj9HRBHgOlnzEmxeUuDPPPHN01E0rlbA8x9RnO++WX375UPkCbp1NU4dnmGGGYJtttqnZcRq5gHz74IMPoqsmUKZMQPl36KGH1rwb3+zUU0+NtcLsaTnbaVDGbMtTA5MqrWoPzDfleSgqfd/YtWTNAvHGWeP5JpXKKGMMGF1QfiA7mwE5R58J7HQzkDNW7c1+R/pBWNi5qxLWXXfdYL/99gsmmkjdfTGhzDGxYYMcn3HGGaOjbPjKbdqyTH3DysuFydUlllgiOsoGMhHLdRf6RbaVe9lgLea200DafJPhaeQZeeJOVAGTR4y7ioJJ17PPPjv823xL5AdtPmMsIdLQqE1yJ1nytOnIszFjxkRH3eX1F7/4RbDUUkuFf6fFfT7p22GHHaKjbpAl9jPLhLHcPffcEx11w6SwT5GaBt5r++23j45qQeHrKsxtsDj2vTvthxnvNMM666wTKtAN5nu++uqrLTWsaRXqlYlE/vWvf4UzQQz8N9100+Bvf/tb2NjbShcqBoKQJQcoGI2S9pJLLqnr7KVlyJAhYeWzA+dsWFaFIKfys7T/6quvDl5//fWuQQ0DRdJ10003hct4UNasvPLKYYeljAFcI0gXM4IohH3ggiBJAStEGrCStMu3acQWW2yxrr+Tyr+5xoXzbqfJXGuW5iTd68NubA09UTebIa4TyPLlZpWULBtC+WbCW2+9FSqkkGOtABl64okn1inBWDbE0qM44r63yEecEpY63U7Y8iFPPc5yT9FlDBmGZaoL/QYme/LCOyHnfLKOZyYNeNLCM5gAdy3XWNrH+aKtpUXvwFeffBMa9DmTlLB56nIaUML6lvXi0iRLmbXTh1zYfPPNo6NafBZzRWKn44knnvDKKNLmO59GnpEnG264YXQ04R4C46xnnnkmOtscTLrSvrtyCdcEeZU+ou+Rpk0qQq64RicmTiZ0MWTIgq8OLr744sGss84aHXUTZw1aNEzkvPbaa9FRN/S/fUYxaWGV3TzzzBMddcOkmOuuxv5OKGHJc5f+/ft78ykt5hmuYQ3n+S7jx48P3doVUWbaCSlhhRcUhig4GeShGMwKFYalM8zc3nfffYVWHOJitoalDMzW0llIGz+m9pjiMztnlLWtgE4Sz4xTwGIBm+QDVoi0uEvuTN2wFYJpOvxJmPuJG8VLo85OXP1EgenWwyxpo0Pgzo5yP0ubJ5988uhMuWBdY3daTJ4w2x9H3vxv9rtlZfjw4XW+vFZdddXgt7/9bcvT0pdBOehak5D/xrqyFdjfO64+Y61gyFI+THxxy4Vb0S7Swff5tmZFjXGx4L53XD7Y2Png5klRcopVSkcccUR0NAEs1+gfZfU9KToHXx3E77EL5TDJjUjaupymPphr+N/nJ562M6vluZs+XBz5FAIoKjHeKBL7nU066JPwLDc/SFNa90sGNw7yxp7QMb8b/9LNQLpZDowxi4E4sXCL81EvhI9WtUm49/OVe5SnSaStK4xtfP0PFKP0GcoGN24+H97IAVYh5wVZhN7BxfbB74O0GNcntjzAVUkzqxpNXLRD//d//xf+beBbIZswCuk0GSQlrKiDWY411lgjFJbNNuoIKpQR+BN0lyPngfSce+65oesDtzNlKqddSeMqLO/GbLvrW7EMUMCygU2cY/JGLgiEyALWCjfccENdYHlO1vpsX4+y1MyA2uennXba0A9QElxDI+2CEtZW3CThSzv3+mZtmeHlma3A5zCfGWpWBOTB956+c0WQFC8KMSxxbYsY/GthGVvkZlCiMaw8we2HDYMDn+/DVsBEpg+W4LqWbW4Z8x3TTtPJ9i1zQynjs9goGpShRx99dJ3cvOCCC7oGF25/Iq5/4UI/A2sd992N8iupHjYC63gUJK7lGsoU+kkuadMsOg+7DbdhiXneyQC77KYpW+YaBvIvvfRS+LcNE0tZfNf76Nevn1fRg3LBKBCKwryPnQ/Ia1+/hjSRtiy4eUreGAWz/UxWSjRjWEJcWCjaS595Nm39n//8Z7X5IjVZ26Rm8Fn2pyGNrAL6vD6rfFYJFy1LfDz11FPRX7WwcrYZ6Fe5e04A+grGZTZ2XtF+mBXOtvxhcsm+zv4tC3HfhW/QjH/fdkVKWFEDwpNNKEaPHh2daR4EMbuys9OgXTHzVFKUlViUusIdTHzmfypz0jNwro1fFN8sU1Ewc0N6pYAVrQLrdfwguwGFTdqOh8G+ngGMr0PAwMIs142rb/iixYLShfpx6aWXepckNoKOAO5RfFCvfMt/i4aJIDOQtPOKpVDurHBaeef7Rlm/W1ri4iWtf/3rX8OOpg0WsL7vKMrF54qA8mWWEDPBicXE4YcfHvpBo8PKtzWB+omvLb4py03TlkWDez2+X40C2C5DWE4/99xz0dEE3DIWd/zYY4+FbbILz8GnatkwKGHy2ZWbuBVJshJMw8MPP+y1wGNJIcov8sDN4zTfCPl50EEH1Q1Eiff4448P3wncPBd9E9pMrOrd8mArPVEsMPlA2UducK0JyBXqPn1aluNiCZa3bJEOn8UVdT2twi+ujph9KlxY2ptm9+882PmAJanPH2wRGyki933yEBnQyDd/EsioP/3pT9HRBMjfc845J5zAFyINadokylWa9i0NRcWThP0MU89ZhVem7gCQrz6f2fRH8mzI5RLnwz9O8Qtx8t70NQxZ2gU7f1EAs5Ia7DhwY9FsP6wdkRJWdEHnCxcCSTNLCNLrr78+7EChOKHyMLjAguW4445LnOVlp3AcvhuyVFJggEb6fApYBphDhw4NO1ikjXDXXXeFG4mZiut7HlZspIuGA4oU6MSJj9yLLrooOlOLFLCilTRTtinLWLPT8XDB37IZNMXVaZ7NJlO+TbRQwt56663RUTx23MSHNTtuSVxorBlAtgJkphlI2vmLFWwznZKeBn92TJrZoGz//e9/36veo1PwKWEZiLM5A+0x/riYfMFKGSWoaxH1/vvvh77Z8EnOfVilc1+j1SmmTLvfHKWNqWN2ucdaF+vpJAsR+3oDk7+0lb62Hfli+2T13V8mzZZ33g3Z6YIyxZZT7nMaPZd8OP3000OFmQ3xojixVyfYedbq/BM9h/utWbrrs8hm0pCVD7vssktYfti9n70UkBs2yBUmHSnPrHBjcpU+eZwbkSSIy1hU2WRRVCbVEd+yf+Sdb9PSoiGffbBEull5Qp77FMyMw/K+GzKK7+juwL7HHnuE+20IkQba7zRtEnWg2XpgiPOLmtdC1gU5ZVuGGtlJHWez7zJBx+LKEvKNyXfGOS5JbbvvNxS59CFdkuQ5Ky2Jyw34kc6LXRYef/xxr6Ut/ds0G0v3NqSEFV0FHWWh60TbwIwJgzsG5yhTEADG0owOEx0e/L/QmJ900knenXgR0Cg8XVP3RpgKescdd9QpgVAK49yfJTSDBg0Kly2SNgKdRJYSMqvCMkO7QttceOGFXcrhPA2D7x6UVliNEbcPhChKYylgRavIUrbtukInAMsXX1lmUMGArRE8m0aUGXKDSQ9yAYt0NvJL47KEaxgEsmO/DxSFvqWIZWCWGdvwXj73DMxqjxgxIth5551DRRjyk2sJ+J1kSSi/cU0rfE3FwbOxWHCXv5OvRcy+i2xQF33WWyg68dXHINmnpE0CN0HcR/1lo8o4TB114fwBBxzgdTFCH2KrrbaK7ci7cfJuKCN9y3fpdzCRat8Tl6ZmiOsbpCXufqyT2YjHNyDcaaedGvqtszHPMP8/+eSTYV/LhX7Y8ssvHx3Vp62M/BPtif2tKQcoDdwJEiYLmQhlIueyyy6LzqaDtpt2m3bh2GOP9SpVwVc/sBT1XU/bWUQZpY/ti8fnE7do4hRAvJsvL7LAO/n6F7TXGJ8Y0j6HsQrtvZtmZO+RRx7ZkUuARTmwgjZNm1QkuB3z1XP6Fc245zDQj/FZtaMgLXtCh4kVt29Hvcboxec+Jklu+n5Dd+OLBz2Ou9dGWpqRb7RPV1xxRXRUC4Z2nYiUsCKsnAyATjvttOhMLSzRe+SRR4Kf//zn0Zl4sDpF0YqVDYpYt+Kb52SpqHHXMnOLM3qUO0kw03PUUUeFVnO+WR/AitddypM2je51dGrY1MxYwPriYRnDsGHDMuWDEK2AMkn5RJmCZQzWq+eff370azfMbjMAw6+hW4595RpZgOIG6wqwr6HOUJ9Z6h6nhOQckyVs9od7E5/VHIpC6l6rYNDjKit5L1s5xaAXJTayBz/Ul19+edhBtNPP+7OEkd+4phkLo2a58847wwkvGya7mHwTrYfy5fPjyIAHRVwzYNXGigw6vr46mwQTnmw0iRxwQXZQB5j8pKz75APnsX5l8oF3ca9BsXPNNde0ZKIyafCSBnM/9ZhBE/my0korhX0T33JClOfHHHNMrudyD30VZLM7KU0ddeWf+4ys31l0BpQDn+ITZQKWa5TdZqCPjZWUT2HBs91y5yr9TDktys811vO+sh5npZoX3zPilLDGvUOzxOWR/W5pn4OrNHe1HpPCuHqSkYhIC23Srrvu6m2T6P+WBZNHvg1K2Rgv6+S0D9yuuH18Q7MysxHkqU/Ry4rjvD68Dcgt+m4+61KU13nfLa98Iz24y/L1aZkQWmGFFaKjzkJKWBFy1VVX1S09AgZSzI4b33M+fJ0QLGFQKJjf7Ip54403egdmWWAQgzLX9RHii9M8e6ONNgoHmz4rXaxp77vvvpr78wgTBBcWeljgNoJBGJbFQvQUNPKrrbZauLyNQOeb+oHilZlH6r6vMcbSFFceZnbbrStxdQerCjbWY9LDx6hRo0IlJPUamWPSxYwt55ArWJe5kOYzzjgjGDJkSEstN2zLEwPvTlqRJVjok1dY7jaSd3aeGQsjOphsiuH7Bs3IzziYiT755JPr5CATaz7rG1E+DKzt3aohrn7lgbKFQo962ahMub9T//Hl6vMtxqQJbRxW31jbMaCnLqOIoL5yno1gfJMpKIbZOR3/tu0KgzMU0Wb1Dd8E+ckxLhSQZS5cgwUyS72NC5e09dh8c74XlkWuRR99NWSFLNdEHGVbgTL5giKWyUPKtduO2Jil7+Y81/K3Kb9p64V7nTmmDSY++7n8XfTEpp1+g6+9BtdFUV58E1+Q9d0Yf9C2u9A/s32/p/0Wom9i2iTG0TamTSqq3PvACMS3CS6GJGncnCXBqt241awQN9kCRdQZJsh8qwPJT1uu5YH7kbX4z3ZhXOgawqR5n6zvbF+PgY3rk9pAn8mnaO8EpIQV4ZLaa6+9NjrqhoESflwYVCRBZfZVvi233DLYeOONw7/t37HqwdIqjxDhHhREZ555ptd5f6M42ZmRHRp9oHDyWeClhYYIBWycRbELs2v77rtvqPjIKryEKAIaeGaL6WwQ4gYPBhptFCs4bs+rICEONhC67bbbwqVEcTADbNKVtKwISzoUHsy2t2IzLhufj1wGfwySUGqtv/76wUcffRT9koxPBvA98LW0ww471C0jzSM/G4FFlDsTvd5664WKcRvJq9aBot/1PebmP2WO8o9vdpaw8TsBRQdLyxhIJC19RxGKdXmcOyKDr8yhgGVTlzhLae4hftp96rJvsteGXZVRwDa7Q3rZYFFoZKfP+s8FOYUPeKxk02485IPBimu5Rl+NZaCN+mqib+MqSVyoq2bfB+qp2feBQHvMijhWsiQp+rFq32uvvcK+dFIbZSZfbFnG3/YqkkZwvfsMczzDDDN0TYYa7L+LxjyXZ5BvLqyEaVaRYNJv+8jOC/0JZK3br8DApRUuYETnkKZNKqvuYaCBOyNfGWUsjszzPbtReuh7MxmB66Y8FFFnkJG+dGIJX4R/VKxpsapNk9a81yTls7kefdDgwYO9E/L0L1kV2KlICSvCgZvZ4dsGn6pYyaURnr7KR6cDBQLWIS7sopxH4Ula2FykkQuCOJhBYsmyz6k1ygcsdLPCuzPYPeGEE7wKWH7HpYMPnulaBabJbyFaDYpFlqjh1zVJeZoG6gQTNChb6FAY+eGTI0lgMffAAw+EA8eeIG5p43XXXRcqxYqqy6we2H333esGTEXCZByTWzZ8D5RzDGZtsn4nkR+sEuKWwwEKD5SAWILjm51BCeWOgLIE61PKDu081psoA30wIcO35nlZwUoaH+e2z+esUKZwe4Iltlve2pk0dXzFFVcMVxttuummdVZBbl1Kio8B5T777FN3zWGHHRZOekOa9Ii+BxOZZuWGKXN22cP9B/KBjVGYUJl11llrJjVp/1deeeWwD8DEIuUwDlx/sRIuCd+YwyZNG5PmGhcmg4rwFRlHnPsYMHUzbx1t9L5Jlnk2PB9XMUye2TAuYhVfM5NEom8xduzYhm0S5KmraWEs4ZuYQE7RP6Jv65KUHhSwjOeTrGBbgc99TNH5yHdzvx0Tbnn6gQY7vqT0mv096Bf5+rgo8lnd2Ml7UUgJK8JlxW4lBDaWYjDUTKX/xS9+EfpGc3n66ae9S3kbQUcQ0/Rm0sQg1G4cDCxfwI9MVsg7LImxEHRBiGBdhp9FYxXsghDCKtBQtJAVogiw+mTZMgoXlhjROfDJDZu431FeYgWONS0DFnNdo/jArh9Y3bBkn4bat8lH2fiW/9GZOPXUU+tmdVGIYYWPNRGdHN6VwATOyy+/HL4DCrM4UMSS72nyKA9szvKvf/0rOpoAVrADBgyIjkRPgLWlr02gbaHtwOLanRThevcejrFyYgnqmmuuGZ3tht9R8uEiIAuUR1z5YGlL+XRJKq92GrmOARP9hbhl02WV/bLBUh9FLJPHrtsjF/e7GYxvadeynm+KRZu5L+5+0behfTRW6Kb8mf+ZzHz00UeDtdZaK1X5Qd4ge+j3Iod8sNnTG2+8ER01xpUFZcAzsFL1WVwVRZz1mk2eOup+M18cjVYyGbBcdF0k8R3PPvvslm1qKno/tElM3DZqkwxl1WtWzTCe8PHQQw+FRlBJG5Da0KfHstY3nm81vjpedB6aZ/C/+RvlqM+aPy2+dLvQx6OvR58mTh5jSY17m05GStg+DgoDZr5dsE5bZplloqP8YJWzyiqrREfdFZ2ZKdfPHTQSMMzEZ+kk+OLj+ShEfYKCAVJe3Pjo1LCsCz+WKLNPP/30Lgtc+1rSSIPFslEh2h0Gc1i4L7300nVKOxdfHcP6G4s9XJ348N0D5rxbpxl44NcM2dDIuqanYAMiOqo4niedtk83lLMswSRPkYn4go1b7omSy7VeaRbyE3nsWi6R3z4rWNFa4jaXoIOKBUpcfYkDX8u43nGX/Zp6hRV3WisIZAErSxh0mWV7WdPjgnxg871TTjmlTqnQbNw9DfKJvGIDkyzWeHwblOOuuwjkyIknnijLNdEQJj4xNDCYuoQcYIIv6yZM3L/tttuGlusu/GbcjqXFbtfLqufmGWXKEeIuI34TJ//zHnZ+pcFcz2o/+hqu4oMlv1ikCeHDLW8cZ22TyqgXJl2skKVt9UG7u+SSS4Y+7I2rFRSNwP30dzCEwu0WVpdsmt1sWt38ykOZk0VgvyPpzZvmLPfRLmDMw6S96/rMBkMWVlbllXe9BSlh+zj4j/PNViOwsHhzC36eioDVjanspjIRfDNTjQQfCt0suwLaz7VBCeRbvvDqq68GX331VXSUDZ5hnmcrYA0oj42lkJselhGx/CHtTLYQRcCkAMp/Uydp9FEWMjFDRx1/QXGggF199dVDa9S04BOROowfRR9YqaOcxTIUdyUmXSh7jLVo3HJqdiFnMwk2CmoXkANYC2FhksaFA8s/6aBgOW8rag1YzaKcKsrql7xFZmGt7yrU6bD6VjGI1oIlAG0J34jA31h3oPxs1F66mPqExTW7YuMqyI2DchA3Gcm9BpQ6rChhchGIh2Cuoezj54vN6ZApyBYT8HGLSyKWPfvegWsOOeSQ0LqlqLLeLPa7A9/F5CeBuokVDQM4lFO8v4uJAyU41jZp3YuwvJuNT1ywZjObIwqRBO0JS82NDCHQHj/44IM1voTtcm7/7YO6y0RdnD9o/B/7/KZ3Mj55Zkj6LQtp4nG/HfcwtsHfqzvmw50Tk3pJvn5F38YtcygtfW0Sfd1WtkkmXSh96dMk+ZRG6cdKWsb+ZnMr2ml8NTMBMWLEiOjK7vpDfPjB9pE0ceXmVx6KiCOJOPneSO67pEkn/cVjjz023JCV/o8P4kEGYRBy4IEHdsXL/2XnRY9RzWzRi/jyyy8rAwYMoIbUhWrnP7oqPc8++2xlmmmmqYurOvipVAdC0VX1JP1mMNe88MILlRlnnNH7jDhOPvnkuusJ1YFbdEVzfP3115W11167K95qBQ//rw5OK++99150VT1x6bJDVahXbrrppuiOWqoDtcrOO+9cdw/PJ1x33XXRlUK0Fl+d/uGHHyq33HJLZf755/eWWf5ffPHFK+PGjYvuiOfxxx+vVAeCdfEQ+vfvX7n33ntTyRXShByYaaaZvHHxDJ7VCgYPHuxNgwnVDmmqd/IxdOhQb5yTTTZZ5bHHHouuap4PPvigssgii9Q955prromuSCfvRftjf0faom222abuuxN22mmnxG/OvdWBifdewj777FP5/PPPo6uT+eijj7rqkZEpduA5PK+3wftXBx2V6qCi7p1M2H///RvWrTfffLOywAIL1N2bJV/o09C3ceOgL0mfUnQ+ZcrwkSNHhu2SW76mnHLKyujRo6OrarHbTrve5xnH+OC5PN/Ea55TdpmPG6Ml5UVWyCM3fgJ5anC/N8dDhgypuydrfyluDFTUdxPthU9u0CYtuOCCdWWgHdqkV155JRyT2HH6+hWNAvcQD/FlKfNFytm4er7jjjtGVzRHkqx68skno6ua48cff6xcffXVlWmnnbbuOW5gHPLcc89Fd/YNZAnbx6kKTK/vD3uzHB9JvxnMNczA45bAJckKpFo2o7+6YaOvJMu8LBAX72gwzyM/mrG8YVaN5Zw+n7PALA8O8X1LQQlYFWCNK0Sr8dVpLDM322yz0I9kXJnGjyQb6vgw9QoLsZ122slrFYPfUWao0/qjo44NHDgwtHzFl50Lz8C9RysscJLSi8sTlvileSdwZR5W9Ouvv3501A0yqto5i46aB0tF1wqWHUltv6Fp30H0DG7ZcY8N9nekLRo0aFB0VAt1Oqn+YIHp27SCOLGw4/e0m/ex4gbLCCxofOWM5+DD0CXuHduFaaaZJvjTn/4U+oCO21gCuYm/2DhYGcOSPLdPQP/h8MMPl+WaSE2ZMjxu7wfcncW5LLI317XrchnpNHHynKJ2Fo+DsY5tWexSptxaeOGFo7/q8xE3Rsgjl0MPPbTHNjYV7Y9bjtAX0Ca5m8C1S5vEilP8W7MKx5CnzmHdz8bBxBe3Aa+7ySYUKb+w2EVX4VKGjLTBZZVv8/K0kN8EVlQttNBCwQ477ODNQ/MelBlWObJX0M9//vPwXF9BStg+jm/3PbA7SM3CYAQTdLCFB8ugv/zyy+ioFp+QmWGGGcJlA0Vhd1gMCAo2zckDyiEGoCwzTIIOGkt/uN4FXzUHHHBA2yzBFAJolFnqs9pqq0Vnajs2LLmP24GU6y666CLvYIzO/9VXXx3GnxYjG1gKhC87d0IDWK5NmsrGtyGS+R8/sHlcpxjwxYri2gedzLxuU2yYCPP55mXJVpGyVpSLW3bc4zhwy8Mu6C74JqZv4IOlrMYFgQv+jONcDCRh6gvtoo/jjjuuzk9t1me0GpM+ZBxLwH2DKZSsLNn2DRI5Rz4j42xwIYEsTtrET4hm8JXHJFA84grIh2/PiSRwO1QE9EfMjtv2+5hlyK2GtCDDmn027xKXR0ya+2CshR9qJnBtkNWMN9pdlor2wLRJtGc2pk1KmnyArHIlL/TLWdLOZDIGG1nA3dktt9xSMy7xbcBLez7LLLNER60Fv6pZfMrHQRw+13DoJnz6ibSQPoxI7L0CwJUzlIedd9457G/i/q4v7j8hJaxoKa4QztL408GI62SkwTzb/E9cRXU+jALW9gGbBP5n6BT5wP9box2qW9WYic6h2TKDRTt+i+lwueD4fsyYMdFRLQw8sA63od5RZ9hBGUu4vNDp81l3ANZ1cTPYRdUf25oeTLyLLrpoaKXbrHxZYYUVvEoyLOOKsPTFfy5WzjZ850YTSaIzYGWJb6NL/DEbBYYL/orpZLtstNFGqds/H9QVLMd9VlkMpprZNDMPRbax+MjDx5kLz3jggQcCfOS6sDoApbSbDhTSKLyK6rsU+Z6iM8hTttio00fcijfaGR9F7YtgNt5x8VmvFU3cRnnN7Dhu4Nu48Zjv5bNCJD/pt/ms6dmjopHlopEPkhOCNolNt1xMm9SIotosm6RyiTEZvufpK5vxOX12W8GIVTwGWfigf+qpp8KxDKv/jK4BOeJTeNpGYWXVDRS9PkMO6n+jZ6ZJ0//+9z+vTOLd8yhhyatrrrkmzE/8jbvYaUIH8uKLLwaXXnpp5k0h/7+984C3mzb7sIFCGWWPslvChlKgQIESCJswy94jBCi0rLJHmaXMQkvZtIQ9A2ElEMqGEEqAskeBsilh7w8oNJzvPI51r46u7GP72Gfd//P7Kbn2sWVZll5Jr1696iakhBX9BtMA2A1BUcKTZZ1JA1D3OXR8jj766HDZrw+UU65yxKaMxkx0H3a5K6LMoFhcddVVo6NeeM6TTz4ZHdWCcta1guX6NddcM7SsbbQO4s7AV4/YMCxOMVx2/VlqqaUaUi4b4pRkWOv7LI/rYec1nS+sBdz8/8UvfuF9pmgPGq0vNlge+CyeUcC+/fbb0VEvKGdRwrpQn/baa6+GLRmoM/YyQhssQotQYqSlSBlBXFiX+xRPWKL4lNpnn312n4kWLEvYBTpr2sz1vvuKfE/RfhQpL5LAKsyn4GQ3ft+qDZba+sqery5kwbwv8ssXP8tjy8adnDUYmdroN3HzyMTnWxXEBshXXHFFdDQR8oUJnnqWi2DyUHJCxLVJbPbWSPko4t6kOsWkCFbf9CGwakVZyPUEZBPjk5NOOimcSHINvViVaiZJ7XQS5/e///3w77Lqhu3K0X7G+++/37NxcRxp0sS39K1GZpVNVpctGLxgWIbrgbgJfGCSHZmEtXGc/qM/ISWsaBlJAsQHQqUsYVc2vnQz+4PvPN+ME8IR/zpJfnOFqEfR9QUly6BBg6KjWpjV9MHssg98wBJfo2lEibTWWmtFR73Q0XrmmWeio3KIc9uy+OKLF5L3dMB8y47p5NARy4qdJjqe9m6whh122CGTGwXRXIqs0yhNfP7a46Bd8tUpyugSSywRHTUGgzqfexLkizsAbHfsPg4KD9w/uDAIshXeSf2iu+66Kxz8UQayBPy7oex142ZnfNxF+e6Jc4UiOgu+ZRJZ++Fx0JbbVpXmuXHPp0z6Jm1QeDSSJvO8uHh8isqiYSWMD58yJyu8k89yHqs536oZH8TBahfSYQLjkKRjEw499NAollqwbPNdjzLH7gMWVd5Ee0CbhLLQ9+2TApMwb7zxRhiHXSbytkn8nqVspb2WPofxf2vf8+Mf/zhMZ5nYrhztZ6MXQAnLOzcCCmjisSFOJpF87pPiYKKNftull14anekLhil8W9zT0FdsNO3dgpSw/RwabV9H6Lnnnov+ahxM+Y2wtcHKK+1gnwrLYCWvv1YfrmNxwJcMywyyklegYA249957R0e13HnnnaFbgiwNi+h/NLt8xM1exi0jNLLErSNF+p1G6ekDX2hlEjeQbMRtig15Frd80vXv5iOpbGAVYCu1eBadL1wgiP6DXUbsOuqWO67DAuuDDz6IzvSCgjFuCW4a7DTQL/ApEz766KNY9yJFUbQstfMTZYQ7oWJ+ty187XsaxY6r6HcT3UHZ5Q054nsGEy2+zfuQMUX4O2RZscE8n//TbhjYCLybr92205QX8sZnLcxYKm5CLU3dd69JuqeRMtPIvaL5lNFu5CkDae6Ju8b3Dubaeu/HPi30PVxQKpZtrED8s8wyS3TUS56VcL739O0JxHWsSErrjoDxHQpYVh76QN7iX5ffV1lllTDffWmp9x26FSlh+zn4d/R1FhpdEmRDp8FUdFtIMijxDfR8cJ44zLKmPBXWvofZH4SrCzP5WWaAIE6opIF7jzrqKO8u73DMMceEu5oKEYddp9hhkmM34BfJkLesGur5EAPfM+xz1DFmwt3r8qaNuIB3tSlSjvlgwqYR5VMjpPkObn4YmEl3rWDJeyyKzcy76H+Y+kf9dDedMGXJV6awCsliUetix8mkBopYl0Y2zawH/QrcrLjWX7jlyOP2wwdxp+3vFEXZ8YvOohXljYk939JW2k6fL8C8/s7tZ2OwwWYvBvMbkzsDBgwI/y4T3tmnPCFNcZsRp4W8cf27Iqtot+MsYW35WgSSK/2HossOmPITF7fvvFvmspTBpPjqvR879vs2ym6GsQL9Bd8G4qyEK8LAJM5dW9p3Iw0bb7xxjay12WSTTUJ//ttss02NYYovz+t9h25FSth+Do22b8DDjnaumXpe7J2WbcGZ1RIOQWhmkvNUWPseBl2Y0LvQQcs6mMzSGPhg1pwdyn3KX6zdfv3rX/fsDN3os0R3E+fg3O5ElNXY+ZYiUl6TyqybFvu+PLj3lV1fqLu+PPdZ2ecBCzmfVRCywufLMy1ssODbtZpOU71vJppDM74B7aDbmacOYr0Qt3FO2elKir+sZ8dZnNAHMhb+Zb63byJciKIpq+0HXGr4lBVxfRLki88/K5Mevr55Pex3w1WPq6gEdj73jXcaxZUNyBKfX3XSlMeNEJhnkDfuxBC/oawxMttOj8mXMr+9EHmIa1PjzheBiTtNfeDahx56KDrqBb2Jz7VQGSyzzDLRX7XEuXmLw31fxhYomF2YBE/jNxtDDjZS9clZJpxPP/304Nprr42V/1Dmd+4UpITt56BwxIrFhdkLn9+hPLjCwgiDn/70p+H/NvUEY9JmVWkwlR5/iC+++GL4tw3LKsmTLMIhLs1Z4mD3ZDbq8sG34DeEZpqGQ/RPKG9Yr/nKiLsxViPEKRh9vtZIC9b2LnEb/xiylvO4uOLcFBQF1jy+zhgdE2O13whYzfhmvJOUZPWgnOAU3wXZR4ePvJecaT5ue4EVNx1Y8z1MWH/99YP//ve/0VWNQUfaVXiQDiy5fH5ZURb6XG1QRoso74Di06eoQLGR1KFvBN7LWNPbsAzRrJix60SWtt0Qt4zYtTrOE7cQSbCjuStHGCjj8qoobBdmdl1JMrZgeaoL/dxG+/mvvvpqj6LSTgtLiMvw42g/A3jG0ksv3ec8xih5XRKYuBgP2O5LDGapL9jPNfLE/O+mSYiyKLOs2XHjLx73Wm6gvXXbUzdNSe0t44p77rknOuqFCQ93pVBZ4F/a1xfDiKIRty1Y1Pv28cCiPs1quAsuuCD0B+zmH+OSv//978G+++5b1y2bZJGUsP0elgmtsMIK0VEvDKqyzrT4YGBmL4UGKi1CBeVvkgD0QafR55MuLabSE4+vI7PSSiuF/2cRDnHvkCUOrmWHSXyrmGObv/71r8FNN90U/p01z0T/gDKDksL2aWzKETOevvKeFcpe3BKWuA0v4gZhcfHkActOH2UpbWx88pPdP9kIp1FYkeDzz42VTR6LHr4fVvW+wTcuURqxrhWN4cp8lI5LLrlkdNTLgw8+WJilNZ1wn792Nk7wKfndlTMmzUw65FlCbGPaNQZOvrrDc81uxGXgm7DBss83Wet+qzSYZcTca9+PvKbe8f4EfuP/Sy65pOdco4HBpG+DPzZZZKLHdw/PF90Bk/xumeUb33DDDeH/jcLEyf333x8d9dZlJhjifMiTHtoc3wowBveNrMSjr2zSYL/faqutFv1VPuz34MvbW2+9NforO+TJzTffHB31gvUaO7v7YGIVZQ1pIXz33Xc9f+cJ7CLvg3T5rufZcdZ8orPI2iYllTW7TbJlU5Y2iXNAu7rFFlv0Ceyp4so9l6Tfx4wZ4zWCYFO7RtwvZWGeeebxbnr6+OOPe9OWlieeeCLs/7nvz0QVPmGTIL9PPfXU6KgXJvZQzsbJPtEXKWFF2DHxCaLLLrssdrOdtCAo/vGPf0RHvSBUEC71BKQLQqPR2XuUENdcc0101AudwVZ1FhBY+JbEYoHBryvAaMwOO+ywUOjG5ZmEXv/E/u62zzPKiflt7NixXmVLVqg7vuU51B0sKX1g8e4rs3TascRLIk2ZxuKF93PBui0uTUXCxI2rsMJ3pU/GGNLW1VGjRoVWw27+YWWTx6KHeJDJPsUS/mC1LLp9YIm8z1IMZR5WHllxyxxtChbRvrK4zjrreOssbZStVDH3ojht1He5eR4DH5/fRCZtzaY6aetPFlDC+so/iqoJEyaEf9vPzZoGJp2Qwdxn38uECvKD9yfwmy/vhcgL1lQ+JTzKyjxL/10YlDM55EI/37cs38BvPgUDcRFnHugP3HHHHdFRL1j3027axNXhrHUb3HrNChmeaUO9ZvziuhNIA3HH5TN9rDRLiIVoR/LUNzDtJAYgPmtRJnPqjTHiwIDsvPPO69MW01Y3czIHZS/+6l1YpXP33XdHR32pl6em7+det+GGG9btf1xxxRU9LiZt/vCHPwSbbrpp+Lf6MOmQElaEnSCf82cGH/fee290lB2sSE455RTvLt55ZpJMpWZ2K69gReCceeaZ3uXZyy23nDcfyoY0mXfDYuGII44I/3bB+omNuuIU47bQqyeARfdgf3esqlZcccXwb7sM0GDinycN5j5fGWJw46s77mDLvpcBoG/ChSWHdJJ8mPvde2zMNXFpYlASZ4Vj8L1jGuz78DPnc2TPJFbaAa4vHQy4sIAH+3fyZKONNoqOskE8KHbd59GB9Sn8RGvhm/jcedAJzmpp7dYllPEXXXRRdNT7O4qDuI0Z4hTDwIClnksCXzk38BsukOIsMJkkMMvbkuRCHEnPBmSFz5qflTxYjUCe5wJt9oUXXuhNAwMsuy+U9xlC+KDMYWlt+gVgyhiTJ8OHDw//rlc/4mCFDf7/fJbwTObEbVzJ8/ht8ODB0ZleiItJTCaK0mDSzv8sH/b1B1ZeeeU+iui4umaft+NOgnvs+3gWzwRznjhIm6skrhc3vxMHk2++fCYPW7VBqBCtZo455vBO9rCal36OwVfPOOc7f8stt4TW/e5v1LWsegJf/FlAjvr6gZdeemms20hbFhlMOnDXgn7HJanvZ2AC6eqrr46OeqH/NHToUO9zRTxSwoqwg7bllltGR73QAfrtb3/r3VSrHlx7xhlnhAN+Fyo6fu3SYFdo83wsZc4///zw7zTY6Ubx86c//Sk6qmXrrbdu2hIDG1do/eY3vwk22GCD6KiWiy++ONHCDnhfCcL+Cwo63/f/y1/+ksq6xNzr1j2ssI899tjoTC3uIIB7Tb3D1yKzq3Y9BI4PPfRQ75KaNOWXa3ifQw45JDpTC8uRfJvt2KR5jg/7PpYCDhkyJDrqhQ0JyS/fpIn7XPeYe44//vjQH6X7GxM1TBjlgQ6b8XFlx4v1dNzOyqJ1sDTMZ3VBuT/uuONyr1RhEpN6g5U1UBZM/dx55529fuINtN0+VwX33XdfOEHq1nMbtyy7oMx59NFHo6Ne6DOsvfba0VE+6j0bWcEyOhvuIY9Yguvmdb347HzA6n/EiBHR0US4n4EVAywhyoJyhoX3Tjvt1FNm7bJJ2aZfXK88x4E1rT2ZY0AxsuOOO0ZHfTHPi2unmdTx+Sz0yRcTF76kscZyYZksCoJ6Pgp9mLiz5g95bpQSJs0mDvLcbLYL9eLmd3zBnn322dGZ3nvIO/JQiP4KY4911103OuqFCSJWlxp3HL56xjn3PMYThx9+eB9ZQ3u9zz77ZF4x5ntuFugH+vo/uGFLa1wDpIN3Yizo20cD47ikvh+wosfn13qrrbaSO7M8VD+I6CA+//zzyqBBg5AMfUK1ox9dlZ1nnnmmUm3MvfGuscYalU8++SS6sj7fffdd5eqrr65UOz594qoKgcpvf/vb6Mp4qp2UPvfagbh5Bs9Kwv69KrBi33HxxRevvPvuu9GVE/HFHZeuamczuqIYkr4H5/ldCF8Zpa4uv/zy3rKz2mqrVT788MPoyvSMHz++svLKK3vjrA62Ki+99FJ0pZ9qw12ZYYYZvPcTL/FnhWcuuOCC3jjTpAmo8wMHDqzMM888fUK1U1H54osvoiuTIR5kiC8tv/rVrypffvlldKX/m9l88803lQMOOMAbF+Gyyy6LrszOmDFjKtUOZJ8499577+gK0W6MGDEibDfNt7L/rg4wKtWBRnRlOijT22+/fU8cdkhTbyi/e+65p/d+2uWLLrqobhl34R14F1+chCOOOMIbp3vu3HPP9dZlwh133BFdFc+DDz5YqQ60vGmol9dx78xz42TfFltsEdb3sqkOuCrzzjtvn+fTl6RPKbqfpLED7Wia9tIlqWzH1VkXrtlnn328cZixR5p4qEe77babN54NNtigpg2uB+/lyg/qD/8jY9LCM3m2L02kNW3dJw/IC+6z5T9h3333TZU/RRE3Bmpk/Cn6H0W3SUljjJNPPjm6qj7vvPNOOCbwxbPLLrtUvv322/C6NHXu//7v/8JxxNxzz91HnvAMV+dgY8fP37fffnvYv3Lr//TTT18ZN25cdGV96E/6dDPoFZ599tm673X44Yf3uZc0pelfNYpJW5q87xSkhO0wylLCUqjNIMit5IRFFlmk8uSTT0ZXx8MA75hjjulzvwkDBgyovPrqq9HV8ZiG3pcWOxx77LGVr776KrrLDwOnYcOGVSaffHJvHIS0io1mKWHh8ssv74nfzYe11lpLgycRCxMUcXWHuvz444+nasi45q677qrMP//83rgIp556anR1PMTDoMx3P4H4eU6aNFGfr7rqqsp0003njYtApytNXHEdQUKazqD9jKQ8ZwD1yiuv1E3Tm2++Wdloo428cRDswWSa93P53e9+542XjploT5IG8oQddtih8umnn0ZXT8RXNjhHG77UUkt54yGkbQdR2KCwjSvve+21V580xUGZ32STTbzxEBZYYIHKa6+9Fl5br8wnTd7W6x8RN0qRIUOGeO8n0M5/8MEH0R3JMAA75ZRTvP0O8o0B42OPPRZdXS5SwgpgoOwbgBNmnnnm8Pc07Qplm/FCXFzLLbdc5f3334+unkhSvEae+OLadttta2SJLx5k5FFHHeW9n0mV+++/P7qylrg0jRw50hsXARnjkvRuPDtuYufII4+sqxzm3bfZZhvv/e6kWZpv1yhSwooiKLpNouwzIeHGZ/oo++23X926Rv+I8ZEbBwHdhemHpCVJX8O7kwdpoW/CpK0vrvnmm6+ufob8ue222xqaNEPXst5664XXu32/WWedNXwno2T2KZ4bCXw/aIaMayZSwnYYSZW60UbQnm2NC4MHDw6fg/AwViGkiVkoBOBUU03lvY9Ah+26664L76lH0mCKYAsAKv/xxx9fefHFFytff/11eD8Ci2OUMXFKFhOyzEg3Uwlbb0CYVtEk+h/1FDcElDHnnXde5YUXXqjp9PC3qTtJyldCFiv5NPKF5/FcBhZ2mj7++ONwtvfggw8O67vvXhOypKlRJSyYOlivvhKQn6NHjw4VOea+jz76KDy3+eab91zndnA4xlopayfQhgkyX/5PO+20lSeeeCK6SrQjlP24zjMB6+Zdd901tOS0yxadZuoy9TxJ+Uow7WC9NsX8Tlsep4Qh8BuDBso2Fh8TJkwI7+MZr7/+eqjwXXPNNb33mpClzwCNKGENrDJBIeWLg0CattxyyzC+t956q6fvQL6Q92PHjq3svvvuiX0hgq/9rpf3eZESVgBlNc5a1ARWdFxwwQVhW2MrLVhBg5K2XtlGTmWxzDJgYeqLj0C/4IYbbuixQjPwPpyPU5wQUBZnrVdFKmH5zaccMgGFNTLDtbKnveY7xPV36BMw8dtspIQVRVBGm4SBF8pS4nH70ATq0tlnnx1O/Jr6xtiCPsq6667b53oTsvZDDLxHnL7mRz/6USYlLCStkGWyF6M0d5IY+YOFa9JEN6sR642ZiAcrYZO/zQ4YG3QjUsJ2GEmVuohGkI5X3BLfRkMWpaGvoZ9rrrlCCxv3PMEncNMElgTELYX2pbVMJazveXaj4oa8nV3RP8hSl/PUnzxuBCjPccv2iwhZ05SkhF1llVUydwZRLpXxflmXHPl4+eWXK7PPPnufuBdbbLE+Vkui/XCVnnnbPIJ7LxMAdMLtNqheW83vWMHb8bghTxrNPbzrxRdfHJsO3/l6Sth672QgrxvJXze4cR199NE9yttmICWsMCRNhjZa5qeeeurKqFGjoidlI42CmIASAsuoepOxBN4TJYuv3ifJAmSFLz6CTwlrsOO0/04zAU3AspV3m3HGGb2/28E2Hkkr14pASlhRBGW1SfUmh/ME+jl56phPX2NkLO+eVQkLad5vmmmmCeUIOpN619p6hHrv+Nxzz1VmmmkmbzxlBZNfro6lmTKvTLQxl6jhRz/6UXD77bcHyy67bHQmmWoFif6KpyoEgjPPPDM46KCDGnJQjVP9Aw88MKgOYKIzvVTLcvTXROKeY5/nHa+66qrYDWkaSWtR4CT75JNPDvPQpdqxC/ODTVaEcKEus2kGu1bWK8tu/anHJptsEtx44409dSft/ZTnO++8M6gOSKIzxbHpppvWpKlR8tT/ascq3FV18cUXj840TrUzFdx7773hhlyN8Mwzz/Rssgjm/RZddNGajZb4llnLgyifzTbbLBg2bFhPW9DIN7Lv3X333cNddtncwi7z9co/v++///7BJZdcEkw++eTR2VrSpNF9DvdMPfXU4e691Y53bDrqpc9H2nuQJWyCGfdeWTH5wLdj87EjjzyyoTwTIi/U88svv7xn536bRsreLLPMErbtaTfddaE+sGHMrrvuGp3x88EHHwRvvvlmuAlXEmwWymZ4tG2+ep9GFtS7xs0v+3r7b/KcDXR8myzajB8/Pny3jz/+ODrjB5nNJl1GhtjPkvwQ/Rna7iuvvNI7Zs6K0V3Qz0kjL9LQaP0075e0ySAbkSFH/vOf/4QbrMeBzL7jjjt6xhb13vGLL74Ivvrqq+ioOcTlV1Hfo9VICSv6gKKEQf/ee+8dnYmnnkCZf/75g7vvvjvYa6+9Cqk07E6IEjZp4Adx6TLnf/Ob34S7Oc8999zhcZHkFbJx+fPLX/4y2GWXXaKjWsaMGROcdtppuZ8puhsUbGPHjg13vcyDXSb5e6qppgp3QmZAMdNMM0W/ZGsQUZKOHDky3CHYN4jIAvdNN910YafkmmuuqUlTM3DrHccoYh988MHEnaHjcPNh6623Dp544olwd9RGeeihh6K/JmLS/rOf/axmt1fSkPd7iHIZMmRI+B1pVxuFesMkJLuQU6/zQDmhnFNGl1tuuehsNtw6xAQPu+9utNFGLSuH5r2QnUXkNSyxxBLBY489Fuy7776JA6iy3ll9hP6L++1pg2+77bZwEj8tSeWSOsuu2SuuuGJ0Jh/IoXPOOSc47rjjojP5wODj+uuvD5WfjVCvzmSpqzPOOGPY79lpp52iM9lh/IOi2lbAurRKZgrRaqivlH926seYDCVjXhZYYIFCdRdFYL/f3//+d+/7pU0rsvrhhx9ObXAHGHE0Wwnb7UgJ24E0ozM9zTTTBGeccUbwr3/9K+xgQRZBxMAF6xo6ZoMGDYrOFgPpYID0yiuvBFtssUV0tpekdK6wwgrBk08+GZx11lmhtU0ZZMmnNNDZOuqoo0KLRh/HH398KJCBstGM8iE6BxSTKCgp91iHZMGUpVlnnTVUmtIIowhKUiKkgcHWIYccElq1YOmdpzNBmv785z+H1iPbbLNNjyIxb/nPU2/dezgmoODCkg6FGTLHxr7H/G3+N2lH5iJ7UZIVoVhmBhvFsA8U9aK9scs0yk7aVSYi8ygIqWsXXHBB8Pbbb4dK/iJYbLHFgnHjxoXlPauMMXAfMgrrtTImR/NAXj///PPB1VdfnVsZSxyjRo0KHn/88WDJJZeMzjYfW+7YuLJHdB++b0//949//GM44eGzOHePfeWDdurZZ58N62wjK1DsuOnvHnHEEWG8WWUJde2BBx4ITjnllGDKKaeMzrYPjKuYxMYAJOukFXmB3N9nn33C/pfqq+gEmllObZnFaruXX345OPjggzPJAsYVF154YfDUU08VrrtIS1yexb2fPYleL795P6x7kUHzzTdfdHYi9e799ttvo79EUUxSzXRJclEXzNvvv//+0HSd2SEGcGY5EB0LFAVLL710sN566wXrrLNOuBQagUHxcjtzaUAxc+ihh0ZHE8HCjEHeHHPMEZ2ZyIcffhiMHj06XIrMzA6KIoQFs8Y//OEPQ0uvDTfcMNhggw3CY8ibLiE6HRRy1KNbb701rMvvvfdeqMg0YLHxgx/8IKw36667bk19LosJEyYEr732WrickbqMwgIF7Zdffhn+bmQMaULGrLXWWqHFfpFpSiMT8sqNd999N5SdvBt5z3JDs+SQ/J5tttnCDh8yavXVVw/ft2wkAzsfvuHrr78eTsJRlx955JHQTY0pWyg0UI4ss8wy4SC+GXUZ6skY2nDKPGWd+szS6O9///vRr+0L/R7ex1ePgfdiAsbU5VVWWaVhazwhmsF///vfnj4+/7/11lthnTXLWRm8zznnnD11duDAgV7lRtHtCm0nkxhYkTKRaMYdPANXA6afsuWWW4aue5pFo+9pZDcKbOQJVvK2LCG/f/GLX4Rjl4033jiYeeaZo1+aj/oKopP5+uuvw9W9uDhC+YgBFzoC3A3QZjPpS9+ISekFF1ywZmVYJ2C/H/0T3s/IbfqATJIjt7GgxfI1rRGN6n35SAkr2rKiZVHCil4kNIVoPp1Y75LSLDnSfdT7pvrmQog4WiEfmvlM37MkE4UQ0C2yIOk9JO+aj9wRiMQK2QiN3u+jqDjzxFPG+xSNBKjoBjqhrtmYeld0usvMhyRZITnSHdjlp9435fdOq3c2nZb2dk1vJ5cBUR5p2oSiy07edihPOnzPyvt8IUR30emywMhE+z04Z8tKybvmIyWs6ENRHakyKrSJs9E05klbOwioLO9d1HcU3Ucry0aaZ7t1Lc097VDeG5UR9jvwdzvIHNF68pbtrOWnqPLrluNmUEZdKTPt7Vq3JXP6B2WUbcpOs+p7Ep1ehtshD4Uog3Yo261Mg+/ZzUiPTyZyLousJJ3t8P26CSlhRR9MpWznjky9tLmCohHB0U5CJ8s3aefvJ1pLK8tGlmebuufe040dAd7Jfk/VX2EoqvyXVW/ceJtZjsuUBWnTbqehzPQIURRZ62Xacp2nvifFnea5ZdS5MutxvbjLlplCtIp6ZbvMemdoZf3yPTtvesirZuSXgXS2Mu+6ESlhO5SyKp4dbzMrd9G4gqIRwdEOQqeTv4UQeYmre77zRdbTVtS3uPQXnRbJks4nb1kvso7YmHjTxF90+SvrnbJgp6Ed0iNE0ZRZrn1xGzmR5rllpK3Z75sWtd+im8lTN7q9TsS9H3lVL7+6IW+6+ftKCduhlNVBsOMt6xkiO/oWQjSPdqpvRadFskS0EpU/IUQ9JCf8KF+EqKXb60Qj79cNedPN31dKWCGEEEIIIYQQQgghhCgRKWGFEEIIIYQQQgghhBCiRKSEFUIIIYQQQgghhBBCiBKRElYIIYQQQgghhBBCCCFKREpYIYQQQgghhBBCCCGEKBEpYYUQQgghhBBCCCGEEKJEpIQVQgghhBBCCCGEEEKIEpmkUiX6WwghhBBCCCGEEEIIIUTByBJWCCGEEEIIIYQQQgghSkRKWCGEEEIIIYQQQgghhCgRKWGFEEIIIYQQQgghhBCiRKSEFUIIIYQQQgghhBBCiBKRElYIIYQQQgghhBBCCCFKREpYIYQQQgghhBBCCCGEKBEpYYUQQgghhBBCCCGEEKJEpIQVQgghhBBCCCGEEEKIEpESVgghhBBCCCGEEEIIIUpESlghhBBCCCGEEEIIIYQoESlhhRBCCCGEEEIIIYQQokSkhBVCCCGEEEIIIYQQQogSkVtVaXIAAJ8ZSURBVBJWCCGEEEIIIYQQQgghSkRKWCGEEEIIIYQQQgghhCgRKWGFEEIIIYQQQgghhBCiRKSE7VAqlUr0V3fRre/VKMoXIYQQZVJGO2PH2YntmNpeIUQ3IxknWkU7lj1fmtq9jpj0ZU1nu79XtyMlbBswcuTIYJJJJukTJp100jDw98033xxdPRHOlcX//d//BauuumpPGkx67MDvX3zxRXRHMnHv5wtxz0sKk002WTD33HMHa665ZnD00UcHjz76aPDtt99GT/eTVvCkyYtGw0wzzRQsssgiwa677hpcfvnlwbvvvhs9vReuE0LE02mdCXWWRLthtzNpy1u96+w427UdS3qHTm17JV9EMyiy3KgM9qXM/DXHRsZleZa+lWg1ZZVBX5vvnmu38m/Sl9Rf8aU56foikbzwIyVsGxBXCSi0puDecMMNTSvE//rXv4JHHnkk/LuIZ5ZdyUnjf/7zn+Cuu+4Kfv/73wfLLbdcMPXUUwd77bVXMH78+OiqWtKmqRl5/vHHHwcvvPBCMGzYsGCHHXYIZp999mDxxRcPbrrppmDChAnRVUI0n2bJnCJoVmfCJSmPkn7Lmt5WvF8nfX9RLGnLW6vqXVFQxtv5HbpZvojOxy43dnlU21EMZdZLN+4sz5K8EEXQSDmqd29aGZRHVrWi/DcqU1tZZ5Oe3Z/bCilh24A0BfCOO+4IXnvtteioXO68887gyy+/jI4ap+wK5ov/f//7X3D22WcH8847b/DHP/6xrmVsGpolKBBWzz33XLDxxhsHK664YvDiiy9GvwjRXK6//vrQ0pwyacKoUaOiX4uFOvrQQw8F+++/f7DUUksFs802W88z55hjjmDJJZcMf+Mauz63ugEnfXHYv3399dfBbbfdFuy5557h+80555w97zfjjDOG53i/cePGhZMv5r1a+X7N/P6iPqNHj675FkWHLCtckvj000/DFTB77LFHuMqD1R7mGT/4wQ+CBRZYINhuu+16Vn60soyTJkOadJA/dj2ea665et6NQL02dZmJ4Ub7Hnb6XOzfOlG+iNbACq811lijp3wUFezVYnnaCe5zQZZcd911obyYf/75Q/nBdVNMMUXYv2cF3GmnnRaOj7qxLL/xxhvBQgst1JOvhJ122in6NRu+/LVBFiOT3bwmIOfogyFfkDPIGxvJEZEV6jb115Qx5EdRfRAgTlMu65Vt2ke7bNcrz60o76TVxzvvvBNcdtll3nczK2133333sE9GnpeFyRP+J78xLEOPMc8884TymvSQNo45f+GFF4bXxb1Xv6CaWaLF3HzzzZTcuuGqq66K7iiW7777LvqrUqkKv8qgQYO8z7cD13z++efRXcmkfb9qRfSeLyIMHjy48sknn9S8axp4xzT5UWaYfPLJKyNGjIhSJERzePXVVyvzzTdfn/JIfW4Uux5WOwWVgw46qDLVVFP1eVZcmHXWWStnnHFG5auvvopiaV/efPPNytChQyvVDmZqGTfLLLO0/P3K/P4iH+edd174DcpqK7O062DXY/5+8sknw7bWF3dSWG655SqjRo2q/O9//4tiaz5JfQN+GzduXK53o95T/1955ZUotuRnZaVT5Yson7hy9v7771cWXXRRb9koKjTaTjz33HOVdddd1xt3XFh22WUr9913X6H1q5V88803lSFDhvR5zx133DG6onGQuXfddVcog93nJAVkTZxc65b8F+VA+SAcf/zxPWXJlKusfZAkspRtOw2+st1u8G5333135npLoB/z0EMPxdbTvPWX++6///7MaVpnnXUqzz77bBRL/0JK2DYgTknpdqi33nrryrfffhvdVQ6PPvpoZeqpp655LsFNyyqrrJJZCevGUXZwn7fbbruFnRpIK2SMErbZaXfDDDPMEA4ChWgGlPu11lrLWxaLVMLRQUIh4HuOCUl1b/755688/PDDUWztxZdfflk5+eSTw0kUX9rThFa9X7O+v8jG4Ycf7v0mRYW8AyAmUlAMEAf11Vdn07ShdN5feOGFKNb2YPz48ZVNNtnEm1431HvHvfbaK8yrIuhk+SJay8svv1yZffbZvWUib3DLft52gj76cccdVxNX1rDFFltUPvzwwyjGzuXUU0/1vl9RSlhkbR4ljhuOOeaYUB4JkQbG3zfddFM4ceiWJfogGIM1St6y7cqxY489tu0mK996663KGmusUZPOPIF+Df2bIuCb+SaMsoQDDzyw38mRSfin+vKihWAivtFGG0VH8WAyP2bMmGC++eaLzhRPtVMfHHroodFRPFVBGS43wrS8HnHvt/DCCwdHHHFEMOWUU0ZnsvPee++Fy+vuu+++4PXXX4/OxlPt1AQHHHBAdFSf6oA02HDDDcP4XQ4++ODQ/2xWqkI+NNdnmeLjjz8ePPbYY8H999/vXbZorgWWFOCWgk3IhCgDU9Zw4XHIIYfUlD9DdXAV1olGIM5LLrkk2GWXXYJqhyw6OxHfM5PA//Pw4cOD9ddfPzrTGkgzaQeWB22//fbhcuRGaeb7Nev7i+zwHShTV155ZXSmeLK064bnn38+qHbmQ7/mRTD55JMHV199dbDppptGZ1rHE088EfZd3nzzzehM49CO4+Zj0UUXjc6koxvki2g9lCM2r11llVX6LCkvkjztBG4ScGHCsuFGWXbZZcO9NNz+sl2P2pmHH344WGeddYJPPvkkOtPLjjvuGPaf8kIeGBcPWdylJPXNSOs111wTTD/99NEZISbi1jnG6muttVbw0ksvRWd6ydMHcbn22mszl+0kBg8eHPZJ2qFs33333cFWW20VfPDBB9GZxphllllCN1fIy7zQH9lyyy1D/VSjbL755sEFF1zQf+RItXKIFjNy5EhatVShLJcEYKw+fc91A9eltZhhRjwujs8++yy6qnGqQim0NPE9y4S55porXGKQ1hKW2R2sfn1x5Z3p98HSgttvvz20TPE9y4Sjjz46ukOIcmA5yRRTTOEtf4Qiyn11AFAzC17toNU8ww31fsdSvFUWXbYs4W/cnhQxS22HZr5fM76/yA7t7cCBA73fpKhAm5zFCqU6mKossMAC3rh8wVePfeeQDciIVvLaa69VFlxwwT5pKyLMM888lccffzx6UjLdJl9Ec3H7uhzj3spXDhoJbj3O2k5gActqNTsOE+y46/UF7EA9ob50GoxlcK3geydCFktY3/e/6KKLvFaIbsiS14ROzW9RHm75o55jqe4rP4QsugWXLGU7a2iHsk0bTVtt0pS1fsaFRlbaNtof8b2DvWq529HGXG1A9TtEf9WHHfP/97//ZbonLViyPPLII9FRMkU9v1oBo78aZ+aZZw7OPPPMYOzYsUFVqERna/nPf/4T3HLLLamfy3sWmcY42PwGB+VPP/10aB0YBxYrOLIWogzeeuut4Fe/+lVhM8g+sP7eddddayxgbXmCg/wbb7wx+Pjjj8PzXMdMa7VzFW7E4aPaEQhnvtNYwxeNLR+QzQcddFCshdp0000XWtBTz7/66qvw/dgEkc33jj/++PB3H7wf1i98nzJpxvcX+WBVBpu0uEwzzTThRgdFBDbAS9vescHD0KFDg3//+9/RmVqqA6GwzLJ6A6sNU5d5D8r/vvvuG0w11VQ1dd/AdVjEPfvss9GZ5sK70Q77LHUMbCBCe0ydqQ4YwvegTlOXzzrrrHCDjDiwrMVyJI286ib5IpqPW585jquz1H+fXEgTWKlnH1O3s3DGGWcEf/vb36KjWijHO+ywQ2iZTnnmmDpHud5vv/1C63kf1BPqSye1Z9RxVghirWzwfcO0uNdihe9bgWSwZchnn30W5jVpQmax+U/S6j/y++ijj46OhOhb/qjnWKqWQb2yPe2004by4Jlnngn7IVnL9jHHHBPe0wroK2y77bY1lvF2WpC39KlYGWzGTgT+RidC+06fzMZ8G+KkL/f++++Hx2kh71g5HdcfQS4jn5HTdh8JOY48B19+0g78+c9/9v7WdVRfUrSYOEvRlVZaqc8sAX6c8OdUBieddFLNswiLLbZYZaaZZupzvihL2LwzXoaqsI3+qgUrGjfvTFhvvfVS+3ghfaTTF08RFmG+9FcFYuzMEu9UHdRGVwpRHMw8xlmi2KGRck+922CDDbzxfu9736sMGzYscXMe/AXho8l3P6HaCYmVCc3g3HPP9aaL8Otf/7rGH6QvnVgh/uY3v+lzr5Fl1cFZae/XjO8v8hPnr939HlnKh+/atPf7+gsmbLTRRuGGUXGYZ1Cfq510bxwELGYol80mqR4vssgilaeeeiq6Mh7ekdUtxue1rz+y6667xr6f7zt0snwR7QOWlG4ZKKI/npdnnnkm3GzTTROBDcTY8C8JZI3bZzZlup37zL66hpVyPUs+vl8e2GxzwIAB3jh55oknnljXJyNpvvPOOxPjQe75sN9Xcqb/gbWlbcnpC1n2m7Epqmzfddddsat7ksp2mXz77bfhRmGkwdePcNv+OPCTvemmm8bGk7X9Jy/iZBXyOKkPCPSj6E/57qffRLvQ7XJCStg2wFZS2hWDwQlKUHNswuWXXx7dWRxxysYjjzyyMu+88/Y53y5K2DgQtuy453tuFkV2XL4QilBGIGB8Qmb06NHeZxLYnEWIornsssu85c0NWcu9Xb7jBhicS7v8mPjYkMaNg4CSCmVVMzHv99JLL1XmmGOOPmni3Vgi5avnPlDK4HbEjYdA/DynDMr6/qIYbr311j7fohXlHd55553YzjODhXqDHZuk+oxbjAcffDC6sjm8++67se+28sorZ97IguttNxJ2H4/3GzNmTI1scOVEt8gX0XooIyjiV1999T6D8LyKvUZBwbDLLrvUpMUE3IHg8gTqle8k44VWKpiz4NZxn6KEkOdbkX9MUvviox0ZNWpUdGU6UOisvfba3vgYe2VpA0T3g4sNe6MsX9nmXJ66Wq9s33LLLdGV6Wi3sv3000/HKq9RLk+YMCG6sj5JxhbGXWMaknQjyGHkcRJGnie5faJdoH3oZuSOoA2ofofor9q/f/jDHwbVwhwd9YKzeczAi8TnimCmmWYKnWR3Eib/MM035u4uLDWsCtnoqLVUGx3v0qLll18+1lF2VWjVlBMhskL5scsQm0Dsvffe0VGxmPLNMpS//vWvNUuFzG+HH3546o14uIclLltssUV0ppdq5yh0W9DM+kF6eB5LkMePHx+d7eUPf/hDsNNOO3nruQ+zhKc6UI7O9EL8t912W3SUn2Z+f1EMPlcEM844Y9hPaDYsefvXv/4VHfWywAILhEv2sixFpl7ss88+wQYbbBCd6ZUL1QFDcNVVV4V/Nws2vvC9Gy6O2Nhz9tlnj86kg+vZaKg60AiP7XrHMumzzz47qA6iojO9727oRPki2hPKCO0w7n0oU3aZYaPcVkBdGzFiRHQ0EdI1xRRTBMOGDetxQVSvfLORy3nnned1qcLGug888EB01J4wLsEFi13HbVnRKLh28W3mRV5deOGFmTfmY3zIJpHuEm7iu/3228M8T0p/ke8m2hvaucMOO6xGx+D7/pzLUi7MtfXK9nrrrRed6SXpOXFlG0zZbia4UDRuCGzZxuaK9NsnddwMJEH7T59h8cUXj870grtG3i8NyFM2FLchbXPOOWcoh+ttrGXe40c/+lEo55H3LrQLvr5YNyElbBtgVyoXduZ1f8e/h29A1gh33nlnqMCwWWGFFYIBAwZER52BnVcLLbSQdzBoOqHtDAM+0u8DQckuskJkwe50UE9MXaHzjxLUNPJlgR8gFBw2pAnFDX5Ik+SgCx0Jdu+feuqpozO94E+WiYpmwvPYbdiFiZSs7wZ0YPBd5buP98tT/1v9/UVjuG0+32+++eZr+i6ylCP6CzamLOGTDH+QWZlyyimDvfbaqyceu6ziQ/rzzz+PjsqDZzK57avHQPqSfMYlwUDjqKOOio564ZnsKIxPuiQ6Qb6IzgA/nx999FH4t13PFllkkeiv5kK5dtse0oURxYorrhidSQd9id/+9rc172VASVO08UpRkN7zzz8/1rdiEfjyGdiNPO0EuAv7cJx22mk1ChTehUB+25NLLlllluhcbr755lDRZkj69lnKhbnWLtv2/Ullu95zKNt/+tOf+igHTdluliz5+uuva5SdtmxDsc2eAFmZbbbZgt133z06qs0LnmU/wwfvfvHFF/e5jmMm1JHDWUDO+4zm+KZ2v6deujoRKWHbDFcwLL300sGiiy4aHU0EBSKbXRTFF198Edx6663RUS8ogBkcdSrMiDOj5VJP+LYSI2RIo2+mqp3TLtobX9mhvLGRgtv5x2prt912i46KYdSoUd4NMthQy1bcpGlouWbJJZcMZZQLkxRY6jUTZqp5rg35TSeJzlwesIZfZplloqNemPXPszlfq7+/yAffiOBOLHAOK7Ef/OAH0ZliIX4fTNY+99xz0dFEuJa+AmU2Lz/5yU+8CtxXX301nCiAuDQVAfWDemVviGNgUnSrrbZqqP3dcMMNvfmD3Khn7dEJ8kV0BqwCM/XJgLFCnsmTRmHTGMq2C4oPNtj53ve+F52ZSJr6zwoZNglzSTPZ0SqY1GKDGxus2w488MCaiea88ocx3r333hsd9cJk9q9//evw/7ygQPEputo5v0XzoD1B4WevgKMeM6npq6dZYYL2nnvuiY56ZQSyI23ZjpMrGKK1umwjq+kfuHWfvKPPBHn6Rb/4xS+8RixM9iMvkuAanzXw3HPPHW446iMpjXwr5L3PGpaVOaa9aqT/1a5ICdtmuAWVDjbLxtzCx8wSMyRFQAX3uSLA1N3QiYV/sskmC4NLHoHVLOx8jkt7O6dftC++csNuomeeeWZ0NBE6/yy7TdrdOysMtnzLXOgEoJywoQ7UK+NcQ8O9zTbbRGd64beRI0c2rZ7QYfFZqf385z/3upNJC0vNmclncGwHlG55LPlb+f1FfijPWCb6Vr/8+Mc/Dn8vGspKXLwMpnxWIPRVmPjMC9aZWPa6IDuMUrCMd7VB4WsrO83zGLBkte4Au87xfnHy4Kmnnor+6sXc2ynyRXQGb731VrgazIaymVeZ3wgoaLB0d0Gxt8QSS/Rps9z672vTkIlrrbVWdNQL9dr3rFbDrud77rlnn3fBwn2zzTYL/zbv7XvfNKAwevrpp6OjXpjIXmqppXLHC3H9sLffftv7TNF/QHnG6hjX/R/1E4tJ3xg3K8izZ555JjrqhXJNSMKU+7j6Rdnedttto6NekCXNKtumv+WmzV4FladfhNuAWWaZJfzbjpt+Zr2VMP/4xz+8fYQ111wzlL8+6qURee9b+UDf6KWXXoqOug8pYVtMmsZv66237iOsHnrooeCVV16JjhoDKyi3U8YMkD0gctOZJt3tSB5h1W50wzuI5uOWGxQOBx98cM0MNbA03VWMNgoNtk9esbwXX3SuPElbxrHkYqmvDXHh+qBZfp99AxzSP3jw4J5OUl5wuUCnyA50SFAKZaWV3180BtYefHuXxRZbLPqrcew6mFT/fL9xjj4Kg5ZOBoWIrWA2ecJgzl4VlLb/4+ZV3PdyrVzB3Nsp8kV0Bi+++GL0Vy9YMKGUN6Qt342CEpYl6249WXfddcPJAPe8i+93zm2yySbRUe01xhq0We9XD1YG4UPbVTLQLzr++ON7rPgaTS/yhcksF+QR371ePtd7PhZ5rq9s7ilyxaboPPB37q6yYqL2nHPOKWwFT72ynQTl3i7bvnrglm1zjeuSqdlgLFGv3ualXn1H/2Rj0oHczZsmygNy3wXd1D//+c/oqPuQErbFpCmwCBN3RgefTpjEG9I20u51WFn4NmKo54qgrMpfJO+9916P7ysD74/1HbNAWSn7nd1vEzf7g9KpqAZM9E+o9ywRQhFng2UVS+CKLutY27t1EVZaaaU+g620sgzYlMi3pJb3apZf2Mcee6zPu6GQMtY4Wd4Hsl6fh2Z/f9EYWBV98MEH0dFE+Ea+Tbnylp+kb14vTn63LVbzwMqe999/PzrqZbrppvO6FSqjnmBVY7Dzw5UxWeuHSSvv4sNdHm7TifJFtC+uKxHAR6C9f0Iz5D/l0Pg6tMskEzn0C9KWU991tuKE3837GP/SzXi/NJxxxhmhb0UbXJ+wCZ9P5uUFP8C+fEo7iVcvv1B2+ZaWM/Fe1IpN0VmwWvfII4+MjiaC4pCVV3lWlcTRjLLNJJXBPMst2740FI2dVvoqjfhux98q4wAX2oIk3Q/yEyMXMOnh3ZG3xj1CFky+8T9y3zeR7/NT24z8bgZSwnYACIG11147OurFdkmQtlPhXvfCCy+EO2PbGFcEnV7IGdD5hBTCwhaqaSk7P+xvw3f17YQMLCESIi+UY2aisVKwyzSd/z/+8Y8NW1f58PlZBFe5kbWO0WD7lLDMnmJBRnxl11vbH5WBTfXMbtNxsjkubWlleV54ZrO/v8gP34gJRXfjzLiBbxnlx46TSRPfIIrOuVkW6CvX9cAK1TdxQlvtK5NlvOfzzz8f/dX7DkX4y6yX1qQ612nyRbQv9Id9Vte4nmn2/g8oAXxWuUwsZXGz4rtu1llnrZFRph4w6Zg04dFMGHcdd9xx0VHvexxxxBGhq5EiybOcN4sMx2LXZxjC5Hu75LdoHrTlBxxwQJ9VVrjY+OUvfxkdFUOesu0jrrwzxvBtfkVfAQWwoax2lb4BezSAnUazaiWOevWXe32GMRh5TTvttLH3o1f597//Hb6vfQ3yFrmbFZNv/I/ctw0LzG+8q6swLiu/m42UsB0CZtruDMGDDz7YsADCpD7OFUGnFXJXaDB4cc/xTnRwWuH/ykecoMPyyWeCj+PqrDvGCmHzwAMP9JmhBmao2QjQEFc2s8KEgpk5tfEpN6ifWeVO3K7OKH7t+Ip6HxsUT0xkuWlmM0WUmhD33HrvWkZ6odnfXzQGZYROqAvly7RjLOllUPC73/0uXDXDgNgsVyOw8gN/XezAXYSFOHH5+Nvf/hZ2lpPKdRyXXXZZH0UzYF3hW1ZYRvl0B40G8rII4vzI2X7U7PfqRPki2gf7G/M3fX3f5L5d/lCaXXvttaG/YJYOU4aMLEGu0N7i55GxQxYrR7e8xbkosn0d5oHnkE42LXTBUr9ZK2SSwFUSGxPZCkrSzaZi+MpsNu63gSTZkRYU7T5Fj+geTNkx/+Ni46CDDgoVdTa42PjDH/7gtXRsB7KWd8p2M1yesXJ34MCB4d92GnGbhBW9zz8/JL0P7QB9NR98J75R3P3IbOSoLTO41viTbwTkvs8NJmXJt0qqG5AStkNgp3zXJQFCwLdDHfgaVRcGS6NHj+5zbT1XBGWQJr0+XEFgoNJedNFFfQQJ1++0006pGwJzf5xAahRfvKSRtPuWdq622mp1nY0LEQfKHHah/Oabb6IzE2EnfHb/timqzNMps2eMDVjcN7KRj4HG315KabCXFkMZdZhBFNY1rvzCSs3ImLzP5b68cjGOVnx/0Tg+JSydVdrp4cOHBwMGDAiX351wwgnBk08+GVq82WUHxQu+2fbYY4/wPqwWuA/lbR7YLNS33I/+CFbWabDTN2LEiD4bxAEWVkOHDvWWxTLK56WXXhqmyw4ohn3W9llh4GOWX4NJP///9Kc/Df8G+706Tb6I9sIuG/xNO+xTiqHUZ+XIzjvvHCr32eGaOmk2XzHlBLnCpADL6HGHgYUY7Ynb1vpwyynjD9cABFCeNjKY5zkExkwuKCx8/iObCf2hww47rM9myMhkVqKk2c09K8aSzsUY8bjfJivISMqPDXEiv5rlm1+0BlN2+B858ec//zmcxLFBpuBiowzjJ1aFuOWX47QGavXaQGSeW7YBWdqsso08ZhMtN60XXnhhcNNNN0VH6SAO+lqjRo2KzvTCeMxsBuiDe33uHzhmstz9DllxJ89MfDyz1XK7LKSE7RCwBPHt+ElF8nVk0lSGJFcEzSZv5fXdR8OPv0MGnq6wYHY/y47C5n43njKh84tTfhesYLF08imchIjDlF06/8xEu50TLFuOOuqoUjr/PJvBlk+JxKxnEZM9NNxunUAusCTKXcJSNAxSfYNaX2cTOY3/7SFDhoSKMPw6kk4CdZslofzGNVndzCTRyu8vGofv57Peop3DIhXlua9+JfHyyy+H96Go8O3MXw/8hv3+97/3lk82e+K3elZy3Mu74VZpxx139FqhouBpxsoPU0d8JP2WBSzzbdcCJl4GHSjBwH1WJ8gX0TmgNMB4wwZlPoN5JnJc/6T1oM5yLxOh1HnfWCQOjAx811O2iyiXcQoffOIWVafzgLwbNmxYdDQRLI1PO+20PpuMFgW+qH15SrtSRB8JJZVR2BvIYyb5fMqTVua/KA8mFk488cToqBfGrUW72DD4ls5zTNn2uSN0iZM1Jk4mmNyyDc2c0KF/gHWxC2ncZpttQqOtuAl1O29IMxNoTAL5wIUEk0FJxCm3URI3Ct/Cltsm7UzysDq4G5EStoNgx2o60zbjxo0LB1R5SHJF0CnYAgYQmMzk3H333dGZXiGLcDn11FPbVtmAEKVDu+222/Z5L8B/lFmWIERaTPmn4+8uQUGe/PWvf83lIzkNPBt/lr7OCv6DilDCMsvus5yhA4bisUyY6PENJG3LE2ZxWWJIGnErc8kll4QdRKN0Io9IJ8t8+I1rWIKU1sKoHq38/qJxKMc+P44o9VxrqqwwEbvsssv2WIDWw75m0003DU466aToqJajjz46XLFx9dVXh8piF8r72LFjw1348RHnc0PAhCnxp1210gimjvhI+i0N5Bl5wEDUtUCHDTbYoGejUPdZnSBfROeAMsGdHGFgft111/Usa81S3u1rqfOMUXwKC4MtP2x/sHY8Pj/XeaBO+d6F+pLlHYsEBTCrEdwJp8MPPzzMO5s08jgtKNjdTRzJAzYq81n5ZYWxpE+Gg68P1qr8F+VBP59VK/YkD98ZFxu4L3Epqnz7yjZQtpmczvscU0azlu0yIC377bdfuGLNhTSQ7+gG7AlWA/dy7vrrrw+WWGKJ4Le//a13whsFrO0KxZdvxBWnhC1iVSMY+W/y34Dc7kakhO0gWP7nc0lw7733RkfpYWB36623Rke9NMsVgVvB8kLHEUF7+eWXh5bCWJWw7NIGYcJMPUskipxpLuId+H5YI2M9hBBjYOQT7AhIhHBR+Sb6FyhrfLOfPsW+aXyL6iRRR32ztChXiijPTKq4SljSTqewnjVeo/hmZ3knLHNJAx04Ooks//F1fMCXz5wz1kksUWy0s9fK7y8aA7+gLElPQ576RNliGfLZZ58dfvOk727Hz99YZ6DA9SlKUfBipWEmSWibCay2QflPuXvooYeiq2vZf//9w3iNb8hOLovIP/JpzJgx0ZleyIftttsu9rt1inwRnQFKwHpkqWvutfS9USbGKfftcs6EhDm24ylq0iVuxVirJh6YiEHJ8cEHH0RnJsLKvAMPPLCPDIiTCXlg5YLZyM9AnmNlj2VuI6DEveCCC6KjvqRdFi46F9oPNpR79tlnozMTYfVFnIuNoso3Zdu3L4Qp2408J23ZziIz80Ie0kezN/OzoS9lJljpY5n+Fn0vZCHGaWyU50L+nH766cHJJ59c853i8i2ur8DKG5u8eRLn675bJ4ylhO0gGJBQyVxQLqZZUkKhNgWbyujuWN5MVwSkA/9xLCWgsucNDGJQrO6www7hgMS8H78ZWM6IL7aifanS2XTTkzXgZmL55ZcPTjnlFK/jaTqkf/nLX/oISCHSQucfJb49Qw10/nHbQTm0Mcfu+bygHHAbVGDG07frqMF3jw8mjbCqtdMbl/a0cabFzVOgw0NHgg7TOuus05DfKDo8Bx98cGgd77MoTEOrv79oDBRx7sDdhTKHtQmuBVDaUs4JKDpwy8FAwucj0UAdNZvt8N3T1hOupe1lk1AGXHEYv2oErOLjyhbLZkeOHBmuWLGVKO1UFrPIEOovkx9xm2BgwcJGGHF0gnwRnUMaJSzLhocPHx7KHSZPjSyh3mK9jjVW0mCdccWvf/3ruq4J4voF+HgsAvrWtgxpJbwnvrJdAxHqMX68G9mILA0oYrBI9IGSzFWepQX5gVLI3YTJRxa5KToHvitWlm4bh4sNVrK4hk9FlwPGEKyaQQ65soh+RJaybaeNvlPast2s/glyF6t5+kj0lXzwDshq099KcslAn43V1PT9XCWqD+L2GdSg+PVZ2ufBrApKougy1EqkhO0A7AJHpxvFow2dHqxO6mELKZ+Jfae5IkiCPKMDhhBG2Wvv/pqFVlZ2vgcNCLPnaQSkEDaUXcIxxxzTxwoLq+vzzjuv9M4/sDyx3oDMR9ZG3NRV7uNvOiJYw9rk7RjEEbdE5pprrgk7NnHWaVlhueiuu+6aSVHSLt9fNAZlOG45HKDwoI5hzcDmCLZVOJN4WEOwwoKd+VECxClLKaustmAyMGs9QZHIihxcG0C9+01dtaHzzWQpy/OLrqdFYtLmewcbLHG23nrr0NcjuO+E9Q4DKmP554uvneWL6Czi3JoYWC2GfMCiCoUdbQSKFAMKQ9yH4L4GxT+7+4Ov3LJXBa4vkogbsxRV9+PqJ3mQpJgoGtJBvmIp6IIFe1m+Ml3WW2+9cOLbzV++pWlDbOrJN5RU7F0RN8HkPqeo7yrai+eff75HFtjQtvk2eSq6HBDf+uuvH/Yf3DLL5LWvbMdh0sbkQlLZbha+OohMpo9EX6kR1y301eiz0XeLq+vueeRmqyxSbYv6bpIlUsJ2AHaBwyXB0ksvHR1NhAEaStW0YDU7evTo6KgXrCGa4YrAh/2OjVYw7kdRfcUVV4T+TxqxIG1VZUfIMttVlFWA6H9QdpmhxhG7DY04nf96Dtg7FdNxYMbW+LkrC1+HBHnM5I+rIEEOYUWENREKYtJJoMOHfzys3VGYxYGihHjT0l+/f7cRt+mW+Y5YRMZZRdjtF3+vvvrqoWuK1VZbLTpbC5N+xJcGU8+YYGElB0vbzeoat/OeBizvWK2y9957d4T/r7i+AfX+yiuvDCe0qX8GO0+Y/MDdAoovgy++dpYvorOgnuJj2IVyx4Aca3bkQ1y5tmEFG+0KPp9tRa0Nm0D6NhQsG1PPfO/BOfoEeeSTjzTxIL9RBLn1lbrK5ojNAnmEbPWlmUla2oS0mzQil1DUH3vssdEZ0R9h0s7nYgM5gouNZmHKtg9TtpmETgNlG8tae9l/GplYBr7n0jfiXekr2ZNqWdNIX824I4pz21YvTvv3ovIoLh76Md2IlLAdBp33wYMHR0e9oFRNu8slHXJ3Q4/ZZ5+9KbsQx2F3DLJ2kNxKy/3M0rJxCO+UZglWGooSMmnAkoCZPQa3eawIhWAAxFJTt/OPVRy+n0W52PICSwE6qlgRYU1k/B4BlnBstMO3YvMcNtCKmzhCHvh8S/rQ9+8O4pSw7EK85557Zm6XWKbLbrr25k42WFmyc3k9eC5lDBdG+DTP20l203/WWWeFFr2sYOkk6HdgnbLMMsuEfl7jFMns/sukeZIbgjS0Wr6IzoLyiHW2C5bxKODN5oxp+t9cQ/nbcsstvbuhAwoC+rFZydr/B/seV57Yx3niTsJ9lgsykZUo7pJm6iMb9TViIJIHNgXDDZEPLJOXXHLJ0DIXF3dYD5pJbPKNFRkYhjD+ZPKoni9Zk9dF57loLnHfj/NxLjaQCc1eZZVUtnG/+NOf/rSnbDMZZbtaMWUbd4+mbNvvnZQHzQS9DX0j+kguedKCfKJfQJ8BvVDWONLkUVaanaetRkrYDmTttdfu45KAypnGJQHccccdfZY3rrTSSolWEu1MUqUlX9gR8OKLL85duc19zRIOpmOHgGRwy/dOu5xCCGDZyK9+9as+G/ow8KeD1OzOf7OpNzhqBsgLrISwFsJqKM5a0Qa3I/iJZNNEW5FiYHIpzcRMf//+3QQKcwYOdkBRhp/fvOUcP20o49x+BDBgueeee6KjeLCkoDwZ61cX/DRjTYIFivFTy4QAZRjFMn5qGfT72lV8mbHRJu9q/96sNjgr9L022WSTYNCgQcETTzwRne0LLgj4dsZtQyPvw72tki+i8+B7n3vuuTVy5IYbbggnDmy/jWlkirmG/3FhEudvlA1z87i4yFovktLcSplBvWTsYYPMRfYWuUlwWlCM8WzfBJzJJ8ZMKNcxAqGfQN4iZ/D5SFv097//PbzOhvh8O7eDbe0vOo+4uoXSkokEl2a62LBJKtsGu2wzOUm5tsv2bbfd1ud9W1m2bdnFqhr0NPSNfDCZxiomlKm039xL4G+zEibOFRV9FuKO2yjVppXytBuRErYDYUbHtVpFqYpQtPFVljhXBAwgjG+yZsFunZdddllNpzBPOOqoo8LlBghTHwz8sP6ylwZmIa4RYgbJl54sgYEoO1PTKBj4bvYzH3jggWD77beXvzaRCsoPjbG9UR0wCGMGFUusZuGTQXH1qUh8zy2Deu+Cn046fWne2U7zmmuuGXZmfdx+++2Jip52+v6icdi4keVxdhg4cGDDfsLxOf7LX/4yOqqFgbYpO766xGZfuC/ybQqFMpDl+Fib4AfR9lNLPWBgz+CFNvnxxx8Py7K7czcwCYlPVbvdbobs8GHngf23WRqIcvWmm26KzvrZcccdg4cffjhYdNFFozP136cd5YvoTNh4d+ONN66RIxyzCi4PpjxRn6kD7oQOZZIJmJdffjk6k54y67lPnuUlKS7qOi4ZXJiYQn6Dub/INNn44kX5yyRM0kaNWSAe4otT8KSZHBLtiVt+zDHtP+4G3N+b7WLDJa5sZ5En9jv5yrYdl69s++pcXsyzkCX0l3yrjUgb1sj4TP3Nb34TKo1tt5L8jesx9BVMFqP/mWWWWfrkCStp8BvNs5IoUzb3S6oFRrSYm2++mVrbJ5x00knRFX3ht2plqLm+OlirfPLJJ9EVfh599NHK1FNPXXNftRNWqXaUoitqefvttyvzzjtvzfWEQYMGVT7//PPoqmTi3i9LHGn49NNPK3vttZf3WYSqQK2899570dWVynfffRf9FQ/pI52++KqDruiqxiEtVUFaqQpU77MI5557bnS1EPGMGTOmUh0Q9Sk/J598cqoyb0DGuHEQqM9Z8Mkcwo477hhd0RhxdXSuueaqvPnmm5neOSu8g/tcEzbYYIPKl19+GV2ZDjut3LvOOut44z788MOjq/rSbt9fNI7vuxVRrmnDfN942WWXrXz00UfeZ1Df1lprLe99tLHVwUB0ZXrot2y++ebeOAcMGFB59dVXC3nfvLjP/uqrr8L6NPnkk3vTbAfadNr2POlvR/kiOo+y645pg90xCeHyyy+Prqql7PYlrt+x7bbbFpofvrg++OCDynLLLdcnP9ZYY426YzSbMvtOjJeS5EuasMUWW1Q+/PDDMD5khu+aW2+9NfxddAfffPNN+N3d77zgggtWXnvtteiq+hShW4ij1WW7SPnCGGbhhRf2Pn/ttdfuSWMWiJM+nh2XkVUrr7xyoozy5Ssy6p///Gd0RXbs/IrTF51wwgnRFRMpu01rFrKE7VCwZGD3fxusSnz+T6vfOforCK2jsJq1wQy9FUtjioZZqaTNAth0xPZfk2ZGJ+maNPdnYfXVVw9noexNU+xnsKypEzYsEa2Bes4MNctNWVZqw3JBlg0WXWbrYcseF3eXYvfapHttiMPnNxNLQYL9znacaeNPIs7vFc/EX6cro+thp5V7hwwZEh3VwuY7rg9w3qfdvr9ob7BS9VnC4TsUFzi+8oKfR1waubCb+o033phrwzfqEatCfD7dcKmBxWcrMflAHbv77rvDfKvnB9dsXoQ1IG17nrrXTvJFdC6+sldE+2fA0p1xhC/OcePGhf+nfZ69C3Yj4OfRjHXs92fFH8dFvb+bt8iEww47LFz6bD8D+XjeeefF1ulmw3jpkksuCcdFvn1GksD6DlnPWAsLa/BtIjj11FMHs802W3QkOh3K85///OdwFadNK11suJDGIsr2VVdd1VO2fS4Aksq2T97mhXz1uZrEFRQrjkwas4D/b/yA264bjKzCXRLvnoT7fsjZNPsIxGHHh/z35Z+t0yGtReZxK5EStkNh+R6V0IaBt89fjymsSa4I7KWNdseh0+BdN9tss3CJvw8ajyw7piflRZFCwMSFQGW3QgQ82M//5z//mXr3UtH/oFwff/zxfQYxNLSUKZYNNrtuU64py/byGIO7S3Ge+sT93333Xehk38UMtmzs4zzPc5lrrrmiv2phybHx+2jIk/f41vIpydjo45NPPomOJtKO318Ug6+sFlF+8dvKoMOF3XLdyVrAv5jr49CAW6A8ClgDyomjjz66z7JmyiwDBjYBa2X5ZQIUxSeK4rgl1nwT6hm7hqOUYJl2nKK03rvwezvJFyGSYEM6H8aNliuvfD6JIWliIwt2PHbdMO1gEfLTx8033xwqTmxQIOD+oxH5WCR2fiy22GLhuJD6Pnz48HD8hNyxlR7TTDNNOOZkSTM+wFEK4crGXEPfw55QN7AJZF53F6K9oMwwseDbiA+3G8bFRqsx9Zr0NlK2jU6Esu3rC1G28SVbJig2mehwIf309RtxLYbCnD6bD/p4Rm7bsgLi5Db5VATIbfeZgNw2lCW7W4GUsB0KM8/s5OeCY2lTeVwQLghRG4SI61+20ws4yhf8p7iDOWBG6/Nok5BGKSIOH2xWsuGGG0ZHvSDksHQTwgcK+iuuuCI6mgiN9UknndQzQ51UtynPpkznKdtx99Bo09EB+/nvv/9+qOyJI40c4ho6WD6rLfxOGl+UzWappZbq00HKI1eZafcN3D7++OM+M8/t+v1FY5SZrygIfYNkBh1vv/12dNQLilC3DwH4RGUy15A3zSgW7ZUgBqzmH3zwwVx1qB5p0krdwjcvlmxJoKTFgpjBTT1fiPXeJen3VsgX0V1QXoqULZQl374S9Flpn91n2fsgGEgTdb0I8Entg0nJPHUlDSgiUbYyMWzD6hQ2/jGUKdPT4Ht/JsFYMcOEFxNI9u7xfD82bGRzH5Ttrj9y+nH4lHQhzu9///vRkehkKDPsNeBOzjEpySawjdSpMuqjHWcRZdtNYzPKNqtofFawbFpahNKbeOi7uWDwxbPBfW/ktk9++fqLeYiT/7bVbjchJWyHYRd+XBIYi0lDnEsCcF0RULmoyPPOO290prOx8wbBwgZmLihhGWCUIfSLgo6sTwkLcd9WCB8MBpj9pbzXCyjsCObvQw89NIqlFgYT7r0EFJ403i4syx0wYED4t11HmSyKU8L6Gvk46ET5dvNmxtsof8uCmXYfOPQnTxqF9PvkM3Kc5Zb1aIfvL+Jxy7mv3JO3NlnqRj1oa7LUESwkP/roo+ioFzb5spfmuWlOC0rhTTfdNDqqxSxrLpqktJLXWLYxUc1AzeS9ew/L+ulboIDJszwwjnaXL6KzKaIMGai7PsMHg/ssBvOulTj1i83+ipBxvk0DoczBPOn2pR1XK+QNeUAw7Wy9wKSUzwrv0ksv9V5PQJmUlUbzG8Wcz43Ej3/847BfUMT3FO0JLv4wtPCVxaRyTv03bsTs8nHfffeFYwbfPTvttFN0VfOgbNPvccswhg2ks0zoT7vPJR+YqI5bYZMFjPBQxLpg8IUrB3CfH9cniZO3WfHFE2cs0A1ICdthUAENVIaVV145OpoILgnw2eZWHBQVca4IGIi513cidt6wVMAnLFhSiBK2XTHfASWyT8j6/C4JUSR2PcpCnAyhHLMbp0uStVXaNPBMLM98SlgsxfK+S1roGJh6aj/LnU3PC3H6rIugqOU/LkV/fxGPm9dp8j7v98mKrwzHTQLSXhWVLjNh48aHpYXP7UhZUJ7xK0cfyVWEmLKOSygGKxdddFHoZ61oulG+iPYjr+xOcx9l1a3L3MdkBdZkNlxHH9e3tD0rPgsy4i9bceK+a1HExVvE89w4spYHrI594yos9nFFZcdv4s5b5kTnUOY3ThN3Ec+nbPsmnpdeemmvm7UiidvjJ04RmgcmdH0YBbkrG9CtmD6D/RuT1I2CnspnCUsfqFWrGstGStgOhoK5wQYbREe93H777T1LBqiwhHquCIpoyFtBkpD1DYpQUictgW415jsg6NwOKtA51eBIlEnejkucDGEQhs8lFxQbjbrX4Jlm2YwL1nk+8r6fDxS9pp4WGW8a4pQnjVL09xedByts6B+4ZSHuGxc5KKDt4/nus1kS6JtsKRqeS7j++utDt0bu0mLAPxkWZ/fee2+h7+7SjfJFtB92vc5Szuz74mSDWZFix8u1lGu3j841RfgjxuUYmwu6INN8PrA7gbjvUoZciPuWcTz22GNe2YwLFxcTd9ZniPaj0W8Yd39RZSNLPHH1KEvZbgb0jeJ8xechzi1MnMEX1xujGjvP2EAVudsIxurYBZktS1jRVpjCv+qqq4aDFpsnnniix5ScykRwXREAu5l2iysCHz6fbCgwfbNa7QYKdntpl2lMmjUQFZ1Llo6H79os96clbtOOuOXraQcW1Gc6SS7Un7hlh0W+H7LX7hCZuIva4Zn381kFMahlQOmjHb+/aE+wPPBNhNB2UrbdslDGgL+V+N6Hd2bCetddd/X+jq/psWPHhht5uO6giqYd5YvobkwZy1rXsWDyLZ2nvoArS1jC7GujcYOB7+lGwN+8bzCP/2M2I2wF7vs3QpFxNQrl5B//+Ed01AtKk5/85CfRkehG8vYH6skY33m3zDdaB9xn+OLjmoceeig66qXVZTtvvqclKX7kp8+PPPIWuZsV+1nIfVY2utBOxG0I1ulICduhGIHBDAE73NrQsbZdDyS5IihqWVuriBPEZQupZmO/T6ONj+huspR937Vl1B128/b5SsTPo08JkLaMM3P6/PPPR0e9980333w9y5oNvJf9bkW8Jx2DJZZYIjrqjZMOCXK3UZhZNsuCbFiaE9cpyfJevmuLyBfROFgiYClGmSYY/2rrr79+Yas58MvsU3jwXF/5sneotSnSVznLWn0Tjfhgs5ekFVFOjbyw46LeHnHEEaFscZ+B+6eHH344dEPgUka9aUf5IjqPE044oUeO2AHjjDj4PQtxMsC2FLfrCPJs0KBB0VEvjF98m/9lAStYn6sjlhCX6Y4gKc+KlA9Z4jLX0k9iYyI7jBgxouENdbifFQEurH6y/YQLYchTF5Lu8ZVtQtImf2nkG2X7nnvuiY4mwn3NKttuf4tnM9FV1CZYEBdX3Aof5Cdy1AXlqc8FTD3s74DxoM/lFP2uNN+rE5EStsOJc0lw44039uxWia8Ot1PDTA6uCLq1YHfrewkRx89+9rNQoUlnpYjArvo+Ro4c6b2eZ8dZvGINYysTDGwk6FMCpAWrf1sJSzoAX2Su0heZULRcID6f2wNcJLBRT6OwxMesajDwTGaGXYuedv7+wg/5FgdLvpZccsnoqPfaBx980GvllQfqjq/+YeXhrrCBuI75U089lfguWYiLy12CV2RdtuOi73THHXdER71Q5y677LLYZXFFyxZoJ/kiOhfXUMNAWS+i3jIpdP/990dHvWApbu++7dYRNp7yWZOjHG5koonN9Oz3Ms9l5WCZYEGOQpJnFxEeffTRmvwx77Hjjjt6rycccsgh4TUGcw9tBjvE22HzzTcP2PG+ER544AHvagri7lY/jv0VfKT7ylyegPLPrMS15QITM0wO+u7h+T58ZZtwzjnnRFfkw1e2SUezyrbb3+LZEOeCLQ+ubsh8izgf96SBTeF9+Iz90oK8R267oOPq5nGFlLBdADvluVYLDK5QUAAbdSW5IjAVWwjRudgdmTLJIy/osPgGQLgGYXfVvMQNIjfccMO6+VFUfg0cOLCP/OW9rr766ugoP3RKXNnN+/osetr5+ws/9jdz85VNH3yWYlhoYuVRBKb+uGVnnXXW8ZYnrFF9Fu3saNzoEmLAAhaf9j7YQKLssodl8FlnnRUd9YIiBAUs7+9i0lRW2tpFvojOhZUopuza9Zr6X0S9RQnC5JANz2Hi1bd01cBvvmW9jUw0YQHrTqJQpvFlyERlJ9OIjCGvfbKb/hdyLw9Y45977rnRUS/Iq7IV3qK9aKRsNtp2llG2UQTbSlwjN5mcblbZ/ulPf+rth9Fu530vG2QlimYbvgX+4H/84x9HZ2q/j5Hrvklx5K7PnUAcdrzIe9w8uZAHvj1FugUpYbsAlt3iJNqurBRuU1Fvu+226GwvG2+8sXeHu24ibiflb7/9Nvy/UcFfFL50kHaC+2041y7pFiILKHZsP8eGSy+9NPjwww+jo/RgxcUg0oXOAdZjzaonRv66XH755Q0NcOmU/PWvf42Oatloo42iv0S34GuHWYZl6oz9O2WrUUtI/DGzqz/YdcXUHx9M3Pos2ln2N3z48Ogonnp1Essvd/kfMMBCgVJ2XwXfhrgbcNl5551jrQlNmspKm+SLaATqnL0Jr10H7Xqbt73EfcDpp5/eZzMt4hs8eLB3g1kDv6277rrRUS/Edc0112RKk7kW+eHbqXuVVVbp8U/bH0EJ7fPBSzvg86vvw/0et9xyi9cCmu9uW0CL7qfstjmJIsq2y6233hqMGTMmOuot+4xjmNTKIpvywnN8+/bQR7GNV/LISUBp6nMhsNBCC9UoPt1vixylb2pDvMjdJBc3Lna8GBb4FMvIEt/+Pt2ClLBdAOba+Hd1KyKVlKUxLPm1YZD1i1/8IjrqXuL8k5hNLVrZaNiQDvfbMUOFbzxz3qSVpaNF+IITotngImDttdeOjnphOcy1114bHaWDesHAz+fziaVCWP2kqd9uvbNJ+s3ANcjfIUOGRGd6wS/dsccem2vSh4Ht8ccfH4wfPz460wsKGZ9PStF9UGdY6QJ2+Xn55ZeDP/zhDz1lKyt0dlm26ttIB4Wjz+ITWG5L/fKB+wpbgekr70l1komYAw44IPjmm2+iMxPhHuSGb5BVNAy83HSjBN9uu+1SyZOikXwRRYDBxU477VRThs3fpt5mLd+mvN100009kzk2c8wxR7D99ttHR33Lpzlm2bDZbdtOw3nnndfjZzZN2eZeNvVCLrrgf3bo0KG59sDIUq/aFd4BhTcKDRdkwYknntgzrkj7vkyCH3744X2uR17us88+PUY+QpRN2rKdFiY3k8o2ciSrvMwDymWfu0nSdeihh/ZMwmZJi7mWSVg2F/Vhy2Qf1G3kKXLVhfYEOZwFXCL53KLMPPPMYVq6GSlhuwSWLbo+3HBJcOSRR/YZ1DAj7Jtd6TbiTNjjLGQhbQekaIxgNM/HcsH+nua8sZAVotNAmUAHxtdwH3bYYV4LtDiuv/5677JhOg677bZbWJ/S1GV282RGF3nohm222ca7aZiB+E29XX311cPl0i4XX3xxsPfee4fLrNN2lFCq0MHiXoN971577ZVoXSS6B+rMr371K2/ZwYrx1FNPDb777rvoTDoo05QhY0lhx43ixFbW+OoQnWKflRPWa9QZ46M5bXkHltcTr29DHjan2HPPPVMN6s8//3xvXSbUs9Bg0tO3yzdLHZuhAPbltclDyReRF/NtcWtB399gyhv1FmVp1uX/xIsl1S677FIjg8zzOM/GwQbO+8o4fg+Z5AD7d/a02HfffcMJI7t82tfYf6NwYUM918cxrLfeeuH7pwVZgbUXcoMJKVuOoBzuNEz+MYHm23CP72iWXtt57WJ+Y8kx7QQTQS477LCDJnFE06lXtn2yx8b8TtnG53IRZZu+1tZbb10jP0xg3FFPWUl922OPPbzvhTEZ6cyy/N+ArEcm+iZh3ckz8Mlc5ClxuCB/kcO2gUBS3iPfkfNmDyMD70464vYh6BqqmSNazM0330wJ7RNOOumk6Ir6VDvhlWqF8Mbjhquuuiq6qz5vv/12pSow+sQxaNCgyueffx5dlUzc+2WJIw/kn++5m222WaXaYQuvqXYew/9t7HOkj3T64uG9yiIu36sD0cqYMWOiq4Qoj7j600i5/+abbyrVzpI33gEDBlSefPLJ8DpfvQTO33bbbZVqp8QbR7Xxj73XR1w9I9STT+Y55v+rr766Uu04eONaY401KtVOXXhdEm+99VZlo4028sZB2GCDDSpffvlldHW5lPH9RXb43nx39zuYslbtiFeqHdno6ngop9SvpZZaqk9cJlx22WXR1clwne9+wnTTTVe58sorKxMmTIiujoc03XXXXZX555/fGxdht912C+VGGk488URvHAS73PpkxHPPPVeZaaaZ+tw36aSTVuaaa67KPPPM0xPmnnvumuNGQ3WgGKWiL90qX0Tzuf3228Py7H53ytUss8wS/m7Km6+OGL744ovK8ccf742LsNxyy1Wqg+ro6vq89NJLlerg3xvXtttuW1e+UWaPOuoo7/2TTz555f7774+uTEfcmIWQZVzWKI8++mhl6qmn7pMGZH4e+Kb77rtvn/hM2G+//cKxZBK0IYsssoj3fvpwr776anSlEPEUoVuwSVO267VtRZftJP0B704e2PhkLucY19htv/03fSf6UEny2oDeg74ZfTRzvwkmzpNPPjlVXIBcnWKKKfrERUAe15Mln332WWW77bbz9mtoD2gXuh0pYduAuAY/a2N/3nnneeOxA4OJNJ11QycrYUeMGNHzLLuSI2Tfeeed6KpkkoRoEcqIOKFLp3PgwIHe55555pmphaQQeSlLCffMM8+EAz4Tn103GTAde+yxfQZwlPdnn322svHGG3sbbMLKK69c+eSTT6I7/HXLpRElrAuKoiFDhnjjMmGdddapjB49Onw/k76PP/44VCzHKadNWGCBBSqvvfZaeE8zkBK2fRg3blzsxAOBeoOy8sEHH6wpW3SCX3zxxbBvkKR8JRhlZ5p6w3Vc74vHhFlnnbVy8MEHV55++umwjBuoU5xDiZOkfCUsuOCCmcp8XJkl1Cu3t956a831cXKmjJCmTnWbfBHNJ029/clPflK54IILwrJgBtGUJcoUkwW77757ZaqppvLeS0BOIa+ycu6553rjIyAnbrjhhj7yiWPOxylOCCeccEIqmWZDffTFReh0JSyKJBRKbpwmILfPOuusyptvvtljrIIMQa4MHjzYew8Bhfx1110XXi9EPYpWwkJc2TZtebPLdpL+wKeEjYNxDROtvnhM4L1RoNLfM/lHfef9kMf0xXh/370mrL766jVjqDiMPOX/JMU3k3Fjx47tyWsDk3i0MXHp4Xsx6dwfkBK2DYhr8LM09lSGOEsOghFCW2+9deXbb7+N7qpPJythsRjFcpRnuQOqtBY/SUI0zcApL3wjLHZ5jpv2rFYGQuShTCUcHRq3XLthmmmmCa3EmDiKs7gxIe/Ar0glLDBwXXzxxcP7671flpD3/RpBStj2gjpTrx7kDSjo3M636WjHwfVJA5dGA4OK559/PnpaOnxl1tTDeuXWTGKnrbdF1u+RI0dGqUjO926SL6I1UG8ZbPvKQaMBheGoUaOiJ9WXITZpFMQEBu70C+wBfFxdQHGRRqngEjdmIXSSEjYu/9P0v7KGU089NdP3Fv2bMpSwUEY/KW/ZTtIfZFHCgt32lxEwYhk/fnz0tPQgX+spiAlYtiK3Z5xxxprzyCFXFv3qV78K24P+gHzCdgnVQhzMN998sbsaV791+P8vf/nLrnOYbt7NhfxgEzJwr8Hp9hNPPBEdtR98I+N7xk07fvNwNm77XBGik9h0002Dq666yusf1oA/JXaAZ/OtagcoOtsX/MDi9ylu9/Ik4mRHXvAfx+Y++G8sKu5qxyXc8TnP+4nuYbPNNgsuvPDCxDqTh9133z249NJL+/gBpU8RB2Wb66sDHu+mUWmxn2H/veyyy4Y+a32+Z+uRlO4k8EsLaettkbLDjisp/ZIvolGot1dccUWf3a0bhXYYX6rrr79+dCZbXcT38xlnnBH6kk0CP+70C/jf4KsLbNQzYsSIQv0bm/cpsu6XCen1pTWp/2XeMe23I44zzzwz2H///TN9byHKgLJ95ZVXFtJPIg72nmikbBclK2j7ka9rrLFGdGYiRdQ5Nna/8cYbg9lnnz06kx7kKxsrs4FsUlrwP4vc/vjjj6MzEyF/7DzCBy6bdNEe9AekhO0ippxyymDbbbeNjvqCQpKdb7uNuIrP5lYM5nwgDHAq/cILL0RnJtKKzpXvmZxbaaWVYhXmp512Wuj8WohOhDq71VZbhcpTBm95WXHFFcNJibh6Xg+f7Gi0UzPvvPMGDz74YOg0v9G4cOrPZBG75AvBZijjxo2r2fDGJkt5m3baaYOrr746OPfcc8O+g029dtA8Z5pppgkuuOCCcNAz3XTTheeyYD+Hv+l4n3zyycH9998f/PjHP45+8eOm0RzHna/Hv/71r/B/Nw8brcNFI/ki0hJX9hls//3vfw8OPPDA6ExyOee3pN8ZxD/99NNhe9wIyCHk0XHHHRedyQfvxeadRSpgweRnu8mEJHxp5Vxc/ytOjvqgHbr77rvDzfzc56SVu0I0glvOksp2FkzZZlPQRup7I/e6ILdHjRoV9pGMkjKpntnP9qWDPht9N5SoM800U3Q2O2wiTrron+aF9/nLX/4SKr27zVAwCSlhuww6QXGzGWYX8GaTJITKbKipyOyYGAe78n3xxRfR0USKFJhpMc8kL0x+cG6JJZYIlllmmfDYx7vvvhv9JUTjpK2LRdYRdv1++eWXg4MPPriPIigJOldYX9x77709ypo8soR3SbovT5xA5+aSSy4Jd1uPW52QxMYbbxwqhbBWaaRzlIVWfH+RHSYcUHiwu72rjE3zDWedddZQcYplAoMVvqf7TbN848kmmyzYZpttwvaIMh+nIE5iqqmmCmUAaTrooIPC43o0kmYX8u1///tfz982eWVAmXSifBHNJ6lOUMf++Mc/huWgnkKfOuCrByhf2Q0bi/g8VlQ+GIxjYEC8WLOmhfSzeuyBBx4I3yuNDDHY79Zu9Z30NCLbkqD/xS7wyN4s+UUbMmzYsOCpp54KBg0aFJ2diMm/stIshE1cObPHFlnKNmML+kf0sdyynZUyZAnjJN7pgw8+CJWxs802W/RLX+LkGvX39NNPD95+++2w70YfrlGmnnrqcKXWfffd17OKNy3I+WeeeSbYZ599CklLJzFJ9cO0V4sjhBCiZdAktKID/fXXX4dK1RtuuCGcgWZwYNwQMDBbbLHFwo4ViiMUUZ3UWL/33nvB7bffHtx2222h4oQlOWZZDrPIdKTo8G2wwQbhciM6NK2iVd9fZIdv9cYbb4Tlijrz6KOP1pQt6g3KkZ/97GfBuuuuG6y99trhpEWR39cuL6Y7iTKV9IwePTos75988kmYJq5jcpRVKgsvvHCYng033DBYaKGFmlKfu7Vsd5J8Ee0J7S8KTMoRluhvvfVW8M477wQTJkwIf6cMzTHHHGEbzCqygQMHZpo4zQuTO1hZjRw5Mhg7dmyofDBQto1s23LLLUPXGiIffH8UKFgQ8z/9L1yesSSb7z733HMH66yzTmg93yx5LboTXztcZttsjy3sss3z5pxzzqaV7aLfm3sJr776auiqgP7WY489FrpWwp0bsFqJiVYjJ3lPXBuUlddAml5//fXQHYxJk+mPAEpgVvrSH2FCeOaZZ45+6X9ICSuEEKIGmoUyG+k4WvXcdqSVeaHv0D00+1smPU/lqn3QtxBx+MpGmvKStUypDAoh2oV2lUfdLif7czsgdwRtCAWyGeR5TpFpa8Z7mmc0K0+LoJPSKroLU/Za1SBmfW6jdaWd5UMrvkGrv78onmZ/y6Tn8VvRda2sutuOMqFIVMdFHL6ykaa8ZC1Tectgt9fNdkP5LfLSSWWnXdpEN8/aJV1FYr9jN75fWqSE7UJ8Qs93Lk/BL7Ky+OIqWmCbZ6RNd5rnF51GlyLzWIgs2GWv7HJeBHF1JW3as75vJ+RJI3Ta9xedR9HtW9HxGcqKV4hup+y2I65u5n1uJ7R1rUyjZKHIS96y0439z7Tv5Msz+17+brf8cdNXj6Ry0W7vViZyR9DP4HOrQRVCiPZFcloURTPKUt5nqJz30sy8UL6LTsAtp/2t3Lb7+0qOCNFcVOe6C1nC9jPcDk1W8twj8qG8Fv0BU86LKO/tVmfs9GRJmzpZIi2+cmWfc8tSGXUkb3n13WfSV0Y625k8eWjnUZb8knwRnYBbTvtbuW2H902SK5IjIgvt2Ka3S5rSpkN1rruQJWwbwCdodsVqxTOFEJ2PZEc2ui2/9P3bm2Z+n24uC53ybqqPolPxld12Ls/NTlun5Y8QohxU77sTKWGFEEIIIYQQQgghhBCiROSOQAghhBBCCCGEEEIIIUpESlghhBBCCCGEEEIIIYQoESlhhRBCCCGEEEIIIYQQokSkhBVCCCGEEEIIIYQQQogSkRJWCCGEEEIIIYQQQgghSkRKWCGEEEIIIYQQQgghhCgRKWGFEEIIIYQQQgghhBCiRKSEFUIIIYQQQgghhBBCiBKRElYIIYQQQgghhBBCCCFKREpYIYQQQgghhBBCCCGEKBEpYYUQQgghhBBCCCGEEKJEpIQVQgghhBBCCCGEEEKIEpESVgghhBBCCCGEEEIIIUpESlghhBBCCCGEEEIIIYQoESlhhRBCCCGEEEIIIYQQokSkhBVCCCGEEEIIIYQQQogSkRJWCCGEEEIIIYQQQgghSkRKWCGEEEIIIYQQQgghhCgRKWGFEEIIIYQQQgghhBCiRKSEFUIIIYQQQgghhBBCiBKRElYIIYQQQgghhBBCCCFKREpYIYQQQgghhBBCCCGEKBEpYYUQQgghhBBCCCGEEKJEQiVspVIJD4QQQgghhBBCCCGEEEIUS6iEnWSSScIDIYQQQgghhBBCCCGEEMVS445AFrFCCCGEEEIIIYQQQgjhB/1pHh3qJNWbYu/iJ1nJCiGEEEIIIYQQQgghRH4SN+aSAlYIIYQQQgghhBBCCCEaI1EJK4QQQgghhBBCCCGEEKIx+rgjuOOOO4I33ngjOhJCCCGEEEIIIYQQQoj+DR4DXK+uK6+8crDQQgtFR8n0UcJutNFGwciRI6MjIYQQQgghhBBCCCGEEC7Dhg0Lhg4dGh0lI3cEQgghhBBCCCGEEEIIUSKTfPfddxV7A64hQ4aELgmEEEIIIYQQQgghhBBC+DnttNOCrbfeOjpKpo87AiGEEEIIIYQQQgghhBDF4XVHIL2sEEIIIYQQQgghhBBCFINXCWu7JxBCCCGEEEIIIYQQQgiRH23MJYQQQgghhBBCCCGEECUyqVwPCCGEEEIIIYQQQgghRHlMarsekEJWCCGEEEIIIYQQQgghiqXGHYF8wQohhBBCCCGEEEIIIUSxyCesEEIIIYQQQgghhBBClIiUsEIIIYQQQgghhBBCCFEiUsIKIYQQQgghhBBCCCFEiUgJK4QQQgghhBBCCCGEECUiJawQQgghhBBCCCGEEEKUiJSwQgghhBBCCCGEEEIIUSJSwgohhBBCCCGEEEIIIUSJSAkrhBBCCCGEEEIIIYQQJSIlrBBCCCGEEEIIIYQQQpSIlLBCCCGEEEIIIYQQQghRIlLCCiGEEEIIIYQQQgghRIlICSuEEEIIIYQQQgghhBAlIiWsEEIIIYQQQgghhBBClIiUsEIIIYQQQgghhBBCCFEiUsIKIYQQQgghhBBCCCFEiUgJK0QdKpVK9Fd9slwrhBBCCCGEEEIIIfoHUsKKluFTWLZCiVnvmZNMMkn0V32yXCuEEEIIIYQQQggh+geTVGS6J5oAxUwKSiGEEEIIIYQQQgjRH5ElrCidOAVskv6/7LkBzT0IIYQQQgghhBBCiGYhJawonTgL2CTL2KKtZl2lK/HnUcRKeSuEEEIIIYQQQgghsiIlrGhLUHYWpfAkHp9S1z2X5nlFK4eFEEIIIYQQQgghRPcjJaxoKePHjw+ee+656KgXlJ1FKTzTxlPU81577bXwvYQQQgghhBBCCCGEAClhRUvA6vSmm24KFlhggeDEE08MJkyYEP1SHv/3f/8X3HvvvcHRRx8drLnmmsFcc80VTDbZZD0KXwLHc889d7DGGmuE1z377LPBt99+G8VQH97jyCOPDN/r5ptvjs4KIYQQQgghhBBCiP7MJJWi1nyLlnDnnXcGa6+9dmFL97MycODA4NZbbw2mnXba6Ez88n8Dv5999tnBPvvsE6y66qrBddddF8w000zRr9mo96zPPvss+Nvf/haGF154ITqbjcknnzz41a9+FRxyyCHBPPPME52N59NPPw0222yz4K677gpOO+20YL/99ktMoxAimXr1XAghiiSNzIm7ppnyqh3SIISIx66L9eql6q0Q7YXqZH7Kyrtu+SayhO1wnnrqqbAwNgNfgV944YVrFLDgu86kkf//+Mc/BnvvvXewzDLLBJdeemluBSzEVUKUryh5Z5xxxuDAAw/MrYAFLGFRGs8777xhnFjUJuX59NNPHwwfPjxUMB9wwAHh+zbrGwnRLJpZpruhsRWiG+nWti2NzGkHuRSXBslMUTbq16bDrov16mUn1Vt9f9EfMHWyFeW9k+sYaY+TZ42+VyfJySSkhO1QKMD/+9//ggcffDA6Uz6m0tiFf7nllgv/r1ehzD1/+tOfQovSBRdcMLSAZel/I7jP5fjqq68O5phjjuDMM88Mvvvuu+iXYiDO5ZdfPnj55ZejM35QLF988cXhe/K+vHe9PBKi3Xj99deDhRZaKJh00knDOkzYaaedwt+a1Qji1sM8235+OzJ69OiatBYdBg0aFHzxxRfR08pnxIgRfVy2jBw5MvpVNJtOKV9MXD766KOhS58VVlghmHPOOXueYbv8YYLy+eefb4o7oiJw34v3sOsH7f78888fbL/99sEVV1wRvPvuu9GdxeH2I8i7f/3rX8Epp5wSully00RfaMUVVwzTTNqzuFcS3QmGBJQVU0byBrtf4IYy2wnqwM4771zzvE51/8XKuWuvvTbYZZddgkUWWSSYddZZe95pttlmC+UMdffFF1+M7micTv/+on0ou0+CMVMRfRJ0AfQ1fH0S6hl1b/fddw9uu+224Ouvv47uqoVrm439TPoT9C9MuosOU089dfDPf/4zelo27H4JuilcOR577LGhnPnRj34UTDHFFD3ygn4SLhu322674PLLLw8+/PDD6M7aePqFzqT6kqJDef/99yuLLbYYpbT0UK04fc5973vfq4wZMyZKTX2uu+66SrUShuGmm26KzhbHV199VakK0T7pjAvmnXzvVi8suOCClddeey16cjzjxo2rzDDDDOEzeH8hOoVvvvmmMmTIkD5lf8cdd4yuKJ8JEyZU9txzz5Y9PyvnnXdeTVqLDoMGDap8/vnn0dOKo9pBjf7q5dVXX60MGDCgj3ysDna914vyaffy9cEHH1QOPvjgylRTTeWN3wS3TM0666yVk08+ufLpp59GMcXTirL35ptvVoYOHRr2Xex0m5DUh1h88cUrN954Y6U6MIliK4bqwLRy+umnh3nne25c4Nvsv//+lbfffjuKSfQ3GDssuuii3vJRVKCdKIt33nmnssgiizTteUVhy67nnnuuMnjw4Jp3SArImPnnn79yzTXXNCxLOv37i/ahzD4JZT6uT5K2H/Dll19WzjjjjJ52MqmtNr/RRtKP+eyzz6JYWoP7jsiMmWaaqU+6CUnvlTZMPfXUlUcffTR6WnboU+y33351+3++sNxyy1XuuuuuHtnWX8YYsoTtYP7zn/8E1cFBdNR8fvjDHwY//vGPo6NkHn/88WDXXXcNZ6P+8Ic/BBtuuGH0SzEwm7zDDjsE559/fnhcFUjh/z6Yldlxxx2Dk046KZyBrnZqwv8vuOCC4Ne//nXw85//vOf+uHheeumlYLfddqs7Q4el8GGHHRbO6PD+5IMQnUC14xJac7eS6mAh9K3cKbzxxhvRX/VJklE+sl6fBTdu5Bp+sF955ZWe2egyny/S0a7lC2vMiy66KLS6xCLzq6++in7xY8qUgXpufK7THru/2zSzHGI1irXugAEDggsvvNC7sob0JKUXi5CNN944tEbFEqdReNYdd9wR9r1++9vfhnmXBb4NK3PoB/Fusoztf+Cu6+OPP46OOgdTz+hHN+JirJWQ97hjW2yxxUKru7Tw7qzA22qrrYKVV145eO2116JfstOp31+0H74+SVFtdKP9ANrbn/3sZ6EbQdNOJsVpfqONpB/DqpJRo0Yl3lMm7jtiMUrdtTHXtCqNYPpJ9Cn+/Oc/1+3/+XjkkUfC1VH0k5577rnCylDbU/1wos2JmxEYMWIEta5PWHjhhSuXXXZZaHl57bXXFhqGDx/e8/c999xTqVa+KDXxfPLJJ5Vq5QrTVu08hMdF8t///rey22679ckHO/z85z8PrVGwloV6syxYATKTu9RSS3njM+Gqq66K7piIL15m8dZaa63wevKh6PcXomiw4J5++ulrynq1UQz/32mnnaKrGqdePaR+2WkgtKslLO+y7bbb9klvkWGVVVYpxRIWzLfgf6wSfc8nyMKlNbRr+cIi07aYN3KikbDHHnuEbbBLPXlRJLzX9ttv701f3jD55JOH/ba8kCfHHXdcT3xJeZ32O2CNpz5J/+Lhhx/OZa2UJZTVTjDm2HrrrcNn2GW8E9olLNlcC968YZ555qk8/vjjUczZ6OTvL9oHt09SRNvvhryrc+64445wFaovziyB1S9nnnlmU/seccTpfIoKeSxh6Ttsvvnm3viSQlJZoZ90ySWXtEWel42UsB3M4Ycf7i3Iu+yyS3RF66ESnXDCCWG6pphiisr9998f/VIc5557bp88MIHlO5i4563MLGU46qijvHET1llnnfCaejz00EOhgOMe8qM/CBfRmbCkmKUhblk3oUwlqF0v6HjRAeOZtpxrVyUsS5eYZDLpbKcOaRaQ0chq+7n2u2hw1RrasXyhFIybAG00fcTLBKvBbTPLbEOT3qvRwKAuj2si3tdMjhT97e3JYfVNup/rr7/eWw4IRZWtstoJlASmL92M5xUF7ssWWGCBPunOGuzvk9Ytmksnf3/RPtAnGThwoPf7FxXy9Hl9RiSNhLxtdtEcf/zxhbb9blzTTDNNJiVs3n6S+1zfO7WT8rtM5I6gQ8Fx9BNPPOE1QTebZbUCNz0PP/xw6H4AcBeAqXlafO/m8u9//zv4/e9/Hx3VwuYY5NHqq6+e22R/qqmmCo488sjQ9YAPTOjdZUG+Z+DiwMRBfpAvQrQbOFQ/4ogjwnLdCux6es455wT33Xdfz3G7w2YXbGRmMGmudmzCZdZ5Asuh7OPZZ5+91GU6b731VuiGoNq5is5MpBPyv9tpx/LF0rO//e1v0VEtpG/ZZZcNLrvssjDdlCnO8T/H5557brjJRBzEiwsAg5uuMuvBsGHDYt8L6GPxXrT9LL3jvaqDheCDDz4IXQXg7qg6iIiuroXrWI5M3yUL119/fejaCHz1kbw8++yzw2XaJk3I87fffjsYPnx4bL+QfMTlCxuWcE+Z+SraA3uTJ/t7404EmTDvvPPWyIU8gb5z0eB2DLclX375ZXSmMyDdbLwVV+fJ75NPPjl0c2bk5Oeffx48/fTToayYfPLJoytr675xi0bb4OKTEYZO/f6ivcBtlc8dQSN9Ejek6ZPYZZ0+LJv3Uud8ECeuk9jkiraYe3HNceONNwZLLbVUdFUtXIc7wVaP29mAk/Ta+UE/Y6655uqTb2mC2//D7dL3v//9KOb6+Pp/dtqMXEPeIM9IO30SXGnefPPNweDBg8PrfbKKPN93333Dfk9XU3150YHgmJ5NU/iEdsi6WVaZYCG6/vrrh+maZZZZKs8880z0SzGwLAmrXzcPqpW6UhWY3uWMeakKkdgNMNLO+FY7TJVqJye8Z4MNNqixoK0KnOgvIVqH2TzPLeN2yGOJmqV8c221kxSbjna1hGUG2V3ihyzqBIsQ8hx5mWZWWxYuraHdylecRRqh2qEPV6DUg3LHJp1x8dBe0m42k+qgMrQw86WH97rzzjtj5Zl9nng22mgjbzwENhyMi8eFjcHirOjIuyuuuCLVZj0sQ+YdfPGUtVJJtB+0oe73L9PVTRHUcw/Sru0SdXzfffftSScy2/xNH+fEE0/scZMWx/jx42tkiR0HAfdzkFaedOL3F+2H2wcw5bJVdZHy/9vf/rYnPW449thjK//3f/8XXd0X2tBhw4aFehTf/e64vZlQN1u9MtCWL+hz4jY7w50A+Uh+1pNJ9G2Mu0pfyGvt3ynIErbNqX6j6K9amH3CwsGFmYeFFlooOmoto0ePDm699dbwb5zJ44i+SJgVGjFiRHTUC885/vjja2aPG2W++eYLqp2U6KgWnEinAUuVLbfcMvwbZ9/VwWf4N1SFWPSXEK0BKw0c2FcbzehMcaQp38g66hKb2Oy8886lpKNM3nvvvT4O6bEGmXPOOaOj1hLXlgDfhw2Rkqz/RGtpp/JFWcJK1WeRVu00B3fffXe4AqUelLuNNtoouOeee4IZZpghOtvL+PHjg8svvzw6ag60y1iYuSywwALBmDFjws0j4uSZfR7Lkquvvjq0gPNx1VVXhX2YNGCl47OiI8+wvN12222DySabLDobD9awvAPfyH0HLPBYfYCliuhesJrEEsmFjd5+8IMfREftA5u+UP6XXHLJpsuCInjggQdCq3+DaYepu3//+9+DQw89NJhyyinDc3FgDXjllVeGq/vAbcvZRJVNe+Lkkk2nfX/RvtAnsfsAlMtW9nkfe+yx4K9//Wt0VAsWmaxqnXrqqaMzfaENHTp0aNhu+1ayMG5Hr9EKyGezEbtd/4vWqyRh5AvPR6b5NjtDrqH3IR/Jw3oyCWtc8pSVOOBeT1+MTdNdmdctSAnb5sQVYMy7cUngssgiiwTTTTdddNQ6WAqA0KPiIPRQqqTpIKSFeK+77rrgk08+ic70wnLq2WabLToqhu9973vhLovmHfK8C/ewpGH66acPj9mh+KOPPgr/FqKVUF/32GMP78ROWbCUiQb2kksuCZUIM800U7D44ouHy1Q6Ed+yrBlnnDH44Q9/GB21FuRPXEeGZVYsexTtSzuVL+TELbfcEh31Qhk76aSTQoVlFlAOnnjiidFRLddee224zL8ZIAd9ih7ei/4Mu/9mgQEpgwtfftD233///dFRPMhJ8sAHCpxf/OIX0VE6eAfcFvj6MLfffrtXAS26ByZymNxwYezQamifUCbSHrE7ORM5KCg32WST4OWXX46u6hzIa96DCQ4b6t55550XrLnmmtGZ+rDEG1dmPlny6KOPpnYh1c7fX3QGph/p65PQj29Fn4Q04WbANzG8+eabB/vtt19Y7+L6wDabbrppcPjhh0dHtaDkdSfDmwFy0afvYEK12eCGiYkxH7hMYqIafH0MF74HBnO/+93vQtcq7vchDr6r6/axW5AStkMZN25c9Fct+DSh05JG0JQJMxvGf8qqq64aKleKBIHkG5gwwFh55ZWjo2Jhlszkq52/zOSkhY7OuuuuG/5Np4lBjxBlQTmtJwv4/fzzzw/9AjYDowCYdtppQ6v9IUOGhFZhvg5GJ0GH1O10YEFvJl3A/hb1vksZ+DpFKJ7ocHZ6/nc77VS+sFj3DcDWXnvtYL311ouO0sN7oWjxKQJeffXVMDQD3uvxxx+PjnrhvUy7nRaT/1jEbrfdduHfLmmUsFi/PPPMM9FRL+QVsrMevnIwcODAYK211oqOekEx/Pzzz0dHohv57LPPvJP/rVTCYZ35y1/+MrScmmWWWYLll18+9P2KhXwr2smsmDS6aWVPCl8fH6UQip6sML7BT6ILz8UoJQ3t+P1FZ2H6Ib4+gNsnKRO7vsUpBjECY7LSrIz19YFduIa9EXwTHsgk6nUz4T3ReVB3bZjkpX/RbMaOHdtjTW/nJ3sAsPInTR4buJb34/scfPDBoV9qG37jWXE6r05HStgOBMuIp556KvzbLezLLLNM+H+WSlA0zBJdfPHF0dHEDbnqLbephy1sgWV8WAO774myd+aZZ46OGsd+7oQJE6K/esFCNot1DNfT2TSQT75ZNfd9hcgD9aOeLLjzzjt7Nnwx1zIYOvDAAxOX7uQF+eWjlTKrUaivdALdeot7GJb4mfP2O7bD+5IuLPVcBTyz63GbEYrm027liw1j3LQALnvytvWsXllhhRWio15oH80yvLKhX4XVmpt3q622WjjgyYIdBxZvtP0uDC7i5KGB7+5TmrAyJ82KH1854F14Jx9pXSSIzoTBvLtpTasG8wZkiZsmgy1nypRpjeBLF+m+4oor+ljB0qdCwZzXXRqTXD5LwyeffDLcYKge7fj9RedB+fZZJ1KOmuXWwq53Dz74oNfNBu6OcGWSlbjJU+ozbkSaCe+J6wfXVRBWx67Ssmz47vZ4wZbPbIiG/sU+lwbej3tQeqP89sE4tRuRErYDoTKyAy7YhR3LsqTdhsvGpIVZImaLAAVlnC/VLLidnGeffTYUSG5lZxY9y+5+9TDP5Tk804XnZfV/g6WuUdzGzaoZoSREmTCTveeee/b4XzVljoZws802C/9uFp1c3lGk+KwC8LNGXXblV7vAzqNnnnlmdDQR0nrqqae2tC0RtbRb+cJPo49GrKl4h7j7m7VE3rTxtixCebrSSitFR/ngO/kUJyiXfTub25iBl/uNmXBu5LvH+ZIzfUvRnVDm3Il/LNcY0Lc71Mtmy7q0uGnDZQs+JF3yKoWAZzDxht98d2dzfkPBWo9O/v6iNdjtoSGuT4IlbLPrKG3kDTfcEB3Vss0223gnQJMw77vhhht6DVFQQrLbfzPxTY6igMVNSdnY358Vc76VOciPLG4IXMw97oS1OY9P/HoT1p2IlLBtjiv8OH7llVeCd999NzrTy8ILLxw20K3CVBaWFpvZX6wtzEyNT5DnxacQBTNgKfJZwLsxq028dsC30oABA6Kr0oHS1lihkE8mXpc8gkyItKBIwQrSbPhiyhv+GfE9VuTGdkXRrnUirkPaTKf5WcGKgeU/7gZo+GZioCjah04pX+0oM9JA+0vfwecrMc9EqwuujHwbZ/HMvBsQptmISwgX34QGCr1OUcL5+srtgNs3iXPZQtuaVSlk4Bnciz9ZlKnEbwJ+YdP44u707y+aj6/fTZ/k9ddfj456aUWfBMWgz40O+hCzOjgL5n3RqTAecqFu+6xuy8SdHCWNGHNhfFc29vfH2v6tt96KjnpBD8IGgo2AbKevRZ/LYOQ9m4D5Vg13OlLCtjmu8OOYJXO+jgj+FX07DDcL0oRymN16DcxqmHdw3yUP5r3jli6xOyKWwkU8qyxIm+2Qn1k10uzi+8ZCFMVf/vKX0B2GKWf8j/w466yzSnPpAVjeYiVSL9x22219lgATVzvWbdJrdgo1kE7b+o20m9AK7OfSgcbdABN6Nsxk44ZCtBftVL6S4m/UYjVuYJPF73oeyEs2OnXzGKaYYopYVwSN5jXuBNK4byB99rM4zpLXvnRSpnyUndeitaBAoPzYpC2HZYE114gRI3rafjswMWIfs/FuJ3Dvvff2qXcoKfB326jcaOT+dvz+ovOgLrqW15SrRhVxeYjzG48CtZFNwnCrYFbB2HUG90DUo2bhU3gjA1BY5p3QyQtKWNc3LRShfyKP6WvR53IhD+JWYHUyUsJ2GFS8f/7zn9FRLcz4uI1rsyBdPBtfcWbGhpnVpZdeOvzb0Gjnw7xf3EABk312W2/0OWWDPzcz80x++TYDadW3FN0Pm+Zh7WowZY0Bzs9//vPw76JwyzEdG6zj6wVmQ311oB3rNpMo7iwtO9fPNddcPenlXUzwUfZ72c8955xz+vhYogP1xz/+sWmbKoj0tFP5Iv6f/vSn0VEt+GUzq1GyQifb+Lq3YZCRxe96XlBCHHPMMeGGn3bA6ixucBGX1y58P5+/RpQfcQpeg/H7a+CZfMu0PiDBTSf3P/TQQ9FRLe1svS8aA9cXKE9cWYDrmSQlXFGyIw7KJxO/vn4ASh37uFn+JhuBfDYbE9vQ70dx4quP9bCvSSt3XNr1+4vOI65P0uiqkaxQNtkfxmclSX1rVElpLGndOtBMtz1ffvml1y9+0RuepwH5QXpc8rpHSitbkPs+5WynIyVsm+MWUMzufZWfwh83MGoGpvKZ3Uw5pjOPryKbvJ0Hl6SBAk7vsbbzzdYA6Utb8eNo5H7uRYls3oHjW265JfxbiLJh9nqvvfaqsSanDG6xxRbBPvvsE50RWXCXHSLnjJ81/mZTP5ZLsdR/qaWWCjsUnDeBjiu7lZ9//vl9NmDyyRrfubSMGTMmOPLII6OjXvAN606aifag3coXvltRALuMHj06VA7m4R//+EdYNl1IO37myobB2qqrrhruXE7AJzb/r7vuunUVpYa4fOO9fD7ksNSpZ4GGP1nTV+BbmmcwGW987xvqfTcDZcXnrxL/d4suumh0JLoNFBUMol0oYwb6BUw+UPaNwhDXF/yPXKHus0M/k3hYj9ukLX/dBu9tvzuTI77l0chmX30nb+uR5pp66PuLRrC/L30S93vbvoVNnwTDjrg+CStCfX2SLBBX3M75Ph/zWZ/DJKivztL+5p1wzgpjNnQ/Bt4ZbPeTKMWHDRsW5imTu3Ze8034BvQPcVuCRWnRdTWveyTzLgZcHfhWJDEBl7Yf1lFUP4ToIJ577rlKtUJRe2rC7LPPXnn55Zejq1pDdZBRGTRoUE+a9tlnn+iX4onLBztUK2xl//33r1Qbi+iuWr777rvor1rizhfNLrvs0pPWZZddtvLRRx9FvwhRDt98801lt912q6knhAUXXLBS7QhFV02k2lhXqoPyPtfuuOOO0RXl0urnZ+Hwww8P01btUPSkc4011qh89tlnlWuuuaZS7Sz1nK8XiGP++eevDB8+vFLt5EVPKAa+Md/afSZlgrJhQAaedNJJfa4j3HzzzdFVolm0W/mifNC+++InXdUBQ3RlOuLKJaE6iCu9TS4z/rh3m2GGGSpPP/10dFUy5557bp/7CbbcTnoH+ze+Dd/IF98WW2xRIwdEd8EYgbGC+91vvfXWyptvvlkZMmRIn9+SwqSTTloZOnRoeG+z6IR26eGHHw7HH24aL7/88uiK1tAN31+0B6ZPYgfTJ6FvMc888/T5PSnQJ6Evk7VPQtu27bbb9omP+kc9bBTK9lxzzdUnfnQd6DyawZgxYyrf+973ap4/7bTTVp544onKs88+W1lrrbVqfqsXyJuDDz648umnn0ZPaB/OPPNMb5r33nvv6IruQpawbU71G0V/TQS/J/gjccEh+6yzzhodtYaqsArdERiKXtZsg7XG9ttvHx3VYmZWmPX905/+FM4WYbWDhaw9C2SuczHn3bwvGtvhN74Z33nnnfDvsp8r+i/VgUo4W2pDeWc3/GYs+e1GqK+vvfZaz98GLEqqndJgq622Cq0G4uSNC3FUB0vBlltuGfzkJz/xLtHOA3Lv+OOP7+NLEmuBo446qmZTpbRpFeXTruVr//33DxZccMHoqBd8nGNF5du8wQfvxvU+H6eUzd1337208mjys6z48RvHTuZm80ObnXbaKVzCZ39TH/zODs+2H3kDebbOOuuE3zDpHcxv9B2HDh0afiMXXC4cdthhHbu5mqgPFlXIDRssmC688MJwYxV8xGfhu+++C++lj/373//euyS4P0Jf3s4LU/+MlaCNsTzF8t5YnpqAr1xjeYr7kCSfiPXkCOj7izxQtuzyxd8+H6ymT0LfAn1AFuiT0Jfx9UmSyjYuNny+5LFexfo2jjT1BYjHddFF3eT9fatbygArV9fqlnp77LHHhn0Iex+eNFBPTznllNDlG+NBrJbbAeTTpZdeGh3V4uv/dAXVgig6iOogGsnRJ6y88sqVakMehuuuu67n7yJCdTAVPd0PM1EwYsSInvQwa8PsTRGY+F1ef/31WOuZpMDs7dprr1257LLLKtXOUhRbsiVJGdx///01s1vknxBlgdVVtdGtqQuEOEszWcKmw10BUHSYfPLJK5dccknD8slnTTfFFFOEcsiHLGHbg1aWr3plbty4caFFpy9erC2OPvroSnWwEsZj4jJ/c/7Xv/512B777seSBkuPOOqlLQ12upJI+6xvv/027JfQt1hhhRW870XAYqhIa2Hy8Fe/+lW4QshnSUQ/57jjjvNa5xE4P2rUqOhq0a0gu33fv6hQHShXxo8fHz2tHDqhXfKlkTpGn8aAhR2W5+51k1irHdzQqAVbN3x/0XqK7pNQ5k255/8sfV7atvnmm69PnKwOKqIsxr1rM1cfx8m8ogIW8F988UX0tNbAtz7hhBO86VtkkUVqdDXdhJSwHQQd/M0226ynYCY11kUFW5laTyDaSyabJaCSBoFpw5xzzlk55JBDKo888kjdpXhpB2NpIH/spUGHHXZY9IsQxfLxxx97l6Byzu3QmzIuJWw66OjZS6/KkMsoWVimk1f+sCzLJydPPvnk2DilhG0P2r18ofijk+yL1wTiZ0kf7zHHHHN4r7ED7nlQ0jaTuHePO3/nnXeGAz37ndJ8m6222qpGAZslzxmI+OS4G0jP3HPPHeZ5nJLbBNJfxLJN0f40OphPKt/mN+puPcONRuiEdomls276cJ9mJkmGDRsWKprca9KG6aabrnL11Vdnltfd8P1F63n77bczuUDKE9w+SVxZj0vLgAED+ijustYX+Oqrryrrrbden/gZm9iTKjZ5npMEYx6emaZ/kTdsvvnmmSeGiwTjwbi+CpP53YrcEXQQ1QpS4+y9+v2iv8rjhz/8YY/T9qoACP/3gam82TCMdLHxFDslloH93rg8wCk3TqfzgqP6k08+uWeTDJb3XXvtteEyB5ekPEiDnfZqR6pmeRI7PLpLDoRoFMrcueee22cJKstPTzjhhLAc2jRaxvsbLIViGY3BJ5enmmqqcEkh7lpYwsQ1hG+++SZ4/fXXgwsuuCB2p1O+R7VT17MZRlZYInbAAQfUOPYHlo35lnr70i9aR7uXL1wDjR07NtzYLw7i5z1Yojh+/PjorJ8DDzwwuP/++2s2i7Epq3zGyT37vP1sdgjGDYT9TklpYwfyG2+8MbjiiitqljfGPdcH/bGRI0eGeZQE6cEdBHlO3sfBN3viiSdqXCOJ7gX3GPWgLAwfPjzsF9MfNbKEzaYeeOCBYLfddqvZcdyUX1P2H3300WCPPfbod0vT7brvLvkHXAtMPfXUoVu0XXbZJdG1QD3YdHjrrbcODjrooExjBn1/UQSUjQ8++CA68tNInwRot9go2PRJ4tpJltL7ltPPM888YZ2zydLWGtAJsGw/C3meE8cXX3wR5heYOuZj8ODBwa233hp+F5PX5CHHbJiKy6ekdF133XXB0UcfHfuMpGc3ChuT77jjjmF63TTijmXXXXeNjrqQasaKDsHn7L1aYGuOiw6rr756KjN1NpVaZplleu7DWsO9r1rBor8m4h43QnVAFM4uzzrrrDXpbzSwXIhlQ0Vh3pn/yR/bqmXgwIGhU3MhiuT222/3zjCyZNaHKaOyhE0Hm1q4abRDdUCSavkg+X7XXXeFM/i+eAjVTmvl3Xff7bm+HlxT7Qj3iQdLuZdeeim6yo8sYduDdi1f7u9ff/11uFTWF2+aQF8GlxnVgX8UYzxpyn7ZZFnai2sCVu0UlW7y6LzzzsvU/3OvPeigg8JvJvoHbn/TDVhEIx8oo3Y59ZVZ5M1ee+3ljccE6nIZtHu75K5YNAGr9Hp5licccMABqTbT65bvL1qHKQumTxLX/uBmqIw+iY+4cUKRG2cZS1Q3kA82vrrSKFjzJuXPUkstFW7OlQYs1DfZZBNvPATGiXfccUd0dS1lvBv9mNNPPz3WApbzN910U3R1dyIlbAfBzpq+glpmSLsjHYpKewfBHXbYIfqluVCpWfLDYBA3A/a75A0sG/rLX/6SanCYFVu4k39FKnxF/8NtKOP8CLq74fuQEjYdKEPcNBLoQJxxxhmZOy8ffvhhZbXVVvPGSciyNAc/025HmXSx9KceUsK2B+1cvoDnM5Bid2Puz6IY9IXlllsubMNdyhgENEIWJawJuG0wio68MOAij3zxZw18s0bTIzqD999/v7LYYot5ywFLyPP0PVkSHzeApj9bhkuRdm+XUHYaH5JJstD8hmsBxiv47LeVRiyD5hy/cY17vx0YG9ajW76/aD1JfZI8bo0a6ZOkVcI20sahz3DjJzRD5tAXwpWJeaYtU4wLgSzvhh4jzvcqYfnll8/tliBLOp555pmefkycnExyl9YtyB1BB8Gy+2ZTrZDRX8m8++674XIVA0sBWgE7BrI8EvcCLMXDFJ+lNWuvvXZQbSCiq7LBsiGWVey1114NLSHyYS9LJP/IRyHyUm3Mor8mlttjjjmmz67j7Gj+u9/9TrtgFwRLkn2ceOKJocywv0kacFFy0UUXeXeeh2uuuSaVnGDXeZYrVtv56MxEWAq50UYbRUei3Wll+XLLjgtLTnF1gWsLdjeGevfU45FHHgl3SGb3Xru9zfqe7ci//vWvMK+GDh3qdXeUBEsu//KXvwRLLLFEmEdFwDcjPZQjOz2NfkPRfrCE/aOPPoqOekEOsBQVF2JZYRd05JALdZUly6NGjYrO9B/sumP+9skuxiqMU5C1/I/Ms5dPswyac/z2zjvvhDuhx0E7/+9//zs68qPvL4rCLI93oSzsueeepfZJwG2f6rVX/N5I/yHu3nrPLQJcUVF3DeaZtNu4dECHYKevXprQg+DOCLciPh5++OHgoYceio6KBzdJO++8cyjbkvoxp556aijXGvluHUH1g4kOIGkpSTvsqo8Je7Wy9KSJ2ep2A8s/Zl9YhpfVSta8W9EzM/asvr0JmhCNUm3EesqWCUm74bvIEjYd1Q5L5dprr60MHz48/J9APZ4wYUJ0Rb5ZeL4T38t9f8JVV10VXVWLeQ4WAGuttVbP9cgvAjPPH3zwQXhNPWQJ2x60U/mywVpi8ODB3vsJWMVQV+kbUOZIowlYvowePbpSHcTXWFLZfQjC7rvvHroayvN+zYb+Bcv9qB+8l/subiDv0lic8O7EjdsJ7ouLl/h49ttvvx0uiTbgKmrs2LFhXrrurAgmvrXXXjv8LqI74dveeOONPTKEcMMNN8TuIJ62zlE2fbv8Exqxqoqj3dsl2t56O8ezSSZ10pAmr7nmoosuirU8xe1QUjzd8v1F84grA6ZPQjD9kgceeCDXalGeYZ6Tp0+S1hK2EejHuPETmiFz6FOYvGYFG//z3LTuHuKgTxa3ombrrbeu6UPUI42sIL3HHnts3Q0J+f2SSy5JFWc3ICVsB0BhdJf7mzDttNNWnnjiiejKWsooxHac9t8IBTtdzVbC5nlXfK3gFxP/TT7B4BvscJ1RYhWRvyeeeGJN/O3SkRSdDf4Hp59++pqyRcgyiSAlbGtJGtwMGTKkRglnw/flO7vyi4Ef5SItUsJ2N3nLF3AvLk189xLwF1hvkGDkEIOBuEEOIY3rlHYkzaAjSXFizpv67LufgI83Bmpx2PEzmX/MMcd44yEw0S+liaDMxJVLH/SJv//97/cpT9NMM03YjhdJJythaZNRojIBZZMmr803OeKII7xxMz585ZVXoqsbo52/v+heaOeZwKTsuP1X+iSmTNpls9uVsHlIW3fRf/je60c/+lFinyILKOavvPLKUFdl4vfpVgi4a3ryySejO/sHckfQAVQLbLi01LcElWX/1cY3OqqF+4rGjtP+212mv9hii0V/NYc878pOw9tvv324FIdllU899VS4Qx/m+lCtH+H/NrwnyyS5voj8dXeHrAqs6C8h8sHyFZaXfurs0MvyFd9u+KJ4fLIjCd/1k08+eSifwP1mzzzzjHcHZmAH4+pArU+chx56qHZB7xJaWb7gjDPOCP72t79FR70QJ0sH+X266aaLzvoxz5x55pmDiy++ODjzzDO9LoN4zvXXXx8ddQ68/1FHHRWMHTs21j3TOeecE7v0z+TPyJEjw7rrg6XK1157bWwfEOxvy3JndkBmmXB14Bqd7eWuu+4K05S1fInugjLjyoQkll566WCFFVaIjnrBxQUuOPoTSflGvdp7772DddZZJzozkTR5bb4JfbuFF164zz0s/3/wwQejo8Ywz0qLvn//ocy2gf7DdtttF/7tPoc+ySeffBL+bZdN2r5ZZpklOioHX12Yaqqpgtlnnz06ai986fV9t9VWWy340Y9+FB31givHV199NTrKB8+7++67g4UWWijYdtttg88//zw8T9rctPDdTzrppOCxxx4LfvrTn0Zn+wdSwnYIzz77rFdBt8giiwQzzDBDdNQ6XL+TnQb+mfC1dskll4T+blBYxTFmzJge/3eN4grLF198MfpLiOwwSXDYYYf18bUzxxxzBOedd16ND2JRHr5OUBJx1+M3iY6e22l55ZVXQj9xLsgufL66k2JbbLFFsP/++2dOl2hPWlW+gM75n//85+iolgsvvDD0E5gnffiS8/kXhOOOOy547733oqPW4RvI2Ph+Z+IDRalP6Uk9veKKK2LjRRF+wgkneH9nogWfafRdsrL++usHl156qVfp/ac//Sl4/vnnoyPRydQrr0WBcn+llVby1vtW7GXRSqiPtm9XG8Zqu+66a2b5aIPxyNZbb93n23J85513RkcT0fcXRdNI2U0DfRLKuAtj7rg+iY8333zT63c9a50gDvyYupAPdl40q67lxffdyOdll102OuoFXRM6pyzY709+bbbZZqEehb6kjZtPQ4YMCa855JBDQsV2f0NK2A4hzoHxMsssE3zve9+LjlonCNpdAGVJHw7qR4wYEay++urRmV4QZAyMnnzyyehMY7R7vonO4uabbw6GDRsWHU2EgTZWZgsssEB0RpRNUfV61lln9X63r7/+Ovjyyy+jo4mg0Dn++OO9G7H98Y9/DGebRXfQivJluOWWW0JLCZcNNtgg7Hg3AhMIPmttBgRYVbSaegPQuN95JyZBfNxzzz3eDXP4xljJslGGCytosKirlx6Dr7ywOZ/7vYjPbGYqOp+05aNReA5jEV8581nUFyW/2hE21EKu+vjFL35RI29NPmTJD65dc801a8Z9BhRVxuIM9P1Fp0Hd8W3Q9d///tfbJ6Ee/OAHP4iOekGR+N1330VHvWStE5RVnwEcky12n7qsulZmXSHvfvazn0VHtRir47Tw/mweeuWVV4aW+jfccEP0Sy0mn+h/YCXPhmx5NgXsFqSE7QDYGe+FF16IjmphGYhNWYIAkoSB77mtbmjt52fNFywG2YnYtTI2ccbtDilEszFl8osvvgiVrW690274zadROWy+ITPDPqsAOqMsP7TBnQpWdTYo4LEu9C05Ep1LK8oX96CcHT16dHSmNh1YsjZiyUBcuCbAJZAP3AZ1mrsek8/Uw6222sq7agmLnThLGxTetjw3+b3HHnsEs802W/h3GuzvZOJjADl06FDvbzz3448/Dv8W3Y9dxvJCefQpBukr0zexsctcN2Irf+x3xVoUJa3B/JYlP7j2xz/+sVdu+/I6Dfr+olGKKENg90nscuLrk0DcpAdlrog2jD7P+++/Hx31MuOMM3rrYKcRNzbIuhoGPdXOO+8cupOIm8AHLG8xYrvxxhtDZS0UVXY6ESlhOwAsE/79739HR73MNNNMYWPcLLI2nEU0tAi/lVdeOZh33nlrwr777lu34jb6fGasmbn2EacUbxR1TkRW3DLj1gt8Kk4xxRThdVkCjaWvMWUZq+96Aj4KReOdCvISGNT4ljGDuSYJBoObb755zTdKG+L8UKLQ913PksR//vOf0VWiTFpRvjhmUINvNoNJBx153PkYGkkfS9jo27gwKMhqnVEU9vtkeTc7D8kjllq6YLnmG1wyiGRixYZn871WXHHF6Ex27DQh4xdddNHoqBeWB44fPz46Et2OW9fzgPKEfoao3evBlhe4jysCjETmm2++6KgX5HMety36/qJRiihD1BX6JMadR1xba5/HCtanSGTfFp87gqyghPVZc6OHiOs7FUkR+ZqE8d3vPseX93Hfgz2LWDl82WWXRWf6stRSSwX33Xdf6J4Ev6/288p+x3ZGStgOAD+hPl8oAwYMaEvH0EVWKN6dJXlYi9gBwVt2xWWGLc7ht7uhVlH4lk8IITqLtLIprlOThjy+IEV30KryhbKQSWEXJoNtf9ONtM1Ytfj6NSzZx9qiDOrlk/0+ed+NPgsDNx+uhS/p4V19m2PQJ5lzzjmjo/T43nHaaaf1TuTzbFnC9g8akRFpQI7Ydabs57UDvuXUUJRLIPLTJ59ZDpx1tYC+v2iEIr+nKSdxcRpLa7cN9i1nRwnr05ukTa+5jg3RfW0hyksmHVpRnst4phunz6rdzXdgcpyJc2OA4V5DPuGi4NFHHw1WWWUVbxz9GSlhOwB2jPPBrnPtsCkX2J2OIgUEAtDXqai383IjmPTzv/1sW3jYVj9FwjcVot1wG041pMWQJh991zADn2U5suifNKt8YYni88uWh7jlhWUqBrGYWXXVVcO8sMP8888f9kGKgPh8Axsb0/fgWt+mWYAFHMrTrBCny/e//33vRDP9Hp+fWtF9+MpFkaAgsTeqKvt57UDc0vwysPMTmZH1ufr+ohF837NRHYAvTiyt4/okiy22WPRXLU8//XT0Vy9py5+5Dnca9opAcx7LTvoqaeMrkmY8s54ugm9M3vzyl7+s2XzL/vabbLJJ6M9/m222kdFIDFLCtjl0huOUsDhCb4UA8OHO8Lqbw+SlqHiyYPKUpY9Y4gLnjHBhwIk5fRHY78cztHmOaDU+meJ2qhrtZHUTjeSFfa8vHpYk09FxQQmDTyqXVn4X99mtTEs30Ug+2vf64slavtqlv1E0cate2AyEDe/KxmfhU1T9UT0UzQAreZ/7ov646QqW6j55UtR4Bplk8tqu38jsVk3O6vt3P2nbkkb6CXF9Elba+PokgMLQ548e3UlWy3AX18WWyQP0L51E3Ld77rnnor9qqVdvmRRnvxGfTGMy6PTTTw/9+Kv+JyMlbJuDItDnIJlO+89//vPoqPUgAG3BW/bAxbc7cyP4BBQ79xmfbPbv7AJNJyttg5SEm0++hkSIZlJEue5W7LxhMx06GHQ4kH0mrL/++qEfqTTYMtP+24AvKvwtucwzzzx9OqSkzRdHoyTF6abfzp8y0tLttHP5AqwZfBYNDJoYPBUhO+I2wsA6Ns8y/DTQn/LFjTVoUb5Rsbb19VvirI75XrZVm/l+uCiwd0Cvh++7A9+KvPa5l6AfUlZei+ZzwgknhOXADsiVO++8M7qiceI2comzUutmqM9m0xkbLPOMjGxEVrIiALdsLmwUxISSi76/KALaL/okblnK0iepR1yfhOfafRK7/rA6xOcj+Yknngg+/PDD6ChdnbOv4Z2Iw4b3xWe969+Z+xqp0z7Y5MrNazYvjatrSXCvC+lFz+FCv8PnZ9fmggsuCO66667oqBdWZ//9738P9+1BxohklENtDkLPbmxNRaKxbeamXPVAONoKxKJ8txnLUFeAvPzyy4UJfXDjZ/bsz3/+c/DNN99EZyaCDxhbMDYK+WTiIf/Ix6IFuegfsBz43nvv7ekMNBrw4eNzPM/u5fyO/2ITzD2HHHJIdFV3Ytd5lEJLLrlkdNTL2LFjvRsp5oHO1htvvBEd9cIGP64rGjbZQdFjvkWj4cQTTwzj5W+bm2++ueca+9vzbNIg8tPO5Qvw1epzFUB6mDAuok10+zwGFBtlTlL6/LzjV86shmkU8sf33WjzfbssY41sDyxNPURBjYK+UfhWDHh9g7AkqyPReWCw4dZNyhM7VDcK8dAXZ9MVF+qrUVaY8tsfoC/mWy338MMP9yiF8spK8pHNEX3+LuNc1On7iyJAAVhWn8SUD9Mnccur2yexfyddPqM0lsnbLgnS1Dn7GiY82ZPGwG+kk4kFJqpt+C1N/FnAh6oLE8M+5WcekEXIJJe55prLq9Q28K1PPfXU6KgXJuhRzq655prRGVEPKWHbHJSNttWDEVQ0bO3USWYQYdKDICpikADG16zbgLPMwLejcFGMGDEiNKV3wf9JkYoG8sm8mxmMFS3IRXfj1o1mYTodbnltVXqaDf4UfZ0kFBs+2ZEV8pFBki8/Bw8eXKic8D1Dcqi1tGP5QjlH38P9DcUpAzEbX7xpGDNmjNfSk0FPUX5nfaCE9bkFuOGGGxpe0ggMBm2Ft3nGAgssEA4u3fzCj6KxIrPTg2J41KhR0VFjPP74497Nv1yrI9HZLLrooj2bwtllifrv+/5ZID4G5Q8++GB0phcUkZRvsJ/bH1hvvfX6vDNLfxu1PmXzrauuuio6qoX2wpfP+v6iCFCql9UnoXzYfRK3PVxnnXViyxDn+d3Fjs/Fd84FZaftG93cw0ZUPr/saeLMAroGnyHM5ZdfHuZ5o2Bo41rVkpcrrLCCd2LYwPN9k0DHHXdcsOmmm0ZHIg1SwrY5rj8SA51z29l5qyEtc8wxR/g3gohBGZZRjUIDjum/CwLg2muvjY6Kg7SjgN122237CFQGSocddlhhflvJH1uRTP610zcVnUG7dW7bLT1lMmjQoNA63uWKK67wWvNlAdl/0UUXRUe9MEtdtCsavlkRHciiO6H9nXYrXyx1ZRDm+87nnntu6JLAkEcOMOC59NJLo6Na1l577Zrl+UWDosJsRmG/3+jRo4Mnn3wyOsoHbocuvPDCmnjN32wIhnLZl1/GosTNb3YbzvP97XhY5eOmybDiiitKCdtFMKDmm4L9vemnX3PNNdFRLb5y4YMJCvz/YentwmQOEzfdDPnky6ull17a65LgnHPOaUiB8o9//CO4/vrr+8gLxkk+BRno+4uioIw1u0/CpODyyy8fHfnhd/oubr2grmDM5uJe59Zj6ijKRhfe3afwLQP0H75NwLFebdQaloluVru59ZzjjTfeOLavxUalw4cPj456YXJ+6NChufp9/RkpYdsYNoVw/ZEY6gmkZsOskPEhQiXEjxoWG0mkaeQRqsYa1uWkk07ymtL7SPMs0stMzuabbx4uszUYoXLEEUeEHauiYBBkd1yYqfbNrgkh2hOWZq222mrRUS9YhiBL8vrGpgN46KGHeje62HnnnUtxRVNE50kdsGJpt/JFO4r/N3fJK9+d5agoGJLa2nq/4QLokUceic70Qj8AJWw90rTzcbCkEQsXF/Lo5JNPbsjPPS48mNx1qTego5/H4MbFfH/jLinte9v1k4GUbyKbNLGbsegeGFDvtNNOXvkc149OK8sp2z7FCUYF22+/fXTUvZBPvrxC8bnllltGR71g6V9PTsaB+7Lf/e53Yb1370c+MlbyxavvL4piqaWWClZfffXoqJd6fZJ65T2pTzJkyJC6fV5+Z+zuPgeDrbPOOqvu8916jLX5uHHjoqNeqGfkgY+0dSYtTGD46hDvgus3fPHzd71388Gk+f333x8d9bLccssFa621VnTUi3kGK3p8Loy22mqrROtZEUM1Y0WbUhUelQEDBlDya8JUU01VqTaa0VXtw+GHH96Txtlnn73yyiuvRL80xplnnlnz/naYZZZZKnfddVd0ZT7+97//hXEsvvji3mcQdtttt0q14xPdUQwvv/xymE/mGeSfEO3Co48+Wpl66qlr6gFhxx13jK4ol2Y8/913360MHDiwMs888/QJ1U5F5YsvvoiujOf666+vVDtffdJJOOGEE0L5kgWeWe141cRD/ITqwKby0ksvRVeWS3VwVpMGE6qDrugK0QzarXx99913lT333LPmfhMmnXTSSnVAHl5jsP+Og3fgXXxxEo444ohU8Zxzzjneuky44447oqv6YuJ+8MEHK1NMMYU3DWnz2sRl/ue5M8wwgzfO6qAx7FckvdsZZ5zhvZdw9NFH1+2X+OK++uqrw29l4rHL1xZbbFF4X0e0ns8//7wyaNCgnu9shwUWWKCm3ieVR5uksn3kkUemjicLzWiXeC9Xfsw777zh/+eee250VX2effbZcIziS+/JJ59c+fbbb6Mr6/PJJ5+E8sIX1+STT165//77oyv9dMv3F61nxIgRpfdJTKBP8uKLL0ZXJvPMM8946xtt3XXXXRdek6ZMjhs3zluuiSepH+HCezGOcGUJgXEH4496vPHGG2H95Plunq+22mqVDz/8MLoyHbz/hRdeWNP+2+Hyyy+PrvRj63lMIF233357dEV5dKM8kRK2jUHRisLVLfAoZlHQthu2YP7e975XGTNmTHi+0Yrz3nvvJSpICTvssEPlueeei+5Ix3/+85/KaaedVpl//vm9cZqwxhprhB0gmyKEAflDPpnnkH9CtAv9QQn79ttvhx0i4nU7OAxYGLjU48svv6xssMEGNffacZHeTz/9tK7M4Pcnn3yystRSS9XEZYd6HaQikRK2PWjH8sWAncGRLw7CXnvtFaYpDW+99VZlk0028cZDYADy2muvRVdPJO5dKbNuPTbBlNukfPrvf/9bGTJkiPd+Ann9wQcfRFcnw3dD0YKCxJem6aefvvLYY4/V/W48b7nllutzvwnkHXmYhs8++yz8Nr54CAw8GYCK7oSBctzgG+UFv9crj4ByAWVLXFyU17T1JCtFtktx73rTTTd5n0Hg+Wkh/qTJpbTyBOVSktzed999U323bvj+ovX4+iR2MH2SelDW6vVJLrvssujq+hAfE7a+eGjbbrvttrrlm/TMN9983jiyTlAmTXwwqcP4IwmTViZ+fHEQFllkkTDNaaBO/vrXv/bGQ+D9kiaGvvrqq8p6663n7c/MOuusNUrmosN+++0XpaK7kBK2xSQJhPPOO69PQSdQCagM7cYTTzxRmXbaaXvSSfpt6gm/JJjFmmyyyWrywRemmWaaUGm69957hwPKa6+9tiecffbZoUXr8ssvHw6MuD5uwGbC4MGDQwVsI2l3MXGRPvOcmWaaKbMSWYgy6S9K2B/96Ed9nkFIq4SFuJlzE5A3yJ6xY8eGHaEJEyaE9yHHmeU///zzazqiPrlUhjV+ElLCtg/tWL5ok+MG4QR+23LLLSujR48OLT5MmnjG66+/Hg6u1lxzTe+9JhCHsWBJQ1yZJVBu7XY8rk2Ps6YxwbwX8aH8NHlGfOQ932D33XevTDnllN77TUBBa/KkHvW+P4G8pJ9jp4n4kXGklTST9qQ+D2kqsq8j2gsmGajnvm9vAgYPF1xwQTjxYY8zKNtYgVG2fcYhJpStyC+6XfKVd+LyPYOQRQkLjB9WXnllb1wE6iR9GuTGxx9/HN5DmpCZw4cPr6y66qre+0zwGYnE0Q3fX7QOu65gJOa2SXbb4vZJzL2UqRdeeCHUDyy55JI197sha58EqDdJRlt77LFHaF3qwjkUlNRH330Yv7366qvR1elIUsKiWKynhDVQv6nnvnhMQE4gL+z2H4vktO3/ggsu2Gey2yVudXYzAoZ23YiUsG3MLrvs4i2M7bps/aOPPqosu+yyPekk/UWBAD/llFNq8qGIgECKE0rMvDDjVxbGIoXnszQBKxUh2oX+ooRlRtp9BoHOU5Y6WU8p1UhgGWLagVZRSAnbXrRT+aI9Jpx66ql94oprT7MG3vXiiy+uGfjVo54SNi318rrRd0zjRsCFlTJm8riMYNKUJb9F55FmQO8Laco87fWoUaOiJyWTt5yV3S6RriKVsPDII4/0mdhJK0OSrkujOHHp9O8v2od27fOmmbSkLTVWlvXaVd6RCc6sNGoJa8PENfXdF1feYOr03HPPXXn88cejJ/mhvmIohsGYG08zQrPGnc1GG3O1KdXKG7zwwgteR8/LLLNM9Fd7wW66ZgdOIP28h0u13EV/pYd8OPDAA4MzzzwzqArE6GzjkBY3PfPPP3+48+Bpp50WTDXVVNHZWvK8gw35YjZdIy42/GJTrkbjFUKkh/rmk7GGpN9cNt1002DYsGGFyifYfffdwx3jtctw/6adyhf1grD//vsHl1xySVAdxPScL6INqw7mgxtuuCGodrxT10GeW1T7SV6z2Yx5L5csz7HTz7djJ3E2+fTFnRQvabrtttuCWWaZJTpTS9p8cjFpOvLII8M05Y1HdAbU88svvzxYeeWVozPp8JVNu6xQLu+8885w4740tEs5c9+rjHQtu+yywejRo2PrrsH37DiZQJx33313z4bIadH3F1mo1ybZfZKivqndJ0l6fhw///nPg1tuuSWxT8MGYm+++WYY7M3E7Hfgb9rEa6+9Ntz0q5WwcfdNN90UDBgwIDrTOOTt4osvHtxzzz2xm42Z/Ccvvvjii7obrpeB+SZ5ykK7IyVsm2EK2fvvvx/uNugWOhR1KAnblTXXXDP6Kwiee+654K233oqOerGFXBa4b6+99gp352MHv0Zx00Engs7J888/H+7+mJTOvO9gIF94DhDXeuut1/O3EKI5UN+SGva0jT7XERe7uD700EOFyOjpppsuuPrqq8NdTOMmg0T/oF3LF2lCUcqEIm2yXV/ytmWbbLJJOIG70UYbZYqDa+Ouz5oWrue9xo4d23BemzxZYoklgscffzzYd999w93KXcw3joPf6ZcQB3nkYud9Wvhm9KdI02STTRadFd1CXJmYffbZg7///e/BAQccEJ3Jh4mf8kg5so0wXPKUz2aQVTbkBaUpdXeNNdYIj335kSaPSO9BBx0U7mw+99xzR2f96PuLRkmqH/xm90nivnG9OAy+PknSvT5MGn7xi18E//jHP4JFFlkkPE6L/Q4oPOkDoGxuh/K76KKLBo888kiw5ZZbRmfSEZeHe++9dzBu3LhggQUWiM70xb73nXfeSa2EzfrdkjB5X2Sc7YKUsG2GKWSvvPJK8O6774Z/2yy88MKZZz6bCVa6Jn0fffRR8Nhjj4V/+8gj1LhnscUWC4Ur1qorrLBC9Et2iItZrq222ioUtAiY7bbbrhDrlySIh3z58MMPw2O+KZawhqKeI4RIpl5dS9vo29cZxQYWgnkUOLPOOmtwwQUXBOPHjw9lUzd2PEQ22r180SbTmWcwNnjw4PAcdStL3Nz35JNPBiNGjKirXMgKabHreto2lrxmsvSqq67KrYwljlGjRoUKmJ/+9KfR2b7UyyvzO3lz/fXXh4pqFMVYIWX9hqSJ/hP9KL6d6E6SygVKjlNPPTX417/+1VOOsoJy4tlnnw3LI4o9iKtbblrS1sFugrqL8vPGG2/MrBzi++y5557Bf/7zn+CUU05JNXGm7y+agemTYL3qayeTvjW/mT7J22+/3XCfxL4XpSVj7TPOOCN8RlqoG4ccckjYH+HdwI63qLJrx5M2zplmmilUVNt9rXrYcVPPf/Ob3wRvvPFGmC+sOkrCvte2GK5HUXnU7UxSzSjllCgMihPWquecc054vPXWWweXXXaZ1/KjKDCRZwBI5+a+++4LOykIczDFG8EzxxxzhJ0ghOoqq6wSDBw4MDzXbEjT0KFDg4svvjg8pmOFm4VGGh4hRPtBXX/99ddD2cTSwUcffTT4+OOPwwBM+DB4YRIGa/h11lknnMSSLBBpaNfyRZuMgo8luKTrvffeC5W+Btrd2WabLbTsJF20xVNOOWX060R4t3aqB6SHd0B5iVsA3u+TTz7pyWvgvbDmGTRoULDBBhuE/QyzJJL7oeh3+vrrr4OnnnoqXH5Juuj/kM7vvvsu/J3BJwM3X5qEMFCOHnjggeCOO+4I+9Gs1sIwYcKECeHvlKM555wzsc6KbCC7kZHUW5RFyBJkJ5DfyBMsZ6m3uA9gHFWWTNT3F0VAu4OCr16f5Gc/+1mw7rrrhn0SltrnmQRIC23v//73v+Cf//xnMHz48DBdrNQ1SkWejdXraqutFrod4P84Y6x249NPPw2t4pEhGJP5+lrkL/m84YYbBksuuWTHvFt/QEpYUTgIAxppihYDPgQDjXd/ViyQF+b9GSSttNJKYQdsiimmCO69997EZTxCiP6HLTOEKBqVLyEESBb0b/T9hehcVH87F7kjEIWDQtGY8KNoHDNmTL8XEPb7kx/kCzDjFucQWwjRf1GnSpSJypcQAiQL+jf6/qIRUAIWRZFx9Rfi6q/ysv2RElYUgl3ZWeqGw2fDdddd17Okpb9i8oclEeSHAafmaXw7CSGEEKLzaIfBkAZkokhUnvo3+v7C4FMCmvKRVE58vzVzQqBby7B5L5OX3fqe3YCUsKIQXMGJrxd2A4WRI0cGDz/8cPh3f8XkD07w8SkHWAuvtdZa4d8+JDiF6C5Up0WZtKp89fdybb+/Ly+aObBMg+SQaJR2K9OdSlJdrCdXWom+v0jClA/+p+z6ym+ry1C3lOF6skF1tX2RElaUwswzzxzsu+++4d/ffPNNcMUVV7RdJ6LZ8P7nnXdeuJkH7LPPPmE+2dh5JMEpRHehOi3KpFXlK81zu7n95/3N+7VrHbfT1a5pFKK/kVQXfXW2v4+jROdB2W1Vm9Mf6oubt63Ka5EdKWFFaWy88cbhjrxwzTXXhLsRNot2FLy8P/kAWMCSPy4SnkJ0DxowiTJpl/KVJh3d3rb53k/1XwhRJBojiE6nme2i6otoZ6SEFYVhC1b+/sEPfhAcd9xxwRRTTBF88MEHwd/+9remCd8kwUsamtkIAM8799xzw3wgP4488sgwf4QQ3Ys6gKJM2qV81WtvfdRrg5vdRpeB6r/oRKh73VD/OpF2yHt9f9Eobvmxj0272OwypjIt2g0pYUVh2AMO8/fAgQODgw8+OPwbJeSYMWPCv1sJaWv24OiBBx4IldBwyCGHhPkihBBCdDNxbW29NrjZbbQQYiKt6COLibRD3uv7i0Zxy4+vPDW7jKlMi3ZjkoqmBkTJfPrpp8GGG24YKmDXWGONYMSIEcH0008f/TpxdqobhaN5L95/s802CzfkWnnllcONyuz3F0IIIYQQQgghhBDdjSxhRemgcDz11FODGWaYIVREsjmVrfvvdAVs3DwG78Vv559/fvjevP9pp50mBawQQgghhBBCCCFEP0OWsKJpYAG75ZZbBlNOOWVwzz33BD//+c+jX7qXcePGBauvvnrw9ddfh5tybb755tEvQgghhBBCCCGEEKK/IEtY0TQ23XTT4MQTTwy+/PLLYPvttw9ef/316JfuhPfbYYcdwvflvXFJIIQQQgghhBBCCCH6H1LCiqbB8vwDDjggOOGEE4KXXnoptAr9z3/+E/3aPWBcjh/YXXbZJXxP3pf37ka/t0IIIYQQQgghhBCiPnJHIJrOhAkTQt+ohxxyiHejrk7H3ojr5JNPDhWwk002WfSrEEIIIYQQQgghhOhvyBJWNB0UkgcddFBw1VVXBf/4xz+C3/3ud6FithvgPXgf3uumm24K31MKWCGEEEIIIYQQQoj+jSxhRUsZP3588NFHHwWLL754dKbzee6554IZZ5wxmGOOOaIzQgghhBBCCCGEEKI/IyWsEEIIIYQQQgghhBBClIjcEQhRAJrLEEIIIYQQQgghhBBxSAkrRAFMMskk0V9CCCGEEEIIIYQQQtQiJawQQgghhBBCCCGEEEKUiJSwQgghhBBCCCGEEEIIUSJSwgohhBBCCCGEEEIIIUSJSAkrhBBCCCGEEEIIIYQQJSIlrBBCCCGEEEIIIYQQQpSIlLBCCCGEEEIIIYQQQghRIlLCCiGEEEIIIYQQQgghRIlICSuEEEIIIYQQQgghhBAlIiWsEEIIIYQQQgghhBBClIiUsEIIIYQQQgghhBBCCFEiUsIKIYQQQgghhBBCCCFEiUgJK4QQQgghhBBCCCGEECUyaaVSif4UQgghhBBCCCGEEEII4YIOtRE96qSTTDJJQxEIIYQQQgghhBBCCCFEN4MOlQB5dKmTVG+SBlYIIYQQQgghhBBCCCFKQj5hhRBCCCGEEEIIIYQQIiWFWMJOmDBB7gmEEEIIIYQQQgghhBAiBuOeYNJJ09m49lHCbrTRRsHIkSPDv+UvVgghhBBCCCGEEEIIIfoybNiwYOjQodFRMrGqWilghRBCCCGEEEIIIYQQonFqlLC20lUKWCGEEEIIIYQQQgghhGicHiUsSlesX4UQQgghhBBCCCGEEEJMJElnmtaQtUcJKwWsEEIIIYQQQgghhBBC1JKkaE2rU03cvkuKWSGEEEIIIYQQQgghhGiMRCWs/MIKIYQQQgghhBBCCCFEYyQqYYUQQgghhBBCCCGEEEI0hpSwQgghhBBCCCGEEEIIkYO0ngQmqV4YXsl/+ID9zW9+E9xzzz3hj0IIIYQQQgghhBBCCCF69afm7+OPPz7YbLPNwuN69ChhhRBCCCGEEEIIIYQQQqTDVsrWQ+4IhBBCCCGEEEIIIYQQIiNpFbAgJawQQgghhBBCCCGEEEKUiJSwQgghhBBCCCGEEEIIUSJSwgohhBBCCCGEEEIIIUSJSAkrhBBCCCGEEEIIIYQQJSIlrBBCCCGEEEIIIYQQQpSIlLBCCCGEEEIIIYQQQghRGkHw/0qS7pYvXZpaAAAAAElFTkSuQmCC;" vertex="1" parent="1">
          <mxGeometry x="250" y="310" width="1377" height="523" as="geometry" />
        </mxCell>
      </root>
    </mxGraphModel>
  </diagram>
</mxfile>
